<svg width="414" height="896" viewBox="0 0 414 896" fill="none" xmlns="http://www.w3.org/2000/svg">
<rect width="414" height="896" rx="20" fill="#EEF9FA"/>
<path d="M288.051 31.2129L284.184 43H281.068L286.352 28.7812H288.334L288.051 31.2129ZM291.264 43L287.387 31.2129L287.074 28.7812H289.076L294.389 43H291.264ZM291.088 37.707V40.002H283.578V37.707H291.088ZM298.5 28V43H295.678V28H298.5ZM303.637 34.4648V47.0625H300.824V32.4336H303.432L303.637 34.4648ZM310.326 37.5996V37.8047C310.326 38.5729 310.235 39.2858 310.053 39.9434C309.877 40.6009 309.617 41.1738 309.271 41.6621C308.926 42.1439 308.497 42.5215 307.982 42.7949C307.475 43.0618 306.889 43.1953 306.225 43.1953C305.58 43.1953 305.02 43.0651 304.545 42.8047C304.07 42.5443 303.669 42.1797 303.344 41.7109C303.025 41.2357 302.768 40.6855 302.572 40.0605C302.377 39.4355 302.227 38.765 302.123 38.0488V37.5117C302.227 36.7435 302.377 36.0404 302.572 35.4023C302.768 34.7578 303.025 34.2012 303.344 33.7324C303.669 33.2572 304.066 32.8893 304.535 32.6289C305.01 32.3685 305.567 32.2383 306.205 32.2383C306.876 32.2383 307.465 32.3652 307.973 32.6191C308.487 32.873 308.917 33.2376 309.262 33.7129C309.613 34.1882 309.877 34.7546 310.053 35.4121C310.235 36.0697 310.326 36.7988 310.326 37.5996ZM307.504 37.8047V37.5996C307.504 37.1504 307.465 36.737 307.387 36.3594C307.315 35.9753 307.198 35.64 307.035 35.3535C306.879 35.0671 306.671 34.8457 306.41 34.6895C306.156 34.5267 305.847 34.4453 305.482 34.4453C305.098 34.4453 304.77 34.5072 304.496 34.6309C304.229 34.7546 304.011 34.9336 303.842 35.168C303.673 35.4023 303.546 35.6823 303.461 36.0078C303.376 36.3333 303.324 36.7012 303.305 37.1113V38.4688C303.337 38.9505 303.428 39.3835 303.578 39.7676C303.728 40.1452 303.959 40.4447 304.271 40.666C304.584 40.8874 304.994 40.998 305.502 40.998C305.873 40.998 306.186 40.9167 306.439 40.7539C306.693 40.5846 306.898 40.3535 307.055 40.0605C307.217 39.7676 307.331 39.429 307.396 39.0449C307.468 38.6608 307.504 38.2474 307.504 37.8047ZM314.818 28V43H312.006V28H314.818ZM314.418 37.3457H313.646C313.653 36.61 313.751 35.9329 313.939 35.3145C314.128 34.6895 314.398 34.1491 314.75 33.6934C315.102 33.2311 315.521 32.873 316.01 32.6191C316.505 32.3652 317.051 32.2383 317.65 32.2383C318.171 32.2383 318.643 32.3132 319.066 32.4629C319.496 32.6061 319.864 32.8405 320.17 33.166C320.482 33.485 320.723 33.9049 320.893 34.4258C321.062 34.9466 321.146 35.5781 321.146 36.3203V43H318.314V36.3008C318.314 35.832 318.246 35.4642 318.109 35.1973C317.979 34.9238 317.787 34.7318 317.533 34.6211C317.286 34.5039 316.98 34.4453 316.615 34.4453C316.212 34.4453 315.867 34.5202 315.58 34.6699C315.3 34.8197 315.076 35.028 314.906 35.2949C314.737 35.5553 314.613 35.8613 314.535 36.2129C314.457 36.5645 314.418 36.9421 314.418 37.3457ZM328.988 40.6172V35.9102C328.988 35.5716 328.933 35.2819 328.822 35.041C328.712 34.7936 328.539 34.6016 328.305 34.4648C328.077 34.3281 327.781 34.2598 327.416 34.2598C327.104 34.2598 326.833 34.3151 326.605 34.4258C326.378 34.5299 326.202 34.6829 326.078 34.8848C325.954 35.0801 325.893 35.3112 325.893 35.5781H323.08C323.08 35.1289 323.184 34.7025 323.393 34.2988C323.601 33.8952 323.904 33.5404 324.301 33.2344C324.698 32.9219 325.17 32.6777 325.717 32.502C326.27 32.3262 326.889 32.2383 327.572 32.2383C328.393 32.2383 329.122 32.375 329.76 32.6484C330.398 32.9219 330.899 33.332 331.264 33.8789C331.635 34.4258 331.82 35.1094 331.82 35.9297V40.4512C331.82 41.0306 331.856 41.5059 331.928 41.877C331.999 42.2415 332.104 42.5605 332.24 42.834V43H329.398C329.262 42.7135 329.158 42.3555 329.086 41.9258C329.021 41.4896 328.988 41.0534 328.988 40.6172ZM329.359 36.5645L329.379 38.1562H327.807C327.436 38.1562 327.113 38.1986 326.84 38.2832C326.566 38.3678 326.342 38.4883 326.166 38.6445C325.99 38.7943 325.86 38.9701 325.775 39.1719C325.697 39.3737 325.658 39.5951 325.658 39.8359C325.658 40.0768 325.714 40.2949 325.824 40.4902C325.935 40.679 326.094 40.8288 326.303 40.9395C326.511 41.0436 326.755 41.0957 327.035 41.0957C327.458 41.0957 327.826 41.0111 328.139 40.8418C328.451 40.6725 328.692 40.4642 328.861 40.2168C329.037 39.9694 329.128 39.735 329.135 39.5137L329.877 40.7051C329.773 40.972 329.63 41.2487 329.447 41.5352C329.271 41.8216 329.047 42.0918 328.773 42.3457C328.5 42.5931 328.171 42.7982 327.787 42.9609C327.403 43.1172 326.947 43.1953 326.42 43.1953C325.749 43.1953 325.141 43.0618 324.594 42.7949C324.053 42.5215 323.624 42.1471 323.305 41.6719C322.992 41.1901 322.836 40.6432 322.836 40.0312C322.836 39.4779 322.94 38.9863 323.148 38.5566C323.357 38.127 323.663 37.7656 324.066 37.4727C324.477 37.1732 324.988 36.9486 325.6 36.7988C326.212 36.6426 326.921 36.5645 327.729 36.5645H329.359ZM343.305 40.7148V43H336.146V40.7148H343.305ZM337.094 28.7812V43H334.164V28.7812H337.094ZM344.359 37.8242V37.6191C344.359 36.8444 344.47 36.1315 344.691 35.4805C344.913 34.8229 345.235 34.2533 345.658 33.7715C346.081 33.2897 346.602 32.9154 347.221 32.6484C347.839 32.375 348.549 32.2383 349.35 32.2383C350.15 32.2383 350.863 32.375 351.488 32.6484C352.113 32.9154 352.637 33.2897 353.061 33.7715C353.49 34.2533 353.816 34.8229 354.037 35.4805C354.258 36.1315 354.369 36.8444 354.369 37.6191V37.8242C354.369 38.5924 354.258 39.3053 354.037 39.9629C353.816 40.6139 353.49 41.1836 353.061 41.6719C352.637 42.1536 352.117 42.528 351.498 42.7949C350.88 43.0618 350.17 43.1953 349.369 43.1953C348.568 43.1953 347.855 43.0618 347.23 42.7949C346.612 42.528 346.088 42.1536 345.658 41.6719C345.235 41.1836 344.913 40.6139 344.691 39.9629C344.47 39.3053 344.359 38.5924 344.359 37.8242ZM347.172 37.6191V37.8242C347.172 38.2669 347.211 38.6803 347.289 39.0645C347.367 39.4486 347.491 39.7871 347.66 40.0801C347.836 40.3665 348.064 40.5911 348.344 40.7539C348.624 40.9167 348.965 40.998 349.369 40.998C349.76 40.998 350.095 40.9167 350.375 40.7539C350.655 40.5911 350.88 40.3665 351.049 40.0801C351.218 39.7871 351.342 39.4486 351.42 39.0645C351.505 38.6803 351.547 38.2669 351.547 37.8242V37.6191C351.547 37.1895 351.505 36.7858 351.42 36.4082C351.342 36.0241 351.215 35.6855 351.039 35.3926C350.87 35.0931 350.645 34.8587 350.365 34.6895C350.085 34.5202 349.747 34.4355 349.35 34.4355C348.952 34.4355 348.614 34.5202 348.334 34.6895C348.061 34.8587 347.836 35.0931 347.66 35.3926C347.491 35.6855 347.367 36.0241 347.289 36.4082C347.211 36.7858 347.172 37.1895 347.172 37.6191ZM361.801 40.6172V35.9102C361.801 35.5716 361.745 35.2819 361.635 35.041C361.524 34.7936 361.352 34.6016 361.117 34.4648C360.889 34.3281 360.593 34.2598 360.229 34.2598C359.916 34.2598 359.646 34.3151 359.418 34.4258C359.19 34.5299 359.014 34.6829 358.891 34.8848C358.767 35.0801 358.705 35.3112 358.705 35.5781H355.893C355.893 35.1289 355.997 34.7025 356.205 34.2988C356.413 33.8952 356.716 33.5404 357.113 33.2344C357.51 32.9219 357.982 32.6777 358.529 32.502C359.083 32.3262 359.701 32.2383 360.385 32.2383C361.205 32.2383 361.934 32.375 362.572 32.6484C363.21 32.9219 363.712 33.332 364.076 33.8789C364.447 34.4258 364.633 35.1094 364.633 35.9297V40.4512C364.633 41.0306 364.669 41.5059 364.74 41.877C364.812 42.2415 364.916 42.5605 365.053 42.834V43H362.211C362.074 42.7135 361.97 42.3555 361.898 41.9258C361.833 41.4896 361.801 41.0534 361.801 40.6172ZM362.172 36.5645L362.191 38.1562H360.619C360.248 38.1562 359.926 38.1986 359.652 38.2832C359.379 38.3678 359.154 38.4883 358.979 38.6445C358.803 38.7943 358.673 38.9701 358.588 39.1719C358.51 39.3737 358.471 39.5951 358.471 39.8359C358.471 40.0768 358.526 40.2949 358.637 40.4902C358.747 40.679 358.907 40.8288 359.115 40.9395C359.324 41.0436 359.568 41.0957 359.848 41.0957C360.271 41.0957 360.639 41.0111 360.951 40.8418C361.264 40.6725 361.505 40.4642 361.674 40.2168C361.85 39.9694 361.941 39.735 361.947 39.5137L362.689 40.7051C362.585 40.972 362.442 41.2487 362.26 41.5352C362.084 41.8216 361.859 42.0918 361.586 42.3457C361.312 42.5931 360.984 42.7982 360.6 42.9609C360.215 43.1172 359.76 43.1953 359.232 43.1953C358.562 43.1953 357.953 43.0618 357.406 42.7949C356.866 42.5215 356.436 42.1471 356.117 41.6719C355.805 41.1901 355.648 40.6432 355.648 40.0312C355.648 39.4779 355.753 38.9863 355.961 38.5566C356.169 38.127 356.475 37.7656 356.879 37.4727C357.289 37.1732 357.8 36.9486 358.412 36.7988C359.024 36.6426 359.734 36.5645 360.541 36.5645H362.172ZM369.555 34.6895V43H366.742V32.4336H369.379L369.555 34.6895ZM369.145 37.3457H368.383C368.383 36.5645 368.484 35.8613 368.686 35.2363C368.887 34.6048 369.171 34.0677 369.535 33.625C369.9 33.1758 370.333 32.834 370.834 32.5996C371.342 32.3587 371.908 32.2383 372.533 32.2383C373.028 32.2383 373.48 32.3099 373.891 32.4531C374.301 32.5964 374.652 32.8242 374.945 33.1367C375.245 33.4492 375.473 33.8626 375.629 34.377C375.792 34.8913 375.873 35.5195 375.873 36.2617V43H373.041V36.252C373.041 35.7832 372.976 35.4186 372.846 35.1582C372.715 34.8978 372.523 34.7155 372.27 34.6113C372.022 34.5007 371.716 34.4453 371.352 34.4453C370.974 34.4453 370.645 34.5202 370.365 34.6699C370.092 34.8197 369.864 35.028 369.682 35.2949C369.506 35.5553 369.372 35.8613 369.281 36.2129C369.19 36.5645 369.145 36.9421 369.145 37.3457Z" fill="black"/>
<g filter="url(#filter0_d_29_4171)">
<path d="M28.1094 24C21.4214 24 16 29.4214 16 36.1094C16 42.7974 21.4214 48.2188 28.1094 48.2188C34.7974 48.2188 40.2188 42.7974 40.2188 36.1094C40.2188 29.4214 34.7974 24 28.1094 24ZM28.1094 45.0938C23.144 45.0938 19.125 41.0757 19.125 36.1094C19.125 31.144 23.1431 27.125 28.1094 27.125C33.0747 27.125 37.0938 31.1431 37.0938 36.1094C37.0938 41.0747 33.0757 45.0938 28.1094 45.0938ZM28.1094 29.8594C24.6577 29.8594 21.8594 32.6577 21.8594 36.1094C21.8594 39.561 24.6577 42.3594 28.1094 42.3594C31.561 42.3594 34.3594 39.561 34.3594 36.1094C34.3594 32.6577 31.561 29.8594 28.1094 29.8594ZM28.1094 39.2344C26.3862 39.2344 24.9844 37.8325 24.9844 36.1094C24.9844 34.3862 26.3862 32.9844 28.1094 32.9844C29.8325 32.9844 31.2344 34.3862 31.2344 36.1094C31.2344 37.8325 29.8325 39.2344 28.1094 39.2344Z" fill="url(#paint0_linear_29_4171)" shape-rendering="crispEdges"/>
</g>
<rect x="31" y="816" width="354" height="56" rx="20" fill="#256BF4"/>
<path d="M161.268 847.425H165.647C165.56 848.86 165.164 850.135 164.461 851.248C163.768 852.361 162.796 853.23 161.546 853.855C160.306 854.48 158.812 854.793 157.063 854.793C155.696 854.793 154.471 854.559 153.387 854.09C152.303 853.611 151.375 852.928 150.604 852.039C149.842 851.15 149.261 850.076 148.86 848.816C148.46 847.557 148.26 846.146 148.26 844.583V843.104C148.26 841.541 148.465 840.13 148.875 838.87C149.295 837.601 149.891 836.521 150.662 835.633C151.443 834.744 152.376 834.061 153.46 833.582C154.544 833.104 155.755 832.864 157.093 832.864C158.87 832.864 160.369 833.187 161.59 833.831C162.82 834.476 163.772 835.364 164.446 836.497C165.13 837.63 165.54 838.919 165.677 840.364H161.282C161.233 839.505 161.062 838.777 160.77 838.182C160.477 837.576 160.032 837.122 159.437 836.819C158.851 836.507 158.069 836.351 157.093 836.351C156.36 836.351 155.721 836.487 155.174 836.761C154.627 837.034 154.168 837.449 153.797 838.006C153.426 838.562 153.147 839.266 152.962 840.115C152.786 840.955 152.698 841.941 152.698 843.074V844.583C152.698 845.687 152.781 846.658 152.947 847.498C153.113 848.328 153.367 849.031 153.709 849.607C154.061 850.174 154.51 850.604 155.057 850.896C155.613 851.18 156.282 851.321 157.063 851.321C157.981 851.321 158.738 851.175 159.334 850.882C159.93 850.589 160.384 850.154 160.696 849.578C161.019 849.002 161.209 848.284 161.268 847.425ZM167.596 846.736V846.429C167.596 845.267 167.762 844.197 168.094 843.221C168.426 842.234 168.909 841.38 169.544 840.657C170.179 839.935 170.96 839.373 171.888 838.973C172.815 838.562 173.88 838.357 175.081 838.357C176.282 838.357 177.352 838.562 178.289 838.973C179.227 839.373 180.013 839.935 180.647 840.657C181.292 841.38 181.78 842.234 182.112 843.221C182.444 844.197 182.61 845.267 182.61 846.429V846.736C182.61 847.889 182.444 848.958 182.112 849.944C181.78 850.921 181.292 851.775 180.647 852.508C180.013 853.23 179.231 853.792 178.304 854.192C177.376 854.593 176.312 854.793 175.11 854.793C173.909 854.793 172.84 854.593 171.902 854.192C170.975 853.792 170.188 853.23 169.544 852.508C168.909 851.775 168.426 850.921 168.094 849.944C167.762 848.958 167.596 847.889 167.596 846.736ZM171.814 846.429V846.736C171.814 847.4 171.873 848.021 171.99 848.597C172.107 849.173 172.293 849.681 172.547 850.12C172.811 850.55 173.152 850.887 173.572 851.131C173.992 851.375 174.505 851.497 175.11 851.497C175.696 851.497 176.199 851.375 176.619 851.131C177.039 850.887 177.376 850.55 177.63 850.12C177.884 849.681 178.069 849.173 178.187 848.597C178.313 848.021 178.377 847.4 178.377 846.736V846.429C178.377 845.784 178.313 845.179 178.187 844.612C178.069 844.036 177.879 843.528 177.615 843.089C177.361 842.64 177.024 842.288 176.604 842.034C176.185 841.78 175.677 841.653 175.081 841.653C174.485 841.653 173.978 841.78 173.558 842.034C173.147 842.288 172.811 842.64 172.547 843.089C172.293 843.528 172.107 844.036 171.99 844.612C171.873 845.179 171.814 845.784 171.814 846.429ZM189.334 842.034V854.5H185.115V838.65H189.07L189.334 842.034ZM188.719 846.019H187.576C187.576 844.847 187.728 843.792 188.03 842.854C188.333 841.907 188.758 841.102 189.305 840.438C189.852 839.764 190.501 839.251 191.253 838.899C192.015 838.538 192.864 838.357 193.802 838.357C194.544 838.357 195.223 838.465 195.838 838.68C196.453 838.895 196.98 839.236 197.42 839.705C197.869 840.174 198.211 840.794 198.445 841.565C198.689 842.337 198.812 843.279 198.812 844.393V854.5H194.563V844.378C194.563 843.675 194.466 843.128 194.271 842.737C194.075 842.347 193.787 842.073 193.406 841.917C193.035 841.751 192.576 841.668 192.029 841.668C191.463 841.668 190.97 841.78 190.55 842.005C190.14 842.229 189.798 842.542 189.524 842.942C189.261 843.333 189.061 843.792 188.924 844.319C188.787 844.847 188.719 845.413 188.719 846.019ZM209.783 838.65V841.639H200.555V838.65H209.783ZM202.84 834.739H207.059V849.725C207.059 850.184 207.117 850.535 207.234 850.779C207.361 851.023 207.547 851.194 207.791 851.292C208.035 851.38 208.343 851.424 208.714 851.424C208.978 851.424 209.212 851.414 209.417 851.395C209.632 851.365 209.812 851.336 209.959 851.307L209.974 854.412C209.612 854.529 209.222 854.622 208.802 854.69C208.382 854.759 207.918 854.793 207.41 854.793C206.482 854.793 205.672 854.642 204.979 854.339C204.295 854.026 203.768 853.528 203.396 852.845C203.025 852.161 202.84 851.263 202.84 850.149V834.739ZM216.639 838.65V854.5H212.405V838.65H216.639ZM212.142 834.52C212.142 833.904 212.356 833.396 212.786 832.996C213.216 832.596 213.792 832.396 214.515 832.396C215.228 832.396 215.799 832.596 216.229 832.996C216.668 833.396 216.888 833.904 216.888 834.52C216.888 835.135 216.668 835.643 216.229 836.043C215.799 836.443 215.228 836.644 214.515 836.644C213.792 836.644 213.216 836.443 212.786 836.043C212.356 835.643 212.142 835.135 212.142 834.52ZM224.256 842.034V854.5H220.037V838.65H223.992L224.256 842.034ZM223.641 846.019H222.498C222.498 844.847 222.649 843.792 222.952 842.854C223.255 841.907 223.68 841.102 224.227 840.438C224.773 839.764 225.423 839.251 226.175 838.899C226.937 838.538 227.786 838.357 228.724 838.357C229.466 838.357 230.145 838.465 230.76 838.68C231.375 838.895 231.902 839.236 232.342 839.705C232.791 840.174 233.133 840.794 233.367 841.565C233.611 842.337 233.733 843.279 233.733 844.393V854.5H229.485V844.378C229.485 843.675 229.388 843.128 229.192 842.737C228.997 842.347 228.709 842.073 228.328 841.917C227.957 841.751 227.498 841.668 226.951 841.668C226.385 841.668 225.892 841.78 225.472 842.005C225.062 842.229 224.72 842.542 224.446 842.942C224.183 843.333 223.982 843.792 223.846 844.319C223.709 844.847 223.641 845.413 223.641 846.019ZM246.316 850.706V838.65H250.535V854.5H246.565L246.316 850.706ZM246.785 847.454L248.03 847.425C248.03 848.479 247.908 849.461 247.664 850.369C247.42 851.268 247.054 852.049 246.565 852.713C246.077 853.367 245.462 853.88 244.72 854.251C243.978 854.612 243.104 854.793 242.098 854.793C241.326 854.793 240.613 854.686 239.959 854.471C239.314 854.246 238.758 853.899 238.289 853.431C237.83 852.952 237.469 852.342 237.205 851.6C236.951 850.848 236.824 849.944 236.824 848.89V838.65H241.043V848.919C241.043 849.388 241.097 849.783 241.204 850.105C241.321 850.428 241.482 850.691 241.688 850.896C241.893 851.102 242.132 851.248 242.405 851.336C242.688 851.424 243.001 851.468 243.343 851.468C244.212 851.468 244.896 851.292 245.394 850.94C245.901 850.589 246.258 850.11 246.463 849.505C246.678 848.89 246.785 848.206 246.785 847.454ZM261.053 854.793C259.822 854.793 258.719 854.598 257.742 854.207C256.766 853.807 255.936 853.255 255.252 852.552C254.578 851.849 254.061 851.033 253.699 850.105C253.338 849.168 253.157 848.172 253.157 847.117V846.531C253.157 845.33 253.328 844.231 253.67 843.235C254.012 842.239 254.5 841.375 255.135 840.643C255.779 839.91 256.561 839.349 257.479 838.958C258.396 838.558 259.432 838.357 260.584 838.357C261.707 838.357 262.703 838.543 263.572 838.914C264.441 839.285 265.169 839.812 265.755 840.496C266.351 841.18 266.8 842 267.103 842.957C267.405 843.904 267.557 844.959 267.557 846.121V847.879H254.959V845.066H263.411V844.744C263.411 844.158 263.304 843.636 263.089 843.177C262.884 842.708 262.571 842.337 262.151 842.063C261.731 841.79 261.194 841.653 260.54 841.653C259.983 841.653 259.505 841.775 259.104 842.02C258.704 842.264 258.377 842.605 258.123 843.045C257.879 843.484 257.693 844.002 257.566 844.598C257.449 845.184 257.391 845.828 257.391 846.531V847.117C257.391 847.752 257.479 848.338 257.654 848.875C257.84 849.412 258.099 849.876 258.431 850.267C258.772 850.657 259.183 850.96 259.661 851.175C260.149 851.39 260.701 851.497 261.316 851.497C262.078 851.497 262.786 851.351 263.44 851.058C264.104 850.755 264.676 850.301 265.154 849.695L267.205 851.922C266.873 852.4 266.419 852.859 265.843 853.299C265.276 853.738 264.593 854.1 263.792 854.383C262.991 854.656 262.078 854.793 261.053 854.793Z" fill="#FFFCFC"/>
<path d="M87.0801 601.783L80.1191 623H74.5117L84.0215 597.406H87.5898L87.0801 601.783ZM92.8633 623L85.8848 601.783L85.3223 597.406H88.9258L98.4883 623H92.8633ZM92.5469 613.473V617.604H79.0293V613.473H92.5469ZM108.402 619.396C109.023 619.396 109.574 619.279 110.055 619.045C110.535 618.799 110.91 618.459 111.18 618.025C111.461 617.58 111.607 617.059 111.619 616.461H116.383C116.371 617.797 116.014 618.986 115.311 620.029C114.607 621.061 113.664 621.875 112.48 622.473C111.297 623.059 109.973 623.352 108.508 623.352C107.031 623.352 105.742 623.105 104.641 622.613C103.551 622.121 102.643 621.441 101.916 620.574C101.189 619.695 100.645 618.676 100.281 617.516C99.918 616.344 99.7363 615.09 99.7363 613.754V613.244C99.7363 611.896 99.918 610.643 100.281 609.482C100.645 608.311 101.189 607.291 101.916 606.424C102.643 605.545 103.551 604.859 104.641 604.367C105.73 603.875 107.008 603.629 108.473 603.629C110.031 603.629 111.396 603.928 112.568 604.525C113.752 605.123 114.678 605.979 115.346 607.092C116.025 608.193 116.371 609.5 116.383 611.012H111.619C111.607 610.379 111.473 609.805 111.215 609.289C110.969 608.773 110.605 608.363 110.125 608.059C109.656 607.742 109.076 607.584 108.385 607.584C107.646 607.584 107.043 607.742 106.574 608.059C106.105 608.363 105.742 608.785 105.484 609.324C105.227 609.852 105.045 610.455 104.939 611.135C104.846 611.803 104.799 612.506 104.799 613.244V613.754C104.799 614.492 104.846 615.201 104.939 615.881C105.033 616.561 105.209 617.164 105.467 617.691C105.736 618.219 106.105 618.635 106.574 618.939C107.043 619.244 107.652 619.396 108.402 619.396ZM127.176 619.396C127.797 619.396 128.348 619.279 128.828 619.045C129.309 618.799 129.684 618.459 129.953 618.025C130.234 617.58 130.381 617.059 130.393 616.461H135.156C135.145 617.797 134.787 618.986 134.084 620.029C133.381 621.061 132.438 621.875 131.254 622.473C130.07 623.059 128.746 623.352 127.281 623.352C125.805 623.352 124.516 623.105 123.414 622.613C122.324 622.121 121.416 621.441 120.689 620.574C119.963 619.695 119.418 618.676 119.055 617.516C118.691 616.344 118.51 615.09 118.51 613.754V613.244C118.51 611.896 118.691 610.643 119.055 609.482C119.418 608.311 119.963 607.291 120.689 606.424C121.416 605.545 122.324 604.859 123.414 604.367C124.504 603.875 125.781 603.629 127.246 603.629C128.805 603.629 130.17 603.928 131.342 604.525C132.525 605.123 133.451 605.979 134.119 607.092C134.799 608.193 135.145 609.5 135.156 611.012H130.393C130.381 610.379 130.246 609.805 129.988 609.289C129.742 608.773 129.379 608.363 128.898 608.059C128.43 607.742 127.85 607.584 127.158 607.584C126.42 607.584 125.816 607.742 125.348 608.059C124.879 608.363 124.516 608.785 124.258 609.324C124 609.852 123.818 610.455 123.713 611.135C123.619 611.803 123.572 612.506 123.572 613.244V613.754C123.572 614.492 123.619 615.201 123.713 615.881C123.807 616.561 123.982 617.164 124.24 617.691C124.51 618.219 124.879 618.635 125.348 618.939C125.816 619.244 126.426 619.396 127.176 619.396ZM137.283 613.684V613.314C137.283 611.92 137.482 610.637 137.881 609.465C138.279 608.281 138.859 607.256 139.621 606.389C140.383 605.521 141.32 604.848 142.434 604.367C143.547 603.875 144.824 603.629 146.266 603.629C147.707 603.629 148.99 603.875 150.115 604.367C151.24 604.848 152.184 605.521 152.945 606.389C153.719 607.256 154.305 608.281 154.703 609.465C155.102 610.637 155.301 611.92 155.301 613.314V613.684C155.301 615.066 155.102 616.35 154.703 617.533C154.305 618.705 153.719 619.73 152.945 620.609C152.184 621.477 151.246 622.15 150.133 622.631C149.02 623.111 147.742 623.352 146.301 623.352C144.859 623.352 143.576 623.111 142.451 622.631C141.338 622.15 140.395 621.477 139.621 620.609C138.859 619.73 138.279 618.705 137.881 617.533C137.482 616.35 137.283 615.066 137.283 613.684ZM142.346 613.314V613.684C142.346 614.48 142.416 615.225 142.557 615.916C142.697 616.607 142.92 617.217 143.225 617.744C143.541 618.26 143.951 618.664 144.455 618.957C144.959 619.25 145.574 619.396 146.301 619.396C147.004 619.396 147.607 619.25 148.111 618.957C148.615 618.664 149.02 618.26 149.324 617.744C149.629 617.217 149.852 616.607 149.992 615.916C150.145 615.225 150.221 614.48 150.221 613.684V613.314C150.221 612.541 150.145 611.814 149.992 611.135C149.852 610.443 149.623 609.834 149.307 609.307C149.002 608.768 148.598 608.346 148.094 608.041C147.59 607.736 146.98 607.584 146.266 607.584C145.551 607.584 144.941 607.736 144.438 608.041C143.945 608.346 143.541 608.768 143.225 609.307C142.92 609.834 142.697 610.443 142.557 611.135C142.416 611.814 142.346 612.541 142.346 613.314ZM169.662 618.447V603.98H174.725V623H169.961L169.662 618.447ZM170.225 614.545L171.719 614.51C171.719 615.775 171.572 616.953 171.279 618.043C170.986 619.121 170.547 620.059 169.961 620.855C169.375 621.641 168.637 622.256 167.746 622.701C166.855 623.135 165.807 623.352 164.6 623.352C163.674 623.352 162.818 623.223 162.033 622.965C161.26 622.695 160.592 622.279 160.029 621.717C159.479 621.143 159.045 620.41 158.729 619.52C158.424 618.617 158.271 617.533 158.271 616.268V603.98H163.334V616.303C163.334 616.865 163.398 617.34 163.527 617.727C163.668 618.113 163.861 618.43 164.107 618.676C164.354 618.922 164.641 619.098 164.969 619.203C165.309 619.309 165.684 619.361 166.094 619.361C167.137 619.361 167.957 619.15 168.555 618.729C169.164 618.307 169.592 617.732 169.838 617.006C170.096 616.268 170.225 615.447 170.225 614.545ZM183.549 608.041V623H178.486V603.98H183.232L183.549 608.041ZM182.811 612.822H181.439C181.439 611.416 181.621 610.15 181.984 609.025C182.348 607.889 182.857 606.922 183.514 606.125C184.17 605.316 184.949 604.701 185.852 604.279C186.766 603.846 187.785 603.629 188.91 603.629C189.801 603.629 190.615 603.758 191.354 604.016C192.092 604.273 192.725 604.684 193.252 605.246C193.791 605.809 194.201 606.553 194.482 607.479C194.775 608.404 194.922 609.535 194.922 610.871V623H189.824V610.854C189.824 610.01 189.707 609.354 189.473 608.885C189.238 608.416 188.893 608.088 188.436 607.9C187.99 607.701 187.439 607.602 186.783 607.602C186.104 607.602 185.512 607.736 185.008 608.006C184.516 608.275 184.105 608.65 183.777 609.131C183.461 609.6 183.221 610.15 183.057 610.783C182.893 611.416 182.811 612.096 182.811 612.822ZM208.088 603.98V607.566H197.014V603.98H208.088ZM199.756 599.287H204.818V617.27C204.818 617.82 204.889 618.242 205.029 618.535C205.182 618.828 205.404 619.033 205.697 619.15C205.99 619.256 206.359 619.309 206.805 619.309C207.121 619.309 207.402 619.297 207.648 619.273C207.906 619.238 208.123 619.203 208.299 619.168L208.316 622.895C207.883 623.035 207.414 623.146 206.91 623.229C206.406 623.311 205.85 623.352 205.24 623.352C204.127 623.352 203.154 623.17 202.322 622.807C201.502 622.432 200.869 621.834 200.424 621.014C199.979 620.193 199.756 619.115 199.756 617.779V599.287ZM230.658 601.783L223.697 623H218.09L227.6 597.406H231.168L230.658 601.783ZM236.441 623L229.463 601.783L228.9 597.406H232.504L242.066 623H236.441ZM236.125 613.473V617.604H222.607V613.473H236.125ZM249.467 596V623H244.387V596H249.467ZM258.713 608.129V623H253.65V603.98H258.414L258.713 608.129ZM264.443 603.857L264.355 608.551C264.109 608.516 263.811 608.486 263.459 608.463C263.119 608.428 262.809 608.41 262.527 608.41C261.812 608.41 261.191 608.504 260.664 608.691C260.148 608.867 259.715 609.131 259.363 609.482C259.023 609.834 258.766 610.262 258.59 610.766C258.426 611.27 258.332 611.844 258.309 612.488L257.289 612.172C257.289 610.941 257.412 609.811 257.658 608.779C257.904 607.736 258.262 606.828 258.73 606.055C259.211 605.281 259.797 604.684 260.488 604.262C261.18 603.84 261.971 603.629 262.861 603.629C263.143 603.629 263.43 603.652 263.723 603.699C264.016 603.734 264.256 603.787 264.443 603.857ZM275.236 623.352C273.76 623.352 272.436 623.117 271.264 622.648C270.092 622.168 269.096 621.506 268.275 620.662C267.467 619.818 266.846 618.84 266.412 617.727C265.979 616.602 265.762 615.406 265.762 614.141V613.438C265.762 611.996 265.967 610.678 266.377 609.482C266.787 608.287 267.373 607.25 268.135 606.371C268.908 605.492 269.846 604.818 270.947 604.35C272.049 603.869 273.291 603.629 274.674 603.629C276.021 603.629 277.217 603.852 278.26 604.297C279.303 604.742 280.176 605.375 280.879 606.195C281.594 607.016 282.133 608 282.496 609.148C282.859 610.285 283.041 611.551 283.041 612.945V615.055H267.924V611.68H278.066V611.293C278.066 610.59 277.938 609.963 277.68 609.412C277.434 608.85 277.059 608.404 276.555 608.076C276.051 607.748 275.406 607.584 274.621 607.584C273.953 607.584 273.379 607.73 272.898 608.023C272.418 608.316 272.025 608.727 271.721 609.254C271.428 609.781 271.205 610.402 271.053 611.117C270.912 611.82 270.842 612.594 270.842 613.438V614.141C270.842 614.902 270.947 615.605 271.158 616.25C271.381 616.895 271.691 617.451 272.09 617.92C272.5 618.389 272.992 618.752 273.566 619.01C274.152 619.268 274.814 619.396 275.553 619.396C276.467 619.396 277.316 619.221 278.102 618.869C278.898 618.506 279.584 617.961 280.158 617.234L282.619 619.906C282.221 620.48 281.676 621.031 280.984 621.559C280.305 622.086 279.484 622.52 278.523 622.859C277.562 623.188 276.467 623.352 275.236 623.352ZM296.189 618.711V610.238C296.189 609.629 296.09 609.107 295.891 608.674C295.691 608.229 295.381 607.883 294.959 607.637C294.549 607.391 294.016 607.268 293.359 607.268C292.797 607.268 292.311 607.367 291.9 607.566C291.49 607.754 291.174 608.029 290.951 608.393C290.729 608.744 290.617 609.16 290.617 609.641H285.555C285.555 608.832 285.742 608.064 286.117 607.338C286.492 606.611 287.037 605.973 287.752 605.422C288.467 604.859 289.316 604.42 290.301 604.104C291.297 603.787 292.41 603.629 293.641 603.629C295.117 603.629 296.43 603.875 297.578 604.367C298.727 604.859 299.629 605.598 300.285 606.582C300.953 607.566 301.287 608.797 301.287 610.273V618.412C301.287 619.455 301.352 620.311 301.48 620.979C301.609 621.635 301.797 622.209 302.043 622.701V623H296.928C296.682 622.484 296.494 621.84 296.365 621.066C296.248 620.281 296.189 619.496 296.189 618.711ZM296.857 611.416L296.893 614.281H294.062C293.395 614.281 292.814 614.357 292.322 614.51C291.83 614.662 291.426 614.879 291.109 615.16C290.793 615.43 290.559 615.746 290.406 616.109C290.266 616.473 290.195 616.871 290.195 617.305C290.195 617.738 290.295 618.131 290.494 618.482C290.693 618.822 290.98 619.092 291.355 619.291C291.73 619.479 292.17 619.572 292.674 619.572C293.436 619.572 294.098 619.42 294.66 619.115C295.223 618.811 295.656 618.436 295.961 617.99C296.277 617.545 296.441 617.123 296.453 616.725L297.789 618.869C297.602 619.35 297.344 619.848 297.016 620.363C296.699 620.879 296.295 621.365 295.803 621.822C295.311 622.268 294.719 622.637 294.027 622.93C293.336 623.211 292.516 623.352 291.566 623.352C290.359 623.352 289.264 623.111 288.279 622.631C287.307 622.139 286.533 621.465 285.959 620.609C285.396 619.742 285.115 618.758 285.115 617.656C285.115 616.66 285.303 615.775 285.678 615.002C286.053 614.229 286.604 613.578 287.33 613.051C288.068 612.512 288.988 612.107 290.09 611.838C291.191 611.557 292.469 611.416 293.922 611.416H296.857ZM316.422 618.852V596H321.52V623H316.932L316.422 618.852ZM304.398 613.719V613.35C304.398 611.896 304.562 610.578 304.891 609.395C305.219 608.199 305.699 607.174 306.332 606.318C306.965 605.463 307.744 604.801 308.67 604.332C309.596 603.863 310.65 603.629 311.834 603.629C312.947 603.629 313.92 603.863 314.752 604.332C315.596 604.801 316.311 605.469 316.896 606.336C317.494 607.191 317.975 608.205 318.338 609.377C318.701 610.537 318.965 611.809 319.129 613.191V614C318.965 615.324 318.701 616.555 318.338 617.691C317.975 618.828 317.494 619.824 316.896 620.68C316.311 621.523 315.596 622.18 314.752 622.648C313.908 623.117 312.924 623.352 311.799 623.352C310.615 623.352 309.561 623.111 308.635 622.631C307.721 622.15 306.947 621.477 306.314 620.609C305.693 619.742 305.219 618.723 304.891 617.551C304.562 616.379 304.398 615.102 304.398 613.719ZM309.461 613.35V613.719C309.461 614.504 309.52 615.236 309.637 615.916C309.766 616.596 309.971 617.199 310.252 617.727C310.545 618.242 310.92 618.646 311.377 618.939C311.846 619.221 312.414 619.361 313.082 619.361C313.949 619.361 314.664 619.168 315.227 618.781C315.789 618.383 316.217 617.838 316.51 617.146C316.814 616.455 316.99 615.658 317.037 614.756V612.453C317.002 611.715 316.896 611.053 316.721 610.467C316.557 609.869 316.311 609.359 315.982 608.938C315.666 608.516 315.268 608.188 314.787 607.953C314.318 607.719 313.762 607.602 313.117 607.602C312.461 607.602 311.898 607.754 311.43 608.059C310.961 608.352 310.58 608.756 310.287 609.271C310.006 609.787 309.795 610.396 309.654 611.1C309.525 611.791 309.461 612.541 309.461 613.35ZM331.117 620.855L336.162 603.98H341.594L333.947 625.865C333.783 626.346 333.561 626.861 333.279 627.412C333.01 627.963 332.641 628.484 332.172 628.977C331.715 629.48 331.135 629.891 330.432 630.207C329.74 630.523 328.891 630.682 327.883 630.682C327.402 630.682 327.01 630.652 326.705 630.594C326.4 630.535 326.037 630.453 325.615 630.348V626.639C325.744 626.639 325.879 626.639 326.02 626.639C326.16 626.65 326.295 626.656 326.424 626.656C327.092 626.656 327.637 626.58 328.059 626.428C328.48 626.275 328.82 626.041 329.078 625.725C329.336 625.42 329.541 625.021 329.693 624.529L331.117 620.855ZM329.008 603.98L333.139 617.762L333.859 623.123L330.414 623.492L323.576 603.98H329.008ZM184.234 665.352C182.758 665.352 181.434 665.117 180.262 664.648C179.09 664.168 178.094 663.506 177.273 662.662C176.465 661.818 175.844 660.84 175.41 659.727C174.977 658.602 174.76 657.406 174.76 656.141V655.438C174.76 653.996 174.965 652.678 175.375 651.482C175.785 650.287 176.371 649.25 177.133 648.371C177.906 647.492 178.844 646.818 179.945 646.35C181.047 645.869 182.289 645.629 183.672 645.629C185.02 645.629 186.215 645.852 187.258 646.297C188.301 646.742 189.174 647.375 189.877 648.195C190.592 649.016 191.131 650 191.494 651.148C191.857 652.285 192.039 653.551 192.039 654.945V657.055H176.922V653.68H187.064V653.293C187.064 652.59 186.936 651.963 186.678 651.412C186.432 650.85 186.057 650.404 185.553 650.076C185.049 649.748 184.404 649.584 183.619 649.584C182.951 649.584 182.377 649.73 181.896 650.023C181.416 650.316 181.023 650.727 180.719 651.254C180.426 651.781 180.203 652.402 180.051 653.117C179.91 653.82 179.84 654.594 179.84 655.438V656.141C179.84 656.902 179.945 657.605 180.156 658.25C180.379 658.895 180.689 659.451 181.088 659.92C181.498 660.389 181.99 660.752 182.564 661.01C183.15 661.268 183.812 661.396 184.551 661.396C185.465 661.396 186.314 661.221 187.1 660.869C187.896 660.506 188.582 659.961 189.156 659.234L191.617 661.906C191.219 662.48 190.674 663.031 189.982 663.559C189.303 664.086 188.482 664.52 187.521 664.859C186.561 665.188 185.465 665.352 184.234 665.352ZM199 645.98L202.146 651.764L205.381 645.98H210.777L205.398 655.279L211.023 665H205.609L202.182 658.883L198.754 665H193.34L198.965 655.279L193.586 645.98H199ZM218.582 645.98V665H213.502V645.98H218.582ZM213.186 641.023C213.186 640.285 213.443 639.676 213.959 639.195C214.475 638.715 215.166 638.475 216.033 638.475C216.889 638.475 217.574 638.715 218.09 639.195C218.617 639.676 218.881 640.285 218.881 641.023C218.881 641.762 218.617 642.371 218.09 642.852C217.574 643.332 216.889 643.572 216.033 643.572C215.166 643.572 214.475 643.332 213.959 642.852C213.443 642.371 213.186 641.762 213.186 641.023ZM233.049 659.744C233.049 659.381 232.943 659.053 232.732 658.76C232.521 658.467 232.129 658.197 231.555 657.951C230.992 657.693 230.178 657.459 229.111 657.248C228.15 657.037 227.254 656.773 226.422 656.457C225.602 656.129 224.887 655.736 224.277 655.279C223.68 654.822 223.211 654.283 222.871 653.662C222.531 653.029 222.361 652.309 222.361 651.5C222.361 650.703 222.531 649.953 222.871 649.25C223.223 648.547 223.721 647.926 224.365 647.387C225.021 646.836 225.818 646.408 226.756 646.104C227.705 645.787 228.771 645.629 229.955 645.629C231.607 645.629 233.025 645.893 234.209 646.42C235.404 646.947 236.318 647.674 236.951 648.6C237.596 649.514 237.918 650.557 237.918 651.729H232.855C232.855 651.236 232.75 650.797 232.539 650.41C232.34 650.012 232.023 649.701 231.59 649.479C231.168 649.244 230.617 649.127 229.938 649.127C229.375 649.127 228.889 649.227 228.479 649.426C228.068 649.613 227.752 649.871 227.529 650.199C227.318 650.516 227.213 650.867 227.213 651.254C227.213 651.547 227.271 651.811 227.389 652.045C227.518 652.268 227.723 652.473 228.004 652.66C228.285 652.848 228.648 653.023 229.094 653.188C229.551 653.34 230.113 653.48 230.781 653.609C232.152 653.891 233.377 654.26 234.455 654.717C235.533 655.162 236.389 655.771 237.021 656.545C237.654 657.307 237.971 658.309 237.971 659.551C237.971 660.395 237.783 661.168 237.408 661.871C237.033 662.574 236.494 663.189 235.791 663.717C235.088 664.232 234.244 664.637 233.26 664.93C232.287 665.211 231.191 665.352 229.973 665.352C228.203 665.352 226.703 665.035 225.473 664.402C224.254 663.77 223.328 662.967 222.695 661.994C222.074 661.01 221.764 660.002 221.764 658.971H226.562C226.586 659.662 226.762 660.219 227.09 660.641C227.43 661.062 227.857 661.367 228.373 661.555C228.9 661.742 229.469 661.836 230.078 661.836C230.734 661.836 231.279 661.748 231.713 661.572C232.146 661.385 232.475 661.139 232.697 660.834C232.932 660.518 233.049 660.154 233.049 659.744ZM250.574 645.98V649.566H239.5V645.98H250.574ZM242.242 641.287H247.305V659.27C247.305 659.82 247.375 660.242 247.516 660.535C247.668 660.828 247.891 661.033 248.184 661.15C248.477 661.256 248.846 661.309 249.291 661.309C249.607 661.309 249.889 661.297 250.135 661.273C250.393 661.238 250.609 661.203 250.785 661.168L250.803 664.895C250.369 665.035 249.9 665.146 249.396 665.229C248.893 665.311 248.336 665.352 247.727 665.352C246.613 665.352 245.641 665.17 244.809 664.807C243.988 664.432 243.355 663.834 242.91 663.014C242.465 662.193 242.242 661.115 242.242 659.779V641.287Z" fill="black"/>
<path d="M213 505.428C131.708 505.428 65.5713 439.292 65.5713 357.999C65.5713 276.709 131.708 210.573 213 210.573C294.291 210.573 360.427 276.709 360.427 357.999C360.427 439.292 294.291 505.428 213 505.428Z" fill="#FFD271"/>
<path d="M213.266 211.021C208.229 211.021 203.254 211.269 198.341 211.722C276.326 218.908 341.564 280.228 341.564 356.755C341.564 433.281 276.326 497.717 198.341 504.903C203.254 505.356 208.229 505.604 213.266 505.604C298.256 505.604 367.154 439.66 367.154 358.312C367.154 276.965 298.256 211.021 213.266 211.021Z" fill="#FFCE00"/>
<path d="M213 213C293.081 213 358 277.919 358 358C358 438.081 293.081 503 213 503C132.919 503 67.9999 438.081 67.9999 358C67.9999 277.919 132.919 213 213 213ZM213 198C124.776 198 53 269.775 53 358C53 446.224 124.776 518 213 518C301.225 518 373 446.224 373 358C373 269.775 301.225 198 213 198Z" fill="#333F76"/>
<path d="M91.1503 305.307C90.3116 305.307 89.4602 305.118 88.6564 304.721C85.8732 303.342 84.7342 299.967 86.113 297.182C98.2748 272.631 118.303 252.019 142.508 239.145C145.26 237.684 148.658 238.728 150.116 241.469C151.575 244.212 150.535 247.617 147.792 249.077C125.645 260.856 107.322 279.714 96.1949 302.177C95.2134 304.158 93.2212 305.307 91.1503 305.307ZM173.05 238.935C170.539 238.935 168.252 237.243 167.602 234.698C166.835 231.687 168.653 228.626 171.663 227.857C177.005 226.494 182.489 225.46 187.964 224.782C191.042 224.398 193.854 226.592 194.237 229.675C194.618 232.757 192.428 235.565 189.344 235.948C184.34 236.567 179.327 237.514 174.443 238.759C173.978 238.878 173.509 238.935 173.05 238.935Z" fill="white"/>
<path d="M126.602 372.781C126.602 382.101 119.047 389.656 109.727 389.656C100.407 389.656 92.8521 382.101 92.8521 372.781C92.8521 363.462 100.407 355.906 109.727 355.906C119.047 355.906 126.602 363.462 126.602 372.781Z" fill="#FB4F66"/>
<path d="M335.665 372.781C335.665 382.101 328.109 389.656 318.79 389.656C309.47 389.656 301.915 382.101 301.915 372.781C301.915 363.461 309.47 355.906 318.79 355.906C328.109 355.906 335.665 363.461 335.665 372.781Z" fill="#FB4F66"/>
<path d="M173.633 316C173.633 325.319 166.078 332.875 156.758 332.875C147.439 332.875 139.883 325.319 139.883 316C139.883 306.68 147.439 299.125 156.758 299.125C166.078 299.125 173.633 306.68 173.633 316Z" fill="#333F76"/>
<path d="M288.634 316C288.634 325.319 281.079 332.875 271.759 332.875C262.439 332.875 254.884 325.319 254.884 316C254.884 306.68 262.439 299.125 271.759 299.125C281.079 299.125 288.634 306.68 288.634 316Z" fill="#333F76"/>
<path d="M249.315 361.786C240.925 356.32 231.95 352.915 222.639 351.665C219.705 351.271 216.74 351.091 213.758 351.124C210.775 351.091 207.811 351.271 204.876 351.665C195.566 352.915 186.591 356.32 178.2 361.786C175.473 363.562 174.703 367.213 176.479 369.94C177.609 371.674 179.497 372.617 181.422 372.617C182.525 372.617 183.64 372.308 184.633 371.661C184.713 371.609 184.794 371.558 184.874 371.506L184.899 371.542L184.884 371.553C184.955 371.503 192.165 366.558 202.964 364.178C206.608 363.375 210.208 362.949 213.758 362.896C217.307 362.949 220.907 363.375 224.552 364.178C235.351 366.558 242.56 371.503 242.632 371.553L242.616 371.542L242.642 371.506C242.722 371.558 242.802 371.609 242.882 371.661C243.875 372.308 244.99 372.617 246.093 372.617C248.019 372.617 249.906 371.674 251.036 369.94C252.812 367.213 252.042 363.562 249.315 361.786Z" fill="#333F76"/>
<defs>
<filter id="filter0_d_29_4171" x="12" y="24" width="32.2188" height="32.2188" filterUnits="userSpaceOnUse" color-interpolation-filters="sRGB">
<feFlood flood-opacity="0" result="BackgroundImageFix"/>
<feColorMatrix in="SourceAlpha" type="matrix" values="0 0 0 0 0 0 0 0 0 0 0 0 0 0 0 0 0 0 127 0" result="hardAlpha"/>
<feOffset dy="4"/>
<feGaussianBlur stdDeviation="2"/>
<feComposite in2="hardAlpha" operator="out"/>
<feColorMatrix type="matrix" values="0 0 0 0 0 0 0 0 0 0 0 0 0 0 0 0 0 0 0.25 0"/>
<feBlend mode="normal" in2="BackgroundImageFix" result="effect1_dropShadow_29_4171"/>
<feBlend mode="normal" in="SourceGraphic" in2="effect1_dropShadow_29_4171" result="shape"/>
</filter>
<linearGradient id="paint0_linear_29_4171" x1="28.1094" y1="24" x2="28.1094" y2="48.2188" gradientUnits="userSpaceOnUse">
<stop stop-color="#00FFD1"/>
<stop offset="1" stop-color="#38A6BE" stop-opacity="0.84"/>
</linearGradient>
</defs>
</svg>
