<svg width="414" height="896" viewBox="0 0 414 896" fill="none" xmlns="http://www.w3.org/2000/svg">
<rect width="414" height="896" rx="20" fill="#EEF9FA"/>
<path d="M278.351 448.133C278.351 408.726 246.404 376.782 206.999 376.782C167.594 376.782 135.648 408.726 135.648 448.133C135.648 487.54 167.594 519.484 206.999 519.484C246.404 519.484 278.351 487.54 278.351 448.133Z" fill="#DEE6F7"/>
<path d="M231.715 452.124C227.341 447.812 221.068 444.181 212.938 441.224V414.112C214.266 414.749 215.45 415.585 216.42 416.706C218.299 418.883 219.388 421.912 219.69 425.795C219.792 427.102 220.893 428.111 222.202 428.111H238.003L238.134 427.714C238.311 418.756 235.54 411.613 229.818 406.293C225.33 402.115 219.69 399.608 212.748 398.709V390.892C212.748 389.996 212.024 389.268 211.128 389.268H202.784C201.874 389.268 201.142 390.017 201.159 390.924L201.317 398.722C195.029 399.601 189.666 401.947 185.253 405.794C179.533 410.781 176.674 417.246 176.674 425.182C176.674 433.165 179.179 439.373 184.19 443.808C188.262 447.413 193.993 450.707 201.317 453.696V482.366C199.712 481.705 198.315 480.809 197.194 479.597C195.064 477.292 193.854 473.711 193.567 468.849C193.489 467.525 192.377 466.488 191.051 466.488H175.211L175.077 466.892C174.855 477.355 178.006 485.15 184.525 490.269C189.383 494.086 194.982 496.477 201.317 497.447V505.372C201.317 506.268 202.043 506.996 202.937 506.996H211.16C212.044 506.996 212.763 506.288 212.78 505.407L212.938 497.689C220.014 496.985 225.878 494.721 230.488 490.837C236.119 486.094 238.931 479.573 238.931 471.283C238.931 463.254 236.527 456.871 231.715 452.124ZM198.824 433.366C196.563 431.234 195.433 428.532 195.433 425.249C195.433 421.702 196.429 418.745 198.425 416.371C199.241 415.399 200.231 414.676 201.317 414.101V435.341C200.347 434.664 199.505 434.003 198.824 433.366ZM217.15 480.258C216.053 481.465 214.629 482.314 212.938 482.865V458.865C214.774 459.986 216.204 461.118 217.215 462.267C219.187 464.507 220.174 467.557 220.174 471.415C220.174 475.095 219.167 478.044 217.15 480.258Z" fill="#256BF4"/>
<path d="M244.723 358.178L245.127 358.347C248.335 359.643 251.991 358.096 253.286 354.891C254.585 351.681 253.039 348.032 249.832 346.732L249.621 346.643C249.098 346.42 248.558 346.271 248.022 346.198C245.285 345.822 242.53 347.3 241.402 349.961C240.049 353.149 241.534 356.827 244.723 358.178Z" fill="#DEE6F7"/>
<path d="M266.849 371.121C269.564 373.268 273.513 372.796 275.657 370.073C277.8 367.357 277.331 363.415 274.613 361.273L274.289 361.023C273.407 360.344 272.417 359.948 271.404 359.809C269.264 359.515 267.031 360.384 265.598 362.248C263.489 364.992 264.105 369.01 266.849 371.121Z" fill="#DEE6F7"/>
<path d="M284.784 389.102C286.822 391.791 290.654 392.316 293.339 390.275C296.028 388.237 296.553 384.407 294.512 381.722L294.317 381.46C293.298 380.119 291.831 379.315 290.282 379.102C288.734 378.89 287.102 379.269 285.757 380.285C283.073 382.326 282.547 386.157 284.583 388.845L284.784 389.102Z" fill="#DEE6F7"/>
<path d="M297.688 411.108C298.929 414.03 302.299 415.389 305.222 414.147C308.142 412.907 309.501 409.539 308.258 406.621L308.186 406.434C307.388 404.454 305.61 403.164 303.638 402.893C302.678 402.761 301.674 402.869 300.713 403.255C297.772 404.439 296.344 407.785 297.53 410.726L297.688 411.108Z" fill="#DEE6F7"/>
<path d="M304.679 435.334L304.716 435.605C305.077 438.404 307.637 440.373 310.437 440.018C313.237 439.654 315.216 437.093 314.853 434.293L314.816 434.022C314.513 431.684 312.676 429.921 310.446 429.615C310.008 429.555 309.552 429.553 309.094 429.609C306.293 429.972 304.314 432.534 304.679 435.334Z" fill="#DEE6F7"/>
<path d="M303.377 460.912C296.682 509.716 254.568 545.1 206.559 544.724L214.935 538.368C217.7 536.272 218.241 532.327 216.143 529.562C215.092 528.177 213.582 527.351 211.99 527.133C210.397 526.914 208.72 527.302 207.335 528.354L187.334 543.528C184.567 545.626 184.025 549.572 186.126 552.337L201.301 572.337C203.396 575.105 207.346 575.647 210.11 573.546C212.875 571.448 213.416 567.502 211.318 564.737L205.665 557.29C260.229 558.114 308.233 518.024 315.833 462.621L315.856 462.454C316.328 459.017 313.91 455.926 310.471 455.454C307.032 454.982 303.849 457.471 303.377 460.912Z" fill="#DEE6F7"/>
<path d="M109.808 460.24L109.773 459.97C109.47 457.632 107.631 455.871 105.402 455.565C104.964 455.505 104.51 455.499 104.049 455.559C101.251 455.923 99.273 458.484 99.638 461.284L99.6732 461.552C100.035 464.349 102.597 466.322 105.395 465.964C108.192 465.603 110.169 463.041 109.808 460.24Z" fill="#256BF4"/>
<path d="M116.801 484.417C115.984 482.485 114.231 481.235 112.294 480.969C111.301 480.833 110.261 480.954 109.274 481.377C106.351 482.615 104.992 485.987 106.234 488.906L106.305 489.084C107.491 492.028 110.835 493.454 113.774 492.268C116.72 491.082 118.144 487.738 116.962 484.795L116.801 484.417Z" fill="#256BF4"/>
<path d="M129.716 506.363C128.697 505.02 127.232 504.219 125.681 504.006C124.135 503.794 122.502 504.17 121.163 505.19C118.472 507.228 117.946 511.061 119.989 513.748L120.18 514.005C122.216 516.693 126.053 517.22 128.74 515.179C131.427 513.141 131.952 509.308 129.914 506.624L129.716 506.363Z" fill="#256BF4"/>
<path d="M147.648 524.333C146.739 523.616 145.694 523.193 144.626 523.047C142.493 522.754 140.272 523.566 138.847 525.38C136.702 528.096 137.171 532.035 139.891 534.179L140.21 534.429C142.955 536.532 146.787 535.946 148.902 533.2C151.009 530.456 150.391 526.443 147.648 524.333Z" fill="#256BF4"/>
<path d="M169.778 537.274L169.373 537.107C168.875 536.906 168.377 536.775 167.872 536.706C165.095 536.325 162.312 537.85 161.212 540.564C159.914 543.771 161.463 547.425 164.668 548.722L164.88 548.81C168.064 550.16 171.743 548.675 173.099 545.489C174.449 542.305 172.963 538.63 169.778 537.274Z" fill="#256BF4"/>
<path d="M104.031 439.995C107.47 440.467 110.653 437.978 111.124 434.539C117.82 385.73 159.936 350.351 207.941 350.724L199.569 357.081C196.802 359.176 196.261 363.121 198.361 365.887C200.459 368.655 204.404 369.196 207.167 367.095L227.17 351.918C229.938 349.823 230.479 345.877 228.378 343.114L213.201 323.111C212.154 321.729 210.642 320.901 209.046 320.682C207.452 320.463 205.773 320.853 204.395 321.903C201.627 324.001 201.086 327.946 203.187 330.71L208.839 338.161C154.275 337.334 106.269 377.422 98.6682 432.83L98.6459 432.992C98.1741 436.432 100.589 439.523 104.031 439.995Z" fill="#256BF4"/>
<path d="M278.351 448.133C278.351 408.726 246.404 376.782 206.999 376.782C167.594 376.782 135.648 408.726 135.648 448.133C135.648 487.54 167.594 519.484 206.999 519.484C246.404 519.484 278.351 487.54 278.351 448.133Z" fill="#DEE6F7"/>
<path d="M231.715 452.124C227.341 447.812 221.068 444.181 212.938 441.224V414.112C214.266 414.749 215.45 415.585 216.42 416.706C218.299 418.883 219.388 421.912 219.69 425.795C219.792 427.102 220.893 428.111 222.202 428.111H238.003L238.134 427.714C238.311 418.756 235.54 411.613 229.818 406.293C225.33 402.115 219.69 399.608 212.748 398.709V390.892C212.748 389.996 212.024 389.268 211.128 389.268H202.784C201.874 389.268 201.142 390.017 201.159 390.924L201.317 398.722C195.029 399.601 189.666 401.947 185.253 405.794C179.533 410.781 176.674 417.246 176.674 425.182C176.674 433.165 179.179 439.373 184.19 443.808C188.262 447.413 193.993 450.707 201.317 453.696V482.366C199.712 481.705 198.315 480.809 197.194 479.597C195.064 477.292 193.854 473.711 193.567 468.849C193.489 467.525 192.377 466.488 191.051 466.488H175.211L175.077 466.892C174.855 477.355 178.006 485.15 184.525 490.269C189.383 494.086 194.982 496.477 201.317 497.447V505.372C201.317 506.268 202.043 506.996 202.937 506.996H211.16C212.044 506.996 212.763 506.288 212.78 505.407L212.938 497.689C220.014 496.985 225.878 494.721 230.488 490.837C236.119 486.094 238.931 479.573 238.931 471.283C238.931 463.254 236.527 456.871 231.715 452.124ZM198.824 433.366C196.563 431.234 195.433 428.532 195.433 425.249C195.433 421.702 196.429 418.745 198.425 416.371C199.241 415.399 200.231 414.676 201.317 414.101V435.341C200.347 434.664 199.505 434.003 198.824 433.366ZM217.15 480.258C216.053 481.465 214.629 482.314 212.938 482.865V458.865C214.774 459.986 216.204 461.118 217.215 462.267C219.187 464.507 220.174 467.557 220.174 471.415C220.174 475.095 219.167 478.044 217.15 480.258Z" fill="#256BF4"/>
<path d="M244.723 358.178L245.127 358.347C248.335 359.643 251.991 358.096 253.286 354.891C254.585 351.681 253.039 348.032 249.832 346.732L249.621 346.643C249.098 346.42 248.558 346.271 248.022 346.198C245.285 345.822 242.53 347.3 241.402 349.961C240.049 353.149 241.534 356.827 244.723 358.178Z" fill="#DEE6F7"/>
<path d="M266.849 371.121C269.564 373.268 273.513 372.796 275.657 370.073C277.8 367.357 277.331 363.415 274.613 361.273L274.289 361.023C273.407 360.344 272.417 359.948 271.404 359.809C269.264 359.515 267.031 360.384 265.598 362.248C263.489 364.992 264.105 369.01 266.849 371.121Z" fill="#DEE6F7"/>
<path d="M284.784 389.102C286.822 391.791 290.654 392.316 293.339 390.275C296.028 388.237 296.553 384.407 294.512 381.722L294.317 381.46C293.298 380.119 291.831 379.315 290.282 379.102C288.734 378.89 287.102 379.269 285.757 380.285C283.073 382.326 282.547 386.157 284.583 388.845L284.784 389.102Z" fill="#DEE6F7"/>
<path d="M297.688 411.108C298.929 414.03 302.299 415.389 305.222 414.147C308.142 412.907 309.501 409.539 308.258 406.621L308.186 406.434C307.388 404.454 305.61 403.164 303.638 402.893C302.678 402.761 301.674 402.869 300.713 403.255C297.772 404.439 296.344 407.785 297.53 410.726L297.688 411.108Z" fill="#DEE6F7"/>
<path d="M304.679 435.334L304.716 435.605C305.077 438.404 307.637 440.373 310.437 440.018C313.237 439.654 315.216 437.093 314.853 434.293L314.816 434.022C314.513 431.684 312.676 429.921 310.446 429.615C310.008 429.555 309.552 429.553 309.094 429.609C306.293 429.972 304.314 432.534 304.679 435.334Z" fill="#DEE6F7"/>
<path d="M303.377 460.912C296.682 509.716 254.568 545.1 206.559 544.724L214.935 538.368C217.7 536.272 218.241 532.327 216.143 529.562C215.092 528.177 213.582 527.351 211.99 527.133C210.397 526.914 208.72 527.302 207.335 528.354L187.334 543.528C184.567 545.626 184.025 549.572 186.126 552.337L201.301 572.337C203.396 575.105 207.346 575.647 210.11 573.546C212.875 571.448 213.416 567.502 211.318 564.737L205.665 557.29C260.229 558.114 308.233 518.024 315.833 462.621L315.856 462.454C316.328 459.017 313.91 455.926 310.471 455.454C307.032 454.982 303.849 457.471 303.377 460.912Z" fill="#DEE6F7"/>
<path d="M109.808 460.24L109.773 459.97C109.47 457.632 107.631 455.871 105.402 455.565C104.964 455.505 104.51 455.499 104.049 455.559C101.251 455.923 99.273 458.484 99.638 461.284L99.6732 461.552C100.035 464.349 102.597 466.322 105.395 465.964C108.192 465.603 110.169 463.041 109.808 460.24Z" fill="#256BF4"/>
<path d="M116.801 484.417C115.984 482.485 114.231 481.235 112.294 480.969C111.301 480.833 110.261 480.954 109.274 481.377C106.351 482.615 104.992 485.987 106.234 488.906L106.305 489.084C107.491 492.028 110.835 493.454 113.774 492.268C116.72 491.082 118.144 487.738 116.962 484.795L116.801 484.417Z" fill="#256BF4"/>
<path d="M129.716 506.363C128.697 505.02 127.232 504.219 125.681 504.006C124.135 503.794 122.502 504.17 121.163 505.19C118.472 507.228 117.946 511.061 119.989 513.748L120.18 514.005C122.216 516.693 126.053 517.22 128.74 515.179C131.427 513.141 131.952 509.308 129.914 506.624L129.716 506.363Z" fill="#256BF4"/>
<path d="M147.648 524.333C146.739 523.616 145.694 523.193 144.626 523.047C142.493 522.754 140.272 523.566 138.847 525.38C136.702 528.096 137.171 532.035 139.891 534.179L140.21 534.429C142.955 536.532 146.787 535.946 148.902 533.2C151.009 530.456 150.391 526.443 147.648 524.333Z" fill="#256BF4"/>
<path d="M169.778 537.274L169.373 537.107C168.875 536.906 168.377 536.775 167.872 536.706C165.095 536.325 162.312 537.85 161.212 540.564C159.914 543.771 161.463 547.425 164.668 548.722L164.88 548.81C168.064 550.16 171.743 548.675 173.099 545.489C174.449 542.305 172.963 538.63 169.778 537.274Z" fill="#256BF4"/>
<path d="M104.031 439.995C107.47 440.467 110.653 437.978 111.124 434.539C117.82 385.73 159.936 350.351 207.941 350.724L199.569 357.081C196.802 359.176 196.261 363.121 198.361 365.887C200.459 368.655 204.404 369.196 207.167 367.095L227.17 351.918C229.938 349.823 230.479 345.877 228.378 343.114L213.201 323.111C212.154 321.729 210.642 320.901 209.046 320.682C207.452 320.463 205.773 320.853 204.395 321.903C201.627 324.001 201.086 327.946 203.187 330.71L208.839 338.161C154.275 337.334 106.269 377.422 98.6682 432.83L98.6459 432.992C98.1741 436.432 100.589 439.523 104.031 439.995Z" fill="#256BF4"/>
<path d="M290.051 31.2129L286.184 43H283.068L288.352 28.7812H290.334L290.051 31.2129ZM293.264 43L289.387 31.2129L289.074 28.7812H291.076L296.389 43H293.264ZM293.088 37.707V40.002H285.578V37.707H293.088ZM300.5 28V43H297.678V28H300.5ZM305.637 34.4648V47.0625H302.824V32.4336H305.432L305.637 34.4648ZM312.326 37.5996V37.8047C312.326 38.5729 312.235 39.2858 312.053 39.9434C311.877 40.6009 311.617 41.1738 311.271 41.6621C310.926 42.1439 310.497 42.5215 309.982 42.7949C309.475 43.0618 308.889 43.1953 308.225 43.1953C307.58 43.1953 307.02 43.0651 306.545 42.8047C306.07 42.5443 305.669 42.1797 305.344 41.7109C305.025 41.2357 304.768 40.6855 304.572 40.0605C304.377 39.4355 304.227 38.765 304.123 38.0488V37.5117C304.227 36.7435 304.377 36.0404 304.572 35.4023C304.768 34.7578 305.025 34.2012 305.344 33.7324C305.669 33.2572 306.066 32.8893 306.535 32.6289C307.01 32.3685 307.567 32.2383 308.205 32.2383C308.876 32.2383 309.465 32.3652 309.973 32.6191C310.487 32.873 310.917 33.2376 311.262 33.7129C311.613 34.1882 311.877 34.7546 312.053 35.4121C312.235 36.0697 312.326 36.7988 312.326 37.5996ZM309.504 37.8047V37.5996C309.504 37.1504 309.465 36.737 309.387 36.3594C309.315 35.9753 309.198 35.64 309.035 35.3535C308.879 35.0671 308.671 34.8457 308.41 34.6895C308.156 34.5267 307.847 34.4453 307.482 34.4453C307.098 34.4453 306.77 34.5072 306.496 34.6309C306.229 34.7546 306.011 34.9336 305.842 35.168C305.673 35.4023 305.546 35.6823 305.461 36.0078C305.376 36.3333 305.324 36.7012 305.305 37.1113V38.4688C305.337 38.9505 305.428 39.3835 305.578 39.7676C305.728 40.1452 305.959 40.4447 306.271 40.666C306.584 40.8874 306.994 40.998 307.502 40.998C307.873 40.998 308.186 40.9167 308.439 40.7539C308.693 40.5846 308.898 40.3535 309.055 40.0605C309.217 39.7676 309.331 39.429 309.396 39.0449C309.468 38.6608 309.504 38.2474 309.504 37.8047ZM316.818 28V43H314.006V28H316.818ZM316.418 37.3457H315.646C315.653 36.61 315.751 35.9329 315.939 35.3145C316.128 34.6895 316.398 34.1491 316.75 33.6934C317.102 33.2311 317.521 32.873 318.01 32.6191C318.505 32.3652 319.051 32.2383 319.65 32.2383C320.171 32.2383 320.643 32.3132 321.066 32.4629C321.496 32.6061 321.864 32.8405 322.17 33.166C322.482 33.485 322.723 33.9049 322.893 34.4258C323.062 34.9466 323.146 35.5781 323.146 36.3203V43H320.314V36.3008C320.314 35.832 320.246 35.4642 320.109 35.1973C319.979 34.9238 319.787 34.7318 319.533 34.6211C319.286 34.5039 318.98 34.4453 318.615 34.4453C318.212 34.4453 317.867 34.5202 317.58 34.6699C317.3 34.8197 317.076 35.028 316.906 35.2949C316.737 35.5553 316.613 35.8613 316.535 36.2129C316.457 36.5645 316.418 36.9421 316.418 37.3457ZM330.988 40.6172V35.9102C330.988 35.5716 330.933 35.2819 330.822 35.041C330.712 34.7936 330.539 34.6016 330.305 34.4648C330.077 34.3281 329.781 34.2598 329.416 34.2598C329.104 34.2598 328.833 34.3151 328.605 34.4258C328.378 34.5299 328.202 34.6829 328.078 34.8848C327.954 35.0801 327.893 35.3112 327.893 35.5781H325.08C325.08 35.1289 325.184 34.7025 325.393 34.2988C325.601 33.8952 325.904 33.5404 326.301 33.2344C326.698 32.9219 327.17 32.6777 327.717 32.502C328.27 32.3262 328.889 32.2383 329.572 32.2383C330.393 32.2383 331.122 32.375 331.76 32.6484C332.398 32.9219 332.899 33.332 333.264 33.8789C333.635 34.4258 333.82 35.1094 333.82 35.9297V40.4512C333.82 41.0306 333.856 41.5059 333.928 41.877C333.999 42.2415 334.104 42.5605 334.24 42.834V43H331.398C331.262 42.7135 331.158 42.3555 331.086 41.9258C331.021 41.4896 330.988 41.0534 330.988 40.6172ZM331.359 36.5645L331.379 38.1562H329.807C329.436 38.1562 329.113 38.1986 328.84 38.2832C328.566 38.3678 328.342 38.4883 328.166 38.6445C327.99 38.7943 327.86 38.9701 327.775 39.1719C327.697 39.3737 327.658 39.5951 327.658 39.8359C327.658 40.0768 327.714 40.2949 327.824 40.4902C327.935 40.679 328.094 40.8288 328.303 40.9395C328.511 41.0436 328.755 41.0957 329.035 41.0957C329.458 41.0957 329.826 41.0111 330.139 40.8418C330.451 40.6725 330.692 40.4642 330.861 40.2168C331.037 39.9694 331.128 39.735 331.135 39.5137L331.877 40.7051C331.773 40.972 331.63 41.2487 331.447 41.5352C331.271 41.8216 331.047 42.0918 330.773 42.3457C330.5 42.5931 330.171 42.7982 329.787 42.9609C329.403 43.1172 328.947 43.1953 328.42 43.1953C327.749 43.1953 327.141 43.0618 326.594 42.7949C326.053 42.5215 325.624 42.1471 325.305 41.6719C324.992 41.1901 324.836 40.6432 324.836 40.0312C324.836 39.4779 324.94 38.9863 325.148 38.5566C325.357 38.127 325.663 37.7656 326.066 37.4727C326.477 37.1732 326.988 36.9486 327.6 36.7988C328.212 36.6426 328.921 36.5645 329.729 36.5645H331.359ZM345.305 40.7148V43H338.146V40.7148H345.305ZM339.094 28.7812V43H336.164V28.7812H339.094ZM346.359 37.8242V37.6191C346.359 36.8444 346.47 36.1315 346.691 35.4805C346.913 34.8229 347.235 34.2533 347.658 33.7715C348.081 33.2897 348.602 32.9154 349.221 32.6484C349.839 32.375 350.549 32.2383 351.35 32.2383C352.15 32.2383 352.863 32.375 353.488 32.6484C354.113 32.9154 354.637 33.2897 355.061 33.7715C355.49 34.2533 355.816 34.8229 356.037 35.4805C356.258 36.1315 356.369 36.8444 356.369 37.6191V37.8242C356.369 38.5924 356.258 39.3053 356.037 39.9629C355.816 40.6139 355.49 41.1836 355.061 41.6719C354.637 42.1536 354.117 42.528 353.498 42.7949C352.88 43.0618 352.17 43.1953 351.369 43.1953C350.568 43.1953 349.855 43.0618 349.23 42.7949C348.612 42.528 348.088 42.1536 347.658 41.6719C347.235 41.1836 346.913 40.6139 346.691 39.9629C346.47 39.3053 346.359 38.5924 346.359 37.8242ZM349.172 37.6191V37.8242C349.172 38.2669 349.211 38.6803 349.289 39.0645C349.367 39.4486 349.491 39.7871 349.66 40.0801C349.836 40.3665 350.064 40.5911 350.344 40.7539C350.624 40.9167 350.965 40.998 351.369 40.998C351.76 40.998 352.095 40.9167 352.375 40.7539C352.655 40.5911 352.88 40.3665 353.049 40.0801C353.218 39.7871 353.342 39.4486 353.42 39.0645C353.505 38.6803 353.547 38.2669 353.547 37.8242V37.6191C353.547 37.1895 353.505 36.7858 353.42 36.4082C353.342 36.0241 353.215 35.6855 353.039 35.3926C352.87 35.0931 352.645 34.8587 352.365 34.6895C352.085 34.5202 351.747 34.4355 351.35 34.4355C350.952 34.4355 350.614 34.5202 350.334 34.6895C350.061 34.8587 349.836 35.0931 349.66 35.3926C349.491 35.6855 349.367 36.0241 349.289 36.4082C349.211 36.7858 349.172 37.1895 349.172 37.6191ZM363.801 40.6172V35.9102C363.801 35.5716 363.745 35.2819 363.635 35.041C363.524 34.7936 363.352 34.6016 363.117 34.4648C362.889 34.3281 362.593 34.2598 362.229 34.2598C361.916 34.2598 361.646 34.3151 361.418 34.4258C361.19 34.5299 361.014 34.6829 360.891 34.8848C360.767 35.0801 360.705 35.3112 360.705 35.5781H357.893C357.893 35.1289 357.997 34.7025 358.205 34.2988C358.413 33.8952 358.716 33.5404 359.113 33.2344C359.51 32.9219 359.982 32.6777 360.529 32.502C361.083 32.3262 361.701 32.2383 362.385 32.2383C363.205 32.2383 363.934 32.375 364.572 32.6484C365.21 32.9219 365.712 33.332 366.076 33.8789C366.447 34.4258 366.633 35.1094 366.633 35.9297V40.4512C366.633 41.0306 366.669 41.5059 366.74 41.877C366.812 42.2415 366.916 42.5605 367.053 42.834V43H364.211C364.074 42.7135 363.97 42.3555 363.898 41.9258C363.833 41.4896 363.801 41.0534 363.801 40.6172ZM364.172 36.5645L364.191 38.1562H362.619C362.248 38.1562 361.926 38.1986 361.652 38.2832C361.379 38.3678 361.154 38.4883 360.979 38.6445C360.803 38.7943 360.673 38.9701 360.588 39.1719C360.51 39.3737 360.471 39.5951 360.471 39.8359C360.471 40.0768 360.526 40.2949 360.637 40.4902C360.747 40.679 360.907 40.8288 361.115 40.9395C361.324 41.0436 361.568 41.0957 361.848 41.0957C362.271 41.0957 362.639 41.0111 362.951 40.8418C363.264 40.6725 363.505 40.4642 363.674 40.2168C363.85 39.9694 363.941 39.735 363.947 39.5137L364.689 40.7051C364.585 40.972 364.442 41.2487 364.26 41.5352C364.084 41.8216 363.859 42.0918 363.586 42.3457C363.312 42.5931 362.984 42.7982 362.6 42.9609C362.215 43.1172 361.76 43.1953 361.232 43.1953C360.562 43.1953 359.953 43.0618 359.406 42.7949C358.866 42.5215 358.436 42.1471 358.117 41.6719C357.805 41.1901 357.648 40.6432 357.648 40.0312C357.648 39.4779 357.753 38.9863 357.961 38.5566C358.169 38.127 358.475 37.7656 358.879 37.4727C359.289 37.1732 359.8 36.9486 360.412 36.7988C361.024 36.6426 361.734 36.5645 362.541 36.5645H364.172ZM371.555 34.6895V43H368.742V32.4336H371.379L371.555 34.6895ZM371.145 37.3457H370.383C370.383 36.5645 370.484 35.8613 370.686 35.2363C370.887 34.6048 371.171 34.0677 371.535 33.625C371.9 33.1758 372.333 32.834 372.834 32.5996C373.342 32.3587 373.908 32.2383 374.533 32.2383C375.028 32.2383 375.48 32.3099 375.891 32.4531C376.301 32.5964 376.652 32.8242 376.945 33.1367C377.245 33.4492 377.473 33.8626 377.629 34.377C377.792 34.8913 377.873 35.5195 377.873 36.2617V43H375.041V36.252C375.041 35.7832 374.976 35.4186 374.846 35.1582C374.715 34.8978 374.523 34.7155 374.27 34.6113C374.022 34.5007 373.716 34.4453 373.352 34.4453C372.974 34.4453 372.645 34.5202 372.365 34.6699C372.092 34.8197 371.864 35.028 371.682 35.2949C371.506 35.5553 371.372 35.8613 371.281 36.2129C371.19 36.5645 371.145 36.9421 371.145 37.3457Z" fill="black"/>
<g filter="url(#filter0_d_29_4066)">
<path d="M28.1094 24C21.4214 24 16 29.4214 16 36.1094C16 42.7974 21.4214 48.2188 28.1094 48.2188C34.7974 48.2188 40.2188 42.7974 40.2188 36.1094C40.2188 29.4214 34.7974 24 28.1094 24ZM28.1094 45.0938C23.144 45.0938 19.125 41.0757 19.125 36.1094C19.125 31.144 23.1431 27.125 28.1094 27.125C33.0747 27.125 37.0938 31.1431 37.0938 36.1094C37.0938 41.0747 33.0757 45.0938 28.1094 45.0938ZM28.1094 29.8594C24.6577 29.8594 21.8594 32.6577 21.8594 36.1094C21.8594 39.561 24.6577 42.3594 28.1094 42.3594C31.561 42.3594 34.3594 39.561 34.3594 36.1094C34.3594 32.6577 31.561 29.8594 28.1094 29.8594ZM28.1094 39.2344C26.3862 39.2344 24.9844 37.8325 24.9844 36.1094C24.9844 34.3862 26.3862 32.9844 28.1094 32.9844C29.8325 32.9844 31.2344 34.3862 31.2344 36.1094C31.2344 37.8325 29.8325 39.2344 28.1094 39.2344Z" fill="url(#paint0_linear_29_4066)" shape-rendering="crispEdges"/>
</g>
<rect x="15" y="177" width="385" height="708" rx="30" fill="url(#paint1_diamond_29_4066)"/>
<rect x="35.5" y="303.5" width="344" height="55" rx="9.5" stroke="#272727"/>
<rect x="35.5" y="471.5" width="344" height="55" rx="9.5" stroke="#272727"/>
<rect x="35.5" y="387.5" width="344" height="55" rx="9.5" stroke="#272727"/>
<path d="M49.9355 322.749L47.2285 331H45.0479L48.7461 321.047H50.1338L49.9355 322.749ZM52.1846 331L49.4707 322.749L49.252 321.047H50.6533L54.3721 331H52.1846ZM52.0615 327.295V328.901H46.8047V327.295H52.0615ZM58.2275 329.599C58.4691 329.599 58.6833 329.553 58.8701 329.462C59.057 329.366 59.2028 329.234 59.3076 329.065C59.417 328.892 59.474 328.689 59.4785 328.457H61.3311C61.3265 328.977 61.1875 329.439 60.9141 329.845C60.6406 330.246 60.2738 330.562 59.8135 330.795C59.3532 331.023 58.8382 331.137 58.2686 331.137C57.6943 331.137 57.193 331.041 56.7646 330.85C56.3408 330.658 55.9876 330.394 55.7051 330.057C55.4225 329.715 55.2106 329.318 55.0693 328.867C54.9281 328.411 54.8574 327.924 54.8574 327.404V327.206C54.8574 326.682 54.9281 326.194 55.0693 325.743C55.2106 325.287 55.4225 324.891 55.7051 324.554C55.9876 324.212 56.3408 323.945 56.7646 323.754C57.1885 323.562 57.6852 323.467 58.2549 323.467C58.861 323.467 59.3919 323.583 59.8477 323.815C60.3079 324.048 60.668 324.381 60.9277 324.813C61.1921 325.242 61.3265 325.75 61.3311 326.338H59.4785C59.474 326.092 59.4215 325.868 59.3213 325.668C59.2256 325.467 59.0843 325.308 58.8975 325.189C58.7152 325.066 58.4896 325.005 58.2207 325.005C57.9336 325.005 57.6989 325.066 57.5166 325.189C57.3343 325.308 57.193 325.472 57.0928 325.682C56.9925 325.887 56.9219 326.121 56.8809 326.386C56.8444 326.646 56.8262 326.919 56.8262 327.206V327.404C56.8262 327.691 56.8444 327.967 56.8809 328.231C56.9173 328.496 56.9857 328.73 57.0859 328.936C57.1908 329.141 57.3343 329.302 57.5166 329.421C57.6989 329.539 57.9359 329.599 58.2275 329.599ZM65.5283 329.599C65.7699 329.599 65.984 329.553 66.1709 329.462C66.3577 329.366 66.5036 329.234 66.6084 329.065C66.7178 328.892 66.7747 328.689 66.7793 328.457H68.6318C68.6273 328.977 68.4883 329.439 68.2148 329.845C67.9414 330.246 67.5745 330.562 67.1143 330.795C66.654 331.023 66.139 331.137 65.5693 331.137C64.9951 331.137 64.4938 331.041 64.0654 330.85C63.6416 330.658 63.2884 330.394 63.0059 330.057C62.7233 329.715 62.5114 329.318 62.3701 328.867C62.2288 328.411 62.1582 327.924 62.1582 327.404V327.206C62.1582 326.682 62.2288 326.194 62.3701 325.743C62.5114 325.287 62.7233 324.891 63.0059 324.554C63.2884 324.212 63.6416 323.945 64.0654 323.754C64.4893 323.562 64.986 323.467 65.5557 323.467C66.1618 323.467 66.6927 323.583 67.1484 323.815C67.6087 324.048 67.9688 324.381 68.2285 324.813C68.4928 325.242 68.6273 325.75 68.6318 326.338H66.7793C66.7747 326.092 66.7223 325.868 66.6221 325.668C66.5264 325.467 66.3851 325.308 66.1982 325.189C66.016 325.066 65.7904 325.005 65.5215 325.005C65.2344 325.005 64.9997 325.066 64.8174 325.189C64.6351 325.308 64.4938 325.472 64.3936 325.682C64.2933 325.887 64.2227 326.121 64.1816 326.386C64.1452 326.646 64.127 326.919 64.127 327.206V327.404C64.127 327.691 64.1452 327.967 64.1816 328.231C64.2181 328.496 64.2865 328.73 64.3867 328.936C64.4915 329.141 64.6351 329.302 64.8174 329.421C64.9997 329.539 65.2367 329.599 65.5283 329.599ZM69.459 327.377V327.233C69.459 326.691 69.5365 326.192 69.6914 325.736C69.8464 325.276 70.0719 324.877 70.3682 324.54C70.6644 324.203 71.029 323.941 71.4619 323.754C71.8949 323.562 72.3916 323.467 72.9521 323.467C73.5127 323.467 74.0117 323.562 74.4492 323.754C74.8867 323.941 75.2536 324.203 75.5498 324.54C75.8506 324.877 76.0785 325.276 76.2334 325.736C76.3883 326.192 76.4658 326.691 76.4658 327.233V327.377C76.4658 327.915 76.3883 328.414 76.2334 328.874C76.0785 329.33 75.8506 329.729 75.5498 330.07C75.2536 330.408 74.889 330.67 74.4561 330.856C74.0231 331.043 73.5264 331.137 72.9658 331.137C72.4053 331.137 71.9062 331.043 71.4688 330.856C71.0358 330.67 70.6689 330.408 70.3682 330.07C70.0719 329.729 69.8464 329.33 69.6914 328.874C69.5365 328.414 69.459 327.915 69.459 327.377ZM71.4277 327.233V327.377C71.4277 327.687 71.4551 327.976 71.5098 328.245C71.5645 328.514 71.651 328.751 71.7695 328.956C71.8926 329.157 72.0521 329.314 72.248 329.428C72.444 329.542 72.6833 329.599 72.9658 329.599C73.2393 329.599 73.474 329.542 73.6699 329.428C73.8659 329.314 74.0231 329.157 74.1416 328.956C74.2601 328.751 74.3467 328.514 74.4014 328.245C74.4606 327.976 74.4902 327.687 74.4902 327.377V327.233C74.4902 326.933 74.4606 326.65 74.4014 326.386C74.3467 326.117 74.2578 325.88 74.1348 325.675C74.0163 325.465 73.859 325.301 73.6631 325.183C73.4671 325.064 73.2301 325.005 72.9521 325.005C72.6742 325.005 72.4372 325.064 72.2412 325.183C72.0498 325.301 71.8926 325.465 71.7695 325.675C71.651 325.88 71.5645 326.117 71.5098 326.386C71.4551 326.65 71.4277 326.933 71.4277 327.233ZM82.0508 329.229V323.604H84.0195V331H82.167L82.0508 329.229ZM82.2695 327.712L82.8506 327.698C82.8506 328.19 82.7936 328.648 82.6797 329.072C82.5658 329.492 82.3949 329.856 82.167 330.166C81.9391 330.471 81.652 330.711 81.3057 330.884C80.9593 331.052 80.5514 331.137 80.082 331.137C79.722 331.137 79.3893 331.087 79.084 330.986C78.7832 330.882 78.5234 330.72 78.3047 330.501C78.0905 330.278 77.9219 329.993 77.7988 329.646C77.6803 329.296 77.6211 328.874 77.6211 328.382V323.604H79.5898V328.396C79.5898 328.614 79.6149 328.799 79.665 328.949C79.7197 329.1 79.7949 329.223 79.8906 329.318C79.9863 329.414 80.098 329.482 80.2256 329.523C80.3577 329.564 80.5036 329.585 80.6631 329.585C81.0687 329.585 81.3877 329.503 81.6201 329.339C81.8571 329.175 82.0234 328.951 82.1191 328.669C82.2194 328.382 82.2695 328.063 82.2695 327.712ZM87.4512 325.183V331H85.4824V323.604H87.3281L87.4512 325.183ZM87.1641 327.042H86.6309C86.6309 326.495 86.7015 326.003 86.8428 325.565C86.984 325.123 87.1823 324.747 87.4375 324.438C87.6927 324.123 87.9958 323.884 88.3467 323.72C88.7021 323.551 89.0986 323.467 89.5361 323.467C89.8825 323.467 90.1992 323.517 90.4863 323.617C90.7734 323.717 91.0195 323.877 91.2246 324.096C91.4342 324.314 91.5938 324.604 91.7031 324.964C91.8171 325.324 91.874 325.764 91.874 326.283V331H89.8916V326.276C89.8916 325.948 89.846 325.693 89.7549 325.511C89.6637 325.328 89.5293 325.201 89.3516 325.128C89.1784 325.05 88.9642 325.012 88.709 325.012C88.4447 325.012 88.2145 325.064 88.0186 325.169C87.8271 325.274 87.6676 325.42 87.54 325.606C87.417 325.789 87.3236 326.003 87.2598 326.249C87.196 326.495 87.1641 326.759 87.1641 327.042ZM96.9941 323.604V324.998H92.6875V323.604H96.9941ZM93.7539 321.778H95.7227V328.771C95.7227 328.986 95.75 329.15 95.8047 329.264C95.8639 329.378 95.9505 329.457 96.0645 329.503C96.1784 329.544 96.3219 329.564 96.4951 329.564C96.6182 329.564 96.7275 329.56 96.8232 329.551C96.9235 329.537 97.0078 329.523 97.0762 329.51L97.083 330.959C96.9144 331.014 96.7321 331.057 96.5361 331.089C96.3402 331.121 96.1237 331.137 95.8867 331.137C95.4538 331.137 95.0755 331.066 94.752 330.925C94.4329 330.779 94.1868 330.547 94.0137 330.228C93.8405 329.909 93.7539 329.489 93.7539 328.97V321.778ZM109.825 321.047V331H107.774L103.775 324.328V331H101.725V321.047H103.775L107.781 327.726V321.047H109.825ZM115.861 329.229V323.604H117.83V331H115.978L115.861 329.229ZM116.08 327.712L116.661 327.698C116.661 328.19 116.604 328.648 116.49 329.072C116.376 329.492 116.205 329.856 115.978 330.166C115.75 330.471 115.463 330.711 115.116 330.884C114.77 331.052 114.362 331.137 113.893 331.137C113.533 331.137 113.2 331.087 112.895 330.986C112.594 330.882 112.334 330.72 112.115 330.501C111.901 330.278 111.732 329.993 111.609 329.646C111.491 329.296 111.432 328.874 111.432 328.382V323.604H113.4V328.396C113.4 328.614 113.425 328.799 113.476 328.949C113.53 329.1 113.605 329.223 113.701 329.318C113.797 329.414 113.909 329.482 114.036 329.523C114.168 329.564 114.314 329.585 114.474 329.585C114.879 329.585 115.198 329.503 115.431 329.339C115.668 329.175 115.834 328.951 115.93 328.669C116.03 328.382 116.08 328.063 116.08 327.712ZM121.303 325.135V331H119.327V323.604H121.18L121.303 325.135ZM121.029 327.042H120.482C120.482 326.527 120.544 326.053 120.667 325.62C120.795 325.183 120.979 324.804 121.221 324.485C121.467 324.162 121.77 323.911 122.13 323.733C122.49 323.556 122.907 323.467 123.381 323.467C123.709 323.467 124.01 323.517 124.283 323.617C124.557 323.713 124.791 323.866 124.987 324.075C125.188 324.28 125.343 324.549 125.452 324.882C125.562 325.21 125.616 325.604 125.616 326.064V331H123.647V326.283C123.647 325.946 123.602 325.686 123.511 325.504C123.42 325.322 123.29 325.194 123.121 325.121C122.957 325.048 122.759 325.012 122.526 325.012C122.271 325.012 122.048 325.064 121.856 325.169C121.67 325.274 121.515 325.42 121.392 325.606C121.269 325.789 121.177 326.003 121.118 326.249C121.059 326.495 121.029 326.759 121.029 327.042ZM125.432 326.816L124.728 326.905C124.728 326.422 124.787 325.973 124.905 325.559C125.028 325.144 125.208 324.779 125.445 324.465C125.687 324.15 125.985 323.907 126.341 323.733C126.696 323.556 127.106 323.467 127.571 323.467C127.927 323.467 128.25 323.519 128.542 323.624C128.834 323.724 129.082 323.886 129.287 324.109C129.497 324.328 129.656 324.615 129.766 324.971C129.88 325.326 129.937 325.761 129.937 326.276V331H127.961V326.276C127.961 325.935 127.915 325.675 127.824 325.497C127.738 325.315 127.61 325.189 127.441 325.121C127.277 325.048 127.081 325.012 126.854 325.012C126.617 325.012 126.409 325.06 126.231 325.155C126.054 325.246 125.906 325.374 125.787 325.538C125.669 325.702 125.58 325.894 125.521 326.112C125.461 326.326 125.432 326.561 125.432 326.816ZM131.461 320.5H133.43V329.305L133.231 331H131.461V320.5ZM138.112 327.227V327.37C138.112 327.922 138.053 328.427 137.935 328.888C137.821 329.348 137.643 329.747 137.401 330.084C137.16 330.417 136.859 330.676 136.499 330.863C136.144 331.046 135.724 331.137 135.241 331.137C134.79 331.137 134.398 331.046 134.065 330.863C133.737 330.681 133.462 330.424 133.238 330.091C133.015 329.758 132.835 329.368 132.698 328.922C132.562 328.475 132.459 327.988 132.391 327.459V327.145C132.459 326.616 132.562 326.128 132.698 325.682C132.835 325.235 133.015 324.845 133.238 324.513C133.462 324.18 133.737 323.923 134.065 323.74C134.394 323.558 134.781 323.467 135.228 323.467C135.715 323.467 136.139 323.56 136.499 323.747C136.864 323.929 137.164 324.189 137.401 324.526C137.643 324.859 137.821 325.256 137.935 325.716C138.053 326.172 138.112 326.675 138.112 327.227ZM136.144 327.37V327.227C136.144 326.926 136.121 326.643 136.075 326.379C136.034 326.11 135.961 325.875 135.856 325.675C135.752 325.47 135.608 325.308 135.426 325.189C135.248 325.071 135.018 325.012 134.735 325.012C134.466 325.012 134.239 325.057 134.052 325.148C133.865 325.24 133.71 325.367 133.587 325.531C133.468 325.695 133.38 325.891 133.32 326.119C133.261 326.342 133.225 326.589 133.211 326.857V327.753C133.225 328.113 133.284 328.432 133.389 328.71C133.498 328.983 133.662 329.2 133.881 329.359C134.104 329.514 134.394 329.592 134.749 329.592C135.027 329.592 135.257 329.537 135.439 329.428C135.622 329.318 135.763 329.163 135.863 328.963C135.968 328.762 136.041 328.528 136.082 328.259C136.123 327.985 136.144 327.689 136.144 327.37ZM142.74 331.137C142.166 331.137 141.651 331.046 141.195 330.863C140.74 330.676 140.352 330.419 140.033 330.091C139.719 329.763 139.477 329.382 139.309 328.949C139.14 328.512 139.056 328.047 139.056 327.555V327.281C139.056 326.721 139.135 326.208 139.295 325.743C139.454 325.278 139.682 324.875 139.979 324.533C140.279 324.191 140.644 323.929 141.072 323.747C141.501 323.56 141.984 323.467 142.521 323.467C143.046 323.467 143.51 323.553 143.916 323.727C144.322 323.9 144.661 324.146 144.935 324.465C145.213 324.784 145.422 325.167 145.563 325.613C145.705 326.055 145.775 326.548 145.775 327.09V327.91H139.896V326.598H143.841V326.447C143.841 326.174 143.791 325.93 143.69 325.716C143.595 325.497 143.449 325.324 143.253 325.196C143.057 325.069 142.806 325.005 142.501 325.005C142.241 325.005 142.018 325.062 141.831 325.176C141.644 325.29 141.492 325.449 141.373 325.654C141.259 325.859 141.173 326.101 141.113 326.379C141.059 326.652 141.031 326.953 141.031 327.281V327.555C141.031 327.851 141.072 328.124 141.154 328.375C141.241 328.626 141.362 328.842 141.517 329.024C141.676 329.207 141.868 329.348 142.091 329.448C142.319 329.549 142.576 329.599 142.863 329.599C143.219 329.599 143.549 329.53 143.854 329.394C144.164 329.252 144.431 329.04 144.654 328.758L145.611 329.797C145.456 330.02 145.244 330.234 144.976 330.439C144.711 330.645 144.392 330.813 144.019 330.945C143.645 331.073 143.219 331.137 142.74 331.137ZM148.865 325.217V331H146.896V323.604H148.749L148.865 325.217ZM151.094 323.556L151.06 325.381C150.964 325.367 150.848 325.356 150.711 325.347C150.579 325.333 150.458 325.326 150.349 325.326C150.071 325.326 149.829 325.363 149.624 325.436C149.424 325.504 149.255 325.606 149.118 325.743C148.986 325.88 148.886 326.046 148.817 326.242C148.754 326.438 148.717 326.661 148.708 326.912L148.312 326.789C148.312 326.311 148.359 325.871 148.455 325.47C148.551 325.064 148.69 324.711 148.872 324.41C149.059 324.109 149.287 323.877 149.556 323.713C149.825 323.549 150.132 323.467 150.479 323.467C150.588 323.467 150.7 323.476 150.813 323.494C150.927 323.508 151.021 323.528 151.094 323.556Z" fill="black"/>
<path d="M49.7852 494.632H47.2285L47.2148 493.224H49.3613C49.7396 493.224 50.0495 493.176 50.291 493.08C50.5326 492.98 50.7126 492.836 50.8311 492.649C50.9541 492.458 51.0156 492.226 51.0156 491.952C51.0156 491.642 50.9564 491.392 50.8379 491.2C50.724 491.009 50.5439 490.87 50.2979 490.783C50.0563 490.697 49.7441 490.653 49.3613 490.653H47.9395V499H45.8887V489.047H49.3613C49.9401 489.047 50.4574 489.102 50.9131 489.211C51.3734 489.32 51.763 489.487 52.082 489.71C52.401 489.933 52.6449 490.216 52.8135 490.558C52.9821 490.895 53.0664 491.296 53.0664 491.761C53.0664 492.171 52.973 492.549 52.7861 492.896C52.6038 493.242 52.3145 493.524 51.918 493.743C51.526 493.962 51.0133 494.083 50.3799 494.105L49.7852 494.632ZM49.6963 499H46.668L47.4678 497.4H49.6963C50.0563 497.4 50.3503 497.343 50.5781 497.229C50.806 497.111 50.9746 496.951 51.084 496.751C51.1934 496.55 51.248 496.32 51.248 496.061C51.248 495.769 51.1979 495.516 51.0977 495.302C51.002 495.088 50.847 494.924 50.6328 494.81C50.4186 494.691 50.1361 494.632 49.7852 494.632H47.8096L47.8232 493.224H50.2842L50.7559 493.777C51.362 493.768 51.8496 493.875 52.2188 494.099C52.5924 494.317 52.8636 494.602 53.0322 494.953C53.2054 495.304 53.292 495.68 53.292 496.081C53.292 496.719 53.153 497.257 52.875 497.694C52.597 498.127 52.1891 498.453 51.6514 498.672C51.1182 498.891 50.4665 499 49.6963 499ZM58.6992 497.332V494.037C58.6992 493.8 58.6605 493.597 58.583 493.429C58.5055 493.256 58.3848 493.121 58.2207 493.025C58.0612 492.93 57.8538 492.882 57.5986 492.882C57.3799 492.882 57.1908 492.921 57.0312 492.998C56.8717 493.071 56.7487 493.178 56.6621 493.319C56.5755 493.456 56.5322 493.618 56.5322 493.805H54.5635C54.5635 493.49 54.6364 493.192 54.7822 492.909C54.9281 492.627 55.14 492.378 55.418 492.164C55.696 491.945 56.0264 491.774 56.4092 491.651C56.7965 491.528 57.2295 491.467 57.708 491.467C58.2822 491.467 58.7926 491.562 59.2393 491.754C59.6859 491.945 60.0368 492.232 60.292 492.615C60.5518 492.998 60.6816 493.477 60.6816 494.051V497.216C60.6816 497.621 60.7067 497.954 60.7568 498.214C60.807 498.469 60.8799 498.692 60.9756 498.884V499H58.9863C58.8906 498.799 58.8177 498.549 58.7676 498.248C58.722 497.943 58.6992 497.637 58.6992 497.332ZM58.959 494.495L58.9727 495.609H57.8721C57.6123 495.609 57.3867 495.639 57.1953 495.698C57.0039 495.757 56.8467 495.842 56.7236 495.951C56.6006 496.056 56.5094 496.179 56.4502 496.32C56.3955 496.462 56.3682 496.617 56.3682 496.785C56.3682 496.954 56.4069 497.106 56.4844 497.243C56.5618 497.375 56.6735 497.48 56.8193 497.558C56.9652 497.631 57.1361 497.667 57.332 497.667C57.6283 497.667 57.8857 497.608 58.1045 497.489C58.3232 497.371 58.4919 497.225 58.6104 497.052C58.7334 496.879 58.7972 496.715 58.8018 496.56L59.3213 497.394C59.2484 497.58 59.1481 497.774 59.0205 497.975C58.8975 498.175 58.7402 498.364 58.5488 498.542C58.3574 498.715 58.1273 498.859 57.8584 498.973C57.5895 499.082 57.2705 499.137 56.9014 499.137C56.432 499.137 56.0059 499.043 55.623 498.856C55.2448 498.665 54.944 498.403 54.7207 498.07C54.502 497.733 54.3926 497.35 54.3926 496.922C54.3926 496.535 54.4655 496.19 54.6113 495.89C54.7572 495.589 54.9714 495.336 55.2539 495.131C55.541 494.921 55.8988 494.764 56.3271 494.659C56.7555 494.55 57.2523 494.495 57.8174 494.495H58.959ZM64.127 493.183V499H62.1582V491.604H64.0039L64.127 493.183ZM63.8398 495.042H63.3066C63.3066 494.495 63.3773 494.003 63.5186 493.565C63.6598 493.123 63.8581 492.747 64.1133 492.438C64.3685 492.123 64.6715 491.884 65.0225 491.72C65.3779 491.551 65.7744 491.467 66.2119 491.467C66.5583 491.467 66.875 491.517 67.1621 491.617C67.4492 491.717 67.6953 491.877 67.9004 492.096C68.11 492.314 68.2695 492.604 68.3789 492.964C68.4928 493.324 68.5498 493.764 68.5498 494.283V499H66.5674V494.276C66.5674 493.948 66.5218 493.693 66.4307 493.511C66.3395 493.328 66.2051 493.201 66.0273 493.128C65.8542 493.05 65.64 493.012 65.3848 493.012C65.1204 493.012 64.8903 493.064 64.6943 493.169C64.5029 493.274 64.3434 493.42 64.2158 493.606C64.0928 493.789 63.9993 494.003 63.9355 494.249C63.8717 494.495 63.8398 494.759 63.8398 495.042ZM72.0156 488.493V499H70.0469V488.493H72.0156ZM76.6777 491.604L73.4648 495.268L71.7422 497.011L71.0244 495.589L72.3916 493.853L74.3125 491.604H76.6777ZM74.6338 499L72.4463 495.582L73.8066 494.393L76.9033 499H74.6338ZM89.2354 489.047V499H87.1846L83.1855 492.328V499H81.1348V489.047H83.1855L87.1914 495.726V489.047H89.2354ZM94.8887 497.332V494.037C94.8887 493.8 94.8499 493.597 94.7725 493.429C94.695 493.256 94.5742 493.121 94.4102 493.025C94.2507 492.93 94.0433 492.882 93.7881 492.882C93.5693 492.882 93.3802 492.921 93.2207 492.998C93.0612 493.071 92.9382 493.178 92.8516 493.319C92.765 493.456 92.7217 493.618 92.7217 493.805H90.7529C90.7529 493.49 90.8258 493.192 90.9717 492.909C91.1175 492.627 91.3294 492.378 91.6074 492.164C91.8854 491.945 92.2158 491.774 92.5986 491.651C92.986 491.528 93.4189 491.467 93.8975 491.467C94.4717 491.467 94.9821 491.562 95.4287 491.754C95.8753 491.945 96.2262 492.232 96.4814 492.615C96.7412 492.998 96.8711 493.477 96.8711 494.051V497.216C96.8711 497.621 96.8962 497.954 96.9463 498.214C96.9964 498.469 97.0693 498.692 97.165 498.884V499H95.1758C95.0801 498.799 95.0072 498.549 94.957 498.248C94.9115 497.943 94.8887 497.637 94.8887 497.332ZM95.1484 494.495L95.1621 495.609H94.0615C93.8018 495.609 93.5762 495.639 93.3848 495.698C93.1934 495.757 93.0361 495.842 92.9131 495.951C92.79 496.056 92.6989 496.179 92.6396 496.32C92.585 496.462 92.5576 496.617 92.5576 496.785C92.5576 496.954 92.5964 497.106 92.6738 497.243C92.7513 497.375 92.863 497.48 93.0088 497.558C93.1546 497.631 93.3255 497.667 93.5215 497.667C93.8177 497.667 94.0752 497.608 94.2939 497.489C94.5127 497.371 94.6813 497.225 94.7998 497.052C94.9229 496.879 94.9867 496.715 94.9912 496.56L95.5107 497.394C95.4378 497.58 95.3376 497.774 95.21 497.975C95.0869 498.175 94.9297 498.364 94.7383 498.542C94.5469 498.715 94.3167 498.859 94.0479 498.973C93.779 499.082 93.46 499.137 93.0908 499.137C92.6214 499.137 92.1953 499.043 91.8125 498.856C91.4342 498.665 91.1335 498.403 90.9102 498.07C90.6914 497.733 90.582 497.35 90.582 496.922C90.582 496.535 90.6549 496.19 90.8008 495.89C90.9466 495.589 91.1608 495.336 91.4434 495.131C91.7305 494.921 92.0882 494.764 92.5166 494.659C92.945 494.55 93.4417 494.495 94.0068 494.495H95.1484ZM100.357 493.135V499H98.3818V491.604H100.234L100.357 493.135ZM100.084 495.042H99.5371C99.5371 494.527 99.5986 494.053 99.7217 493.62C99.8493 493.183 100.034 492.804 100.275 492.485C100.521 492.162 100.825 491.911 101.185 491.733C101.545 491.556 101.962 491.467 102.436 491.467C102.764 491.467 103.064 491.517 103.338 491.617C103.611 491.713 103.846 491.866 104.042 492.075C104.243 492.28 104.397 492.549 104.507 492.882C104.616 493.21 104.671 493.604 104.671 494.064V499H102.702V494.283C102.702 493.946 102.657 493.686 102.565 493.504C102.474 493.322 102.344 493.194 102.176 493.121C102.012 493.048 101.813 493.012 101.581 493.012C101.326 493.012 101.103 493.064 100.911 493.169C100.724 493.274 100.569 493.42 100.446 493.606C100.323 493.789 100.232 494.003 100.173 494.249C100.114 494.495 100.084 494.759 100.084 495.042ZM104.486 494.816L103.782 494.905C103.782 494.422 103.841 493.973 103.96 493.559C104.083 493.144 104.263 492.779 104.5 492.465C104.742 492.15 105.04 491.907 105.396 491.733C105.751 491.556 106.161 491.467 106.626 491.467C106.981 491.467 107.305 491.519 107.597 491.624C107.888 491.724 108.137 491.886 108.342 492.109C108.551 492.328 108.711 492.615 108.82 492.971C108.934 493.326 108.991 493.761 108.991 494.276V499H107.016V494.276C107.016 493.935 106.97 493.675 106.879 493.497C106.792 493.315 106.665 493.189 106.496 493.121C106.332 493.048 106.136 493.012 105.908 493.012C105.671 493.012 105.464 493.06 105.286 493.155C105.108 493.246 104.96 493.374 104.842 493.538C104.723 493.702 104.634 493.894 104.575 494.112C104.516 494.326 104.486 494.561 104.486 494.816ZM113.92 499.137C113.346 499.137 112.831 499.046 112.375 498.863C111.919 498.676 111.532 498.419 111.213 498.091C110.898 497.763 110.657 497.382 110.488 496.949C110.32 496.512 110.235 496.047 110.235 495.555V495.281C110.235 494.721 110.315 494.208 110.475 493.743C110.634 493.278 110.862 492.875 111.158 492.533C111.459 492.191 111.824 491.929 112.252 491.747C112.68 491.56 113.163 491.467 113.701 491.467C114.225 491.467 114.69 491.553 115.096 491.727C115.501 491.9 115.841 492.146 116.114 492.465C116.392 492.784 116.602 493.167 116.743 493.613C116.884 494.055 116.955 494.548 116.955 495.09V495.91H111.076V494.598H115.021V494.447C115.021 494.174 114.97 493.93 114.87 493.716C114.774 493.497 114.629 493.324 114.433 493.196C114.237 493.069 113.986 493.005 113.681 493.005C113.421 493.005 113.198 493.062 113.011 493.176C112.824 493.29 112.671 493.449 112.553 493.654C112.439 493.859 112.352 494.101 112.293 494.379C112.238 494.652 112.211 494.953 112.211 495.281V495.555C112.211 495.851 112.252 496.124 112.334 496.375C112.421 496.626 112.541 496.842 112.696 497.024C112.856 497.207 113.047 497.348 113.271 497.448C113.498 497.549 113.756 497.599 114.043 497.599C114.398 497.599 114.729 497.53 115.034 497.394C115.344 497.252 115.611 497.04 115.834 496.758L116.791 497.797C116.636 498.02 116.424 498.234 116.155 498.439C115.891 498.645 115.572 498.813 115.198 498.945C114.825 499.073 114.398 499.137 113.92 499.137Z" fill="black"/>
<path d="M49.9355 406.749L47.2285 415H45.0479L48.7461 405.047H50.1338L49.9355 406.749ZM52.1846 415L49.4707 406.749L49.252 405.047H50.6533L54.3721 415H52.1846ZM52.0615 411.295V412.901H46.8047V411.295H52.0615ZM58.2275 413.599C58.4691 413.599 58.6833 413.553 58.8701 413.462C59.057 413.366 59.2028 413.234 59.3076 413.065C59.417 412.892 59.474 412.689 59.4785 412.457H61.3311C61.3265 412.977 61.1875 413.439 60.9141 413.845C60.6406 414.246 60.2738 414.562 59.8135 414.795C59.3532 415.023 58.8382 415.137 58.2686 415.137C57.6943 415.137 57.193 415.041 56.7646 414.85C56.3408 414.658 55.9876 414.394 55.7051 414.057C55.4225 413.715 55.2106 413.318 55.0693 412.867C54.9281 412.411 54.8574 411.924 54.8574 411.404V411.206C54.8574 410.682 54.9281 410.194 55.0693 409.743C55.2106 409.287 55.4225 408.891 55.7051 408.554C55.9876 408.212 56.3408 407.945 56.7646 407.754C57.1885 407.562 57.6852 407.467 58.2549 407.467C58.861 407.467 59.3919 407.583 59.8477 407.815C60.3079 408.048 60.668 408.381 60.9277 408.813C61.1921 409.242 61.3265 409.75 61.3311 410.338H59.4785C59.474 410.092 59.4215 409.868 59.3213 409.668C59.2256 409.467 59.0843 409.308 58.8975 409.189C58.7152 409.066 58.4896 409.005 58.2207 409.005C57.9336 409.005 57.6989 409.066 57.5166 409.189C57.3343 409.308 57.193 409.472 57.0928 409.682C56.9925 409.887 56.9219 410.121 56.8809 410.386C56.8444 410.646 56.8262 410.919 56.8262 411.206V411.404C56.8262 411.691 56.8444 411.967 56.8809 412.231C56.9173 412.496 56.9857 412.73 57.0859 412.936C57.1908 413.141 57.3343 413.302 57.5166 413.421C57.6989 413.539 57.9359 413.599 58.2275 413.599ZM65.5283 413.599C65.7699 413.599 65.984 413.553 66.1709 413.462C66.3577 413.366 66.5036 413.234 66.6084 413.065C66.7178 412.892 66.7747 412.689 66.7793 412.457H68.6318C68.6273 412.977 68.4883 413.439 68.2148 413.845C67.9414 414.246 67.5745 414.562 67.1143 414.795C66.654 415.023 66.139 415.137 65.5693 415.137C64.9951 415.137 64.4938 415.041 64.0654 414.85C63.6416 414.658 63.2884 414.394 63.0059 414.057C62.7233 413.715 62.5114 413.318 62.3701 412.867C62.2288 412.411 62.1582 411.924 62.1582 411.404V411.206C62.1582 410.682 62.2288 410.194 62.3701 409.743C62.5114 409.287 62.7233 408.891 63.0059 408.554C63.2884 408.212 63.6416 407.945 64.0654 407.754C64.4893 407.562 64.986 407.467 65.5557 407.467C66.1618 407.467 66.6927 407.583 67.1484 407.815C67.6087 408.048 67.9688 408.381 68.2285 408.813C68.4928 409.242 68.6273 409.75 68.6318 410.338H66.7793C66.7747 410.092 66.7223 409.868 66.6221 409.668C66.5264 409.467 66.3851 409.308 66.1982 409.189C66.016 409.066 65.7904 409.005 65.5215 409.005C65.2344 409.005 64.9997 409.066 64.8174 409.189C64.6351 409.308 64.4938 409.472 64.3936 409.682C64.2933 409.887 64.2227 410.121 64.1816 410.386C64.1452 410.646 64.127 410.919 64.127 411.206V411.404C64.127 411.691 64.1452 411.967 64.1816 412.231C64.2181 412.496 64.2865 412.73 64.3867 412.936C64.4915 413.141 64.6351 413.302 64.8174 413.421C64.9997 413.539 65.2367 413.599 65.5283 413.599ZM69.459 411.377V411.233C69.459 410.691 69.5365 410.192 69.6914 409.736C69.8464 409.276 70.0719 408.877 70.3682 408.54C70.6644 408.203 71.029 407.941 71.4619 407.754C71.8949 407.562 72.3916 407.467 72.9521 407.467C73.5127 407.467 74.0117 407.562 74.4492 407.754C74.8867 407.941 75.2536 408.203 75.5498 408.54C75.8506 408.877 76.0785 409.276 76.2334 409.736C76.3883 410.192 76.4658 410.691 76.4658 411.233V411.377C76.4658 411.915 76.3883 412.414 76.2334 412.874C76.0785 413.33 75.8506 413.729 75.5498 414.07C75.2536 414.408 74.889 414.67 74.4561 414.856C74.0231 415.043 73.5264 415.137 72.9658 415.137C72.4053 415.137 71.9062 415.043 71.4688 414.856C71.0358 414.67 70.6689 414.408 70.3682 414.07C70.0719 413.729 69.8464 413.33 69.6914 412.874C69.5365 412.414 69.459 411.915 69.459 411.377ZM71.4277 411.233V411.377C71.4277 411.687 71.4551 411.976 71.5098 412.245C71.5645 412.514 71.651 412.751 71.7695 412.956C71.8926 413.157 72.0521 413.314 72.248 413.428C72.444 413.542 72.6833 413.599 72.9658 413.599C73.2393 413.599 73.474 413.542 73.6699 413.428C73.8659 413.314 74.0231 413.157 74.1416 412.956C74.2601 412.751 74.3467 412.514 74.4014 412.245C74.4606 411.976 74.4902 411.687 74.4902 411.377V411.233C74.4902 410.933 74.4606 410.65 74.4014 410.386C74.3467 410.117 74.2578 409.88 74.1348 409.675C74.0163 409.465 73.859 409.301 73.6631 409.183C73.4671 409.064 73.2301 409.005 72.9521 409.005C72.6742 409.005 72.4372 409.064 72.2412 409.183C72.0498 409.301 71.8926 409.465 71.7695 409.675C71.651 409.88 71.5645 410.117 71.5098 410.386C71.4551 410.65 71.4277 410.933 71.4277 411.233ZM82.0508 413.229V407.604H84.0195V415H82.167L82.0508 413.229ZM82.2695 411.712L82.8506 411.698C82.8506 412.19 82.7936 412.648 82.6797 413.072C82.5658 413.492 82.3949 413.856 82.167 414.166C81.9391 414.471 81.652 414.711 81.3057 414.884C80.9593 415.052 80.5514 415.137 80.082 415.137C79.722 415.137 79.3893 415.087 79.084 414.986C78.7832 414.882 78.5234 414.72 78.3047 414.501C78.0905 414.278 77.9219 413.993 77.7988 413.646C77.6803 413.296 77.6211 412.874 77.6211 412.382V407.604H79.5898V412.396C79.5898 412.614 79.6149 412.799 79.665 412.949C79.7197 413.1 79.7949 413.223 79.8906 413.318C79.9863 413.414 80.098 413.482 80.2256 413.523C80.3577 413.564 80.5036 413.585 80.6631 413.585C81.0687 413.585 81.3877 413.503 81.6201 413.339C81.8571 413.175 82.0234 412.951 82.1191 412.669C82.2194 412.382 82.2695 412.063 82.2695 411.712ZM87.4512 409.183V415H85.4824V407.604H87.3281L87.4512 409.183ZM87.1641 411.042H86.6309C86.6309 410.495 86.7015 410.003 86.8428 409.565C86.984 409.123 87.1823 408.747 87.4375 408.438C87.6927 408.123 87.9958 407.884 88.3467 407.72C88.7021 407.551 89.0986 407.467 89.5361 407.467C89.8825 407.467 90.1992 407.517 90.4863 407.617C90.7734 407.717 91.0195 407.877 91.2246 408.096C91.4342 408.314 91.5938 408.604 91.7031 408.964C91.8171 409.324 91.874 409.764 91.874 410.283V415H89.8916V410.276C89.8916 409.948 89.846 409.693 89.7549 409.511C89.6637 409.328 89.5293 409.201 89.3516 409.128C89.1784 409.05 88.9642 409.012 88.709 409.012C88.4447 409.012 88.2145 409.064 88.0186 409.169C87.8271 409.274 87.6676 409.42 87.54 409.606C87.417 409.789 87.3236 410.003 87.2598 410.249C87.196 410.495 87.1641 410.759 87.1641 411.042ZM96.9941 407.604V408.998H92.6875V407.604H96.9941ZM93.7539 405.778H95.7227V412.771C95.7227 412.986 95.75 413.15 95.8047 413.264C95.8639 413.378 95.9505 413.457 96.0645 413.503C96.1784 413.544 96.3219 413.564 96.4951 413.564C96.6182 413.564 96.7275 413.56 96.8232 413.551C96.9235 413.537 97.0078 413.523 97.0762 413.51L97.083 414.959C96.9144 415.014 96.7321 415.057 96.5361 415.089C96.3402 415.121 96.1237 415.137 95.8867 415.137C95.4538 415.137 95.0755 415.066 94.752 414.925C94.4329 414.779 94.1868 414.547 94.0137 414.228C93.8405 413.909 93.7539 413.489 93.7539 412.97V405.778ZM109.825 405.047V415H107.774L103.775 408.328V415H101.725V405.047H103.775L107.781 411.726V405.047H109.825ZM115.479 413.332V410.037C115.479 409.8 115.44 409.597 115.362 409.429C115.285 409.256 115.164 409.121 115 409.025C114.84 408.93 114.633 408.882 114.378 408.882C114.159 408.882 113.97 408.921 113.811 408.998C113.651 409.071 113.528 409.178 113.441 409.319C113.355 409.456 113.312 409.618 113.312 409.805H111.343C111.343 409.49 111.416 409.192 111.562 408.909C111.707 408.627 111.919 408.378 112.197 408.164C112.475 407.945 112.806 407.774 113.188 407.651C113.576 407.528 114.009 407.467 114.487 407.467C115.062 407.467 115.572 407.562 116.019 407.754C116.465 407.945 116.816 408.232 117.071 408.615C117.331 408.998 117.461 409.477 117.461 410.051V413.216C117.461 413.621 117.486 413.954 117.536 414.214C117.586 414.469 117.659 414.692 117.755 414.884V415H115.766C115.67 414.799 115.597 414.549 115.547 414.248C115.501 413.943 115.479 413.637 115.479 413.332ZM115.738 410.495L115.752 411.609H114.651C114.392 411.609 114.166 411.639 113.975 411.698C113.783 411.757 113.626 411.842 113.503 411.951C113.38 412.056 113.289 412.179 113.229 412.32C113.175 412.462 113.147 412.617 113.147 412.785C113.147 412.954 113.186 413.106 113.264 413.243C113.341 413.375 113.453 413.48 113.599 413.558C113.744 413.631 113.915 413.667 114.111 413.667C114.408 413.667 114.665 413.608 114.884 413.489C115.103 413.371 115.271 413.225 115.39 413.052C115.513 412.879 115.576 412.715 115.581 412.56L116.101 413.394C116.028 413.58 115.927 413.774 115.8 413.975C115.677 414.175 115.52 414.364 115.328 414.542C115.137 414.715 114.907 414.859 114.638 414.973C114.369 415.082 114.05 415.137 113.681 415.137C113.211 415.137 112.785 415.043 112.402 414.856C112.024 414.665 111.723 414.403 111.5 414.07C111.281 413.733 111.172 413.35 111.172 412.922C111.172 412.535 111.245 412.19 111.391 411.89C111.536 411.589 111.751 411.336 112.033 411.131C112.32 410.921 112.678 410.764 113.106 410.659C113.535 410.55 114.032 410.495 114.597 410.495H115.738ZM120.947 409.135V415H118.972V407.604H120.824L120.947 409.135ZM120.674 411.042H120.127C120.127 410.527 120.188 410.053 120.312 409.62C120.439 409.183 120.624 408.804 120.865 408.485C121.111 408.162 121.414 407.911 121.774 407.733C122.134 407.556 122.551 407.467 123.025 407.467C123.354 407.467 123.654 407.517 123.928 407.617C124.201 407.713 124.436 407.866 124.632 408.075C124.832 408.28 124.987 408.549 125.097 408.882C125.206 409.21 125.261 409.604 125.261 410.064V415H123.292V410.283C123.292 409.946 123.246 409.686 123.155 409.504C123.064 409.322 122.934 409.194 122.766 409.121C122.602 409.048 122.403 409.012 122.171 409.012C121.916 409.012 121.692 409.064 121.501 409.169C121.314 409.274 121.159 409.42 121.036 409.606C120.913 409.789 120.822 410.003 120.763 410.249C120.703 410.495 120.674 410.759 120.674 411.042ZM125.076 410.816L124.372 410.905C124.372 410.422 124.431 409.973 124.55 409.559C124.673 409.144 124.853 408.779 125.09 408.465C125.331 408.15 125.63 407.907 125.985 407.733C126.341 407.556 126.751 407.467 127.216 407.467C127.571 407.467 127.895 407.519 128.187 407.624C128.478 407.724 128.727 407.886 128.932 408.109C129.141 408.328 129.301 408.615 129.41 408.971C129.524 409.326 129.581 409.761 129.581 410.276V415H127.605V410.276C127.605 409.935 127.56 409.675 127.469 409.497C127.382 409.315 127.255 409.189 127.086 409.121C126.922 409.048 126.726 409.012 126.498 409.012C126.261 409.012 126.054 409.06 125.876 409.155C125.698 409.246 125.55 409.374 125.432 409.538C125.313 409.702 125.224 409.894 125.165 410.112C125.106 410.326 125.076 410.561 125.076 410.816ZM134.51 415.137C133.936 415.137 133.421 415.046 132.965 414.863C132.509 414.676 132.122 414.419 131.803 414.091C131.488 413.763 131.247 413.382 131.078 412.949C130.91 412.512 130.825 412.047 130.825 411.555V411.281C130.825 410.721 130.905 410.208 131.064 409.743C131.224 409.278 131.452 408.875 131.748 408.533C132.049 408.191 132.413 407.929 132.842 407.747C133.27 407.56 133.753 407.467 134.291 407.467C134.815 407.467 135.28 407.553 135.686 407.727C136.091 407.9 136.431 408.146 136.704 408.465C136.982 408.784 137.192 409.167 137.333 409.613C137.474 410.055 137.545 410.548 137.545 411.09V411.91H131.666V410.598H135.61V410.447C135.61 410.174 135.56 409.93 135.46 409.716C135.364 409.497 135.218 409.324 135.022 409.196C134.826 409.069 134.576 409.005 134.271 409.005C134.011 409.005 133.787 409.062 133.601 409.176C133.414 409.29 133.261 409.449 133.143 409.654C133.029 409.859 132.942 410.101 132.883 410.379C132.828 410.652 132.801 410.953 132.801 411.281V411.555C132.801 411.851 132.842 412.124 132.924 412.375C133.01 412.626 133.131 412.842 133.286 413.024C133.446 413.207 133.637 413.348 133.86 413.448C134.088 413.549 134.346 413.599 134.633 413.599C134.988 413.599 135.319 413.53 135.624 413.394C135.934 413.252 136.201 413.04 136.424 412.758L137.381 413.797C137.226 414.02 137.014 414.234 136.745 414.439C136.481 414.645 136.162 414.813 135.788 414.945C135.414 415.073 134.988 415.137 134.51 415.137Z" fill="black"/>
<rect x="31" y="816" width="354" height="56" rx="20" fill="#256BF4"/>
<path d="M167.768 847.425H172.147C172.06 848.86 171.664 850.135 170.961 851.248C170.268 852.361 169.296 853.23 168.046 853.855C166.806 854.48 165.312 854.793 163.563 854.793C162.196 854.793 160.971 854.559 159.887 854.09C158.803 853.611 157.875 852.928 157.104 852.039C156.342 851.15 155.761 850.076 155.36 848.816C154.96 847.557 154.76 846.146 154.76 844.583V843.104C154.76 841.541 154.965 840.13 155.375 838.87C155.795 837.601 156.391 836.521 157.162 835.633C157.943 834.744 158.876 834.061 159.96 833.582C161.044 833.104 162.255 832.864 163.593 832.864C165.37 832.864 166.869 833.187 168.09 833.831C169.32 834.476 170.272 835.364 170.946 836.497C171.63 837.63 172.04 838.919 172.177 840.364H167.782C167.733 839.505 167.562 838.777 167.27 838.182C166.977 837.576 166.532 837.122 165.937 836.819C165.351 836.507 164.569 836.351 163.593 836.351C162.86 836.351 162.221 836.487 161.674 836.761C161.127 837.034 160.668 837.449 160.297 838.006C159.926 838.562 159.647 839.266 159.462 840.115C159.286 840.955 159.198 841.941 159.198 843.074V844.583C159.198 845.687 159.281 846.658 159.447 847.498C159.613 848.328 159.867 849.031 160.209 849.607C160.561 850.174 161.01 850.604 161.557 850.896C162.113 851.18 162.782 851.321 163.563 851.321C164.481 851.321 165.238 851.175 165.834 850.882C166.43 850.589 166.884 850.154 167.196 849.578C167.519 849.002 167.709 848.284 167.768 847.425ZM174.096 846.736V846.429C174.096 845.267 174.262 844.197 174.594 843.221C174.926 842.234 175.409 841.38 176.044 840.657C176.679 839.935 177.46 839.373 178.388 838.973C179.315 838.562 180.38 838.357 181.581 838.357C182.782 838.357 183.852 838.562 184.789 838.973C185.727 839.373 186.513 839.935 187.147 840.657C187.792 841.38 188.28 842.234 188.612 843.221C188.944 844.197 189.11 845.267 189.11 846.429V846.736C189.11 847.889 188.944 848.958 188.612 849.944C188.28 850.921 187.792 851.775 187.147 852.508C186.513 853.23 185.731 853.792 184.804 854.192C183.876 854.593 182.812 854.793 181.61 854.793C180.409 854.793 179.34 854.593 178.402 854.192C177.475 853.792 176.688 853.23 176.044 852.508C175.409 851.775 174.926 850.921 174.594 849.944C174.262 848.958 174.096 847.889 174.096 846.736ZM178.314 846.429V846.736C178.314 847.4 178.373 848.021 178.49 848.597C178.607 849.173 178.793 849.681 179.047 850.12C179.311 850.55 179.652 850.887 180.072 851.131C180.492 851.375 181.005 851.497 181.61 851.497C182.196 851.497 182.699 851.375 183.119 851.131C183.539 850.887 183.876 850.55 184.13 850.12C184.384 849.681 184.569 849.173 184.687 848.597C184.813 848.021 184.877 847.4 184.877 846.736V846.429C184.877 845.784 184.813 845.179 184.687 844.612C184.569 844.036 184.379 843.528 184.115 843.089C183.861 842.64 183.524 842.288 183.104 842.034C182.685 841.78 182.177 841.653 181.581 841.653C180.985 841.653 180.478 841.78 180.058 842.034C179.647 842.288 179.311 842.64 179.047 843.089C178.793 843.528 178.607 844.036 178.49 844.612C178.373 845.179 178.314 845.784 178.314 846.429ZM195.834 842.034V854.5H191.615V838.65H195.57L195.834 842.034ZM195.219 846.019H194.076C194.076 844.847 194.228 843.792 194.53 842.854C194.833 841.907 195.258 841.102 195.805 840.438C196.352 839.764 197.001 839.251 197.753 838.899C198.515 838.538 199.364 838.357 200.302 838.357C201.044 838.357 201.723 838.465 202.338 838.68C202.953 838.895 203.48 839.236 203.92 839.705C204.369 840.174 204.711 840.794 204.945 841.565C205.189 842.337 205.312 843.279 205.312 844.393V854.5H201.063V844.378C201.063 843.675 200.966 843.128 200.771 842.737C200.575 842.347 200.287 842.073 199.906 841.917C199.535 841.751 199.076 841.668 198.529 841.668C197.963 841.668 197.47 841.78 197.05 842.005C196.64 842.229 196.298 842.542 196.024 842.942C195.761 843.333 195.561 843.792 195.424 844.319C195.287 844.847 195.219 845.413 195.219 846.019ZM213.793 854.5H209.56V837.933C209.56 836.585 209.833 835.447 210.38 834.52C210.937 833.592 211.728 832.889 212.753 832.41C213.788 831.932 215.038 831.692 216.503 831.692C217.333 831.692 218.139 831.775 218.92 831.941C219.701 832.098 220.507 832.303 221.337 832.557L220.722 835.94C220.185 835.774 219.608 835.618 218.993 835.472C218.378 835.325 217.636 835.252 216.767 835.252C215.79 835.252 215.048 835.481 214.54 835.94C214.042 836.39 213.793 837.054 213.793 837.933V854.5ZM216.942 838.65V841.639H207.201V838.65H216.942ZM223.3 838.65V854.5H219.066V838.65H223.3ZM231.049 842.107V854.5H226.83V838.65H230.8L231.049 842.107ZM235.824 838.548L235.751 842.459C235.546 842.43 235.297 842.405 235.004 842.386C234.721 842.356 234.462 842.342 234.228 842.342C233.632 842.342 233.114 842.42 232.675 842.576C232.245 842.723 231.884 842.942 231.591 843.235C231.308 843.528 231.093 843.885 230.946 844.305C230.81 844.725 230.731 845.203 230.712 845.74L229.862 845.477C229.862 844.451 229.965 843.509 230.17 842.649C230.375 841.78 230.673 841.023 231.063 840.379C231.464 839.734 231.952 839.236 232.528 838.885C233.104 838.533 233.764 838.357 234.506 838.357C234.74 838.357 234.979 838.377 235.224 838.416C235.468 838.445 235.668 838.489 235.824 838.548ZM242.035 841.932V854.5H237.802V838.65H241.771L242.035 841.932ZM241.449 846.019H240.277C240.277 844.915 240.409 843.899 240.673 842.972C240.946 842.034 241.342 841.224 241.859 840.54C242.387 839.847 243.036 839.31 243.808 838.929C244.579 838.548 245.473 838.357 246.488 838.357C247.191 838.357 247.836 838.465 248.422 838.68C249.008 838.885 249.511 839.212 249.931 839.661C250.36 840.101 250.692 840.677 250.927 841.39C251.161 842.093 251.278 842.938 251.278 843.924V854.5H247.06V844.393C247.06 843.67 246.962 843.113 246.767 842.723C246.571 842.332 246.293 842.059 245.932 841.902C245.58 841.746 245.155 841.668 244.657 841.668C244.11 841.668 243.632 841.78 243.222 842.005C242.821 842.229 242.489 842.542 242.226 842.942C241.962 843.333 241.767 843.792 241.64 844.319C241.513 844.847 241.449 845.413 241.449 846.019ZM250.883 845.535L249.374 845.726C249.374 844.69 249.501 843.729 249.755 842.84C250.019 841.951 250.404 841.17 250.912 840.496C251.43 839.822 252.069 839.3 252.831 838.929C253.593 838.548 254.472 838.357 255.468 838.357C256.229 838.357 256.923 838.47 257.548 838.694C258.173 838.909 258.705 839.256 259.145 839.734C259.594 840.203 259.936 840.818 260.17 841.58C260.414 842.342 260.536 843.274 260.536 844.378V854.5H256.303V844.378C256.303 843.646 256.205 843.089 256.01 842.708C255.824 842.317 255.551 842.049 255.189 841.902C254.838 841.746 254.418 841.668 253.93 841.668C253.422 841.668 252.978 841.771 252.597 841.976C252.216 842.171 251.898 842.444 251.645 842.796C251.391 843.147 251.2 843.558 251.073 844.026C250.946 844.485 250.883 844.988 250.883 845.535Z" fill="#FFFCFC"/>
<path d="M127.996 93.7832L121.035 115H115.428L124.938 89.4062H128.506L127.996 93.7832ZM133.779 115L126.801 93.7832L126.238 89.4062H129.842L139.404 115H133.779ZM133.463 105.473V109.604H119.945V105.473H133.463ZM152.693 110.852V88H157.791V115H153.203L152.693 110.852ZM140.67 105.719V105.35C140.67 103.896 140.834 102.578 141.162 101.395C141.49 100.199 141.971 99.1738 142.604 98.3184C143.236 97.4629 144.016 96.8008 144.941 96.332C145.867 95.8633 146.922 95.6289 148.105 95.6289C149.219 95.6289 150.191 95.8633 151.023 96.332C151.867 96.8008 152.582 97.4688 153.168 98.3359C153.766 99.1914 154.246 100.205 154.609 101.377C154.973 102.537 155.236 103.809 155.4 105.191V106C155.236 107.324 154.973 108.555 154.609 109.691C154.246 110.828 153.766 111.824 153.168 112.68C152.582 113.523 151.867 114.18 151.023 114.648C150.18 115.117 149.195 115.352 148.07 115.352C146.887 115.352 145.832 115.111 144.906 114.631C143.992 114.15 143.219 113.477 142.586 112.609C141.965 111.742 141.49 110.723 141.162 109.551C140.834 108.379 140.67 107.102 140.67 105.719ZM145.732 105.35V105.719C145.732 106.504 145.791 107.236 145.908 107.916C146.037 108.596 146.242 109.199 146.523 109.727C146.816 110.242 147.191 110.646 147.648 110.939C148.117 111.221 148.686 111.361 149.354 111.361C150.221 111.361 150.936 111.168 151.498 110.781C152.061 110.383 152.488 109.838 152.781 109.146C153.086 108.455 153.262 107.658 153.309 106.756V104.453C153.273 103.715 153.168 103.053 152.992 102.467C152.828 101.869 152.582 101.359 152.254 100.938C151.938 100.516 151.539 100.188 151.059 99.9531C150.59 99.7188 150.033 99.6016 149.389 99.6016C148.732 99.6016 148.17 99.7539 147.701 100.059C147.232 100.352 146.852 100.756 146.559 101.271C146.277 101.787 146.066 102.396 145.926 103.1C145.797 103.791 145.732 104.541 145.732 105.35ZM172.979 110.852V88H178.076V115H173.488L172.979 110.852ZM160.955 105.719V105.35C160.955 103.896 161.119 102.578 161.447 101.395C161.775 100.199 162.256 99.1738 162.889 98.3184C163.521 97.4629 164.301 96.8008 165.227 96.332C166.152 95.8633 167.207 95.6289 168.391 95.6289C169.504 95.6289 170.477 95.8633 171.309 96.332C172.152 96.8008 172.867 97.4688 173.453 98.3359C174.051 99.1914 174.531 100.205 174.895 101.377C175.258 102.537 175.521 103.809 175.686 105.191V106C175.521 107.324 175.258 108.555 174.895 109.691C174.531 110.828 174.051 111.824 173.453 112.68C172.867 113.523 172.152 114.18 171.309 114.648C170.465 115.117 169.48 115.352 168.355 115.352C167.172 115.352 166.117 115.111 165.191 114.631C164.277 114.15 163.504 113.477 162.871 112.609C162.25 111.742 161.775 110.723 161.447 109.551C161.119 108.379 160.955 107.102 160.955 105.719ZM166.018 105.35V105.719C166.018 106.504 166.076 107.236 166.193 107.916C166.322 108.596 166.527 109.199 166.809 109.727C167.102 110.242 167.477 110.646 167.934 110.939C168.402 111.221 168.971 111.361 169.639 111.361C170.506 111.361 171.221 111.168 171.783 110.781C172.346 110.383 172.773 109.838 173.066 109.146C173.371 108.455 173.547 107.658 173.594 106.756V104.453C173.559 103.715 173.453 103.053 173.277 102.467C173.113 101.869 172.867 101.359 172.539 100.938C172.223 100.516 171.824 100.188 171.344 99.9531C170.875 99.7188 170.318 99.6016 169.674 99.6016C169.018 99.6016 168.455 99.7539 167.986 100.059C167.518 100.352 167.137 100.756 166.844 101.271C166.562 101.787 166.352 102.396 166.211 103.1C166.082 103.791 166.018 104.541 166.018 105.35ZM201.332 103.768H194.758L194.723 100.146H200.242C201.215 100.146 202.012 100.023 202.633 99.7773C203.254 99.5195 203.717 99.1504 204.021 98.6699C204.338 98.1777 204.496 97.5801 204.496 96.877C204.496 96.0801 204.344 95.4355 204.039 94.9434C203.746 94.4512 203.283 94.0938 202.65 93.8711C202.029 93.6484 201.227 93.5371 200.242 93.5371H196.586V115H191.312V89.4062H200.242C201.73 89.4062 203.061 89.5469 204.232 89.8281C205.416 90.1094 206.418 90.5371 207.238 91.1113C208.059 91.6855 208.686 92.4121 209.119 93.291C209.553 94.1582 209.77 95.1895 209.77 96.3848C209.77 97.4395 209.529 98.4121 209.049 99.3027C208.58 100.193 207.836 100.92 206.816 101.482C205.809 102.045 204.49 102.355 202.861 102.414L201.332 103.768ZM201.104 115H193.316L195.373 110.887H201.104C202.029 110.887 202.785 110.74 203.371 110.447C203.957 110.143 204.391 109.732 204.672 109.217C204.953 108.701 205.094 108.109 205.094 107.441C205.094 106.691 204.965 106.041 204.707 105.49C204.461 104.939 204.062 104.518 203.512 104.225C202.961 103.92 202.234 103.768 201.332 103.768H196.252L196.287 100.146H202.615L203.828 101.57C205.387 101.547 206.641 101.822 207.59 102.396C208.551 102.959 209.248 103.691 209.682 104.594C210.127 105.496 210.35 106.463 210.35 107.494C210.35 109.135 209.992 110.518 209.277 111.643C208.562 112.756 207.514 113.594 206.131 114.156C204.76 114.719 203.084 115 201.104 115ZM224.254 110.711V102.238C224.254 101.629 224.154 101.107 223.955 100.674C223.756 100.229 223.445 99.8828 223.023 99.6367C222.613 99.3906 222.08 99.2676 221.424 99.2676C220.861 99.2676 220.375 99.3672 219.965 99.5664C219.555 99.7539 219.238 100.029 219.016 100.393C218.793 100.744 218.682 101.16 218.682 101.641H213.619C213.619 100.832 213.807 100.064 214.182 99.3379C214.557 98.6113 215.102 97.9727 215.816 97.4219C216.531 96.8594 217.381 96.4199 218.365 96.1035C219.361 95.7871 220.475 95.6289 221.705 95.6289C223.182 95.6289 224.494 95.875 225.643 96.3672C226.791 96.8594 227.693 97.5977 228.35 98.582C229.018 99.5664 229.352 100.797 229.352 102.273V110.412C229.352 111.455 229.416 112.311 229.545 112.979C229.674 113.635 229.861 114.209 230.107 114.701V115H224.992C224.746 114.484 224.559 113.84 224.43 113.066C224.312 112.281 224.254 111.496 224.254 110.711ZM224.922 103.416L224.957 106.281H222.127C221.459 106.281 220.879 106.357 220.387 106.51C219.895 106.662 219.49 106.879 219.174 107.16C218.857 107.43 218.623 107.746 218.471 108.109C218.33 108.473 218.26 108.871 218.26 109.305C218.26 109.738 218.359 110.131 218.559 110.482C218.758 110.822 219.045 111.092 219.42 111.291C219.795 111.479 220.234 111.572 220.738 111.572C221.5 111.572 222.162 111.42 222.725 111.115C223.287 110.811 223.721 110.436 224.025 109.99C224.342 109.545 224.506 109.123 224.518 108.725L225.854 110.869C225.666 111.35 225.408 111.848 225.08 112.363C224.764 112.879 224.359 113.365 223.867 113.822C223.375 114.268 222.783 114.637 222.092 114.93C221.4 115.211 220.58 115.352 219.631 115.352C218.424 115.352 217.328 115.111 216.344 114.631C215.371 114.139 214.598 113.465 214.023 112.609C213.461 111.742 213.18 110.758 213.18 109.656C213.18 108.66 213.367 107.775 213.742 107.002C214.117 106.229 214.668 105.578 215.395 105.051C216.133 104.512 217.053 104.107 218.154 103.838C219.256 103.557 220.533 103.416 221.986 103.416H224.922ZM238.211 100.041V115H233.148V95.9805H237.895L238.211 100.041ZM237.473 104.822H236.102C236.102 103.416 236.283 102.15 236.646 101.025C237.01 99.8887 237.52 98.9219 238.176 98.125C238.832 97.3164 239.611 96.7012 240.514 96.2793C241.428 95.8457 242.447 95.6289 243.572 95.6289C244.463 95.6289 245.277 95.7578 246.016 96.0156C246.754 96.2734 247.387 96.6836 247.914 97.2461C248.453 97.8086 248.863 98.5527 249.145 99.4785C249.438 100.404 249.584 101.535 249.584 102.871V115H244.486V102.854C244.486 102.01 244.369 101.354 244.135 100.885C243.9 100.416 243.555 100.088 243.098 99.9004C242.652 99.7012 242.102 99.6016 241.445 99.6016C240.766 99.6016 240.174 99.7363 239.67 100.006C239.178 100.275 238.768 100.65 238.439 101.131C238.123 101.6 237.883 102.15 237.719 102.783C237.555 103.416 237.473 104.096 237.473 104.822ZM258.496 87.9824V115H253.434V87.9824H258.496ZM270.484 95.9805L262.223 105.402L257.793 109.885L255.947 106.229L259.463 101.764L264.402 95.9805H270.484ZM265.229 115L259.604 106.211L263.102 103.152L271.064 115H265.229Z" fill="black"/>
<defs>
<filter id="filter0_d_29_4066" x="12" y="24" width="32.2188" height="32.2188" filterUnits="userSpaceOnUse" color-interpolation-filters="sRGB">
<feFlood flood-opacity="0" result="BackgroundImageFix"/>
<feColorMatrix in="SourceAlpha" type="matrix" values="0 0 0 0 0 0 0 0 0 0 0 0 0 0 0 0 0 0 127 0" result="hardAlpha"/>
<feOffset dy="4"/>
<feGaussianBlur stdDeviation="2"/>
<feComposite in2="hardAlpha" operator="out"/>
<feColorMatrix type="matrix" values="0 0 0 0 0 0 0 0 0 0 0 0 0 0 0 0 0 0 0.25 0"/>
<feBlend mode="normal" in2="BackgroundImageFix" result="effect1_dropShadow_29_4066"/>
<feBlend mode="normal" in="SourceGraphic" in2="effect1_dropShadow_29_4066" result="shape"/>
</filter>
<linearGradient id="paint0_linear_29_4066" x1="28.1094" y1="24" x2="28.1094" y2="48.2188" gradientUnits="userSpaceOnUse">
<stop stop-color="#00FFD1"/>
<stop offset="1" stop-color="#38A6BE" stop-opacity="0.84"/>
</linearGradient>
<radialGradient id="paint1_diamond_29_4066" cx="0" cy="0" r="1" gradientUnits="userSpaceOnUse" gradientTransform="translate(371.5 210.68) rotate(112.841) scale(761.245 479.702)">
<stop stop-color="#77D7AE" stop-opacity="0.17"/>
<stop offset="1" stop-color="#A7EBF4" stop-opacity="0.73"/>
<stop offset="1" stop-color="#A7EBF4" stop-opacity="0.2"/>
</radialGradient>
</defs>
</svg>
