<svg width="414" height="896" viewBox="0 0 414 896" fill="none" xmlns="http://www.w3.org/2000/svg">
<g clip-path="url(#clip0_29_1091)">
<rect width="414" height="896" rx="20" fill="#EEF9FA"/>
<path d="M327.774 907.267C315.427 983.745 321.6 951.879 309.254 1021.98C309.254 1021.98 181.645 1021.62 -73.572 1020.89C-118.588 1020.89 -133.04 966.633 -110.532 926.386L9.84799 795.736C46.5391 730.108 80.8411 693.765 137.453 710L235.331 736.529C311.55 757.172 340.12 830.788 327.774 907.267Z" fill="#1BB3BB"/>
<path d="M250.61 712.884C276.213 722.186 302.126 767.391 291.566 808.071C288.899 818.348 269.95 830.591 255.227 815.703C241.266 801.59 239.911 760.008 219.743 741.567C222.83 728.821 225.916 719.261 229.003 716.074C244.436 719.261 249.471 712.473 250.61 712.884Z" fill="black"/>
<path d="M193.927 627.391C191.306 618.741 190.312 609.499 191.264 600.091C192.074 592.105 194.23 584.62 197.474 577.862C204.577 563.052 216.939 551.636 231.963 545.616C242.494 541.385 254.337 539.805 266.601 541.561C304.394 546.964 331.919 581.927 328.096 619.66C327.813 622.486 322.439 639.774 321.642 642.333L319.713 648.493L307.091 705.167L298.999 701.15C298.559 701.665 298.11 702.172 297.651 702.669C294.446 706.163 290.738 709.193 286.609 711.656L278.846 716.335L273.958 719.273L273.49 719.547L273.251 719.7C267.955 722.883 261.728 726.26 255.159 729.142C246.881 732.777 237.777 731.992 230.293 727.968C228.664 730.065 226.994 732.416 225.406 734.979C223.228 738.485 221.553 742.29 220.254 746.234C220.254 746.234 217.834 751.968 217.612 751.997C206.504 764.188 188.345 768.542 171.718 761.546C152.151 753.318 141.418 732.194 145.845 712.469C145.771 712.382 145.741 712.32 145.76 712.286C154.552 696.25 149.856 705.311 162.982 688.028C168.565 680.667 175.15 676.275 186.877 653.898C188.91 650.012 194.246 637.123 195.466 634.632C195.53 634.499 195.609 634.318 195.697 634.094L193.927 627.391Z" fill="#C0543E"/>
<path d="M205.79 675.245L214.893 709.729C217.146 717.876 222.591 724.226 229.382 727.894C229.393 727.906 229.405 727.908 229.409 727.906C225.637 732.761 223.467 736.745 223.467 736.745C212.568 725.846 208.2 711.356 205.79 675.245ZM295.922 700.457L289.129 697.067C287.619 694.211 287.413 690.718 288.954 687.635L300.62 664.248L295.922 700.457Z" fill="#96432D"/>
<path d="M114.664 707.637C93.0578 684.764 90.4669 635.024 104.626 606.162C113.93 587.186 130.429 574.334 149.346 569.088C152.276 568.271 154.551 566.076 155.498 563.181L155.523 563.221L155.52 563.131L155.752 562.418C156.31 560.765 156.914 559.138 157.549 557.534C157.725 557.099 157.903 556.667 158.081 556.239C172.441 522.248 207.06 500.067 246.425 503.367C252.934 503.913 259.253 505.134 265.318 506.945C265.991 506.986 266.663 507.03 267.335 507.09C290.081 508.996 315.833 527.356 329.717 544.184C342.757 559.986 341.014 569.164 342.933 579.567C341.731 587.634 340.408 592.475 335.782 596.71C339.466 607.516 339.491 607.017 338.992 618.95C338.658 626.892 330.391 634.814 328.197 642.009L321.037 622.496L312.665 622.435C285.062 641.663 261.516 592.985 227.619 580.364C225.631 585.243 216.211 598.578 213.35 603.321C211.669 597.12 207.902 592.713 203.63 592.641C198.437 592.552 194.311 598.903 193.86 607.208L193.847 607.464L193.834 607.717L193.836 607.775L193.828 607.971L193.825 608.053L193.824 608.245L193.823 608.315L193.817 608.566L193.821 608.615L193.817 608.821L193.82 608.905L193.82 609.09L193.822 609.167L193.827 609.424L193.833 609.646L193.834 609.713L193.841 609.859L193.845 609.943L193.848 610.075L193.854 610.165L193.862 610.292L193.868 610.376L193.873 610.502L193.881 610.593L193.887 610.716L193.895 610.808L193.906 610.935L193.91 611.019L193.926 611.153L193.927 611.23L193.948 611.44L193.97 611.646L193.994 611.859L194.002 611.935L194.016 612.062L194.023 612.147L194.041 612.27L194.051 612.355L194.068 612.48L194.081 612.566L194.109 612.774L194.128 612.894L194.135 612.972L194.159 613.102L194.166 613.18L194.202 613.38L194.235 613.58L194.276 613.784L194.291 613.861L194.309 613.983L194.349 614.178L194.394 614.38L194.41 614.467L194.45 614.661L194.477 614.773L194.497 614.854L194.522 614.975L194.537 615.049L194.583 615.245L194.63 615.435L194.681 615.626L194.697 615.69L194.734 615.817L194.755 615.892L194.781 616.007L194.809 616.083L194.836 616.192L194.856 616.273L194.89 616.383L194.917 616.46L194.944 616.568L194.971 616.648L195.008 616.756L195.027 616.827L195.087 617.014L195.143 617.193L195.208 617.374L195.265 617.55L195.293 617.621L195.333 617.732L195.355 617.801L195.396 617.906L195.424 617.98L195.458 618.084L195.487 618.154L195.531 618.26L195.559 618.334L195.6 618.436L195.623 618.502L195.669 618.615L195.693 618.675L195.763 618.845L195.837 619.012L195.912 619.176L195.983 619.343L196.016 619.405L196.061 619.505L196.09 619.575L196.14 619.667L196.214 619.831L196.249 619.9L196.293 619.993L196.329 620.056L196.405 620.211L196.485 620.366L196.567 620.523L196.653 620.677L196.738 620.824L196.768 620.883L196.825 620.976L196.855 621.034L196.909 621.12L196.946 621.183L196.996 621.271L197.029 621.333L197.087 621.417L197.125 621.473L197.209 621.618L197.279 621.723C198.913 624.252 201.01 625.965 203.305 626.433C208.07 648.014 212.801 683.514 195.887 694.733C195.862 694.749 195.84 694.764 195.814 694.78C192.346 697.063 187.715 696.53 184.554 693.714L184.495 693.774L173.472 679.648C170.993 676.789 154.936 700.472 152.877 703.631C143.825 717.509 124.666 703.625 114.664 707.637Z" fill="#0F0F0F"/>
<path d="M184.178 810.925C184.178 810.925 153.509 702.957 125.599 689.165L96.8501 707.705L116.849 785.461L184.178 810.925Z" fill="#1BB3BB"/>
<path d="M278.222 915.294L179.489 912.409C176.679 912.327 174.45 909.926 174.511 907.047L175.76 847.921C175.821 845.042 178.149 842.777 180.96 842.859L279.692 845.743C282.502 845.826 284.732 848.224 284.671 851.103L283.421 910.228C283.36 913.108 281.032 915.376 278.222 915.294Z" fill="white"/>
<path d="M259.573 874.096C259 873.713 258.414 873.359 258.051 872.598C257.558 871.568 257.507 869.721 257.256 868.371C256.947 868.588 256.038 868.979 255.651 866.422C255.143 863.101 255.228 861.313 256.349 860.986C256.721 860.879 256.949 860.994 257.082 861.131C257.793 853.535 260.538 851.786 265.003 851.983C269.459 852.177 272.076 854.146 272.263 861.759C272.417 861.677 272.635 861.636 272.947 861.75C274.105 862.175 274.064 863.969 273.293 867.239C272.754 869.524 271.938 869.353 271.561 869.117C271.163 870.619 271.109 872.575 270.428 873.63C270.107 874.13 269.656 874.435 269.173 874.675L268.951 885.187C268.95 885.257 268.942 885.324 268.934 885.393L268.94 885.718C268.918 889.838 258.794 889.173 259.33 885.594C259.337 885.559 259.343 885.422 259.354 885.203C259.343 885.107 259.342 885.009 259.344 884.907L259.573 874.096Z" fill="#C0543E"/>
<path d="M269.163 874.734C269.163 874.734 266.772 876.254 264.311 876.252C261.852 876.247 259.575 874.276 259.575 874.276C259.575 874.276 260.47 875.51 264.284 877.51C267.571 876.293 269.163 874.734 269.163 874.734ZM264.459 869.202C263.951 869.353 263.451 868.928 263.488 868.373L263.721 864.81L264.459 869.202Z" fill="#C0543E"/>
<path d="M255.895 862.014C255.184 862.658 255.188 864.375 255.618 867.21C256.007 869.768 256.911 869.375 257.22 869.158C257.732 871.929 258.803 874.068 260.241 875.426C260.372 877.306 260.421 878.919 260.388 880.488C260.354 881.981 259.767 883.636 259.274 884.811C255.226 885.322 249.952 885.622 250.761 883.57C252.049 880.295 252.956 871.968 253.266 863.047C253.575 854.126 257.731 849.765 264.837 850.071L264.998 850.079C272.107 850.386 275.949 855.098 275.643 864.016C275.333 872.939 275.665 881.319 276.722 884.691C277.402 886.87 271.855 886.008 267.815 885.121C267.129 882.806 266.836 878.197 267.413 876.246C269.235 875.123 270.695 872.95 271.503 869.903C271.88 870.136 272.695 870.31 273.233 868.024C273.968 864.904 274.033 863.136 273.028 862.61C272.947 864.948 272.564 866.809 272.564 866.809L271.796 866.774C271.999 860.956 269.654 856.141 269.654 856.141C267.422 859.223 263.261 859.531 260.854 860.617C256.91 862.387 257.002 866.135 257.002 866.135L256.24 866.1C255.997 864.357 255.885 863.066 255.895 862.014Z" fill="black"/>
<path d="M187.615 847.781C185.949 847.732 184.566 849.072 184.53 850.778L184.329 860.265C184.293 861.968 185.617 863.388 187.283 863.436L209.233 864.078C210.899 864.127 212.279 862.786 212.315 861.083L212.516 851.597C212.552 849.891 211.23 848.471 209.564 848.422L187.615 847.781Z" fill="#EB0000"/>
<path d="M235.132 905.178L243.171 905.412L243.082 909.592L235.044 909.358L235.132 905.178ZM224.772 904.876L232.814 905.11L232.725 909.29L224.683 909.056L224.772 904.876ZM207.516 876.913L228.363 877.52L228.295 880.726L207.448 880.118L207.516 876.913ZM207.285 883.894L228.134 884.502L228.067 887.713L207.217 887.105L207.285 883.894ZM214.384 904.573L222.423 904.807L222.335 908.987L214.296 908.753L214.384 904.573ZM204.027 904.271L212.066 904.505L211.978 908.685L203.939 908.451L204.027 904.271ZM183.715 883.206L204.562 883.814L204.494 887.026L183.647 886.418L183.715 883.206ZM183.804 876.221L204.651 876.829L204.583 880.034L183.736 879.427L183.804 876.221ZM193.648 903.968L201.687 904.203L201.599 908.383L193.56 908.148L193.648 903.968ZM183.288 903.666L191.33 903.901L191.242 908.081L183.2 907.846L183.288 903.666Z" fill="#C3DEE7"/>
<path d="M93.644 909.815L113.743 867.81C118.171 858.548 125.679 851.243 134.899 847.182L135.971 846.722L170.237 832.767C175.835 831.601 181.66 833.177 186.003 837.025L214.391 862.194C218.117 865.497 218.356 871.333 214.912 874.893C211.779 878.132 206.725 878.301 203.345 875.294L183.224 857.374L216.474 897.87C219.368 901.4 218.995 906.64 215.63 909.653C212.354 912.592 207.393 912.377 204.33 909.161L189.681 893.801L187.933 895.639L198.941 918.759C200.323 921.66 199.727 925.11 197.519 927.325L197.111 927.7C193.914 930.448 189.096 929.85 186.603 926.383C183.315 921.82 178.748 915.499 174.542 909.731L170.495 913.987L172.707 926.954C173.142 929.513 171.999 932.048 169.872 933.364L169.433 933.612C167.067 934.809 164.207 934.306 162.347 932.366L157.667 927.473L156.989 928.187L147.257 935.401C144.017 937.808 140.669 940.044 137.232 942.112C133.005 944.664 128.63 946.968 124.135 949.002C107.423 954.946 70.3889 947.754 93.644 909.815Z" fill="#C0543E"/>
<path d="M334.921 1040.12L412.867 900.737C416.549 894.158 411.948 885.938 404.591 885.938L350.294 885.051C346.879 885.051 343.724 886.932 342.018 889.985L264.065 1029.37C260.387 1035.94 264.987 1044.17 272.348 1044.17L326.642 1045.05C330.057 1045.05 333.215 1043.18 334.921 1040.12Z" fill="#070707"/>
<path d="M288.051 31.2129L284.184 43H281.068L286.352 28.7812H288.334L288.051 31.2129ZM291.264 43L287.387 31.2129L287.074 28.7812H289.076L294.389 43H291.264ZM291.088 37.707V40.002H283.578V37.707H291.088ZM298.5 28V43H295.678V28H298.5ZM303.637 34.4648V47.0625H300.824V32.4336H303.432L303.637 34.4648ZM310.326 37.5996V37.8047C310.326 38.5729 310.235 39.2858 310.053 39.9434C309.877 40.6009 309.617 41.1738 309.271 41.6621C308.926 42.1439 308.497 42.5215 307.982 42.7949C307.475 43.0618 306.889 43.1953 306.225 43.1953C305.58 43.1953 305.02 43.0651 304.545 42.8047C304.07 42.5443 303.669 42.1797 303.344 41.7109C303.025 41.2357 302.768 40.6855 302.572 40.0605C302.377 39.4355 302.227 38.765 302.123 38.0488V37.5117C302.227 36.7435 302.377 36.0404 302.572 35.4023C302.768 34.7578 303.025 34.2012 303.344 33.7324C303.669 33.2572 304.066 32.8893 304.535 32.6289C305.01 32.3685 305.567 32.2383 306.205 32.2383C306.876 32.2383 307.465 32.3652 307.973 32.6191C308.487 32.873 308.917 33.2376 309.262 33.7129C309.613 34.1882 309.877 34.7546 310.053 35.4121C310.235 36.0697 310.326 36.7988 310.326 37.5996ZM307.504 37.8047V37.5996C307.504 37.1504 307.465 36.737 307.387 36.3594C307.315 35.9753 307.198 35.64 307.035 35.3535C306.879 35.0671 306.671 34.8457 306.41 34.6895C306.156 34.5267 305.847 34.4453 305.482 34.4453C305.098 34.4453 304.77 34.5072 304.496 34.6309C304.229 34.7546 304.011 34.9336 303.842 35.168C303.673 35.4023 303.546 35.6823 303.461 36.0078C303.376 36.3333 303.324 36.7012 303.305 37.1113V38.4688C303.337 38.9505 303.428 39.3835 303.578 39.7676C303.728 40.1452 303.959 40.4447 304.271 40.666C304.584 40.8874 304.994 40.998 305.502 40.998C305.873 40.998 306.186 40.9167 306.439 40.7539C306.693 40.5846 306.898 40.3535 307.055 40.0605C307.217 39.7676 307.331 39.429 307.396 39.0449C307.468 38.6608 307.504 38.2474 307.504 37.8047ZM314.818 28V43H312.006V28H314.818ZM314.418 37.3457H313.646C313.653 36.61 313.751 35.9329 313.939 35.3145C314.128 34.6895 314.398 34.1491 314.75 33.6934C315.102 33.2311 315.521 32.873 316.01 32.6191C316.505 32.3652 317.051 32.2383 317.65 32.2383C318.171 32.2383 318.643 32.3132 319.066 32.4629C319.496 32.6061 319.864 32.8405 320.17 33.166C320.482 33.485 320.723 33.9049 320.893 34.4258C321.062 34.9466 321.146 35.5781 321.146 36.3203V43H318.314V36.3008C318.314 35.832 318.246 35.4642 318.109 35.1973C317.979 34.9238 317.787 34.7318 317.533 34.6211C317.286 34.5039 316.98 34.4453 316.615 34.4453C316.212 34.4453 315.867 34.5202 315.58 34.6699C315.3 34.8197 315.076 35.028 314.906 35.2949C314.737 35.5553 314.613 35.8613 314.535 36.2129C314.457 36.5645 314.418 36.9421 314.418 37.3457ZM328.988 40.6172V35.9102C328.988 35.5716 328.933 35.2819 328.822 35.041C328.712 34.7936 328.539 34.6016 328.305 34.4648C328.077 34.3281 327.781 34.2598 327.416 34.2598C327.104 34.2598 326.833 34.3151 326.605 34.4258C326.378 34.5299 326.202 34.6829 326.078 34.8848C325.954 35.0801 325.893 35.3112 325.893 35.5781H323.08C323.08 35.1289 323.184 34.7025 323.393 34.2988C323.601 33.8952 323.904 33.5404 324.301 33.2344C324.698 32.9219 325.17 32.6777 325.717 32.502C326.27 32.3262 326.889 32.2383 327.572 32.2383C328.393 32.2383 329.122 32.375 329.76 32.6484C330.398 32.9219 330.899 33.332 331.264 33.8789C331.635 34.4258 331.82 35.1094 331.82 35.9297V40.4512C331.82 41.0306 331.856 41.5059 331.928 41.877C331.999 42.2415 332.104 42.5605 332.24 42.834V43H329.398C329.262 42.7135 329.158 42.3555 329.086 41.9258C329.021 41.4896 328.988 41.0534 328.988 40.6172ZM329.359 36.5645L329.379 38.1562H327.807C327.436 38.1562 327.113 38.1986 326.84 38.2832C326.566 38.3678 326.342 38.4883 326.166 38.6445C325.99 38.7943 325.86 38.9701 325.775 39.1719C325.697 39.3737 325.658 39.5951 325.658 39.8359C325.658 40.0768 325.714 40.2949 325.824 40.4902C325.935 40.679 326.094 40.8288 326.303 40.9395C326.511 41.0436 326.755 41.0957 327.035 41.0957C327.458 41.0957 327.826 41.0111 328.139 40.8418C328.451 40.6725 328.692 40.4642 328.861 40.2168C329.037 39.9694 329.128 39.735 329.135 39.5137L329.877 40.7051C329.773 40.972 329.63 41.2487 329.447 41.5352C329.271 41.8216 329.047 42.0918 328.773 42.3457C328.5 42.5931 328.171 42.7982 327.787 42.9609C327.403 43.1172 326.947 43.1953 326.42 43.1953C325.749 43.1953 325.141 43.0618 324.594 42.7949C324.053 42.5215 323.624 42.1471 323.305 41.6719C322.992 41.1901 322.836 40.6432 322.836 40.0312C322.836 39.4779 322.94 38.9863 323.148 38.5566C323.357 38.127 323.663 37.7656 324.066 37.4727C324.477 37.1732 324.988 36.9486 325.6 36.7988C326.212 36.6426 326.921 36.5645 327.729 36.5645H329.359ZM343.305 40.7148V43H336.146V40.7148H343.305ZM337.094 28.7812V43H334.164V28.7812H337.094ZM344.359 37.8242V37.6191C344.359 36.8444 344.47 36.1315 344.691 35.4805C344.913 34.8229 345.235 34.2533 345.658 33.7715C346.081 33.2897 346.602 32.9154 347.221 32.6484C347.839 32.375 348.549 32.2383 349.35 32.2383C350.15 32.2383 350.863 32.375 351.488 32.6484C352.113 32.9154 352.637 33.2897 353.061 33.7715C353.49 34.2533 353.816 34.8229 354.037 35.4805C354.258 36.1315 354.369 36.8444 354.369 37.6191V37.8242C354.369 38.5924 354.258 39.3053 354.037 39.9629C353.816 40.6139 353.49 41.1836 353.061 41.6719C352.637 42.1536 352.117 42.528 351.498 42.7949C350.88 43.0618 350.17 43.1953 349.369 43.1953C348.568 43.1953 347.855 43.0618 347.23 42.7949C346.612 42.528 346.088 42.1536 345.658 41.6719C345.235 41.1836 344.913 40.6139 344.691 39.9629C344.47 39.3053 344.359 38.5924 344.359 37.8242ZM347.172 37.6191V37.8242C347.172 38.2669 347.211 38.6803 347.289 39.0645C347.367 39.4486 347.491 39.7871 347.66 40.0801C347.836 40.3665 348.064 40.5911 348.344 40.7539C348.624 40.9167 348.965 40.998 349.369 40.998C349.76 40.998 350.095 40.9167 350.375 40.7539C350.655 40.5911 350.88 40.3665 351.049 40.0801C351.218 39.7871 351.342 39.4486 351.42 39.0645C351.505 38.6803 351.547 38.2669 351.547 37.8242V37.6191C351.547 37.1895 351.505 36.7858 351.42 36.4082C351.342 36.0241 351.215 35.6855 351.039 35.3926C350.87 35.0931 350.645 34.8587 350.365 34.6895C350.085 34.5202 349.747 34.4355 349.35 34.4355C348.952 34.4355 348.614 34.5202 348.334 34.6895C348.061 34.8587 347.836 35.0931 347.66 35.3926C347.491 35.6855 347.367 36.0241 347.289 36.4082C347.211 36.7858 347.172 37.1895 347.172 37.6191ZM361.801 40.6172V35.9102C361.801 35.5716 361.745 35.2819 361.635 35.041C361.524 34.7936 361.352 34.6016 361.117 34.4648C360.889 34.3281 360.593 34.2598 360.229 34.2598C359.916 34.2598 359.646 34.3151 359.418 34.4258C359.19 34.5299 359.014 34.6829 358.891 34.8848C358.767 35.0801 358.705 35.3112 358.705 35.5781H355.893C355.893 35.1289 355.997 34.7025 356.205 34.2988C356.413 33.8952 356.716 33.5404 357.113 33.2344C357.51 32.9219 357.982 32.6777 358.529 32.502C359.083 32.3262 359.701 32.2383 360.385 32.2383C361.205 32.2383 361.934 32.375 362.572 32.6484C363.21 32.9219 363.712 33.332 364.076 33.8789C364.447 34.4258 364.633 35.1094 364.633 35.9297V40.4512C364.633 41.0306 364.669 41.5059 364.74 41.877C364.812 42.2415 364.916 42.5605 365.053 42.834V43H362.211C362.074 42.7135 361.97 42.3555 361.898 41.9258C361.833 41.4896 361.801 41.0534 361.801 40.6172ZM362.172 36.5645L362.191 38.1562H360.619C360.248 38.1562 359.926 38.1986 359.652 38.2832C359.379 38.3678 359.154 38.4883 358.979 38.6445C358.803 38.7943 358.673 38.9701 358.588 39.1719C358.51 39.3737 358.471 39.5951 358.471 39.8359C358.471 40.0768 358.526 40.2949 358.637 40.4902C358.747 40.679 358.907 40.8288 359.115 40.9395C359.324 41.0436 359.568 41.0957 359.848 41.0957C360.271 41.0957 360.639 41.0111 360.951 40.8418C361.264 40.6725 361.505 40.4642 361.674 40.2168C361.85 39.9694 361.941 39.735 361.947 39.5137L362.689 40.7051C362.585 40.972 362.442 41.2487 362.26 41.5352C362.084 41.8216 361.859 42.0918 361.586 42.3457C361.312 42.5931 360.984 42.7982 360.6 42.9609C360.215 43.1172 359.76 43.1953 359.232 43.1953C358.562 43.1953 357.953 43.0618 357.406 42.7949C356.866 42.5215 356.436 42.1471 356.117 41.6719C355.805 41.1901 355.648 40.6432 355.648 40.0312C355.648 39.4779 355.753 38.9863 355.961 38.5566C356.169 38.127 356.475 37.7656 356.879 37.4727C357.289 37.1732 357.8 36.9486 358.412 36.7988C359.024 36.6426 359.734 36.5645 360.541 36.5645H362.172ZM369.555 34.6895V43H366.742V32.4336H369.379L369.555 34.6895ZM369.145 37.3457H368.383C368.383 36.5645 368.484 35.8613 368.686 35.2363C368.887 34.6048 369.171 34.0677 369.535 33.625C369.9 33.1758 370.333 32.834 370.834 32.5996C371.342 32.3587 371.908 32.2383 372.533 32.2383C373.028 32.2383 373.48 32.3099 373.891 32.4531C374.301 32.5964 374.652 32.8242 374.945 33.1367C375.245 33.4492 375.473 33.8626 375.629 34.377C375.792 34.8913 375.873 35.5195 375.873 36.2617V43H373.041V36.252C373.041 35.7832 372.976 35.4186 372.846 35.1582C372.715 34.8978 372.523 34.7155 372.27 34.6113C372.022 34.5007 371.716 34.4453 371.352 34.4453C370.974 34.4453 370.645 34.5202 370.365 34.6699C370.092 34.8197 369.864 35.028 369.682 35.2949C369.506 35.5553 369.372 35.8613 369.281 36.2129C369.19 36.5645 369.145 36.9421 369.145 37.3457Z" fill="black"/>
<g filter="url(#filter0_d_29_1091)">
<path d="M28.1094 24C21.4214 24 16 29.4214 16 36.1094C16 42.7974 21.4214 48.2188 28.1094 48.2188C34.7974 48.2188 40.2188 42.7974 40.2188 36.1094C40.2188 29.4214 34.7974 24 28.1094 24ZM28.1094 45.0938C23.144 45.0938 19.125 41.0757 19.125 36.1094C19.125 31.144 23.1431 27.125 28.1094 27.125C33.0747 27.125 37.0938 31.1431 37.0938 36.1094C37.0938 41.0747 33.0757 45.0938 28.1094 45.0938ZM28.1094 29.8594C24.6577 29.8594 21.8594 32.6577 21.8594 36.1094C21.8594 39.561 24.6577 42.3594 28.1094 42.3594C31.561 42.3594 34.3594 39.561 34.3594 36.1094C34.3594 32.6577 31.561 29.8594 28.1094 29.8594ZM28.1094 39.2344C26.3862 39.2344 24.9844 37.8325 24.9844 36.1094C24.9844 34.3862 26.3862 32.9844 28.1094 32.9844C29.8325 32.9844 31.2344 34.3862 31.2344 36.1094C31.2344 37.8325 29.8325 39.2344 28.1094 39.2344Z" fill="url(#paint0_linear_29_1091)" shape-rendering="crispEdges"/>
</g>
<rect x="31" y="816" width="354" height="56" rx="20" fill="#256BF4"/>
<path d="M185.21 850.12C185.21 849.817 185.122 849.544 184.946 849.3C184.771 849.056 184.443 848.831 183.965 848.626C183.496 848.411 182.817 848.216 181.929 848.04C181.128 847.864 180.381 847.645 179.688 847.381C179.004 847.107 178.408 846.78 177.9 846.399C177.402 846.019 177.012 845.569 176.729 845.052C176.445 844.524 176.304 843.924 176.304 843.25C176.304 842.586 176.445 841.961 176.729 841.375C177.021 840.789 177.437 840.271 177.974 839.822C178.521 839.363 179.185 839.007 179.966 838.753C180.757 838.489 181.646 838.357 182.632 838.357C184.009 838.357 185.19 838.577 186.177 839.017C187.173 839.456 187.935 840.062 188.462 840.833C188.999 841.595 189.268 842.464 189.268 843.44H185.049C185.049 843.03 184.961 842.664 184.785 842.342C184.619 842.01 184.355 841.751 183.994 841.565C183.643 841.37 183.184 841.272 182.617 841.272C182.148 841.272 181.743 841.355 181.401 841.521C181.06 841.678 180.796 841.893 180.61 842.166C180.435 842.43 180.347 842.723 180.347 843.045C180.347 843.289 180.396 843.509 180.493 843.704C180.601 843.89 180.771 844.061 181.006 844.217C181.24 844.373 181.543 844.52 181.914 844.656C182.295 844.783 182.764 844.9 183.32 845.008C184.463 845.242 185.483 845.55 186.382 845.931C187.28 846.302 187.993 846.81 188.521 847.454C189.048 848.089 189.312 848.924 189.312 849.959C189.312 850.662 189.155 851.307 188.843 851.893C188.53 852.479 188.081 852.991 187.495 853.431C186.909 853.86 186.206 854.197 185.386 854.441C184.575 854.676 183.662 854.793 182.646 854.793C181.172 854.793 179.922 854.529 178.896 854.002C177.881 853.475 177.109 852.806 176.582 851.995C176.064 851.175 175.806 850.335 175.806 849.476H179.805C179.824 850.052 179.971 850.516 180.244 850.867C180.527 851.219 180.884 851.473 181.313 851.629C181.753 851.785 182.227 851.863 182.734 851.863C183.281 851.863 183.735 851.79 184.097 851.644C184.458 851.487 184.731 851.282 184.917 851.028C185.112 850.765 185.21 850.462 185.21 850.12ZM199.346 854.793C198.115 854.793 197.012 854.598 196.035 854.207C195.059 853.807 194.229 853.255 193.545 852.552C192.871 851.849 192.354 851.033 191.992 850.105C191.631 849.168 191.45 848.172 191.45 847.117V846.531C191.45 845.33 191.621 844.231 191.963 843.235C192.305 842.239 192.793 841.375 193.428 840.643C194.072 839.91 194.854 839.349 195.771 838.958C196.689 838.558 197.725 838.357 198.877 838.357C200 838.357 200.996 838.543 201.865 838.914C202.734 839.285 203.462 839.812 204.048 840.496C204.644 841.18 205.093 842 205.396 842.957C205.698 843.904 205.85 844.959 205.85 846.121V847.879H193.252V845.066H201.704V844.744C201.704 844.158 201.597 843.636 201.382 843.177C201.177 842.708 200.864 842.337 200.444 842.063C200.024 841.79 199.487 841.653 198.833 841.653C198.276 841.653 197.798 841.775 197.397 842.02C196.997 842.264 196.67 842.605 196.416 843.045C196.172 843.484 195.986 844.002 195.859 844.598C195.742 845.184 195.684 845.828 195.684 846.531V847.117C195.684 847.752 195.771 848.338 195.947 848.875C196.133 849.412 196.392 849.876 196.724 850.267C197.065 850.657 197.476 850.96 197.954 851.175C198.442 851.39 198.994 851.497 199.609 851.497C200.371 851.497 201.079 851.351 201.733 851.058C202.397 850.755 202.969 850.301 203.447 849.695L205.498 851.922C205.166 852.4 204.712 852.859 204.136 853.299C203.569 853.738 202.886 854.1 202.085 854.383C201.284 854.656 200.371 854.793 199.346 854.793ZM212.383 842.034V854.5H208.164V838.65H212.119L212.383 842.034ZM211.768 846.019H210.625C210.625 844.847 210.776 843.792 211.079 842.854C211.382 841.907 211.807 841.102 212.354 840.438C212.9 839.764 213.55 839.251 214.302 838.899C215.063 838.538 215.913 838.357 216.851 838.357C217.593 838.357 218.271 838.465 218.887 838.68C219.502 838.895 220.029 839.236 220.469 839.705C220.918 840.174 221.26 840.794 221.494 841.565C221.738 842.337 221.86 843.279 221.86 844.393V854.5H217.612V844.378C217.612 843.675 217.515 843.128 217.319 842.737C217.124 842.347 216.836 842.073 216.455 841.917C216.084 841.751 215.625 841.668 215.078 841.668C214.512 841.668 214.019 841.78 213.599 842.005C213.188 842.229 212.847 842.542 212.573 842.942C212.31 843.333 212.109 843.792 211.973 844.319C211.836 844.847 211.768 845.413 211.768 846.019ZM234.429 851.043V832H238.677V854.5H234.854L234.429 851.043ZM224.409 846.766V846.458C224.409 845.247 224.546 844.148 224.819 843.162C225.093 842.166 225.493 841.312 226.021 840.599C226.548 839.886 227.197 839.334 227.969 838.943C228.74 838.553 229.619 838.357 230.605 838.357C231.533 838.357 232.344 838.553 233.037 838.943C233.74 839.334 234.336 839.891 234.824 840.613C235.322 841.326 235.723 842.171 236.025 843.147C236.328 844.114 236.548 845.174 236.685 846.326V847C236.548 848.104 236.328 849.129 236.025 850.076C235.723 851.023 235.322 851.854 234.824 852.566C234.336 853.27 233.74 853.816 233.037 854.207C232.334 854.598 231.514 854.793 230.576 854.793C229.59 854.793 228.711 854.593 227.939 854.192C227.178 853.792 226.533 853.23 226.006 852.508C225.488 851.785 225.093 850.936 224.819 849.959C224.546 848.982 224.409 847.918 224.409 846.766ZM228.628 846.458V846.766C228.628 847.42 228.677 848.03 228.774 848.597C228.882 849.163 229.053 849.666 229.287 850.105C229.531 850.535 229.844 850.872 230.225 851.116C230.615 851.351 231.089 851.468 231.646 851.468C232.368 851.468 232.964 851.307 233.433 850.984C233.901 850.652 234.258 850.198 234.502 849.622C234.756 849.046 234.902 848.382 234.941 847.63V845.711C234.912 845.096 234.824 844.544 234.678 844.056C234.541 843.558 234.336 843.133 234.062 842.781C233.799 842.43 233.467 842.156 233.066 841.961C232.676 841.766 232.212 841.668 231.675 841.668C231.128 841.668 230.659 841.795 230.269 842.049C229.878 842.293 229.561 842.63 229.316 843.06C229.082 843.489 228.906 843.997 228.789 844.583C228.682 845.159 228.628 845.784 228.628 846.458Z" fill="#FFFCFC"/>
<rect x="16.5" y="203.5" width="380" height="55" rx="9.5" stroke="#272727"/>
<rect x="16.5" y="344.5" width="380" height="55" rx="9.5" stroke="#272727"/>
<rect x="16.5" y="418.5" width="380" height="55" rx="9.5" stroke="#272727"/>
<rect x="16.5" y="277.5" width="380" height="55" rx="9.5" stroke="#272727"/>
<path d="M54.2871 227.4V229H49.2764V227.4H54.2871ZM49.9395 219.047V229H47.8887V219.047H49.9395ZM55.0254 225.377V225.233C55.0254 224.691 55.1029 224.192 55.2578 223.736C55.4128 223.276 55.6383 222.877 55.9346 222.54C56.2308 222.203 56.5954 221.941 57.0283 221.754C57.4613 221.562 57.958 221.467 58.5186 221.467C59.0791 221.467 59.5781 221.562 60.0156 221.754C60.4531 221.941 60.82 222.203 61.1162 222.54C61.417 222.877 61.6449 223.276 61.7998 223.736C61.9548 224.192 62.0322 224.691 62.0322 225.233V225.377C62.0322 225.915 61.9548 226.414 61.7998 226.874C61.6449 227.33 61.417 227.729 61.1162 228.07C60.82 228.408 60.4554 228.67 60.0225 228.856C59.5895 229.043 59.0928 229.137 58.5322 229.137C57.9717 229.137 57.4727 229.043 57.0352 228.856C56.6022 228.67 56.2354 228.408 55.9346 228.07C55.6383 227.729 55.4128 227.33 55.2578 226.874C55.1029 226.414 55.0254 225.915 55.0254 225.377ZM56.9941 225.233V225.377C56.9941 225.687 57.0215 225.976 57.0762 226.245C57.1309 226.514 57.2174 226.751 57.3359 226.956C57.459 227.157 57.6185 227.314 57.8145 227.428C58.0104 227.542 58.2497 227.599 58.5322 227.599C58.8057 227.599 59.0404 227.542 59.2363 227.428C59.4323 227.314 59.5895 227.157 59.708 226.956C59.8265 226.751 59.9131 226.514 59.9678 226.245C60.027 225.976 60.0566 225.687 60.0566 225.377V225.233C60.0566 224.933 60.027 224.65 59.9678 224.386C59.9131 224.117 59.8242 223.88 59.7012 223.675C59.5827 223.465 59.4255 223.301 59.2295 223.183C59.0335 223.064 58.7965 223.005 58.5186 223.005C58.2406 223.005 58.0036 223.064 57.8076 223.183C57.6162 223.301 57.459 223.465 57.3359 223.675C57.2174 223.88 57.1309 224.117 57.0762 224.386C57.0215 224.65 56.9941 224.933 56.9941 225.233ZM67.2344 227.332V224.037C67.2344 223.8 67.1956 223.597 67.1182 223.429C67.0407 223.256 66.9199 223.121 66.7559 223.025C66.5964 222.93 66.389 222.882 66.1338 222.882C65.915 222.882 65.7259 222.921 65.5664 222.998C65.4069 223.071 65.2839 223.178 65.1973 223.319C65.1107 223.456 65.0674 223.618 65.0674 223.805H63.0986C63.0986 223.49 63.1715 223.192 63.3174 222.909C63.4632 222.627 63.6751 222.378 63.9531 222.164C64.2311 221.945 64.5615 221.774 64.9443 221.651C65.3317 221.528 65.7646 221.467 66.2432 221.467C66.8174 221.467 67.3278 221.562 67.7744 221.754C68.221 221.945 68.5719 222.232 68.8271 222.615C69.0869 222.998 69.2168 223.477 69.2168 224.051V227.216C69.2168 227.621 69.2419 227.954 69.292 228.214C69.3421 228.469 69.415 228.692 69.5107 228.884V229H67.5215C67.4258 228.799 67.3529 228.549 67.3027 228.248C67.2572 227.943 67.2344 227.637 67.2344 227.332ZM67.4941 224.495L67.5078 225.609H66.4072C66.1475 225.609 65.9219 225.639 65.7305 225.698C65.5391 225.757 65.3818 225.842 65.2588 225.951C65.1357 226.056 65.0446 226.179 64.9854 226.32C64.9307 226.462 64.9033 226.617 64.9033 226.785C64.9033 226.954 64.9421 227.106 65.0195 227.243C65.097 227.375 65.2087 227.48 65.3545 227.558C65.5003 227.631 65.6712 227.667 65.8672 227.667C66.1634 227.667 66.4209 227.608 66.6396 227.489C66.8584 227.371 67.027 227.225 67.1455 227.052C67.2686 226.879 67.3324 226.715 67.3369 226.56L67.8564 227.394C67.7835 227.58 67.6833 227.774 67.5557 227.975C67.4326 228.175 67.2754 228.364 67.084 228.542C66.8926 228.715 66.6624 228.859 66.3936 228.973C66.1247 229.082 65.8057 229.137 65.4365 229.137C64.9671 229.137 64.541 229.043 64.1582 228.856C63.7799 228.665 63.4792 228.403 63.2559 228.07C63.0371 227.733 62.9277 227.35 62.9277 226.922C62.9277 226.535 63.0007 226.19 63.1465 225.89C63.2923 225.589 63.5065 225.336 63.7891 225.131C64.0762 224.921 64.4339 224.764 64.8623 224.659C65.2907 224.55 65.7874 224.495 66.3525 224.495H67.4941ZM72.6621 223.183V229H70.6934V221.604H72.5391L72.6621 223.183ZM72.375 225.042H71.8418C71.8418 224.495 71.9124 224.003 72.0537 223.565C72.195 223.123 72.3932 222.747 72.6484 222.438C72.9036 222.123 73.2067 221.884 73.5576 221.72C73.9131 221.551 74.3096 221.467 74.7471 221.467C75.0934 221.467 75.4102 221.517 75.6973 221.617C75.9844 221.717 76.2305 221.877 76.4355 222.096C76.6452 222.314 76.8047 222.604 76.9141 222.964C77.028 223.324 77.085 223.764 77.085 224.283V229H75.1025V224.276C75.1025 223.948 75.057 223.693 74.9658 223.511C74.8747 223.328 74.7402 223.201 74.5625 223.128C74.3893 223.05 74.1751 223.012 73.9199 223.012C73.6556 223.012 73.4255 223.064 73.2295 223.169C73.0381 223.274 72.8786 223.42 72.751 223.606C72.6279 223.789 72.5345 224.003 72.4707 224.249C72.4069 224.495 72.375 224.759 72.375 225.042ZM86.2383 220.749L83.5312 229H81.3506L85.0488 219.047H86.4365L86.2383 220.749ZM88.4873 229L85.7734 220.749L85.5547 219.047H86.9561L90.6748 229H88.4873ZM88.3643 225.295V226.901H83.1074V225.295H88.3643ZM93.2246 223.135V229H91.249V221.604H93.1016L93.2246 223.135ZM92.9512 225.042H92.4043C92.4043 224.527 92.4658 224.053 92.5889 223.62C92.7165 223.183 92.901 222.804 93.1426 222.485C93.3887 222.162 93.6917 221.911 94.0518 221.733C94.4118 221.556 94.8288 221.467 95.3027 221.467C95.6309 221.467 95.9316 221.517 96.2051 221.617C96.4785 221.713 96.7132 221.866 96.9092 222.075C97.1097 222.28 97.2646 222.549 97.374 222.882C97.4834 223.21 97.5381 223.604 97.5381 224.064V229H95.5693V224.283C95.5693 223.946 95.5238 223.686 95.4326 223.504C95.3415 223.322 95.2116 223.194 95.043 223.121C94.8789 223.048 94.6807 223.012 94.4482 223.012C94.193 223.012 93.9697 223.064 93.7783 223.169C93.5915 223.274 93.4365 223.42 93.3135 223.606C93.1904 223.789 93.0993 224.003 93.04 224.249C92.9808 224.495 92.9512 224.759 92.9512 225.042ZM97.3535 224.816L96.6494 224.905C96.6494 224.422 96.7087 223.973 96.8271 223.559C96.9502 223.144 97.1302 222.779 97.3672 222.465C97.6087 222.15 97.9072 221.907 98.2627 221.733C98.6182 221.556 99.0283 221.467 99.4932 221.467C99.8486 221.467 100.172 221.519 100.464 221.624C100.756 221.724 101.004 221.886 101.209 222.109C101.419 222.328 101.578 222.615 101.688 222.971C101.801 223.326 101.858 223.761 101.858 224.276V229H99.8828V224.276C99.8828 223.935 99.8372 223.675 99.7461 223.497C99.6595 223.315 99.5319 223.189 99.3633 223.121C99.1992 223.048 99.0033 223.012 98.7754 223.012C98.5384 223.012 98.3311 223.06 98.1533 223.155C97.9756 223.246 97.8275 223.374 97.709 223.538C97.5905 223.702 97.5016 223.894 97.4424 224.112C97.3831 224.326 97.3535 224.561 97.3535 224.816ZM103.068 225.377V225.233C103.068 224.691 103.146 224.192 103.301 223.736C103.456 223.276 103.681 222.877 103.978 222.54C104.274 222.203 104.638 221.941 105.071 221.754C105.504 221.562 106.001 221.467 106.562 221.467C107.122 221.467 107.621 221.562 108.059 221.754C108.496 221.941 108.863 222.203 109.159 222.54C109.46 222.877 109.688 223.276 109.843 223.736C109.998 224.192 110.075 224.691 110.075 225.233V225.377C110.075 225.915 109.998 226.414 109.843 226.874C109.688 227.33 109.46 227.729 109.159 228.07C108.863 228.408 108.498 228.67 108.065 228.856C107.632 229.043 107.136 229.137 106.575 229.137C106.015 229.137 105.516 229.043 105.078 228.856C104.645 228.67 104.278 228.408 103.978 228.07C103.681 227.729 103.456 227.33 103.301 226.874C103.146 226.414 103.068 225.915 103.068 225.377ZM105.037 225.233V225.377C105.037 225.687 105.064 225.976 105.119 226.245C105.174 226.514 105.26 226.751 105.379 226.956C105.502 227.157 105.661 227.314 105.857 227.428C106.053 227.542 106.293 227.599 106.575 227.599C106.849 227.599 107.083 227.542 107.279 227.428C107.475 227.314 107.632 227.157 107.751 226.956C107.869 226.751 107.956 226.514 108.011 226.245C108.07 225.976 108.1 225.687 108.1 225.377V225.233C108.1 224.933 108.07 224.65 108.011 224.386C107.956 224.117 107.867 223.88 107.744 223.675C107.626 223.465 107.468 223.301 107.272 223.183C107.076 223.064 106.84 223.005 106.562 223.005C106.284 223.005 106.047 223.064 105.851 223.183C105.659 223.301 105.502 223.465 105.379 223.675C105.26 223.88 105.174 224.117 105.119 224.386C105.064 224.65 105.037 224.933 105.037 225.233ZM115.66 227.229V221.604H117.629V229H115.776L115.66 227.229ZM115.879 225.712L116.46 225.698C116.46 226.19 116.403 226.648 116.289 227.072C116.175 227.492 116.004 227.856 115.776 228.166C115.549 228.471 115.261 228.711 114.915 228.884C114.569 229.052 114.161 229.137 113.691 229.137C113.331 229.137 112.999 229.087 112.693 228.986C112.393 228.882 112.133 228.72 111.914 228.501C111.7 228.278 111.531 227.993 111.408 227.646C111.29 227.296 111.23 226.874 111.23 226.382V221.604H113.199V226.396C113.199 226.614 113.224 226.799 113.274 226.949C113.329 227.1 113.404 227.223 113.5 227.318C113.596 227.414 113.707 227.482 113.835 227.523C113.967 227.564 114.113 227.585 114.272 227.585C114.678 227.585 114.997 227.503 115.229 227.339C115.466 227.175 115.633 226.951 115.729 226.669C115.829 226.382 115.879 226.063 115.879 225.712ZM121.061 223.183V229H119.092V221.604H120.938L121.061 223.183ZM120.773 225.042H120.24C120.24 224.495 120.311 224.003 120.452 223.565C120.593 223.123 120.792 222.747 121.047 222.438C121.302 222.123 121.605 221.884 121.956 221.72C122.312 221.551 122.708 221.467 123.146 221.467C123.492 221.467 123.809 221.517 124.096 221.617C124.383 221.717 124.629 221.877 124.834 222.096C125.044 222.314 125.203 222.604 125.312 222.964C125.426 223.324 125.483 223.764 125.483 224.283V229H123.501V224.276C123.501 223.948 123.455 223.693 123.364 223.511C123.273 223.328 123.139 223.201 122.961 223.128C122.788 223.05 122.574 223.012 122.318 223.012C122.054 223.012 121.824 223.064 121.628 223.169C121.437 223.274 121.277 223.42 121.149 223.606C121.026 223.789 120.933 224.003 120.869 224.249C120.805 224.495 120.773 224.759 120.773 225.042ZM130.604 221.604V222.998H126.297V221.604H130.604ZM127.363 219.778H129.332V226.771C129.332 226.986 129.359 227.15 129.414 227.264C129.473 227.378 129.56 227.457 129.674 227.503C129.788 227.544 129.931 227.564 130.104 227.564C130.228 227.564 130.337 227.56 130.433 227.551C130.533 227.537 130.617 227.523 130.686 227.51L130.692 228.959C130.524 229.014 130.341 229.057 130.146 229.089C129.95 229.121 129.733 229.137 129.496 229.137C129.063 229.137 128.685 229.066 128.361 228.925C128.042 228.779 127.796 228.547 127.623 228.228C127.45 227.909 127.363 227.489 127.363 226.97V219.778Z" fill="black"/>
<path d="M53.6582 366.698H55.7021C55.6611 367.368 55.4766 367.963 55.1484 368.482C54.8249 369.002 54.3714 369.408 53.7881 369.699C53.2093 369.991 52.512 370.137 51.6963 370.137C51.0583 370.137 50.4863 370.027 49.9805 369.809C49.4746 369.585 49.0417 369.266 48.6816 368.852C48.3262 368.437 48.055 367.936 47.8682 367.348C47.6813 366.76 47.5879 366.101 47.5879 365.372V364.682C47.5879 363.952 47.6836 363.294 47.875 362.706C48.071 362.114 48.349 361.61 48.709 361.195C49.0736 360.781 49.5088 360.462 50.0146 360.238C50.5205 360.015 51.0856 359.903 51.71 359.903C52.5394 359.903 53.2389 360.054 53.8086 360.354C54.3828 360.655 54.8271 361.07 55.1416 361.599C55.4606 362.127 55.652 362.729 55.7158 363.403H53.665C53.6423 363.002 53.5625 362.663 53.4258 362.385C53.2891 362.102 53.0817 361.89 52.8037 361.749C52.5303 361.603 52.1657 361.53 51.71 361.53C51.3682 361.53 51.0697 361.594 50.8145 361.722C50.5592 361.849 50.3451 362.043 50.1719 362.303C49.9987 362.562 49.8688 362.891 49.7822 363.287C49.7002 363.679 49.6592 364.139 49.6592 364.668V365.372C49.6592 365.887 49.6979 366.34 49.7754 366.732C49.8529 367.12 49.9714 367.448 50.1309 367.717C50.2949 367.981 50.5046 368.182 50.7598 368.318C51.0195 368.451 51.3317 368.517 51.6963 368.517C52.1247 368.517 52.4779 368.448 52.7559 368.312C53.0339 368.175 53.2458 367.972 53.3916 367.703C53.542 367.434 53.6309 367.099 53.6582 366.698ZM61.3008 368.229V362.604H63.2695V370H61.417L61.3008 368.229ZM61.5195 366.712L62.1006 366.698C62.1006 367.19 62.0436 367.648 61.9297 368.072C61.8158 368.492 61.6449 368.856 61.417 369.166C61.1891 369.471 60.902 369.711 60.5557 369.884C60.2093 370.052 59.8014 370.137 59.332 370.137C58.972 370.137 58.6393 370.087 58.334 369.986C58.0332 369.882 57.7734 369.72 57.5547 369.501C57.3405 369.278 57.1719 368.993 57.0488 368.646C56.9303 368.296 56.8711 367.874 56.8711 367.382V362.604H58.8398V367.396C58.8398 367.614 58.8649 367.799 58.915 367.949C58.9697 368.1 59.0449 368.223 59.1406 368.318C59.2363 368.414 59.348 368.482 59.4756 368.523C59.6077 368.564 59.7536 368.585 59.9131 368.585C60.3187 368.585 60.6377 368.503 60.8701 368.339C61.1071 368.175 61.2734 367.951 61.3691 367.669C61.4694 367.382 61.5195 367.063 61.5195 366.712ZM66.7422 364.217V370H64.7734V362.604H66.626L66.7422 364.217ZM68.9707 362.556L68.9365 364.381C68.8408 364.367 68.7246 364.356 68.5879 364.347C68.4557 364.333 68.335 364.326 68.2256 364.326C67.9476 364.326 67.7061 364.363 67.501 364.436C67.3005 364.504 67.1318 364.606 66.9951 364.743C66.863 364.88 66.7627 365.046 66.6943 365.242C66.6305 365.438 66.5941 365.661 66.585 365.912L66.1885 365.789C66.1885 365.311 66.2363 364.871 66.332 364.47C66.4277 364.064 66.5667 363.711 66.749 363.41C66.9359 363.109 67.1637 362.877 67.4326 362.713C67.7015 362.549 68.0091 362.467 68.3555 362.467C68.4648 362.467 68.5765 362.476 68.6904 362.494C68.8044 362.508 68.8978 362.528 68.9707 362.556ZM71.8691 364.217V370H69.9004V362.604H71.7529L71.8691 364.217ZM74.0977 362.556L74.0635 364.381C73.9678 364.367 73.8516 364.356 73.7148 364.347C73.5827 364.333 73.4619 364.326 73.3525 364.326C73.0745 364.326 72.833 364.363 72.6279 364.436C72.4274 364.504 72.2588 364.606 72.1221 364.743C71.9899 364.88 71.8896 365.046 71.8213 365.242C71.7575 365.438 71.721 365.661 71.7119 365.912L71.3154 365.789C71.3154 365.311 71.3633 364.871 71.459 364.47C71.5547 364.064 71.6937 363.711 71.876 363.41C72.0628 363.109 72.2907 362.877 72.5596 362.713C72.8285 362.549 73.1361 362.467 73.4824 362.467C73.5918 362.467 73.7035 362.476 73.8174 362.494C73.9313 362.508 74.0247 362.528 74.0977 362.556ZM78.2949 370.137C77.7207 370.137 77.2057 370.046 76.75 369.863C76.2943 369.676 75.9069 369.419 75.5879 369.091C75.2734 368.763 75.0319 368.382 74.8633 367.949C74.6947 367.512 74.6104 367.047 74.6104 366.555V366.281C74.6104 365.721 74.6901 365.208 74.8496 364.743C75.0091 364.278 75.237 363.875 75.5332 363.533C75.834 363.191 76.1986 362.929 76.627 362.747C77.0553 362.56 77.5384 362.467 78.0762 362.467C78.6003 362.467 79.0651 362.553 79.4707 362.727C79.8763 362.9 80.2158 363.146 80.4893 363.465C80.7673 363.784 80.9769 364.167 81.1182 364.613C81.2594 365.055 81.3301 365.548 81.3301 366.09V366.91H75.4512V365.598H79.3955V365.447C79.3955 365.174 79.3454 364.93 79.2451 364.716C79.1494 364.497 79.0036 364.324 78.8076 364.196C78.6117 364.069 78.361 364.005 78.0557 364.005C77.7959 364.005 77.5726 364.062 77.3857 364.176C77.1989 364.29 77.0462 364.449 76.9277 364.654C76.8138 364.859 76.7272 365.101 76.668 365.379C76.6133 365.652 76.5859 365.953 76.5859 366.281V366.555C76.5859 366.851 76.627 367.124 76.709 367.375C76.7956 367.626 76.9163 367.842 77.0713 368.024C77.2308 368.207 77.4222 368.348 77.6455 368.448C77.8734 368.549 78.1309 368.599 78.418 368.599C78.7734 368.599 79.1038 368.53 79.4092 368.394C79.7191 368.252 79.9857 368.04 80.209 367.758L81.166 368.797C81.0111 369.02 80.7992 369.234 80.5303 369.439C80.266 369.645 79.9469 369.813 79.5732 369.945C79.1995 370.073 78.7734 370.137 78.2949 370.137ZM84.3789 364.183V370H82.4102V362.604H84.2559L84.3789 364.183ZM84.0918 366.042H83.5586C83.5586 365.495 83.6292 365.003 83.7705 364.565C83.9118 364.123 84.11 363.747 84.3652 363.438C84.6204 363.123 84.9235 362.884 85.2744 362.72C85.6299 362.551 86.0264 362.467 86.4639 362.467C86.8102 362.467 87.127 362.517 87.4141 362.617C87.7012 362.717 87.9473 362.877 88.1523 363.096C88.362 363.314 88.5215 363.604 88.6309 363.964C88.7448 364.324 88.8018 364.764 88.8018 365.283V370H86.8193V365.276C86.8193 364.948 86.7738 364.693 86.6826 364.511C86.5915 364.328 86.457 364.201 86.2793 364.128C86.1061 364.05 85.8919 364.012 85.6367 364.012C85.3724 364.012 85.1423 364.064 84.9463 364.169C84.7549 364.274 84.5954 364.42 84.4678 364.606C84.3447 364.789 84.2513 365.003 84.1875 365.249C84.1237 365.495 84.0918 365.759 84.0918 366.042ZM93.9219 362.604V363.998H89.6152V362.604H93.9219ZM90.6816 360.778H92.6504V367.771C92.6504 367.986 92.6777 368.15 92.7324 368.264C92.7917 368.378 92.8783 368.457 92.9922 368.503C93.1061 368.544 93.2497 368.564 93.4229 368.564C93.5459 368.564 93.6553 368.56 93.751 368.551C93.8512 368.537 93.9355 368.523 94.0039 368.51L94.0107 369.959C93.8421 370.014 93.6598 370.057 93.4639 370.089C93.2679 370.121 93.0514 370.137 92.8145 370.137C92.3815 370.137 92.0033 370.066 91.6797 369.925C91.3607 369.779 91.1146 369.547 90.9414 369.228C90.7682 368.909 90.6816 368.489 90.6816 367.97V360.778ZM102.679 366.944V360.047H104.723V366.944C104.723 367.61 104.577 368.182 104.285 368.66C103.993 369.134 103.595 369.499 103.089 369.754C102.588 370.009 102.022 370.137 101.394 370.137C100.742 370.137 100.165 370.027 99.6641 369.809C99.1628 369.59 98.7686 369.255 98.4814 368.804C98.1943 368.348 98.0508 367.771 98.0508 367.074H100.108C100.108 367.439 100.159 367.728 100.259 367.942C100.364 368.157 100.512 368.309 100.703 368.4C100.895 368.492 101.125 368.537 101.394 368.537C101.653 368.537 101.879 368.476 102.07 368.353C102.262 368.229 102.41 368.049 102.515 367.812C102.624 367.576 102.679 367.286 102.679 366.944ZM106.035 366.377V366.233C106.035 365.691 106.113 365.192 106.268 364.736C106.423 364.276 106.648 363.877 106.944 363.54C107.241 363.203 107.605 362.941 108.038 362.754C108.471 362.562 108.968 362.467 109.528 362.467C110.089 362.467 110.588 362.562 111.025 362.754C111.463 362.941 111.83 363.203 112.126 363.54C112.427 363.877 112.655 364.276 112.81 364.736C112.965 365.192 113.042 365.691 113.042 366.233V366.377C113.042 366.915 112.965 367.414 112.81 367.874C112.655 368.33 112.427 368.729 112.126 369.07C111.83 369.408 111.465 369.67 111.032 369.856C110.599 370.043 110.103 370.137 109.542 370.137C108.981 370.137 108.482 370.043 108.045 369.856C107.612 369.67 107.245 369.408 106.944 369.07C106.648 368.729 106.423 368.33 106.268 367.874C106.113 367.414 106.035 366.915 106.035 366.377ZM108.004 366.233V366.377C108.004 366.687 108.031 366.976 108.086 367.245C108.141 367.514 108.227 367.751 108.346 367.956C108.469 368.157 108.628 368.314 108.824 368.428C109.02 368.542 109.259 368.599 109.542 368.599C109.815 368.599 110.05 368.542 110.246 368.428C110.442 368.314 110.599 368.157 110.718 367.956C110.836 367.751 110.923 367.514 110.978 367.245C111.037 366.976 111.066 366.687 111.066 366.377V366.233C111.066 365.933 111.037 365.65 110.978 365.386C110.923 365.117 110.834 364.88 110.711 364.675C110.592 364.465 110.435 364.301 110.239 364.183C110.043 364.064 109.806 364.005 109.528 364.005C109.25 364.005 109.013 364.064 108.817 364.183C108.626 364.301 108.469 364.465 108.346 364.675C108.227 364.88 108.141 365.117 108.086 365.386C108.031 365.65 108.004 365.933 108.004 366.233ZM114.252 359.5H116.221V368.305L116.022 370H114.252V359.5ZM120.903 366.227V366.37C120.903 366.922 120.844 367.427 120.726 367.888C120.612 368.348 120.434 368.747 120.192 369.084C119.951 369.417 119.65 369.676 119.29 369.863C118.935 370.046 118.515 370.137 118.032 370.137C117.581 370.137 117.189 370.046 116.856 369.863C116.528 369.681 116.253 369.424 116.029 369.091C115.806 368.758 115.626 368.368 115.489 367.922C115.353 367.475 115.25 366.988 115.182 366.459V366.145C115.25 365.616 115.353 365.128 115.489 364.682C115.626 364.235 115.806 363.845 116.029 363.513C116.253 363.18 116.528 362.923 116.856 362.74C117.185 362.558 117.572 362.467 118.019 362.467C118.506 362.467 118.93 362.56 119.29 362.747C119.655 362.929 119.955 363.189 120.192 363.526C120.434 363.859 120.612 364.256 120.726 364.716C120.844 365.172 120.903 365.675 120.903 366.227ZM118.935 366.37V366.227C118.935 365.926 118.912 365.643 118.866 365.379C118.825 365.11 118.752 364.875 118.647 364.675C118.543 364.47 118.399 364.308 118.217 364.189C118.039 364.071 117.809 364.012 117.526 364.012C117.257 364.012 117.03 364.057 116.843 364.148C116.656 364.24 116.501 364.367 116.378 364.531C116.259 364.695 116.171 364.891 116.111 365.119C116.052 365.342 116.016 365.589 116.002 365.857V366.753C116.016 367.113 116.075 367.432 116.18 367.71C116.289 367.983 116.453 368.2 116.672 368.359C116.895 368.514 117.185 368.592 117.54 368.592C117.818 368.592 118.048 368.537 118.23 368.428C118.413 368.318 118.554 368.163 118.654 367.963C118.759 367.762 118.832 367.528 118.873 367.259C118.914 366.985 118.935 366.689 118.935 366.37Z" fill="black"/>
<path d="M48.8252 434.047H50.5615L53.1182 441.354L55.6748 434.047H57.4111L53.8154 444H52.4209L48.8252 434.047ZM47.8887 434.047H49.6182L49.9326 441.17V444H47.8887V434.047ZM56.6182 434.047H58.3545V444H56.3037V441.17L56.6182 434.047ZM59.7148 440.377V440.233C59.7148 439.691 59.7923 439.192 59.9473 438.736C60.1022 438.276 60.3278 437.877 60.624 437.54C60.9202 437.203 61.2848 436.941 61.7178 436.754C62.1507 436.562 62.6475 436.467 63.208 436.467C63.7686 436.467 64.2676 436.562 64.7051 436.754C65.1426 436.941 65.5094 437.203 65.8057 437.54C66.1064 437.877 66.3343 438.276 66.4893 438.736C66.6442 439.192 66.7217 439.691 66.7217 440.233V440.377C66.7217 440.915 66.6442 441.414 66.4893 441.874C66.3343 442.33 66.1064 442.729 65.8057 443.07C65.5094 443.408 65.1449 443.67 64.7119 443.856C64.279 444.043 63.7822 444.137 63.2217 444.137C62.6611 444.137 62.1621 444.043 61.7246 443.856C61.2917 443.67 60.9248 443.408 60.624 443.07C60.3278 442.729 60.1022 442.33 59.9473 441.874C59.7923 441.414 59.7148 440.915 59.7148 440.377ZM61.6836 440.233V440.377C61.6836 440.687 61.7109 440.976 61.7656 441.245C61.8203 441.514 61.9069 441.751 62.0254 441.956C62.1484 442.157 62.3079 442.314 62.5039 442.428C62.6999 442.542 62.9391 442.599 63.2217 442.599C63.4951 442.599 63.7298 442.542 63.9258 442.428C64.1217 442.314 64.279 442.157 64.3975 441.956C64.516 441.751 64.6025 441.514 64.6572 441.245C64.7165 440.976 64.7461 440.687 64.7461 440.377V440.233C64.7461 439.933 64.7165 439.65 64.6572 439.386C64.6025 439.117 64.5137 438.88 64.3906 438.675C64.2721 438.465 64.1149 438.301 63.9189 438.183C63.723 438.064 63.486 438.005 63.208 438.005C62.93 438.005 62.693 438.064 62.4971 438.183C62.3057 438.301 62.1484 438.465 62.0254 438.675C61.9069 438.88 61.8203 439.117 61.7656 439.386C61.7109 439.65 61.6836 439.933 61.6836 440.233ZM69.8594 438.183V444H67.8906V436.604H69.7363L69.8594 438.183ZM69.5723 440.042H69.0391C69.0391 439.495 69.1097 439.003 69.251 438.565C69.3923 438.123 69.5905 437.747 69.8457 437.438C70.1009 437.123 70.404 436.884 70.7549 436.72C71.1104 436.551 71.5068 436.467 71.9443 436.467C72.2907 436.467 72.6074 436.517 72.8945 436.617C73.1816 436.717 73.4277 436.877 73.6328 437.096C73.8424 437.314 74.002 437.604 74.1113 437.964C74.2253 438.324 74.2822 438.764 74.2822 439.283V444H72.2998V439.276C72.2998 438.948 72.2542 438.693 72.1631 438.511C72.0719 438.328 71.9375 438.201 71.7598 438.128C71.5866 438.05 71.3724 438.012 71.1172 438.012C70.8529 438.012 70.6227 438.064 70.4268 438.169C70.2354 438.274 70.0758 438.42 69.9482 438.606C69.8252 438.789 69.7318 439.003 69.668 439.249C69.6042 439.495 69.5723 439.759 69.5723 440.042ZM79.4023 436.604V437.998H75.0957V436.604H79.4023ZM76.1621 434.778H78.1309V441.771C78.1309 441.986 78.1582 442.15 78.2129 442.264C78.2721 442.378 78.3587 442.457 78.4727 442.503C78.5866 442.544 78.7301 442.564 78.9033 442.564C79.0264 442.564 79.1357 442.56 79.2314 442.551C79.3317 442.537 79.416 442.523 79.4844 442.51L79.4912 443.959C79.3226 444.014 79.1403 444.057 78.9443 444.089C78.7484 444.121 78.5319 444.137 78.2949 444.137C77.862 444.137 77.4837 444.066 77.1602 443.925C76.8411 443.779 76.5951 443.547 76.4219 443.228C76.2487 442.909 76.1621 442.489 76.1621 441.97V434.778ZM82.4443 433.5V444H80.4756V433.5H82.4443ZM82.1641 440.042H81.624C81.6286 439.527 81.6969 439.053 81.8291 438.62C81.9613 438.183 82.1504 437.804 82.3965 437.485C82.6426 437.162 82.9365 436.911 83.2783 436.733C83.6247 436.556 84.0075 436.467 84.4268 436.467C84.7913 436.467 85.1217 436.519 85.418 436.624C85.7188 436.724 85.9762 436.888 86.1904 437.116C86.4092 437.34 86.5778 437.633 86.6963 437.998C86.8148 438.363 86.874 438.805 86.874 439.324V444H84.8916V439.311C84.8916 438.982 84.8438 438.725 84.748 438.538C84.6569 438.347 84.5225 438.212 84.3447 438.135C84.1715 438.053 83.9574 438.012 83.7021 438.012C83.4196 438.012 83.1781 438.064 82.9775 438.169C82.7816 438.274 82.6243 438.42 82.5059 438.606C82.3874 438.789 82.3008 439.003 82.2461 439.249C82.1914 439.495 82.1641 439.759 82.1641 440.042ZM90.4492 433.5V444H88.4736V433.5H90.4492ZM94.2705 443.166L96.2324 436.604H98.3447L95.3711 445.114C95.3073 445.301 95.2207 445.502 95.1113 445.716C95.0065 445.93 94.863 446.133 94.6807 446.324C94.5029 446.52 94.2773 446.68 94.0039 446.803C93.735 446.926 93.4046 446.987 93.0127 446.987C92.8258 446.987 92.6732 446.976 92.5547 446.953C92.4362 446.93 92.2949 446.898 92.1309 446.857V445.415C92.181 445.415 92.2334 445.415 92.2881 445.415C92.3428 445.42 92.3952 445.422 92.4453 445.422C92.7051 445.422 92.917 445.392 93.0811 445.333C93.2451 445.274 93.3773 445.183 93.4775 445.06C93.5778 444.941 93.6576 444.786 93.7168 444.595L94.2705 443.166ZM93.4502 436.604L95.0566 441.963L95.3369 444.048L93.9971 444.191L91.3379 436.604H93.4502ZM104.921 434.047V444H102.877V434.047H104.921ZM108.646 438.183V444H106.678V436.604H108.523L108.646 438.183ZM108.359 440.042H107.826C107.826 439.495 107.897 439.003 108.038 438.565C108.179 438.123 108.378 437.747 108.633 437.438C108.888 437.123 109.191 436.884 109.542 436.72C109.897 436.551 110.294 436.467 110.731 436.467C111.078 436.467 111.395 436.517 111.682 436.617C111.969 436.717 112.215 436.877 112.42 437.096C112.63 437.314 112.789 437.604 112.898 437.964C113.012 438.324 113.069 438.764 113.069 439.283V444H111.087V439.276C111.087 438.948 111.041 438.693 110.95 438.511C110.859 438.328 110.725 438.201 110.547 438.128C110.374 438.05 110.16 438.012 109.904 438.012C109.64 438.012 109.41 438.064 109.214 438.169C109.022 438.274 108.863 438.42 108.735 438.606C108.612 438.789 108.519 439.003 108.455 439.249C108.391 439.495 108.359 439.759 108.359 440.042ZM117.622 442.599C117.864 442.599 118.078 442.553 118.265 442.462C118.451 442.366 118.597 442.234 118.702 442.065C118.812 441.892 118.868 441.689 118.873 441.457H120.726C120.721 441.977 120.582 442.439 120.309 442.845C120.035 443.246 119.668 443.562 119.208 443.795C118.748 444.023 118.233 444.137 117.663 444.137C117.089 444.137 116.588 444.041 116.159 443.85C115.735 443.658 115.382 443.394 115.1 443.057C114.817 442.715 114.605 442.318 114.464 441.867C114.323 441.411 114.252 440.924 114.252 440.404V440.206C114.252 439.682 114.323 439.194 114.464 438.743C114.605 438.287 114.817 437.891 115.1 437.554C115.382 437.212 115.735 436.945 116.159 436.754C116.583 436.562 117.08 436.467 117.649 436.467C118.256 436.467 118.786 436.583 119.242 436.815C119.702 437.048 120.062 437.381 120.322 437.813C120.587 438.242 120.721 438.75 120.726 439.338H118.873C118.868 439.092 118.816 438.868 118.716 438.668C118.62 438.467 118.479 438.308 118.292 438.189C118.11 438.066 117.884 438.005 117.615 438.005C117.328 438.005 117.093 438.066 116.911 438.189C116.729 438.308 116.588 438.472 116.487 438.682C116.387 438.887 116.316 439.121 116.275 439.386C116.239 439.646 116.221 439.919 116.221 440.206V440.404C116.221 440.691 116.239 440.967 116.275 441.231C116.312 441.496 116.38 441.73 116.48 441.936C116.585 442.141 116.729 442.302 116.911 442.421C117.093 442.539 117.33 442.599 117.622 442.599ZM121.553 440.377V440.233C121.553 439.691 121.63 439.192 121.785 438.736C121.94 438.276 122.166 437.877 122.462 437.54C122.758 437.203 123.123 436.941 123.556 436.754C123.989 436.562 124.485 436.467 125.046 436.467C125.606 436.467 126.105 436.562 126.543 436.754C126.98 436.941 127.347 437.203 127.644 437.54C127.944 437.877 128.172 438.276 128.327 438.736C128.482 439.192 128.56 439.691 128.56 440.233V440.377C128.56 440.915 128.482 441.414 128.327 441.874C128.172 442.33 127.944 442.729 127.644 443.07C127.347 443.408 126.983 443.67 126.55 443.856C126.117 444.043 125.62 444.137 125.06 444.137C124.499 444.137 124 444.043 123.562 443.856C123.13 443.67 122.763 443.408 122.462 443.07C122.166 442.729 121.94 442.33 121.785 441.874C121.63 441.414 121.553 440.915 121.553 440.377ZM123.521 440.233V440.377C123.521 440.687 123.549 440.976 123.604 441.245C123.658 441.514 123.745 441.751 123.863 441.956C123.986 442.157 124.146 442.314 124.342 442.428C124.538 442.542 124.777 442.599 125.06 442.599C125.333 442.599 125.568 442.542 125.764 442.428C125.96 442.314 126.117 442.157 126.235 441.956C126.354 441.751 126.44 441.514 126.495 441.245C126.554 440.976 126.584 440.687 126.584 440.377V440.233C126.584 439.933 126.554 439.65 126.495 439.386C126.44 439.117 126.352 438.88 126.229 438.675C126.11 438.465 125.953 438.301 125.757 438.183C125.561 438.064 125.324 438.005 125.046 438.005C124.768 438.005 124.531 438.064 124.335 438.183C124.144 438.301 123.986 438.465 123.863 438.675C123.745 438.88 123.658 439.117 123.604 439.386C123.549 439.65 123.521 439.933 123.521 440.233ZM131.738 438.135V444H129.763V436.604H131.615L131.738 438.135ZM131.465 440.042H130.918C130.918 439.527 130.979 439.053 131.103 438.62C131.23 438.183 131.415 437.804 131.656 437.485C131.902 437.162 132.205 436.911 132.565 436.733C132.925 436.556 133.342 436.467 133.816 436.467C134.145 436.467 134.445 436.517 134.719 436.617C134.992 436.713 135.227 436.866 135.423 437.075C135.623 437.28 135.778 437.549 135.888 437.882C135.997 438.21 136.052 438.604 136.052 439.064V444H134.083V439.283C134.083 438.946 134.037 438.686 133.946 438.504C133.855 438.322 133.725 438.194 133.557 438.121C133.393 438.048 133.194 438.012 132.962 438.012C132.707 438.012 132.483 438.064 132.292 438.169C132.105 438.274 131.95 438.42 131.827 438.606C131.704 438.789 131.613 439.003 131.554 439.249C131.494 439.495 131.465 439.759 131.465 440.042ZM135.867 439.816L135.163 439.905C135.163 439.422 135.222 438.973 135.341 438.559C135.464 438.144 135.644 437.779 135.881 437.465C136.122 437.15 136.421 436.907 136.776 436.733C137.132 436.556 137.542 436.467 138.007 436.467C138.362 436.467 138.686 436.519 138.978 436.624C139.269 436.724 139.518 436.886 139.723 437.109C139.932 437.328 140.092 437.615 140.201 437.971C140.315 438.326 140.372 438.761 140.372 439.276V444H138.396V439.276C138.396 438.935 138.351 438.675 138.26 438.497C138.173 438.315 138.046 438.189 137.877 438.121C137.713 438.048 137.517 438.012 137.289 438.012C137.052 438.012 136.845 438.06 136.667 438.155C136.489 438.246 136.341 438.374 136.223 438.538C136.104 438.702 136.015 438.894 135.956 439.112C135.897 439.326 135.867 439.561 135.867 439.816ZM145.301 444.137C144.727 444.137 144.212 444.046 143.756 443.863C143.3 443.676 142.913 443.419 142.594 443.091C142.279 442.763 142.038 442.382 141.869 441.949C141.701 441.512 141.616 441.047 141.616 440.555V440.281C141.616 439.721 141.696 439.208 141.855 438.743C142.015 438.278 142.243 437.875 142.539 437.533C142.84 437.191 143.204 436.929 143.633 436.747C144.061 436.56 144.544 436.467 145.082 436.467C145.606 436.467 146.071 436.553 146.477 436.727C146.882 436.9 147.222 437.146 147.495 437.465C147.773 437.784 147.983 438.167 148.124 438.613C148.265 439.055 148.336 439.548 148.336 440.09V440.91H142.457V439.598H146.401V439.447C146.401 439.174 146.351 438.93 146.251 438.716C146.155 438.497 146.009 438.324 145.813 438.196C145.618 438.069 145.367 438.005 145.062 438.005C144.802 438.005 144.578 438.062 144.392 438.176C144.205 438.29 144.052 438.449 143.934 438.654C143.82 438.859 143.733 439.101 143.674 439.379C143.619 439.652 143.592 439.953 143.592 440.281V440.555C143.592 440.851 143.633 441.124 143.715 441.375C143.801 441.626 143.922 441.842 144.077 442.024C144.237 442.207 144.428 442.348 144.651 442.448C144.879 442.549 145.137 442.599 145.424 442.599C145.779 442.599 146.11 442.53 146.415 442.394C146.725 442.252 146.992 442.04 147.215 441.758L148.172 442.797C148.017 443.02 147.805 443.234 147.536 443.439C147.272 443.645 146.953 443.813 146.579 443.945C146.205 444.073 145.779 444.137 145.301 444.137Z" fill="black"/>
<path d="M51.7646 299.452H49.2285V297.853H51.7646C52.1566 297.853 52.4756 297.789 52.7217 297.661C52.9678 297.529 53.1478 297.347 53.2617 297.114C53.3757 296.882 53.4326 296.62 53.4326 296.328C53.4326 296.032 53.3757 295.756 53.2617 295.501C53.1478 295.246 52.9678 295.041 52.7217 294.886C52.4756 294.731 52.1566 294.653 51.7646 294.653H49.9395V303H47.8887V293.047H51.7646C52.5439 293.047 53.2116 293.188 53.7676 293.471C54.3281 293.749 54.7565 294.134 55.0527 294.626C55.349 295.118 55.4971 295.681 55.4971 296.314C55.4971 296.957 55.349 297.513 55.0527 297.982C54.7565 298.452 54.3281 298.814 53.7676 299.069C53.2116 299.325 52.5439 299.452 51.7646 299.452ZM61.1641 301.229V295.604H63.1328V303H61.2803L61.1641 301.229ZM61.3828 299.712L61.9639 299.698C61.9639 300.19 61.9069 300.648 61.793 301.072C61.679 301.492 61.5081 301.856 61.2803 302.166C61.0524 302.471 60.7653 302.711 60.4189 302.884C60.0726 303.052 59.6647 303.137 59.1953 303.137C58.8353 303.137 58.5026 303.087 58.1973 302.986C57.8965 302.882 57.6367 302.72 57.418 302.501C57.2038 302.278 57.0352 301.993 56.9121 301.646C56.7936 301.296 56.7344 300.874 56.7344 300.382V295.604H58.7031V300.396C58.7031 300.614 58.7282 300.799 58.7783 300.949C58.833 301.1 58.9082 301.223 59.0039 301.318C59.0996 301.414 59.2113 301.482 59.3389 301.523C59.471 301.564 59.6169 301.585 59.7764 301.585C60.182 301.585 60.501 301.503 60.7334 301.339C60.9704 301.175 61.1367 300.951 61.2324 300.669C61.3327 300.382 61.3828 300.063 61.3828 299.712ZM66.6055 297.217V303H64.6367V295.604H66.4893L66.6055 297.217ZM68.834 295.556L68.7998 297.381C68.7041 297.367 68.5879 297.356 68.4512 297.347C68.319 297.333 68.1982 297.326 68.0889 297.326C67.8109 297.326 67.5693 297.363 67.3643 297.436C67.1637 297.504 66.9951 297.606 66.8584 297.743C66.7262 297.88 66.626 298.046 66.5576 298.242C66.4938 298.438 66.4574 298.661 66.4482 298.912L66.0518 298.789C66.0518 298.311 66.0996 297.871 66.1953 297.47C66.291 297.064 66.43 296.711 66.6123 296.41C66.7992 296.109 67.027 295.877 67.2959 295.713C67.5648 295.549 67.8724 295.467 68.2188 295.467C68.3281 295.467 68.4398 295.476 68.5537 295.494C68.6676 295.508 68.7611 295.528 68.834 295.556ZM71.7324 297.025V305.844H69.7637V295.604H71.5889L71.7324 297.025ZM76.415 299.22V299.363C76.415 299.901 76.3512 300.4 76.2236 300.86C76.1006 301.321 75.9183 301.722 75.6768 302.063C75.4352 302.401 75.1344 302.665 74.7744 302.856C74.4189 303.043 74.0088 303.137 73.5439 303.137C73.0928 303.137 72.7008 303.046 72.3682 302.863C72.0355 302.681 71.7552 302.426 71.5273 302.098C71.304 301.765 71.124 301.38 70.9873 300.942C70.8506 300.505 70.7458 300.035 70.6729 299.534V299.158C70.7458 298.62 70.8506 298.128 70.9873 297.682C71.124 297.23 71.304 296.841 71.5273 296.513C71.7552 296.18 72.0332 295.923 72.3613 295.74C72.694 295.558 73.0837 295.467 73.5303 295.467C73.9997 295.467 74.4121 295.556 74.7676 295.733C75.1276 295.911 75.4284 296.166 75.6699 296.499C75.916 296.832 76.1006 297.228 76.2236 297.688C76.3512 298.149 76.415 298.659 76.415 299.22ZM74.4395 299.363V299.22C74.4395 298.905 74.4121 298.616 74.3574 298.352C74.3073 298.083 74.2253 297.848 74.1113 297.647C74.002 297.447 73.8561 297.292 73.6738 297.183C73.4961 297.069 73.2796 297.012 73.0244 297.012C72.7555 297.012 72.5254 297.055 72.334 297.142C72.1471 297.228 71.9945 297.354 71.876 297.518C71.7575 297.682 71.6686 297.878 71.6094 298.105C71.5501 298.333 71.5137 298.591 71.5 298.878V299.828C71.5228 300.165 71.5866 300.468 71.6914 300.737C71.7962 301.002 71.958 301.211 72.1768 301.366C72.3955 301.521 72.6826 301.599 73.0381 301.599C73.2979 301.599 73.5166 301.542 73.6943 301.428C73.8721 301.309 74.0156 301.147 74.125 300.942C74.2389 300.737 74.3187 300.5 74.3643 300.231C74.4144 299.963 74.4395 299.673 74.4395 299.363ZM77.3242 299.377V299.233C77.3242 298.691 77.4017 298.192 77.5566 297.736C77.7116 297.276 77.9372 296.877 78.2334 296.54C78.5296 296.203 78.8942 295.941 79.3271 295.754C79.7601 295.562 80.2568 295.467 80.8174 295.467C81.3779 295.467 81.877 295.562 82.3145 295.754C82.752 295.941 83.1188 296.203 83.415 296.54C83.7158 296.877 83.9437 297.276 84.0986 297.736C84.2536 298.192 84.3311 298.691 84.3311 299.233V299.377C84.3311 299.915 84.2536 300.414 84.0986 300.874C83.9437 301.33 83.7158 301.729 83.415 302.07C83.1188 302.408 82.7542 302.67 82.3213 302.856C81.8883 303.043 81.3916 303.137 80.8311 303.137C80.2705 303.137 79.7715 303.043 79.334 302.856C78.901 302.67 78.5342 302.408 78.2334 302.07C77.9372 301.729 77.7116 301.33 77.5566 300.874C77.4017 300.414 77.3242 299.915 77.3242 299.377ZM79.293 299.233V299.377C79.293 299.687 79.3203 299.976 79.375 300.245C79.4297 300.514 79.5163 300.751 79.6348 300.956C79.7578 301.157 79.9173 301.314 80.1133 301.428C80.3092 301.542 80.5485 301.599 80.8311 301.599C81.1045 301.599 81.3392 301.542 81.5352 301.428C81.7311 301.314 81.8883 301.157 82.0068 300.956C82.1253 300.751 82.2119 300.514 82.2666 300.245C82.3258 299.976 82.3555 299.687 82.3555 299.377V299.233C82.3555 298.933 82.3258 298.65 82.2666 298.386C82.2119 298.117 82.123 297.88 82 297.675C81.8815 297.465 81.7243 297.301 81.5283 297.183C81.3324 297.064 81.0954 297.005 80.8174 297.005C80.5394 297.005 80.3024 297.064 80.1064 297.183C79.915 297.301 79.7578 297.465 79.6348 297.675C79.5163 297.88 79.4297 298.117 79.375 298.386C79.3203 298.65 79.293 298.933 79.293 299.233ZM89.54 300.956C89.54 300.815 89.499 300.687 89.417 300.573C89.335 300.459 89.1823 300.354 88.959 300.259C88.7402 300.159 88.4235 300.067 88.0088 299.985C87.6351 299.903 87.2865 299.801 86.9629 299.678C86.6439 299.55 86.3659 299.397 86.1289 299.22C85.8965 299.042 85.7142 298.832 85.582 298.591C85.4499 298.345 85.3838 298.064 85.3838 297.75C85.3838 297.44 85.4499 297.148 85.582 296.875C85.7188 296.602 85.9124 296.36 86.1631 296.15C86.4183 295.936 86.7282 295.77 87.0928 295.651C87.4619 295.528 87.8766 295.467 88.3369 295.467C88.9795 295.467 89.5309 295.569 89.9912 295.774C90.4561 295.979 90.8115 296.262 91.0576 296.622C91.3083 296.978 91.4336 297.383 91.4336 297.839H89.4648C89.4648 297.647 89.4238 297.477 89.3418 297.326C89.2643 297.171 89.1413 297.05 88.9727 296.964C88.8086 296.873 88.5944 296.827 88.3301 296.827C88.1113 296.827 87.9222 296.866 87.7627 296.943C87.6032 297.016 87.4801 297.117 87.3936 297.244C87.3115 297.367 87.2705 297.504 87.2705 297.654C87.2705 297.768 87.2933 297.871 87.3389 297.962C87.389 298.049 87.4688 298.128 87.5781 298.201C87.6875 298.274 87.8288 298.342 88.002 298.406C88.1797 298.465 88.3984 298.52 88.6582 298.57C89.1914 298.68 89.6676 298.823 90.0869 299.001C90.5062 299.174 90.8389 299.411 91.085 299.712C91.3311 300.008 91.4541 300.398 91.4541 300.881C91.4541 301.209 91.3812 301.51 91.2354 301.783C91.0895 302.057 90.8799 302.296 90.6064 302.501C90.333 302.701 90.0049 302.859 89.6221 302.973C89.2438 303.082 88.8177 303.137 88.3438 303.137C87.6556 303.137 87.0723 303.014 86.5938 302.768C86.1198 302.521 85.7598 302.209 85.5137 301.831C85.2721 301.448 85.1514 301.056 85.1514 300.655H87.0176C87.0267 300.924 87.0951 301.141 87.2227 301.305C87.3548 301.469 87.5212 301.587 87.7217 301.66C87.9268 301.733 88.1478 301.77 88.3848 301.77C88.64 301.77 88.8519 301.735 89.0205 301.667C89.1891 301.594 89.3167 301.498 89.4033 301.38C89.4945 301.257 89.54 301.116 89.54 300.956ZM96.1367 303.137C95.5625 303.137 95.0475 303.046 94.5918 302.863C94.1361 302.676 93.7487 302.419 93.4297 302.091C93.1152 301.763 92.8737 301.382 92.7051 300.949C92.5365 300.512 92.4521 300.047 92.4521 299.555V299.281C92.4521 298.721 92.5319 298.208 92.6914 297.743C92.8509 297.278 93.0788 296.875 93.375 296.533C93.6758 296.191 94.0404 295.929 94.4688 295.747C94.8971 295.56 95.3802 295.467 95.918 295.467C96.4421 295.467 96.9069 295.553 97.3125 295.727C97.7181 295.9 98.0576 296.146 98.3311 296.465C98.609 296.784 98.8187 297.167 98.96 297.613C99.1012 298.055 99.1719 298.548 99.1719 299.09V299.91H93.293V298.598H97.2373V298.447C97.2373 298.174 97.1872 297.93 97.0869 297.716C96.9912 297.497 96.8454 297.324 96.6494 297.196C96.4535 297.069 96.2028 297.005 95.8975 297.005C95.6377 297.005 95.4144 297.062 95.2275 297.176C95.0407 297.29 94.888 297.449 94.7695 297.654C94.6556 297.859 94.569 298.101 94.5098 298.379C94.4551 298.652 94.4277 298.953 94.4277 299.281V299.555C94.4277 299.851 94.4688 300.124 94.5508 300.375C94.6374 300.626 94.7581 300.842 94.9131 301.024C95.0726 301.207 95.264 301.348 95.4873 301.448C95.7152 301.549 95.9727 301.599 96.2598 301.599C96.6152 301.599 96.9456 301.53 97.251 301.394C97.5609 301.252 97.8275 301.04 98.0508 300.758L99.0078 301.797C98.8529 302.02 98.641 302.234 98.3721 302.439C98.1077 302.645 97.7887 302.813 97.415 302.945C97.0413 303.073 96.6152 303.137 96.1367 303.137Z" fill="black"/>
</g>
<defs>
<filter id="filter0_d_29_1091" x="12" y="24" width="32.2188" height="32.2188" filterUnits="userSpaceOnUse" color-interpolation-filters="sRGB">
<feFlood flood-opacity="0" result="BackgroundImageFix"/>
<feColorMatrix in="SourceAlpha" type="matrix" values="0 0 0 0 0 0 0 0 0 0 0 0 0 0 0 0 0 0 127 0" result="hardAlpha"/>
<feOffset dy="4"/>
<feGaussianBlur stdDeviation="2"/>
<feComposite in2="hardAlpha" operator="out"/>
<feColorMatrix type="matrix" values="0 0 0 0 0 0 0 0 0 0 0 0 0 0 0 0 0 0 0.25 0"/>
<feBlend mode="normal" in2="BackgroundImageFix" result="effect1_dropShadow_29_1091"/>
<feBlend mode="normal" in="SourceGraphic" in2="effect1_dropShadow_29_1091" result="shape"/>
</filter>
<linearGradient id="paint0_linear_29_1091" x1="28.1094" y1="24" x2="28.1094" y2="48.2188" gradientUnits="userSpaceOnUse">
<stop stop-color="#00FFD1"/>
<stop offset="1" stop-color="#38A6BE" stop-opacity="0.84"/>
</linearGradient>
<clipPath id="clip0_29_1091">
<rect width="414" height="896" rx="20" fill="white"/>
</clipPath>
</defs>
</svg>
