<svg width="414" height="896" viewBox="0 0 414 896" fill="none" xmlns="http://www.w3.org/2000/svg">
<rect width="414" height="896" rx="20" fill="#EEF9FA"/>
<path d="M288.051 31.2129L284.184 43H281.068L286.352 28.7812H288.334L288.051 31.2129ZM291.264 43L287.387 31.2129L287.074 28.7812H289.076L294.389 43H291.264ZM291.088 37.707V40.002H283.578V37.707H291.088ZM298.5 28V43H295.678V28H298.5ZM303.637 34.4648V47.0625H300.824V32.4336H303.432L303.637 34.4648ZM310.326 37.5996V37.8047C310.326 38.5729 310.235 39.2858 310.053 39.9434C309.877 40.6009 309.617 41.1738 309.271 41.6621C308.926 42.1439 308.497 42.5215 307.982 42.7949C307.475 43.0618 306.889 43.1953 306.225 43.1953C305.58 43.1953 305.02 43.0651 304.545 42.8047C304.07 42.5443 303.669 42.1797 303.344 41.7109C303.025 41.2357 302.768 40.6855 302.572 40.0605C302.377 39.4355 302.227 38.765 302.123 38.0488V37.5117C302.227 36.7435 302.377 36.0404 302.572 35.4023C302.768 34.7578 303.025 34.2012 303.344 33.7324C303.669 33.2572 304.066 32.8893 304.535 32.6289C305.01 32.3685 305.567 32.2383 306.205 32.2383C306.876 32.2383 307.465 32.3652 307.973 32.6191C308.487 32.873 308.917 33.2376 309.262 33.7129C309.613 34.1882 309.877 34.7546 310.053 35.4121C310.235 36.0697 310.326 36.7988 310.326 37.5996ZM307.504 37.8047V37.5996C307.504 37.1504 307.465 36.737 307.387 36.3594C307.315 35.9753 307.198 35.64 307.035 35.3535C306.879 35.0671 306.671 34.8457 306.41 34.6895C306.156 34.5267 305.847 34.4453 305.482 34.4453C305.098 34.4453 304.77 34.5072 304.496 34.6309C304.229 34.7546 304.011 34.9336 303.842 35.168C303.673 35.4023 303.546 35.6823 303.461 36.0078C303.376 36.3333 303.324 36.7012 303.305 37.1113V38.4688C303.337 38.9505 303.428 39.3835 303.578 39.7676C303.728 40.1452 303.959 40.4447 304.271 40.666C304.584 40.8874 304.994 40.998 305.502 40.998C305.873 40.998 306.186 40.9167 306.439 40.7539C306.693 40.5846 306.898 40.3535 307.055 40.0605C307.217 39.7676 307.331 39.429 307.396 39.0449C307.468 38.6608 307.504 38.2474 307.504 37.8047ZM314.818 28V43H312.006V28H314.818ZM314.418 37.3457H313.646C313.653 36.61 313.751 35.9329 313.939 35.3145C314.128 34.6895 314.398 34.1491 314.75 33.6934C315.102 33.2311 315.521 32.873 316.01 32.6191C316.505 32.3652 317.051 32.2383 317.65 32.2383C318.171 32.2383 318.643 32.3132 319.066 32.4629C319.496 32.6061 319.864 32.8405 320.17 33.166C320.482 33.485 320.723 33.9049 320.893 34.4258C321.062 34.9466 321.146 35.5781 321.146 36.3203V43H318.314V36.3008C318.314 35.832 318.246 35.4642 318.109 35.1973C317.979 34.9238 317.787 34.7318 317.533 34.6211C317.286 34.5039 316.98 34.4453 316.615 34.4453C316.212 34.4453 315.867 34.5202 315.58 34.6699C315.3 34.8197 315.076 35.028 314.906 35.2949C314.737 35.5553 314.613 35.8613 314.535 36.2129C314.457 36.5645 314.418 36.9421 314.418 37.3457ZM328.988 40.6172V35.9102C328.988 35.5716 328.933 35.2819 328.822 35.041C328.712 34.7936 328.539 34.6016 328.305 34.4648C328.077 34.3281 327.781 34.2598 327.416 34.2598C327.104 34.2598 326.833 34.3151 326.605 34.4258C326.378 34.5299 326.202 34.6829 326.078 34.8848C325.954 35.0801 325.893 35.3112 325.893 35.5781H323.08C323.08 35.1289 323.184 34.7025 323.393 34.2988C323.601 33.8952 323.904 33.5404 324.301 33.2344C324.698 32.9219 325.17 32.6777 325.717 32.502C326.27 32.3262 326.889 32.2383 327.572 32.2383C328.393 32.2383 329.122 32.375 329.76 32.6484C330.398 32.9219 330.899 33.332 331.264 33.8789C331.635 34.4258 331.82 35.1094 331.82 35.9297V40.4512C331.82 41.0306 331.856 41.5059 331.928 41.877C331.999 42.2415 332.104 42.5605 332.24 42.834V43H329.398C329.262 42.7135 329.158 42.3555 329.086 41.9258C329.021 41.4896 328.988 41.0534 328.988 40.6172ZM329.359 36.5645L329.379 38.1562H327.807C327.436 38.1562 327.113 38.1986 326.84 38.2832C326.566 38.3678 326.342 38.4883 326.166 38.6445C325.99 38.7943 325.86 38.9701 325.775 39.1719C325.697 39.3737 325.658 39.5951 325.658 39.8359C325.658 40.0768 325.714 40.2949 325.824 40.4902C325.935 40.679 326.094 40.8288 326.303 40.9395C326.511 41.0436 326.755 41.0957 327.035 41.0957C327.458 41.0957 327.826 41.0111 328.139 40.8418C328.451 40.6725 328.692 40.4642 328.861 40.2168C329.037 39.9694 329.128 39.735 329.135 39.5137L329.877 40.7051C329.773 40.972 329.63 41.2487 329.447 41.5352C329.271 41.8216 329.047 42.0918 328.773 42.3457C328.5 42.5931 328.171 42.7982 327.787 42.9609C327.403 43.1172 326.947 43.1953 326.42 43.1953C325.749 43.1953 325.141 43.0618 324.594 42.7949C324.053 42.5215 323.624 42.1471 323.305 41.6719C322.992 41.1901 322.836 40.6432 322.836 40.0312C322.836 39.4779 322.94 38.9863 323.148 38.5566C323.357 38.127 323.663 37.7656 324.066 37.4727C324.477 37.1732 324.988 36.9486 325.6 36.7988C326.212 36.6426 326.921 36.5645 327.729 36.5645H329.359ZM343.305 40.7148V43H336.146V40.7148H343.305ZM337.094 28.7812V43H334.164V28.7812H337.094ZM344.359 37.8242V37.6191C344.359 36.8444 344.47 36.1315 344.691 35.4805C344.913 34.8229 345.235 34.2533 345.658 33.7715C346.081 33.2897 346.602 32.9154 347.221 32.6484C347.839 32.375 348.549 32.2383 349.35 32.2383C350.15 32.2383 350.863 32.375 351.488 32.6484C352.113 32.9154 352.637 33.2897 353.061 33.7715C353.49 34.2533 353.816 34.8229 354.037 35.4805C354.258 36.1315 354.369 36.8444 354.369 37.6191V37.8242C354.369 38.5924 354.258 39.3053 354.037 39.9629C353.816 40.6139 353.49 41.1836 353.061 41.6719C352.637 42.1536 352.117 42.528 351.498 42.7949C350.88 43.0618 350.17 43.1953 349.369 43.1953C348.568 43.1953 347.855 43.0618 347.23 42.7949C346.612 42.528 346.088 42.1536 345.658 41.6719C345.235 41.1836 344.913 40.6139 344.691 39.9629C344.47 39.3053 344.359 38.5924 344.359 37.8242ZM347.172 37.6191V37.8242C347.172 38.2669 347.211 38.6803 347.289 39.0645C347.367 39.4486 347.491 39.7871 347.66 40.0801C347.836 40.3665 348.064 40.5911 348.344 40.7539C348.624 40.9167 348.965 40.998 349.369 40.998C349.76 40.998 350.095 40.9167 350.375 40.7539C350.655 40.5911 350.88 40.3665 351.049 40.0801C351.218 39.7871 351.342 39.4486 351.42 39.0645C351.505 38.6803 351.547 38.2669 351.547 37.8242V37.6191C351.547 37.1895 351.505 36.7858 351.42 36.4082C351.342 36.0241 351.215 35.6855 351.039 35.3926C350.87 35.0931 350.645 34.8587 350.365 34.6895C350.085 34.5202 349.747 34.4355 349.35 34.4355C348.952 34.4355 348.614 34.5202 348.334 34.6895C348.061 34.8587 347.836 35.0931 347.66 35.3926C347.491 35.6855 347.367 36.0241 347.289 36.4082C347.211 36.7858 347.172 37.1895 347.172 37.6191ZM361.801 40.6172V35.9102C361.801 35.5716 361.745 35.2819 361.635 35.041C361.524 34.7936 361.352 34.6016 361.117 34.4648C360.889 34.3281 360.593 34.2598 360.229 34.2598C359.916 34.2598 359.646 34.3151 359.418 34.4258C359.19 34.5299 359.014 34.6829 358.891 34.8848C358.767 35.0801 358.705 35.3112 358.705 35.5781H355.893C355.893 35.1289 355.997 34.7025 356.205 34.2988C356.413 33.8952 356.716 33.5404 357.113 33.2344C357.51 32.9219 357.982 32.6777 358.529 32.502C359.083 32.3262 359.701 32.2383 360.385 32.2383C361.205 32.2383 361.934 32.375 362.572 32.6484C363.21 32.9219 363.712 33.332 364.076 33.8789C364.447 34.4258 364.633 35.1094 364.633 35.9297V40.4512C364.633 41.0306 364.669 41.5059 364.74 41.877C364.812 42.2415 364.916 42.5605 365.053 42.834V43H362.211C362.074 42.7135 361.97 42.3555 361.898 41.9258C361.833 41.4896 361.801 41.0534 361.801 40.6172ZM362.172 36.5645L362.191 38.1562H360.619C360.248 38.1562 359.926 38.1986 359.652 38.2832C359.379 38.3678 359.154 38.4883 358.979 38.6445C358.803 38.7943 358.673 38.9701 358.588 39.1719C358.51 39.3737 358.471 39.5951 358.471 39.8359C358.471 40.0768 358.526 40.2949 358.637 40.4902C358.747 40.679 358.907 40.8288 359.115 40.9395C359.324 41.0436 359.568 41.0957 359.848 41.0957C360.271 41.0957 360.639 41.0111 360.951 40.8418C361.264 40.6725 361.505 40.4642 361.674 40.2168C361.85 39.9694 361.941 39.735 361.947 39.5137L362.689 40.7051C362.585 40.972 362.442 41.2487 362.26 41.5352C362.084 41.8216 361.859 42.0918 361.586 42.3457C361.312 42.5931 360.984 42.7982 360.6 42.9609C360.215 43.1172 359.76 43.1953 359.232 43.1953C358.562 43.1953 357.953 43.0618 357.406 42.7949C356.866 42.5215 356.436 42.1471 356.117 41.6719C355.805 41.1901 355.648 40.6432 355.648 40.0312C355.648 39.4779 355.753 38.9863 355.961 38.5566C356.169 38.127 356.475 37.7656 356.879 37.4727C357.289 37.1732 357.8 36.9486 358.412 36.7988C359.024 36.6426 359.734 36.5645 360.541 36.5645H362.172ZM369.555 34.6895V43H366.742V32.4336H369.379L369.555 34.6895ZM369.145 37.3457H368.383C368.383 36.5645 368.484 35.8613 368.686 35.2363C368.887 34.6048 369.171 34.0677 369.535 33.625C369.9 33.1758 370.333 32.834 370.834 32.5996C371.342 32.3587 371.908 32.2383 372.533 32.2383C373.028 32.2383 373.48 32.3099 373.891 32.4531C374.301 32.5964 374.652 32.8242 374.945 33.1367C375.245 33.4492 375.473 33.8626 375.629 34.377C375.792 34.8913 375.873 35.5195 375.873 36.2617V43H373.041V36.252C373.041 35.7832 372.976 35.4186 372.846 35.1582C372.715 34.8978 372.523 34.7155 372.27 34.6113C372.022 34.5007 371.716 34.4453 371.352 34.4453C370.974 34.4453 370.645 34.5202 370.365 34.6699C370.092 34.8197 369.864 35.028 369.682 35.2949C369.506 35.5553 369.372 35.8613 369.281 36.2129C369.19 36.5645 369.145 36.9421 369.145 37.3457Z" fill="black"/>
<g filter="url(#filter0_d_29_1297)">
<path d="M28.1094 24C21.4214 24 16 29.4214 16 36.1094C16 42.7974 21.4214 48.2188 28.1094 48.2188C34.7974 48.2188 40.2188 42.7974 40.2188 36.1094C40.2188 29.4214 34.7974 24 28.1094 24ZM28.1094 45.0938C23.144 45.0938 19.125 41.0757 19.125 36.1094C19.125 31.144 23.1431 27.125 28.1094 27.125C33.0747 27.125 37.0938 31.1431 37.0938 36.1094C37.0938 41.0747 33.0757 45.0938 28.1094 45.0938ZM28.1094 29.8594C24.6577 29.8594 21.8594 32.6577 21.8594 36.1094C21.8594 39.561 24.6577 42.3594 28.1094 42.3594C31.561 42.3594 34.3594 39.561 34.3594 36.1094C34.3594 32.6577 31.561 29.8594 28.1094 29.8594ZM28.1094 39.2344C26.3862 39.2344 24.9844 37.8325 24.9844 36.1094C24.9844 34.3862 26.3862 32.9844 28.1094 32.9844C29.8325 32.9844 31.2344 34.3862 31.2344 36.1094C31.2344 37.8325 29.8325 39.2344 28.1094 39.2344Z" fill="url(#paint0_linear_29_1297)" shape-rendering="crispEdges"/>
</g>
<rect x="31" y="816" width="354" height="56" rx="20" fill="#256BF4"/>
<path d="M175.688 851.497C176.206 851.497 176.665 851.399 177.065 851.204C177.466 850.999 177.778 850.716 178.003 850.354C178.237 849.983 178.359 849.549 178.369 849.051H182.339C182.329 850.164 182.031 851.155 181.445 852.024C180.859 852.884 180.073 853.562 179.087 854.061C178.101 854.549 176.997 854.793 175.776 854.793C174.546 854.793 173.472 854.588 172.554 854.178C171.646 853.768 170.889 853.201 170.283 852.479C169.678 851.746 169.224 850.896 168.921 849.93C168.618 848.953 168.467 847.908 168.467 846.795V846.37C168.467 845.247 168.618 844.202 168.921 843.235C169.224 842.259 169.678 841.409 170.283 840.687C170.889 839.954 171.646 839.383 172.554 838.973C173.462 838.562 174.526 838.357 175.747 838.357C177.046 838.357 178.184 838.606 179.16 839.104C180.146 839.603 180.918 840.315 181.475 841.243C182.041 842.161 182.329 843.25 182.339 844.51H178.369C178.359 843.982 178.247 843.504 178.032 843.074C177.827 842.645 177.524 842.303 177.124 842.049C176.733 841.785 176.25 841.653 175.674 841.653C175.059 841.653 174.556 841.785 174.165 842.049C173.774 842.303 173.472 842.654 173.257 843.104C173.042 843.543 172.891 844.046 172.803 844.612C172.725 845.169 172.686 845.755 172.686 846.37V846.795C172.686 847.41 172.725 848.001 172.803 848.567C172.881 849.134 173.027 849.637 173.242 850.076C173.467 850.516 173.774 850.862 174.165 851.116C174.556 851.37 175.063 851.497 175.688 851.497ZM188.901 832V854.5H184.683V832H188.901ZM188.301 846.019H187.144C187.153 844.915 187.3 843.899 187.583 842.972C187.866 842.034 188.271 841.224 188.799 840.54C189.326 839.847 189.956 839.31 190.688 838.929C191.431 838.548 192.251 838.357 193.149 838.357C193.931 838.357 194.639 838.47 195.273 838.694C195.918 838.909 196.47 839.261 196.929 839.749C197.397 840.228 197.759 840.857 198.013 841.639C198.267 842.42 198.394 843.367 198.394 844.48V854.5H194.146V844.451C194.146 843.748 194.043 843.196 193.838 842.796C193.643 842.386 193.354 842.098 192.974 841.932C192.603 841.756 192.144 841.668 191.597 841.668C190.991 841.668 190.474 841.78 190.044 842.005C189.624 842.229 189.287 842.542 189.033 842.942C188.779 843.333 188.594 843.792 188.477 844.319C188.359 844.847 188.301 845.413 188.301 846.019ZM208.896 854.793C207.666 854.793 206.562 854.598 205.586 854.207C204.609 853.807 203.779 853.255 203.096 852.552C202.422 851.849 201.904 851.033 201.543 850.105C201.182 849.168 201.001 848.172 201.001 847.117V846.531C201.001 845.33 201.172 844.231 201.514 843.235C201.855 842.239 202.344 841.375 202.979 840.643C203.623 839.91 204.404 839.349 205.322 838.958C206.24 838.558 207.275 838.357 208.428 838.357C209.551 838.357 210.547 838.543 211.416 838.914C212.285 839.285 213.013 839.812 213.599 840.496C214.194 841.18 214.644 842 214.946 842.957C215.249 843.904 215.4 844.959 215.4 846.121V847.879H202.803V845.066H211.255V844.744C211.255 844.158 211.147 843.636 210.933 843.177C210.728 842.708 210.415 842.337 209.995 842.063C209.575 841.79 209.038 841.653 208.384 841.653C207.827 841.653 207.349 841.775 206.948 842.02C206.548 842.264 206.221 842.605 205.967 843.045C205.723 843.484 205.537 844.002 205.41 844.598C205.293 845.184 205.234 845.828 205.234 846.531V847.117C205.234 847.752 205.322 848.338 205.498 848.875C205.684 849.412 205.942 849.876 206.274 850.267C206.616 850.657 207.026 850.96 207.505 851.175C207.993 851.39 208.545 851.497 209.16 851.497C209.922 851.497 210.63 851.351 211.284 851.058C211.948 850.755 212.52 850.301 212.998 849.695L215.049 851.922C214.717 852.4 214.263 852.859 213.687 853.299C213.12 853.738 212.437 854.1 211.636 854.383C210.835 854.656 209.922 854.793 208.896 854.793ZM224.351 851.497C224.868 851.497 225.327 851.399 225.728 851.204C226.128 850.999 226.44 850.716 226.665 850.354C226.899 849.983 227.021 849.549 227.031 849.051H231.001C230.991 850.164 230.693 851.155 230.107 852.024C229.521 852.884 228.735 853.562 227.749 854.061C226.763 854.549 225.659 854.793 224.438 854.793C223.208 854.793 222.134 854.588 221.216 854.178C220.308 853.768 219.551 853.201 218.945 852.479C218.34 851.746 217.886 850.896 217.583 849.93C217.28 848.953 217.129 847.908 217.129 846.795V846.37C217.129 845.247 217.28 844.202 217.583 843.235C217.886 842.259 218.34 841.409 218.945 840.687C219.551 839.954 220.308 839.383 221.216 838.973C222.124 838.562 223.188 838.357 224.409 838.357C225.708 838.357 226.846 838.606 227.822 839.104C228.809 839.603 229.58 840.315 230.137 841.243C230.703 842.161 230.991 843.25 231.001 844.51H227.031C227.021 843.982 226.909 843.504 226.694 843.074C226.489 842.645 226.187 842.303 225.786 842.049C225.396 841.785 224.912 841.653 224.336 841.653C223.721 841.653 223.218 841.785 222.827 842.049C222.437 842.303 222.134 842.654 221.919 843.104C221.704 843.543 221.553 844.046 221.465 844.612C221.387 845.169 221.348 845.755 221.348 846.37V846.795C221.348 847.41 221.387 848.001 221.465 848.567C221.543 849.134 221.689 849.637 221.904 850.076C222.129 850.516 222.437 850.862 222.827 851.116C223.218 851.37 223.726 851.497 224.351 851.497ZM237.666 831.985V854.5H233.447V831.985H237.666ZM247.656 838.65L240.771 846.502L237.08 850.237L235.542 847.19L238.472 843.47L242.588 838.65H247.656ZM243.276 854.5L238.589 847.176L241.504 844.627L248.14 854.5H243.276Z" fill="#FFFCFC"/>
<rect x="14.5" y="489.5" width="380" height="55" rx="9.5" stroke="#272727"/>
<rect x="14.5" y="630.5" width="380" height="55" rx="9.5" stroke="#272727"/>
<rect x="14.5" y="563.5" width="380" height="55" rx="9.5" stroke="#272727"/>
<path d="M48.9443 515H46.7773L46.791 513.4H48.9443C49.4821 513.4 49.9355 513.28 50.3047 513.038C50.6738 512.792 50.9518 512.434 51.1387 511.965C51.3301 511.495 51.4258 510.928 51.4258 510.263V509.777C51.4258 509.267 51.3711 508.818 51.2617 508.431C51.1569 508.043 50.9997 507.717 50.79 507.453C50.5804 507.189 50.3229 506.991 50.0176 506.858C49.7122 506.722 49.3613 506.653 48.9648 506.653H46.7363V505.047H48.9648C49.6302 505.047 50.2386 505.161 50.79 505.389C51.346 505.612 51.8268 505.933 52.2324 506.353C52.638 506.772 52.9502 507.273 53.1689 507.856C53.3923 508.435 53.5039 509.08 53.5039 509.791V510.263C53.5039 510.969 53.3923 511.614 53.1689 512.197C52.9502 512.781 52.638 513.282 52.2324 513.701C51.8314 514.116 51.3506 514.437 50.79 514.665C50.234 514.888 49.6188 515 48.9443 515ZM47.9395 505.047V515H45.8887V505.047H47.9395ZM59.2461 513.229V507.604H61.2148V515H59.3623L59.2461 513.229ZM59.4648 511.712L60.0459 511.698C60.0459 512.19 59.9889 512.648 59.875 513.072C59.7611 513.492 59.5902 513.856 59.3623 514.166C59.1344 514.471 58.8473 514.711 58.501 514.884C58.1546 515.052 57.7467 515.137 57.2773 515.137C56.9173 515.137 56.5846 515.087 56.2793 514.986C55.9785 514.882 55.7188 514.72 55.5 514.501C55.2858 514.278 55.1172 513.993 54.9941 513.646C54.8757 513.296 54.8164 512.874 54.8164 512.382V507.604H56.7852V512.396C56.7852 512.614 56.8102 512.799 56.8604 512.949C56.915 513.1 56.9902 513.223 57.0859 513.318C57.1816 513.414 57.2933 513.482 57.4209 513.523C57.5531 513.564 57.6989 513.585 57.8584 513.585C58.264 513.585 58.583 513.503 58.8154 513.339C59.0524 513.175 59.2188 512.951 59.3145 512.669C59.4147 512.382 59.4648 512.063 59.4648 511.712ZM64.6875 509.217V515H62.7188V507.604H64.5713L64.6875 509.217ZM66.916 507.556L66.8818 509.381C66.7861 509.367 66.6699 509.356 66.5332 509.347C66.401 509.333 66.2803 509.326 66.1709 509.326C65.8929 509.326 65.6514 509.363 65.4463 509.436C65.2458 509.504 65.0771 509.606 64.9404 509.743C64.8083 509.88 64.708 510.046 64.6396 510.242C64.5758 510.438 64.5394 510.661 64.5303 510.912L64.1338 510.789C64.1338 510.311 64.1816 509.871 64.2773 509.47C64.373 509.064 64.512 508.711 64.6943 508.41C64.8812 508.109 65.109 507.877 65.3779 507.713C65.6468 507.549 65.9544 507.467 66.3008 507.467C66.4102 507.467 66.5218 507.476 66.6357 507.494C66.7497 507.508 66.8431 507.528 66.916 507.556ZM71.6055 513.332V510.037C71.6055 509.8 71.5667 509.597 71.4893 509.429C71.4118 509.256 71.291 509.121 71.127 509.025C70.9674 508.93 70.7601 508.882 70.5049 508.882C70.2861 508.882 70.097 508.921 69.9375 508.998C69.778 509.071 69.6549 509.178 69.5684 509.319C69.4818 509.456 69.4385 509.618 69.4385 509.805H67.4697C67.4697 509.49 67.5426 509.192 67.6885 508.909C67.8343 508.627 68.0462 508.378 68.3242 508.164C68.6022 507.945 68.9326 507.774 69.3154 507.651C69.7028 507.528 70.1357 507.467 70.6143 507.467C71.1885 507.467 71.6989 507.562 72.1455 507.754C72.5921 507.945 72.943 508.232 73.1982 508.615C73.458 508.998 73.5879 509.477 73.5879 510.051V513.216C73.5879 513.621 73.613 513.954 73.6631 514.214C73.7132 514.469 73.7861 514.692 73.8818 514.884V515H71.8926C71.7969 514.799 71.724 514.549 71.6738 514.248C71.6283 513.943 71.6055 513.637 71.6055 513.332ZM71.8652 510.495L71.8789 511.609H70.7783C70.5186 511.609 70.293 511.639 70.1016 511.698C69.9102 511.757 69.7529 511.842 69.6299 511.951C69.5068 512.056 69.4157 512.179 69.3564 512.32C69.3018 512.462 69.2744 512.617 69.2744 512.785C69.2744 512.954 69.3132 513.106 69.3906 513.243C69.4681 513.375 69.5798 513.48 69.7256 513.558C69.8714 513.631 70.0423 513.667 70.2383 513.667C70.5345 513.667 70.792 513.608 71.0107 513.489C71.2295 513.371 71.3981 513.225 71.5166 513.052C71.6396 512.879 71.7035 512.715 71.708 512.56L72.2275 513.394C72.1546 513.58 72.0544 513.774 71.9268 513.975C71.8037 514.175 71.6465 514.364 71.4551 514.542C71.2637 514.715 71.0335 514.859 70.7646 514.973C70.4958 515.082 70.1768 515.137 69.8076 515.137C69.3382 515.137 68.9121 515.043 68.5293 514.856C68.151 514.665 67.8503 514.403 67.627 514.07C67.4082 513.733 67.2988 513.35 67.2988 512.922C67.2988 512.535 67.3717 512.19 67.5176 511.89C67.6634 511.589 67.8776 511.336 68.1602 511.131C68.4473 510.921 68.805 510.764 69.2334 510.659C69.6618 510.55 70.1585 510.495 70.7236 510.495H71.8652ZM78.7285 507.604V508.998H74.4219V507.604H78.7285ZM75.4883 505.778H77.457V512.771C77.457 512.986 77.4844 513.15 77.5391 513.264C77.5983 513.378 77.6849 513.457 77.7988 513.503C77.9128 513.544 78.0563 513.564 78.2295 513.564C78.3525 513.564 78.4619 513.56 78.5576 513.551C78.6579 513.537 78.7422 513.523 78.8105 513.51L78.8174 514.959C78.6488 515.014 78.4665 515.057 78.2705 515.089C78.0745 515.121 77.8581 515.137 77.6211 515.137C77.1882 515.137 76.8099 515.066 76.4863 514.925C76.1673 514.779 75.9212 514.547 75.748 514.228C75.5749 513.909 75.4883 513.489 75.4883 512.97V505.778ZM81.9277 507.604V515H79.9521V507.604H81.9277ZM79.8291 505.676C79.8291 505.389 79.9294 505.152 80.1299 504.965C80.3304 504.778 80.5993 504.685 80.9365 504.685C81.2692 504.685 81.5358 504.778 81.7363 504.965C81.9414 505.152 82.0439 505.389 82.0439 505.676C82.0439 505.963 81.9414 506.2 81.7363 506.387C81.5358 506.574 81.2692 506.667 80.9365 506.667C80.5993 506.667 80.3304 506.574 80.1299 506.387C79.9294 506.2 79.8291 505.963 79.8291 505.676ZM83.2402 511.377V511.233C83.2402 510.691 83.3177 510.192 83.4727 509.736C83.6276 509.276 83.8532 508.877 84.1494 508.54C84.4456 508.203 84.8102 507.941 85.2432 507.754C85.6761 507.562 86.1729 507.467 86.7334 507.467C87.2939 507.467 87.793 507.562 88.2305 507.754C88.668 507.941 89.0348 508.203 89.3311 508.54C89.6318 508.877 89.8597 509.276 90.0146 509.736C90.1696 510.192 90.2471 510.691 90.2471 511.233V511.377C90.2471 511.915 90.1696 512.414 90.0146 512.874C89.8597 513.33 89.6318 513.729 89.3311 514.07C89.0348 514.408 88.6702 514.67 88.2373 514.856C87.8044 515.043 87.3076 515.137 86.7471 515.137C86.1865 515.137 85.6875 515.043 85.25 514.856C84.8171 514.67 84.4502 514.408 84.1494 514.07C83.8532 513.729 83.6276 513.33 83.4727 512.874C83.3177 512.414 83.2402 511.915 83.2402 511.377ZM85.209 511.233V511.377C85.209 511.687 85.2363 511.976 85.291 512.245C85.3457 512.514 85.4323 512.751 85.5508 512.956C85.6738 513.157 85.8333 513.314 86.0293 513.428C86.2253 513.542 86.4645 513.599 86.7471 513.599C87.0205 513.599 87.2552 513.542 87.4512 513.428C87.6471 513.314 87.8044 513.157 87.9229 512.956C88.0413 512.751 88.1279 512.514 88.1826 512.245C88.2419 511.976 88.2715 511.687 88.2715 511.377V511.233C88.2715 510.933 88.2419 510.65 88.1826 510.386C88.1279 510.117 88.0391 509.88 87.916 509.675C87.7975 509.465 87.6403 509.301 87.4443 509.183C87.2484 509.064 87.0114 509.005 86.7334 509.005C86.4554 509.005 86.2184 509.064 86.0225 509.183C85.8311 509.301 85.6738 509.465 85.5508 509.675C85.4323 509.88 85.3457 510.117 85.291 510.386C85.2363 510.65 85.209 510.933 85.209 511.233ZM93.3848 509.183V515H91.416V507.604H93.2617L93.3848 509.183ZM93.0977 511.042H92.5645C92.5645 510.495 92.6351 510.003 92.7764 509.565C92.9176 509.123 93.1159 508.747 93.3711 508.438C93.6263 508.123 93.9294 507.884 94.2803 507.72C94.6357 507.551 95.0322 507.467 95.4697 507.467C95.8161 507.467 96.1328 507.517 96.4199 507.617C96.707 507.717 96.9531 507.877 97.1582 508.096C97.3678 508.314 97.5273 508.604 97.6367 508.964C97.7507 509.324 97.8076 509.764 97.8076 510.283V515H95.8252V510.276C95.8252 509.948 95.7796 509.693 95.6885 509.511C95.5973 509.328 95.4629 509.201 95.2852 509.128C95.112 509.05 94.8978 509.012 94.6426 509.012C94.3783 509.012 94.1481 509.064 93.9521 509.169C93.7607 509.274 93.6012 509.42 93.4736 509.606C93.3506 509.789 93.2572 510.003 93.1934 510.249C93.1296 510.495 93.0977 510.759 93.0977 511.042ZM109.312 513.4V515H104.302V513.4H109.312ZM104.965 505.047V515H102.914V505.047H104.965ZM110.051 511.377V511.233C110.051 510.691 110.128 510.192 110.283 509.736C110.438 509.276 110.664 508.877 110.96 508.54C111.256 508.203 111.621 507.941 112.054 507.754C112.487 507.562 112.983 507.467 113.544 507.467C114.104 507.467 114.604 507.562 115.041 507.754C115.479 507.941 115.845 508.203 116.142 508.54C116.442 508.877 116.67 509.276 116.825 509.736C116.98 510.192 117.058 510.691 117.058 511.233V511.377C117.058 511.915 116.98 512.414 116.825 512.874C116.67 513.33 116.442 513.729 116.142 514.07C115.845 514.408 115.481 514.67 115.048 514.856C114.615 515.043 114.118 515.137 113.558 515.137C112.997 515.137 112.498 515.043 112.061 514.856C111.628 514.67 111.261 514.408 110.96 514.07C110.664 513.729 110.438 513.33 110.283 512.874C110.128 512.414 110.051 511.915 110.051 511.377ZM112.02 511.233V511.377C112.02 511.687 112.047 511.976 112.102 512.245C112.156 512.514 112.243 512.751 112.361 512.956C112.484 513.157 112.644 513.314 112.84 513.428C113.036 513.542 113.275 513.599 113.558 513.599C113.831 513.599 114.066 513.542 114.262 513.428C114.458 513.314 114.615 513.157 114.733 512.956C114.852 512.751 114.938 512.514 114.993 512.245C115.052 511.976 115.082 511.687 115.082 511.377V511.233C115.082 510.933 115.052 510.65 114.993 510.386C114.938 510.117 114.85 509.88 114.727 509.675C114.608 509.465 114.451 509.301 114.255 509.183C114.059 509.064 113.822 509.005 113.544 509.005C113.266 509.005 113.029 509.064 112.833 509.183C112.642 509.301 112.484 509.465 112.361 509.675C112.243 509.88 112.156 510.117 112.102 510.386C112.047 510.65 112.02 510.933 112.02 511.233ZM122.26 513.332V510.037C122.26 509.8 122.221 509.597 122.144 509.429C122.066 509.256 121.945 509.121 121.781 509.025C121.622 508.93 121.414 508.882 121.159 508.882C120.94 508.882 120.751 508.921 120.592 508.998C120.432 509.071 120.309 509.178 120.223 509.319C120.136 509.456 120.093 509.618 120.093 509.805H118.124C118.124 509.49 118.197 509.192 118.343 508.909C118.489 508.627 118.701 508.378 118.979 508.164C119.257 507.945 119.587 507.774 119.97 507.651C120.357 507.528 120.79 507.467 121.269 507.467C121.843 507.467 122.353 507.562 122.8 507.754C123.246 507.945 123.597 508.232 123.853 508.615C124.112 508.998 124.242 509.477 124.242 510.051V513.216C124.242 513.621 124.267 513.954 124.317 514.214C124.368 514.469 124.44 514.692 124.536 514.884V515H122.547C122.451 514.799 122.378 514.549 122.328 514.248C122.283 513.943 122.26 513.637 122.26 513.332ZM122.52 510.495L122.533 511.609H121.433C121.173 511.609 120.947 511.639 120.756 511.698C120.564 511.757 120.407 511.842 120.284 511.951C120.161 512.056 120.07 512.179 120.011 512.32C119.956 512.462 119.929 512.617 119.929 512.785C119.929 512.954 119.967 513.106 120.045 513.243C120.122 513.375 120.234 513.48 120.38 513.558C120.526 513.631 120.697 513.667 120.893 513.667C121.189 513.667 121.446 513.608 121.665 513.489C121.884 513.371 122.052 513.225 122.171 513.052C122.294 512.879 122.358 512.715 122.362 512.56L122.882 513.394C122.809 513.58 122.709 513.774 122.581 513.975C122.458 514.175 122.301 514.364 122.109 514.542C121.918 514.715 121.688 514.859 121.419 514.973C121.15 515.082 120.831 515.137 120.462 515.137C119.993 515.137 119.566 515.043 119.184 514.856C118.805 514.665 118.505 514.403 118.281 514.07C118.062 513.733 117.953 513.35 117.953 512.922C117.953 512.535 118.026 512.19 118.172 511.89C118.318 511.589 118.532 511.336 118.814 511.131C119.102 510.921 119.459 510.764 119.888 510.659C120.316 510.55 120.813 510.495 121.378 510.495H122.52ZM127.688 509.183V515H125.719V507.604H127.564L127.688 509.183ZM127.4 511.042H126.867C126.867 510.495 126.938 510.003 127.079 509.565C127.22 509.123 127.419 508.747 127.674 508.438C127.929 508.123 128.232 507.884 128.583 507.72C128.938 507.551 129.335 507.467 129.772 507.467C130.119 507.467 130.436 507.517 130.723 507.617C131.01 507.717 131.256 507.877 131.461 508.096C131.671 508.314 131.83 508.604 131.939 508.964C132.053 509.324 132.11 509.764 132.11 510.283V515H130.128V510.276C130.128 509.948 130.082 509.693 129.991 509.511C129.9 509.328 129.766 509.201 129.588 509.128C129.415 509.05 129.201 509.012 128.945 509.012C128.681 509.012 128.451 509.064 128.255 509.169C128.063 509.274 127.904 509.42 127.776 509.606C127.653 509.789 127.56 510.003 127.496 510.249C127.432 510.495 127.4 510.759 127.4 511.042Z" fill="black"/>
<path d="M51.6582 652.698H53.7021C53.6611 653.368 53.4766 653.963 53.1484 654.482C52.8249 655.002 52.3714 655.408 51.7881 655.699C51.2093 655.991 50.512 656.137 49.6963 656.137C49.0583 656.137 48.4863 656.027 47.9805 655.809C47.4746 655.585 47.0417 655.266 46.6816 654.852C46.3262 654.437 46.055 653.936 45.8682 653.348C45.6813 652.76 45.5879 652.101 45.5879 651.372V650.682C45.5879 649.952 45.6836 649.294 45.875 648.706C46.071 648.114 46.349 647.61 46.709 647.195C47.0736 646.781 47.5088 646.462 48.0146 646.238C48.5205 646.015 49.0856 645.903 49.71 645.903C50.5394 645.903 51.2389 646.054 51.8086 646.354C52.3828 646.655 52.8271 647.07 53.1416 647.599C53.4606 648.127 53.652 648.729 53.7158 649.403H51.665C51.6423 649.002 51.5625 648.663 51.4258 648.385C51.2891 648.102 51.0817 647.89 50.8037 647.749C50.5303 647.603 50.1657 647.53 49.71 647.53C49.3682 647.53 49.0697 647.594 48.8145 647.722C48.5592 647.849 48.3451 648.043 48.1719 648.303C47.9987 648.562 47.8688 648.891 47.7822 649.287C47.7002 649.679 47.6592 650.139 47.6592 650.668V651.372C47.6592 651.887 47.6979 652.34 47.7754 652.732C47.8529 653.12 47.9714 653.448 48.1309 653.717C48.2949 653.981 48.5046 654.182 48.7598 654.318C49.0195 654.451 49.3317 654.517 49.6963 654.517C50.1247 654.517 50.4779 654.448 50.7559 654.312C51.0339 654.175 51.2458 653.972 51.3916 653.703C51.542 653.434 51.6309 653.099 51.6582 652.698ZM59.3008 654.229V648.604H61.2695V656H59.417L59.3008 654.229ZM59.5195 652.712L60.1006 652.698C60.1006 653.19 60.0436 653.648 59.9297 654.072C59.8158 654.492 59.6449 654.856 59.417 655.166C59.1891 655.471 58.902 655.711 58.5557 655.884C58.2093 656.052 57.8014 656.137 57.332 656.137C56.972 656.137 56.6393 656.087 56.334 655.986C56.0332 655.882 55.7734 655.72 55.5547 655.501C55.3405 655.278 55.1719 654.993 55.0488 654.646C54.9303 654.296 54.8711 653.874 54.8711 653.382V648.604H56.8398V653.396C56.8398 653.614 56.8649 653.799 56.915 653.949C56.9697 654.1 57.0449 654.223 57.1406 654.318C57.2363 654.414 57.348 654.482 57.4756 654.523C57.6077 654.564 57.7536 654.585 57.9131 654.585C58.3187 654.585 58.6377 654.503 58.8701 654.339C59.1071 654.175 59.2734 653.951 59.3691 653.669C59.4694 653.382 59.5195 653.063 59.5195 652.712ZM64.7422 650.217V656H62.7734V648.604H64.626L64.7422 650.217ZM66.9707 648.556L66.9365 650.381C66.8408 650.367 66.7246 650.356 66.5879 650.347C66.4557 650.333 66.335 650.326 66.2256 650.326C65.9476 650.326 65.7061 650.363 65.501 650.436C65.3005 650.504 65.1318 650.606 64.9951 650.743C64.863 650.88 64.7627 651.046 64.6943 651.242C64.6305 651.438 64.5941 651.661 64.585 651.912L64.1885 651.789C64.1885 651.311 64.2363 650.871 64.332 650.47C64.4277 650.064 64.5667 649.711 64.749 649.41C64.9359 649.109 65.1637 648.877 65.4326 648.713C65.7015 648.549 66.0091 648.467 66.3555 648.467C66.4648 648.467 66.5765 648.476 66.6904 648.494C66.8044 648.508 66.8978 648.528 66.9707 648.556ZM69.8691 650.217V656H67.9004V648.604H69.7529L69.8691 650.217ZM72.0977 648.556L72.0635 650.381C71.9678 650.367 71.8516 650.356 71.7148 650.347C71.5827 650.333 71.4619 650.326 71.3525 650.326C71.0745 650.326 70.833 650.363 70.6279 650.436C70.4274 650.504 70.2588 650.606 70.1221 650.743C69.9899 650.88 69.8896 651.046 69.8213 651.242C69.7575 651.438 69.721 651.661 69.7119 651.912L69.3154 651.789C69.3154 651.311 69.3633 650.871 69.459 650.47C69.5547 650.064 69.6937 649.711 69.876 649.41C70.0628 649.109 70.2907 648.877 70.5596 648.713C70.8285 648.549 71.1361 648.467 71.4824 648.467C71.5918 648.467 71.7035 648.476 71.8174 648.494C71.9313 648.508 72.0247 648.528 72.0977 648.556ZM76.2949 656.137C75.7207 656.137 75.2057 656.046 74.75 655.863C74.2943 655.676 73.9069 655.419 73.5879 655.091C73.2734 654.763 73.0319 654.382 72.8633 653.949C72.6947 653.512 72.6104 653.047 72.6104 652.555V652.281C72.6104 651.721 72.6901 651.208 72.8496 650.743C73.0091 650.278 73.237 649.875 73.5332 649.533C73.834 649.191 74.1986 648.929 74.627 648.747C75.0553 648.56 75.5384 648.467 76.0762 648.467C76.6003 648.467 77.0651 648.553 77.4707 648.727C77.8763 648.9 78.2158 649.146 78.4893 649.465C78.7673 649.784 78.9769 650.167 79.1182 650.613C79.2594 651.055 79.3301 651.548 79.3301 652.09V652.91H73.4512V651.598H77.3955V651.447C77.3955 651.174 77.3454 650.93 77.2451 650.716C77.1494 650.497 77.0036 650.324 76.8076 650.196C76.6117 650.069 76.361 650.005 76.0557 650.005C75.7959 650.005 75.5726 650.062 75.3857 650.176C75.1989 650.29 75.0462 650.449 74.9277 650.654C74.8138 650.859 74.7272 651.101 74.668 651.379C74.6133 651.652 74.5859 651.953 74.5859 652.281V652.555C74.5859 652.851 74.627 653.124 74.709 653.375C74.7956 653.626 74.9163 653.842 75.0713 654.024C75.2308 654.207 75.4222 654.348 75.6455 654.448C75.8734 654.549 76.1309 654.599 76.418 654.599C76.7734 654.599 77.1038 654.53 77.4092 654.394C77.7191 654.252 77.9857 654.04 78.209 653.758L79.166 654.797C79.0111 655.02 78.7992 655.234 78.5303 655.439C78.266 655.645 77.9469 655.813 77.5732 655.945C77.1995 656.073 76.7734 656.137 76.2949 656.137ZM82.3789 650.183V656H80.4102V648.604H82.2559L82.3789 650.183ZM82.0918 652.042H81.5586C81.5586 651.495 81.6292 651.003 81.7705 650.565C81.9118 650.123 82.11 649.747 82.3652 649.438C82.6204 649.123 82.9235 648.884 83.2744 648.72C83.6299 648.551 84.0264 648.467 84.4639 648.467C84.8102 648.467 85.127 648.517 85.4141 648.617C85.7012 648.717 85.9473 648.877 86.1523 649.096C86.362 649.314 86.5215 649.604 86.6309 649.964C86.7448 650.324 86.8018 650.764 86.8018 651.283V656H84.8193V651.276C84.8193 650.948 84.7738 650.693 84.6826 650.511C84.5915 650.328 84.457 650.201 84.2793 650.128C84.1061 650.05 83.8919 650.012 83.6367 650.012C83.3724 650.012 83.1423 650.064 82.9463 650.169C82.7549 650.274 82.5954 650.42 82.4678 650.606C82.3447 650.789 82.2513 651.003 82.1875 651.249C82.1237 651.495 82.0918 651.759 82.0918 652.042ZM91.9219 648.604V649.998H87.6152V648.604H91.9219ZM88.6816 646.778H90.6504V653.771C90.6504 653.986 90.6777 654.15 90.7324 654.264C90.7917 654.378 90.8783 654.457 90.9922 654.503C91.1061 654.544 91.2497 654.564 91.4229 654.564C91.5459 654.564 91.6553 654.56 91.751 654.551C91.8512 654.537 91.9355 654.523 92.0039 654.51L92.0107 655.959C91.8421 656.014 91.6598 656.057 91.4639 656.089C91.2679 656.121 91.0514 656.137 90.8145 656.137C90.3815 656.137 90.0033 656.066 89.6797 655.925C89.3607 655.779 89.1146 655.547 88.9414 655.228C88.7682 654.909 88.6816 654.489 88.6816 653.97V646.778ZM98.4502 645.5V656H96.4814V645.5H98.4502ZM98.1699 652.042H97.6299C97.6344 651.527 97.7028 651.053 97.835 650.62C97.9671 650.183 98.1562 649.804 98.4023 649.485C98.6484 649.162 98.9424 648.911 99.2842 648.733C99.6305 648.556 100.013 648.467 100.433 648.467C100.797 648.467 101.128 648.519 101.424 648.624C101.725 648.724 101.982 648.888 102.196 649.116C102.415 649.34 102.584 649.633 102.702 649.998C102.821 650.363 102.88 650.805 102.88 651.324V656H100.897V651.311C100.897 650.982 100.85 650.725 100.754 650.538C100.663 650.347 100.528 650.212 100.351 650.135C100.177 650.053 99.9632 650.012 99.708 650.012C99.4255 650.012 99.1839 650.064 98.9834 650.169C98.7874 650.274 98.6302 650.42 98.5117 650.606C98.3932 650.789 98.3066 651.003 98.252 651.249C98.1973 651.495 98.1699 651.759 98.1699 652.042ZM104.062 652.377V652.233C104.062 651.691 104.14 651.192 104.295 650.736C104.45 650.276 104.675 649.877 104.972 649.54C105.268 649.203 105.632 648.941 106.065 648.754C106.498 648.562 106.995 648.467 107.556 648.467C108.116 648.467 108.615 648.562 109.053 648.754C109.49 648.941 109.857 649.203 110.153 649.54C110.454 649.877 110.682 650.276 110.837 650.736C110.992 651.192 111.069 651.691 111.069 652.233V652.377C111.069 652.915 110.992 653.414 110.837 653.874C110.682 654.33 110.454 654.729 110.153 655.07C109.857 655.408 109.493 655.67 109.06 655.856C108.627 656.043 108.13 656.137 107.569 656.137C107.009 656.137 106.51 656.043 106.072 655.856C105.639 655.67 105.272 655.408 104.972 655.07C104.675 654.729 104.45 654.33 104.295 653.874C104.14 653.414 104.062 652.915 104.062 652.377ZM106.031 652.233V652.377C106.031 652.687 106.059 652.976 106.113 653.245C106.168 653.514 106.255 653.751 106.373 653.956C106.496 654.157 106.656 654.314 106.852 654.428C107.048 654.542 107.287 654.599 107.569 654.599C107.843 654.599 108.077 654.542 108.273 654.428C108.469 654.314 108.627 654.157 108.745 653.956C108.864 653.751 108.95 653.514 109.005 653.245C109.064 652.976 109.094 652.687 109.094 652.377V652.233C109.094 651.933 109.064 651.65 109.005 651.386C108.95 651.117 108.861 650.88 108.738 650.675C108.62 650.465 108.463 650.301 108.267 650.183C108.071 650.064 107.834 650.005 107.556 650.005C107.278 650.005 107.041 650.064 106.845 650.183C106.653 650.301 106.496 650.465 106.373 650.675C106.255 650.88 106.168 651.117 106.113 651.386C106.059 651.65 106.031 651.933 106.031 652.233ZM114.248 650.135V656H112.272V648.604H114.125L114.248 650.135ZM113.975 652.042H113.428C113.428 651.527 113.489 651.053 113.612 650.62C113.74 650.183 113.924 649.804 114.166 649.485C114.412 649.162 114.715 648.911 115.075 648.733C115.435 648.556 115.852 648.467 116.326 648.467C116.654 648.467 116.955 648.517 117.229 648.617C117.502 648.713 117.737 648.866 117.933 649.075C118.133 649.28 118.288 649.549 118.397 649.882C118.507 650.21 118.562 650.604 118.562 651.064V656H116.593V651.283C116.593 650.946 116.547 650.686 116.456 650.504C116.365 650.322 116.235 650.194 116.066 650.121C115.902 650.048 115.704 650.012 115.472 650.012C115.216 650.012 114.993 650.064 114.802 650.169C114.615 650.274 114.46 650.42 114.337 650.606C114.214 650.789 114.123 651.003 114.063 651.249C114.004 651.495 113.975 651.759 113.975 652.042ZM118.377 651.816L117.673 651.905C117.673 651.422 117.732 650.973 117.851 650.559C117.974 650.144 118.154 649.779 118.391 649.465C118.632 649.15 118.931 648.907 119.286 648.733C119.642 648.556 120.052 648.467 120.517 648.467C120.872 648.467 121.196 648.519 121.487 648.624C121.779 648.724 122.027 648.886 122.232 649.109C122.442 649.328 122.602 649.615 122.711 649.971C122.825 650.326 122.882 650.761 122.882 651.276V656H120.906V651.276C120.906 650.935 120.861 650.675 120.77 650.497C120.683 650.315 120.555 650.189 120.387 650.121C120.223 650.048 120.027 650.012 119.799 650.012C119.562 650.012 119.354 650.06 119.177 650.155C118.999 650.246 118.851 650.374 118.732 650.538C118.614 650.702 118.525 650.894 118.466 651.112C118.407 651.326 118.377 651.561 118.377 651.816ZM127.811 656.137C127.236 656.137 126.721 656.046 126.266 655.863C125.81 655.676 125.423 655.419 125.104 655.091C124.789 654.763 124.548 654.382 124.379 653.949C124.21 653.512 124.126 653.047 124.126 652.555V652.281C124.126 651.721 124.206 651.208 124.365 650.743C124.525 650.278 124.753 649.875 125.049 649.533C125.35 649.191 125.714 648.929 126.143 648.747C126.571 648.56 127.054 648.467 127.592 648.467C128.116 648.467 128.581 648.553 128.986 648.727C129.392 648.9 129.731 649.146 130.005 649.465C130.283 649.784 130.493 650.167 130.634 650.613C130.775 651.055 130.846 651.548 130.846 652.09V652.91H124.967V651.598H128.911V651.447C128.911 651.174 128.861 650.93 128.761 650.716C128.665 650.497 128.519 650.324 128.323 650.196C128.127 650.069 127.877 650.005 127.571 650.005C127.312 650.005 127.088 650.062 126.901 650.176C126.715 650.29 126.562 650.449 126.443 650.654C126.329 650.859 126.243 651.101 126.184 651.379C126.129 651.652 126.102 651.953 126.102 652.281V652.555C126.102 652.851 126.143 653.124 126.225 653.375C126.311 653.626 126.432 653.842 126.587 654.024C126.746 654.207 126.938 654.348 127.161 654.448C127.389 654.549 127.646 654.599 127.934 654.599C128.289 654.599 128.619 654.53 128.925 654.394C129.235 654.252 129.501 654.04 129.725 653.758L130.682 654.797C130.527 655.02 130.315 655.234 130.046 655.439C129.782 655.645 129.463 655.813 129.089 655.945C128.715 656.073 128.289 656.137 127.811 656.137ZM139.445 654.332V651.037C139.445 650.8 139.407 650.597 139.329 650.429C139.252 650.256 139.131 650.121 138.967 650.025C138.807 649.93 138.6 649.882 138.345 649.882C138.126 649.882 137.937 649.921 137.777 649.998C137.618 650.071 137.495 650.178 137.408 650.319C137.322 650.456 137.278 650.618 137.278 650.805H135.31C135.31 650.49 135.382 650.192 135.528 649.909C135.674 649.627 135.886 649.378 136.164 649.164C136.442 648.945 136.772 648.774 137.155 648.651C137.543 648.528 137.976 648.467 138.454 648.467C139.028 648.467 139.539 648.562 139.985 648.754C140.432 648.945 140.783 649.232 141.038 649.615C141.298 649.998 141.428 650.477 141.428 651.051V654.216C141.428 654.621 141.453 654.954 141.503 655.214C141.553 655.469 141.626 655.692 141.722 655.884V656H139.732C139.637 655.799 139.564 655.549 139.514 655.248C139.468 654.943 139.445 654.637 139.445 654.332ZM139.705 651.495L139.719 652.609H138.618C138.358 652.609 138.133 652.639 137.941 652.698C137.75 652.757 137.593 652.842 137.47 652.951C137.347 653.056 137.256 653.179 137.196 653.32C137.142 653.462 137.114 653.617 137.114 653.785C137.114 653.954 137.153 654.106 137.23 654.243C137.308 654.375 137.42 654.48 137.565 654.558C137.711 654.631 137.882 654.667 138.078 654.667C138.374 654.667 138.632 654.608 138.851 654.489C139.069 654.371 139.238 654.225 139.356 654.052C139.479 653.879 139.543 653.715 139.548 653.56L140.067 654.394C139.994 654.58 139.894 654.774 139.767 654.975C139.644 655.175 139.486 655.364 139.295 655.542C139.104 655.715 138.873 655.859 138.604 655.973C138.336 656.082 138.017 656.137 137.647 656.137C137.178 656.137 136.752 656.043 136.369 655.856C135.991 655.665 135.69 655.403 135.467 655.07C135.248 654.733 135.139 654.35 135.139 653.922C135.139 653.535 135.212 653.19 135.357 652.89C135.503 652.589 135.717 652.336 136 652.131C136.287 651.921 136.645 651.764 137.073 651.659C137.502 651.55 137.998 651.495 138.563 651.495H139.705ZM147.313 654.387V645.5H149.296V656H147.512L147.313 654.387ZM142.638 652.391V652.247C142.638 651.682 142.701 651.169 142.829 650.709C142.957 650.244 143.144 649.845 143.39 649.513C143.636 649.18 143.939 648.923 144.299 648.74C144.659 648.558 145.069 648.467 145.529 648.467C145.962 648.467 146.34 648.558 146.664 648.74C146.992 648.923 147.27 649.182 147.498 649.52C147.73 649.852 147.917 650.246 148.059 650.702C148.2 651.153 148.302 651.648 148.366 652.186V652.5C148.302 653.015 148.2 653.493 148.059 653.936C147.917 654.378 147.73 654.765 147.498 655.098C147.27 655.426 146.992 655.681 146.664 655.863C146.336 656.046 145.953 656.137 145.516 656.137C145.055 656.137 144.645 656.043 144.285 655.856C143.93 655.67 143.629 655.408 143.383 655.07C143.141 654.733 142.957 654.337 142.829 653.881C142.701 653.425 142.638 652.928 142.638 652.391ZM144.606 652.247V652.391C144.606 652.696 144.629 652.981 144.675 653.245C144.725 653.509 144.805 653.744 144.914 653.949C145.028 654.15 145.174 654.307 145.352 654.421C145.534 654.53 145.755 654.585 146.015 654.585C146.352 654.585 146.63 654.51 146.849 654.359C147.067 654.204 147.234 653.993 147.348 653.724C147.466 653.455 147.535 653.145 147.553 652.794V651.898C147.539 651.611 147.498 651.354 147.43 651.126C147.366 650.894 147.27 650.695 147.143 650.531C147.02 650.367 146.865 650.24 146.678 650.148C146.495 650.057 146.279 650.012 146.028 650.012C145.773 650.012 145.554 650.071 145.372 650.189C145.19 650.303 145.042 650.461 144.928 650.661C144.818 650.862 144.736 651.099 144.682 651.372C144.632 651.641 144.606 651.933 144.606 652.247ZM155.202 654.387V645.5H157.185V656H155.4L155.202 654.387ZM150.526 652.391V652.247C150.526 651.682 150.59 651.169 150.718 650.709C150.845 650.244 151.032 649.845 151.278 649.513C151.524 649.18 151.827 648.923 152.188 648.74C152.548 648.558 152.958 648.467 153.418 648.467C153.851 648.467 154.229 648.558 154.553 648.74C154.881 648.923 155.159 649.182 155.387 649.52C155.619 649.852 155.806 650.246 155.947 650.702C156.089 651.153 156.191 651.648 156.255 652.186V652.5C156.191 653.015 156.089 653.493 155.947 653.936C155.806 654.378 155.619 654.765 155.387 655.098C155.159 655.426 154.881 655.681 154.553 655.863C154.225 656.046 153.842 656.137 153.404 656.137C152.944 656.137 152.534 656.043 152.174 655.856C151.818 655.67 151.518 655.408 151.271 655.07C151.03 654.733 150.845 654.337 150.718 653.881C150.59 653.425 150.526 652.928 150.526 652.391ZM152.495 652.247V652.391C152.495 652.696 152.518 652.981 152.563 653.245C152.614 653.509 152.693 653.744 152.803 653.949C152.917 654.15 153.062 654.307 153.24 654.421C153.423 654.53 153.644 654.585 153.903 654.585C154.241 654.585 154.519 654.51 154.737 654.359C154.956 654.204 155.122 653.993 155.236 653.724C155.355 653.455 155.423 653.145 155.441 652.794V651.898C155.428 651.611 155.387 651.354 155.318 651.126C155.255 650.894 155.159 650.695 155.031 650.531C154.908 650.367 154.753 650.24 154.566 650.148C154.384 650.057 154.168 650.012 153.917 650.012C153.662 650.012 153.443 650.071 153.261 650.189C153.078 650.303 152.93 650.461 152.816 650.661C152.707 650.862 152.625 651.099 152.57 651.372C152.52 651.641 152.495 651.933 152.495 652.247ZM160.691 650.217V656H158.723V648.604H160.575L160.691 650.217ZM162.92 648.556L162.886 650.381C162.79 650.367 162.674 650.356 162.537 650.347C162.405 650.333 162.284 650.326 162.175 650.326C161.897 650.326 161.655 650.363 161.45 650.436C161.25 650.504 161.081 650.606 160.944 650.743C160.812 650.88 160.712 651.046 160.644 651.242C160.58 651.438 160.543 651.661 160.534 651.912L160.138 651.789C160.138 651.311 160.186 650.871 160.281 650.47C160.377 650.064 160.516 649.711 160.698 649.41C160.885 649.109 161.113 648.877 161.382 648.713C161.651 648.549 161.958 648.467 162.305 648.467C162.414 648.467 162.526 648.476 162.64 648.494C162.754 648.508 162.847 648.528 162.92 648.556ZM167.117 656.137C166.543 656.137 166.028 656.046 165.572 655.863C165.117 655.676 164.729 655.419 164.41 655.091C164.096 654.763 163.854 654.382 163.686 653.949C163.517 653.512 163.433 653.047 163.433 652.555V652.281C163.433 651.721 163.512 651.208 163.672 650.743C163.831 650.278 164.059 649.875 164.355 649.533C164.656 649.191 165.021 648.929 165.449 648.747C165.878 648.56 166.361 648.467 166.898 648.467C167.423 648.467 167.887 648.553 168.293 648.727C168.699 648.9 169.038 649.146 169.312 649.465C169.59 649.784 169.799 650.167 169.94 650.613C170.082 651.055 170.152 651.548 170.152 652.09V652.91H164.273V651.598H168.218V651.447C168.218 651.174 168.168 650.93 168.067 650.716C167.972 650.497 167.826 650.324 167.63 650.196C167.434 650.069 167.183 650.005 166.878 650.005C166.618 650.005 166.395 650.062 166.208 650.176C166.021 650.29 165.868 650.449 165.75 650.654C165.636 650.859 165.549 651.101 165.49 651.379C165.436 651.652 165.408 651.953 165.408 652.281V652.555C165.408 652.851 165.449 653.124 165.531 653.375C165.618 653.626 165.739 653.842 165.894 654.024C166.053 654.207 166.244 654.348 166.468 654.448C166.696 654.549 166.953 654.599 167.24 654.599C167.596 654.599 167.926 654.53 168.231 654.394C168.541 654.252 168.808 654.04 169.031 653.758L169.988 654.797C169.833 655.02 169.621 655.234 169.353 655.439C169.088 655.645 168.769 655.813 168.396 655.945C168.022 656.073 167.596 656.137 167.117 656.137ZM175.272 653.956C175.272 653.815 175.231 653.687 175.149 653.573C175.067 653.459 174.915 653.354 174.691 653.259C174.473 653.159 174.156 653.067 173.741 652.985C173.368 652.903 173.019 652.801 172.695 652.678C172.376 652.55 172.098 652.397 171.861 652.22C171.629 652.042 171.447 651.832 171.314 651.591C171.182 651.345 171.116 651.064 171.116 650.75C171.116 650.44 171.182 650.148 171.314 649.875C171.451 649.602 171.645 649.36 171.896 649.15C172.151 648.936 172.461 648.77 172.825 648.651C173.194 648.528 173.609 648.467 174.069 648.467C174.712 648.467 175.263 648.569 175.724 648.774C176.188 648.979 176.544 649.262 176.79 649.622C177.041 649.978 177.166 650.383 177.166 650.839H175.197C175.197 650.647 175.156 650.477 175.074 650.326C174.997 650.171 174.874 650.05 174.705 649.964C174.541 649.873 174.327 649.827 174.062 649.827C173.844 649.827 173.655 649.866 173.495 649.943C173.336 650.016 173.213 650.117 173.126 650.244C173.044 650.367 173.003 650.504 173.003 650.654C173.003 650.768 173.026 650.871 173.071 650.962C173.121 651.049 173.201 651.128 173.311 651.201C173.42 651.274 173.561 651.342 173.734 651.406C173.912 651.465 174.131 651.52 174.391 651.57C174.924 651.68 175.4 651.823 175.819 652.001C176.239 652.174 176.571 652.411 176.817 652.712C177.063 653.008 177.187 653.398 177.187 653.881C177.187 654.209 177.114 654.51 176.968 654.783C176.822 655.057 176.612 655.296 176.339 655.501C176.065 655.701 175.737 655.859 175.354 655.973C174.976 656.082 174.55 656.137 174.076 656.137C173.388 656.137 172.805 656.014 172.326 655.768C171.852 655.521 171.492 655.209 171.246 654.831C171.005 654.448 170.884 654.056 170.884 653.655H172.75C172.759 653.924 172.827 654.141 172.955 654.305C173.087 654.469 173.254 654.587 173.454 654.66C173.659 654.733 173.88 654.77 174.117 654.77C174.372 654.77 174.584 654.735 174.753 654.667C174.922 654.594 175.049 654.498 175.136 654.38C175.227 654.257 175.272 654.116 175.272 653.956ZM182.464 653.956C182.464 653.815 182.423 653.687 182.341 653.573C182.259 653.459 182.106 653.354 181.883 653.259C181.664 653.159 181.347 653.067 180.933 652.985C180.559 652.903 180.21 652.801 179.887 652.678C179.568 652.55 179.29 652.397 179.053 652.22C178.82 652.042 178.638 651.832 178.506 651.591C178.374 651.345 178.308 651.064 178.308 650.75C178.308 650.44 178.374 650.148 178.506 649.875C178.643 649.602 178.836 649.36 179.087 649.15C179.342 648.936 179.652 648.77 180.017 648.651C180.386 648.528 180.8 648.467 181.261 648.467C181.903 648.467 182.455 648.569 182.915 648.774C183.38 648.979 183.735 649.262 183.981 649.622C184.232 649.978 184.357 650.383 184.357 650.839H182.389C182.389 650.647 182.348 650.477 182.266 650.326C182.188 650.171 182.065 650.05 181.896 649.964C181.732 649.873 181.518 649.827 181.254 649.827C181.035 649.827 180.846 649.866 180.687 649.943C180.527 650.016 180.404 650.117 180.317 650.244C180.235 650.367 180.194 650.504 180.194 650.654C180.194 650.768 180.217 650.871 180.263 650.962C180.313 651.049 180.393 651.128 180.502 651.201C180.611 651.274 180.753 651.342 180.926 651.406C181.104 651.465 181.322 651.52 181.582 651.57C182.115 651.68 182.591 651.823 183.011 652.001C183.43 652.174 183.763 652.411 184.009 652.712C184.255 653.008 184.378 653.398 184.378 653.881C184.378 654.209 184.305 654.51 184.159 654.783C184.013 655.057 183.804 655.296 183.53 655.501C183.257 655.701 182.929 655.859 182.546 655.973C182.168 656.082 181.742 656.137 181.268 656.137C180.579 656.137 179.996 656.014 179.518 655.768C179.044 655.521 178.684 655.209 178.438 654.831C178.196 654.448 178.075 654.056 178.075 653.655H179.941C179.951 653.924 180.019 654.141 180.146 654.305C180.279 654.469 180.445 654.587 180.646 654.66C180.851 654.733 181.072 654.77 181.309 654.77C181.564 654.77 181.776 654.735 181.944 654.667C182.113 654.594 182.241 654.498 182.327 654.38C182.418 654.257 182.464 654.116 182.464 653.956Z" fill="black"/>
<path d="M48.0693 579.047V589H46.0254V579.047H48.0693ZM51.7949 583.183V589H49.8262V581.604H51.6719L51.7949 583.183ZM51.5078 585.042H50.9746C50.9746 584.495 51.0452 584.003 51.1865 583.565C51.3278 583.123 51.526 582.747 51.7812 582.438C52.0365 582.123 52.3395 581.884 52.6904 581.72C53.0459 581.551 53.4424 581.467 53.8799 581.467C54.2262 581.467 54.543 581.517 54.8301 581.617C55.1172 581.717 55.3633 581.877 55.5684 582.096C55.778 582.314 55.9375 582.604 56.0469 582.964C56.1608 583.324 56.2178 583.764 56.2178 584.283V589H54.2354V584.276C54.2354 583.948 54.1898 583.693 54.0986 583.511C54.0075 583.328 53.873 583.201 53.6953 583.128C53.5221 583.05 53.3079 583.012 53.0527 583.012C52.7884 583.012 52.5583 583.064 52.3623 583.169C52.1709 583.274 52.0114 583.42 51.8838 583.606C51.7607 583.789 51.6673 584.003 51.6035 584.249C51.5397 584.495 51.5078 584.759 51.5078 585.042ZM61.3379 581.604V582.998H57.0312V581.604H61.3379ZM58.0977 579.778H60.0664V586.771C60.0664 586.986 60.0938 587.15 60.1484 587.264C60.2077 587.378 60.2943 587.457 60.4082 587.503C60.5221 587.544 60.6657 587.564 60.8389 587.564C60.9619 587.564 61.0713 587.56 61.167 587.551C61.2673 587.537 61.3516 587.523 61.4199 587.51L61.4268 588.959C61.2581 589.014 61.0758 589.057 60.8799 589.089C60.6839 589.121 60.4674 589.137 60.2305 589.137C59.7975 589.137 59.4193 589.066 59.0957 588.925C58.7767 588.779 58.5306 588.547 58.3574 588.228C58.1842 587.909 58.0977 587.489 58.0977 586.97V579.778ZM65.8633 589.137C65.2891 589.137 64.7741 589.046 64.3184 588.863C63.8626 588.676 63.4753 588.419 63.1562 588.091C62.8418 587.763 62.6003 587.382 62.4316 586.949C62.263 586.512 62.1787 586.047 62.1787 585.555V585.281C62.1787 584.721 62.2585 584.208 62.418 583.743C62.5775 583.278 62.8053 582.875 63.1016 582.533C63.4023 582.191 63.7669 581.929 64.1953 581.747C64.6237 581.56 65.1068 581.467 65.6445 581.467C66.1686 581.467 66.6335 581.553 67.0391 581.727C67.4447 581.9 67.7842 582.146 68.0576 582.465C68.3356 582.784 68.5452 583.167 68.6865 583.613C68.8278 584.055 68.8984 584.548 68.8984 585.09V585.91H63.0195V584.598H66.9639V584.447C66.9639 584.174 66.9137 583.93 66.8135 583.716C66.7178 583.497 66.5719 583.324 66.376 583.196C66.18 583.069 65.9294 583.005 65.624 583.005C65.3643 583.005 65.141 583.062 64.9541 583.176C64.7673 583.29 64.6146 583.449 64.4961 583.654C64.3822 583.859 64.2956 584.101 64.2363 584.379C64.1816 584.652 64.1543 584.953 64.1543 585.281V585.555C64.1543 585.851 64.1953 586.124 64.2773 586.375C64.3639 586.626 64.4847 586.842 64.6396 587.024C64.7992 587.207 64.9906 587.348 65.2139 587.448C65.4417 587.549 65.6992 587.599 65.9863 587.599C66.3418 587.599 66.6722 587.53 66.9775 587.394C67.2874 587.252 67.554 587.04 67.7773 586.758L68.7344 587.797C68.5794 588.02 68.3675 588.234 68.0986 588.439C67.8343 588.645 67.5153 588.813 67.1416 588.945C66.7679 589.073 66.3418 589.137 65.8633 589.137ZM71.9883 583.217V589H70.0195V581.604H71.8721L71.9883 583.217ZM74.2168 581.556L74.1826 583.381C74.0869 583.367 73.9707 583.356 73.834 583.347C73.7018 583.333 73.5811 583.326 73.4717 583.326C73.1937 583.326 72.9521 583.363 72.7471 583.436C72.5465 583.504 72.3779 583.606 72.2412 583.743C72.109 583.88 72.0088 584.046 71.9404 584.242C71.8766 584.438 71.8402 584.661 71.8311 584.912L71.4346 584.789C71.4346 584.311 71.4824 583.871 71.5781 583.47C71.6738 583.064 71.8128 582.711 71.9951 582.41C72.182 582.109 72.4098 581.877 72.6787 581.713C72.9476 581.549 73.2552 581.467 73.6016 581.467C73.7109 581.467 73.8226 581.476 73.9365 581.494C74.0505 581.508 74.1439 581.528 74.2168 581.556ZM78.4141 589.137C77.8398 589.137 77.3249 589.046 76.8691 588.863C76.4134 588.676 76.026 588.419 75.707 588.091C75.3926 587.763 75.151 587.382 74.9824 586.949C74.8138 586.512 74.7295 586.047 74.7295 585.555V585.281C74.7295 584.721 74.8092 584.208 74.9688 583.743C75.1283 583.278 75.3561 582.875 75.6523 582.533C75.9531 582.191 76.3177 581.929 76.7461 581.747C77.1745 581.56 77.6576 581.467 78.1953 581.467C78.7194 581.467 79.1842 581.553 79.5898 581.727C79.9954 581.9 80.335 582.146 80.6084 582.465C80.8864 582.784 81.096 583.167 81.2373 583.613C81.3786 584.055 81.4492 584.548 81.4492 585.09V585.91H75.5703V584.598H79.5146V584.447C79.5146 584.174 79.4645 583.93 79.3643 583.716C79.2686 583.497 79.1227 583.324 78.9268 583.196C78.7308 583.069 78.4801 583.005 78.1748 583.005C77.915 583.005 77.6917 583.062 77.5049 583.176C77.318 583.29 77.1654 583.449 77.0469 583.654C76.9329 583.859 76.8464 584.101 76.7871 584.379C76.7324 584.652 76.7051 584.953 76.7051 585.281V585.555C76.7051 585.851 76.7461 586.124 76.8281 586.375C76.9147 586.626 77.0355 586.842 77.1904 587.024C77.3499 587.207 77.5413 587.348 77.7646 587.448C77.9925 587.549 78.25 587.599 78.5371 587.599C78.8926 587.599 79.223 587.53 79.5283 587.394C79.8382 587.252 80.1048 587.04 80.3281 586.758L81.2852 587.797C81.1302 588.02 80.9183 588.234 80.6494 588.439C80.3851 588.645 80.0661 588.813 79.6924 588.945C79.3187 589.073 78.8926 589.137 78.4141 589.137ZM86.5693 586.956C86.5693 586.815 86.5283 586.687 86.4463 586.573C86.3643 586.459 86.2116 586.354 85.9883 586.259C85.7695 586.159 85.4528 586.067 85.0381 585.985C84.6644 585.903 84.3158 585.801 83.9922 585.678C83.6732 585.55 83.3952 585.397 83.1582 585.22C82.9258 585.042 82.7435 584.832 82.6113 584.591C82.4792 584.345 82.4131 584.064 82.4131 583.75C82.4131 583.44 82.4792 583.148 82.6113 582.875C82.748 582.602 82.9417 582.36 83.1924 582.15C83.4476 581.936 83.7575 581.77 84.1221 581.651C84.4912 581.528 84.9059 581.467 85.3662 581.467C86.0088 581.467 86.5602 581.569 87.0205 581.774C87.4854 581.979 87.8408 582.262 88.0869 582.622C88.3376 582.978 88.4629 583.383 88.4629 583.839H86.4941C86.4941 583.647 86.4531 583.477 86.3711 583.326C86.2936 583.171 86.1706 583.05 86.002 582.964C85.8379 582.873 85.6237 582.827 85.3594 582.827C85.1406 582.827 84.9515 582.866 84.792 582.943C84.6325 583.016 84.5094 583.117 84.4229 583.244C84.3408 583.367 84.2998 583.504 84.2998 583.654C84.2998 583.768 84.3226 583.871 84.3682 583.962C84.4183 584.049 84.498 584.128 84.6074 584.201C84.7168 584.274 84.8581 584.342 85.0312 584.406C85.209 584.465 85.4277 584.52 85.6875 584.57C86.2207 584.68 86.6969 584.823 87.1162 585.001C87.5355 585.174 87.8682 585.411 88.1143 585.712C88.3604 586.008 88.4834 586.398 88.4834 586.881C88.4834 587.209 88.4105 587.51 88.2646 587.783C88.1188 588.057 87.9092 588.296 87.6357 588.501C87.3623 588.701 87.0342 588.859 86.6514 588.973C86.2731 589.082 85.847 589.137 85.373 589.137C84.6849 589.137 84.1016 589.014 83.623 588.768C83.1491 588.521 82.7891 588.209 82.543 587.831C82.3014 587.448 82.1807 587.056 82.1807 586.655H84.0469C84.056 586.924 84.1243 587.141 84.252 587.305C84.3841 587.469 84.5505 587.587 84.751 587.66C84.9561 587.733 85.1771 587.77 85.4141 587.77C85.6693 587.77 85.8812 587.735 86.0498 587.667C86.2184 587.594 86.346 587.498 86.4326 587.38C86.5238 587.257 86.5693 587.116 86.5693 586.956ZM93.3848 581.604V582.998H89.0781V581.604H93.3848ZM90.1445 579.778H92.1133V586.771C92.1133 586.986 92.1406 587.15 92.1953 587.264C92.2546 587.378 92.3411 587.457 92.4551 587.503C92.569 587.544 92.7126 587.564 92.8857 587.564C93.0088 587.564 93.1182 587.56 93.2139 587.551C93.3141 587.537 93.3984 587.523 93.4668 587.51L93.4736 588.959C93.305 589.014 93.1227 589.057 92.9268 589.089C92.7308 589.121 92.5143 589.137 92.2773 589.137C91.8444 589.137 91.4661 589.066 91.1426 588.925C90.8236 588.779 90.5775 588.547 90.4043 588.228C90.2311 587.909 90.1445 587.489 90.1445 586.97V579.778ZM99.9609 583.217V589H97.9922V581.604H99.8447L99.9609 583.217ZM102.189 581.556L102.155 583.381C102.06 583.367 101.943 583.356 101.807 583.347C101.674 583.333 101.554 583.326 101.444 583.326C101.166 583.326 100.925 583.363 100.72 583.436C100.519 583.504 100.351 583.606 100.214 583.743C100.082 583.88 99.9814 584.046 99.9131 584.242C99.8493 584.438 99.8128 584.661 99.8037 584.912L99.4072 584.789C99.4072 584.311 99.4551 583.871 99.5508 583.47C99.6465 583.064 99.7855 582.711 99.9678 582.41C100.155 582.109 100.382 581.877 100.651 581.713C100.92 581.549 101.228 581.467 101.574 581.467C101.684 581.467 101.795 581.476 101.909 581.494C102.023 581.508 102.117 581.528 102.189 581.556ZM106.879 587.332V584.037C106.879 583.8 106.84 583.597 106.763 583.429C106.685 583.256 106.564 583.121 106.4 583.025C106.241 582.93 106.034 582.882 105.778 582.882C105.56 582.882 105.37 582.921 105.211 582.998C105.051 583.071 104.928 583.178 104.842 583.319C104.755 583.456 104.712 583.618 104.712 583.805H102.743C102.743 583.49 102.816 583.192 102.962 582.909C103.108 582.627 103.32 582.378 103.598 582.164C103.876 581.945 104.206 581.774 104.589 581.651C104.976 581.528 105.409 581.467 105.888 581.467C106.462 581.467 106.972 581.562 107.419 581.754C107.866 581.945 108.216 582.232 108.472 582.615C108.731 582.998 108.861 583.477 108.861 584.051V587.216C108.861 587.621 108.886 587.954 108.937 588.214C108.987 588.469 109.06 588.692 109.155 588.884V589H107.166C107.07 588.799 106.997 588.549 106.947 588.248C106.902 587.943 106.879 587.637 106.879 587.332ZM107.139 584.495L107.152 585.609H106.052C105.792 585.609 105.566 585.639 105.375 585.698C105.184 585.757 105.026 585.842 104.903 585.951C104.78 586.056 104.689 586.179 104.63 586.32C104.575 586.462 104.548 586.617 104.548 586.785C104.548 586.954 104.587 587.106 104.664 587.243C104.742 587.375 104.853 587.48 104.999 587.558C105.145 587.631 105.316 587.667 105.512 587.667C105.808 587.667 106.065 587.608 106.284 587.489C106.503 587.371 106.672 587.225 106.79 587.052C106.913 586.879 106.977 586.715 106.981 586.56L107.501 587.394C107.428 587.58 107.328 587.774 107.2 587.975C107.077 588.175 106.92 588.364 106.729 588.542C106.537 588.715 106.307 588.859 106.038 588.973C105.769 589.082 105.45 589.137 105.081 589.137C104.612 589.137 104.186 589.043 103.803 588.856C103.424 588.665 103.124 588.403 102.9 588.07C102.682 587.733 102.572 587.35 102.572 586.922C102.572 586.535 102.645 586.19 102.791 585.89C102.937 585.589 103.151 585.336 103.434 585.131C103.721 584.921 104.078 584.764 104.507 584.659C104.935 584.55 105.432 584.495 105.997 584.495H107.139ZM114.002 581.604V582.998H109.695V581.604H114.002ZM110.762 579.778H112.73V586.771C112.73 586.986 112.758 587.15 112.812 587.264C112.872 587.378 112.958 587.457 113.072 587.503C113.186 587.544 113.33 587.564 113.503 587.564C113.626 587.564 113.735 587.56 113.831 587.551C113.931 587.537 114.016 587.523 114.084 587.51L114.091 588.959C113.922 589.014 113.74 589.057 113.544 589.089C113.348 589.121 113.132 589.137 112.895 589.137C112.462 589.137 112.083 589.066 111.76 588.925C111.441 588.779 111.195 588.547 111.021 588.228C110.848 587.909 110.762 587.489 110.762 586.97V579.778ZM118.527 589.137C117.953 589.137 117.438 589.046 116.982 588.863C116.527 588.676 116.139 588.419 115.82 588.091C115.506 587.763 115.264 587.382 115.096 586.949C114.927 586.512 114.843 586.047 114.843 585.555V585.281C114.843 584.721 114.923 584.208 115.082 583.743C115.242 583.278 115.469 582.875 115.766 582.533C116.066 582.191 116.431 581.929 116.859 581.747C117.288 581.56 117.771 581.467 118.309 581.467C118.833 581.467 119.298 581.553 119.703 581.727C120.109 581.9 120.448 582.146 120.722 582.465C121 582.784 121.209 583.167 121.351 583.613C121.492 584.055 121.562 584.548 121.562 585.09V585.91H115.684V584.598H119.628V584.447C119.628 584.174 119.578 583.93 119.478 583.716C119.382 583.497 119.236 583.324 119.04 583.196C118.844 583.069 118.593 583.005 118.288 583.005C118.028 583.005 117.805 583.062 117.618 583.176C117.431 583.29 117.279 583.449 117.16 583.654C117.046 583.859 116.96 584.101 116.9 584.379C116.846 584.652 116.818 584.953 116.818 585.281V585.555C116.818 585.851 116.859 586.124 116.941 586.375C117.028 586.626 117.149 586.842 117.304 587.024C117.463 587.207 117.655 587.348 117.878 587.448C118.106 587.549 118.363 587.599 118.65 587.599C119.006 587.599 119.336 587.53 119.642 587.394C119.951 587.252 120.218 587.04 120.441 586.758L121.398 587.797C121.243 588.02 121.032 588.234 120.763 588.439C120.498 588.645 120.179 588.813 119.806 588.945C119.432 589.073 119.006 589.137 118.527 589.137Z" fill="black"/>
<path d="M44.4867 383.429H261.599V160.337H40.7434V379.71C40.7434 381.755 42.4204 383.429 44.4867 383.429Z" fill="white"/>
<path d="M175.502 387.147H44.4866C40.3615 387.147 37 383.808 37 379.71V156.618H182.989C185.055 156.618 186.732 158.284 186.732 160.337C186.732 162.389 185.055 164.055 182.989 164.055H44.4866V379.71H175.502C177.569 379.71 179.246 381.376 179.246 383.429C179.246 385.481 177.569 387.147 175.502 387.147Z" fill="#0277BC"/>
<path d="M40.7434 160.337H246.625L265.342 152.9V123.155L246.625 115.718H48.23C44.0974 115.718 40.7434 119.042 40.7434 123.155V160.337Z" fill="#B3E4FB"/>
<path d="M182.989 164.055H40.7433C38.677 164.055 37 162.389 37 160.337V123.155C37 117.005 42.0385 112 48.2299 112H216.679C218.745 112 220.422 113.666 220.422 115.718C220.422 117.771 218.745 119.436 216.679 119.436H48.2299C46.1636 119.436 44.4866 121.11 44.4866 123.155V156.618H182.989C185.055 156.618 186.732 158.284 186.732 160.337C186.732 162.389 185.055 164.055 182.989 164.055Z" fill="#0277BC"/>
<path d="M55.7167 372.274H261.599V171.491H55.7167C53.6504 171.491 51.9734 173.164 51.9734 175.209V368.556C51.9734 370.601 53.6504 372.274 55.7167 372.274Z" fill="#F9F9F9"/>
<path d="M169.664 138.027C169.664 142.14 166.31 145.464 162.178 145.464C158.045 145.464 154.691 142.14 154.691 138.027C154.691 133.915 158.045 130.591 162.178 130.591C166.31 130.591 169.664 133.915 169.664 138.027Z" fill="white"/>
<path d="M162.177 149.182C155.986 149.182 150.948 144.177 150.948 138.027C150.948 131.878 155.986 126.873 162.177 126.873C168.369 126.873 173.407 131.878 173.407 138.027C173.407 144.177 168.369 149.182 162.177 149.182ZM162.177 134.309C160.111 134.309 158.434 135.982 158.434 138.027C158.434 140.072 160.111 141.746 162.177 141.746C164.244 141.746 165.921 140.072 165.921 138.027C165.921 135.982 164.244 134.309 162.177 134.309Z" fill="#0277BC"/>
<path d="M139.253 138.027C139.253 142.14 135.899 145.464 131.767 145.464C127.634 145.464 124.28 142.14 124.28 138.027C124.28 133.915 127.634 130.591 131.767 130.591C135.899 130.591 139.253 133.915 139.253 138.027Z" fill="white"/>
<path d="M131.767 149.182C125.576 149.182 120.537 144.177 120.537 138.027C120.537 131.878 125.576 126.873 131.767 126.873C137.958 126.873 142.997 131.878 142.997 138.027C142.997 144.177 137.958 149.182 131.767 149.182ZM131.767 134.309C129.701 134.309 128.024 135.982 128.024 138.027C128.024 140.072 129.701 141.746 131.767 141.746C133.833 141.746 135.51 140.072 135.51 138.027C135.51 135.982 133.833 134.309 131.767 134.309Z" fill="#0277BC"/>
<path d="M109.237 138.027C109.237 142.14 105.883 145.464 101.75 145.464C97.6177 145.464 94.2637 142.14 94.2637 138.027C94.2637 133.915 97.6177 130.591 101.75 130.591C105.883 130.591 109.237 133.915 109.237 138.027Z" fill="white"/>
<path d="M101.751 149.182C95.5592 149.182 90.5208 144.177 90.5208 138.027C90.5208 131.878 95.5592 126.873 101.751 126.873C107.942 126.873 112.981 131.878 112.981 138.027C112.981 144.177 107.942 149.182 101.751 149.182ZM101.751 134.309C99.6844 134.309 98.0074 135.982 98.0074 138.027C98.0074 140.072 99.6844 141.746 101.751 141.746C103.817 141.746 105.494 140.072 105.494 138.027C105.494 135.982 103.817 134.309 101.751 134.309Z" fill="#0277BC"/>
<path d="M261.599 357.401H63.2035C61.1372 357.401 59.4602 355.728 59.4602 353.683V286.755C59.4602 284.71 61.1372 283.037 63.2035 283.037H261.599V357.401Z" fill="#EDEDED"/>
<path d="M261.599 260.728H63.2035C61.1372 260.728 59.4602 259.055 59.4602 257.01V190.082C59.4602 188.037 61.1372 186.364 63.2035 186.364H261.599V260.728Z" fill="#EDEDED"/>
<path d="M246.625 164.144C232.176 164.144 220.422 152.469 220.422 138.117C220.422 123.764 232.176 112.089 246.625 112.089C261.074 112.089 272.828 123.764 272.828 138.117C272.828 152.469 261.074 164.144 246.625 164.144ZM246.625 119.526C236.308 119.526 227.908 127.862 227.908 138.117C227.908 148.371 236.308 156.708 246.625 156.708C256.942 156.708 265.342 148.371 265.342 138.117C265.342 127.862 256.942 119.526 246.625 119.526Z" fill="#0277BC"/>
<path d="M329.543 185.569L317.748 199.725L329.543 185.569Z" fill="#FF80AB"/>
<path d="M317.748 203.436C316.902 203.436 316.041 203.154 315.337 202.574C313.757 201.25 313.555 198.907 314.888 197.331L326.683 183.175C328.008 181.606 330.374 181.405 331.954 182.721C333.541 184.038 333.743 186.388 332.418 187.957L320.615 202.105C319.882 202.99 318.818 203.436 317.748 203.436Z" fill="#0277BC"/>
<path d="M334.882 198.375L315.941 182.587C314.353 181.264 314.151 178.921 315.476 177.345L318.943 173.24C320.275 171.663 322.634 171.463 324.221 172.786L343.154 188.566C344.742 189.882 344.951 192.232 343.619 193.801L340.152 197.914C338.82 199.475 336.461 199.691 334.882 198.375Z" fill="#FF80AB"/>
<path d="M337.284 202.956C335.532 202.956 333.825 202.339 332.478 201.216L313.544 185.428C312.009 184.157 311.066 182.364 310.894 180.394C310.714 178.408 311.328 176.482 312.616 174.958L316.075 170.845C318.643 167.811 323.576 167.395 326.631 169.923L345.565 185.711C348.724 188.351 349.143 193.043 346.493 196.189L343.019 200.301C341.597 201.989 339.508 202.956 337.284 202.956ZM321.817 175.627L318.351 179.739L337.284 195.512L340.758 191.407L321.817 175.627Z" fill="#0277BC"/>
<path d="M254.111 192.475H239.138V159.011C239.138 156.966 240.815 155.293 242.881 155.293H250.368C252.434 155.293 254.111 156.966 254.111 159.011V192.475Z" fill="#63FFDA"/>
<path d="M254.111 196.193H239.138C237.064 196.193 235.395 194.527 235.395 192.475V159.011C235.395 154.914 238.749 151.575 242.881 151.575H250.368C254.493 151.575 257.854 154.914 257.854 159.011V192.475C257.854 194.527 256.177 196.193 254.111 196.193ZM242.881 188.757H250.368V159.011H242.881V188.757Z" fill="#0277BC"/>
<path d="M362.667 285.43C362.667 349.093 310.718 400.694 246.625 400.694C182.532 400.694 130.582 349.093 130.582 285.43C130.582 221.767 182.532 170.166 246.625 170.166C310.718 170.166 362.667 221.767 362.667 285.43Z" fill="#8B9EFF"/>
<path d="M246.625 404.413C180.578 404.413 126.839 351.034 126.839 285.43C126.839 219.826 180.578 166.448 246.625 166.448C312.672 166.448 366.411 219.826 366.411 285.43C366.411 351.034 312.672 404.413 246.625 404.413ZM246.625 173.884C184.703 173.884 134.325 223.924 134.325 285.43C134.325 346.937 184.703 396.976 246.625 396.976C308.547 396.976 358.924 346.937 358.924 285.43C358.924 223.924 308.547 173.884 246.625 173.884Z" fill="#0277BC"/>
<path d="M246.625 397.065C184.703 397.065 134.326 347.026 134.326 285.519C134.326 224.013 184.703 173.973 246.625 173.973C308.547 173.973 358.924 224.013 358.924 285.519C358.924 347.026 308.547 397.065 246.625 397.065ZM246.625 181.41C188.828 181.41 141.812 228.11 141.812 285.519C141.812 342.928 188.828 389.629 246.625 389.629C304.422 389.629 351.438 342.928 351.438 285.519C351.438 228.11 304.422 181.41 246.625 181.41Z" fill="#E8EAF6"/>
<path d="M296.777 215.963C335.445 243.459 344.349 296.871 316.667 335.28C288.986 373.688 235.213 382.533 196.545 355.037C157.877 327.541 148.973 274.128 176.654 235.72C204.336 197.311 258.109 188.467 296.777 215.963Z" fill="#F5F5F5"/>
<path d="M296.775 215.952C304.263 221.277 310.643 227.588 315.846 234.562C226.347 317.926 226.297 257.301 176.648 235.715C204.33 197.307 258.107 188.457 296.775 215.952Z" fill="#FF80AB"/>
<path d="M319.705 337.44C290.868 377.451 234.641 386.699 194.359 358.056C158.954 332.88 146.794 286.298 165.442 247.291C166.334 245.465 168.558 244.641 170.439 245.531C172.303 246.408 173.097 248.628 172.21 250.484C155.111 286.23 166.265 328.933 198.717 352.009C235.638 378.263 287.187 369.784 313.617 333.111C334.518 304.111 334.208 265.397 312.828 236.769C311.604 235.121 311.968 232.801 313.614 231.566C315.273 230.35 317.615 230.689 318.846 232.342C342.156 263.568 342.501 305.81 319.705 337.44Z" fill="#0277BC"/>
<path d="M308.604 225.269C308.512 225.396 308.404 225.52 308.296 225.645C306.883 227.146 304.514 227.226 303.009 225.827C300.363 223.378 297.538 221.077 294.592 218.982C257.671 192.728 206.127 201.201 179.692 237.88C178.489 239.549 176.155 239.938 174.469 238.739C172.789 237.544 172.401 235.22 173.604 233.551C202.441 193.54 258.669 184.292 298.95 212.935C302.158 215.216 305.238 217.727 308.107 220.389C309.497 221.679 309.685 223.769 308.604 225.269Z" fill="#0277BC"/>
<path d="M313.624 333.115C287.193 369.789 235.645 378.267 198.724 352.013C166.679 329.227 155.344 286.917 171.78 251.413C172.643 249.512 174.863 248.732 176.75 249.588C178.627 250.447 179.45 252.652 178.586 254.515C163.646 286.793 173.953 325.254 203.082 345.967C236.648 369.835 283.507 362.128 307.536 328.787C326.332 302.707 326.226 267.76 307.274 241.819C306.069 240.157 306.41 237.857 308.111 236.634C309.778 235.432 312.119 235.798 313.329 237.454C334.18 265.999 334.298 304.43 313.624 333.115Z" fill="white"/>
<path d="M301.281 228.723C301.211 228.819 301.142 228.916 301.06 229.004C299.709 230.559 297.343 230.724 295.772 229.378C294.022 227.859 292.165 226.411 290.236 225.039C261.107 204.326 221.137 207.036 195.183 231.473C193.692 232.891 191.315 232.829 189.896 231.335C188.473 229.848 188.527 227.499 190.039 226.078C218.579 199.19 262.549 196.206 294.594 218.992C296.712 220.499 298.749 222.093 300.689 223.757C302.157 225.029 302.392 227.181 301.281 228.723Z" fill="#FBE3EB"/>
<path d="M318.89 236.726C318.668 237.035 318.392 237.314 318.067 237.549L248.814 288.439C247.155 289.656 244.811 289.306 243.58 287.653C242.355 286.005 242.697 283.679 244.361 282.456L313.613 231.566C315.283 230.348 317.627 230.698 318.852 232.346C319.842 233.681 319.809 235.45 318.89 236.726Z" fill="#0277BC"/>
<path d="M243.544 283.283C242.341 284.952 240.001 285.337 238.321 284.142L174.402 238.691C172.722 237.496 172.335 235.172 173.537 233.503C174.74 231.835 177.08 231.45 178.76 232.644L242.679 278.096C244.359 279.29 244.747 281.615 243.544 283.283Z" fill="#0277BC"/>
<path d="M253.198 276.43C258.238 280.014 259.405 286.98 255.792 291.993C252.179 297.006 245.164 298.154 240.124 294.57C235.083 290.986 233.917 284.019 237.53 279.007C241.142 273.994 248.157 272.846 253.198 276.43Z" fill="#63FFDA"/>
<path d="M258.835 294.157C254.029 300.827 244.665 302.372 237.945 297.593C231.224 292.814 229.679 283.512 234.485 276.842C239.292 270.173 248.656 268.627 255.376 273.406C262.097 278.185 263.642 287.488 258.835 294.157ZM240.573 281.171C238.172 284.503 238.948 289.161 242.303 291.546C245.657 293.932 250.347 293.16 252.748 289.828C255.149 286.497 254.373 281.838 251.018 279.453C247.664 277.068 242.974 277.839 240.573 281.171Z" fill="#0277BC"/>
<path d="M247.53 290.681C246.327 292.35 243.987 292.735 242.307 291.54C238.953 289.155 238.172 284.503 240.578 281.165C241.733 279.563 243.828 279.324 245.501 280.376C247.173 281.429 247.623 283.769 246.665 285.494C248.339 286.684 248.733 289.012 247.53 290.681Z" fill="white"/>
<path d="M283.269 240.001C282.324 240.001 281.36 239.716 280.545 239.118C278.47 237.627 278.016 234.756 279.516 232.704L284.964 225.25C286.465 223.197 289.356 222.746 291.431 224.237C293.497 225.728 293.969 228.609 292.469 230.661L287.021 238.115C286.113 239.357 284.705 240.001 283.269 240.001Z" fill="#0277BC"/>
<path d="M204.033 348.377C203.079 348.377 202.106 348.089 201.282 347.485C199.186 345.979 198.727 343.079 200.243 340.997L205.746 333.468C207.262 331.395 210.182 330.939 212.278 332.454C214.365 333.96 214.842 336.87 213.326 338.933L207.824 346.463C206.906 347.718 205.484 348.377 204.033 348.377Z" fill="#0277BC"/>
<path d="M306.078 271.135C304.128 271.135 302.308 269.905 301.67 267.96C300.885 265.564 302.216 262.967 304.646 262.187L313.442 259.351C315.863 258.561 318.46 259.883 319.254 262.297C320.04 264.701 318.718 267.299 316.288 268.079L307.492 270.924C307.02 271.062 306.549 271.135 306.078 271.135Z" fill="#0277BC"/>
<path d="M178.172 312.125C176.337 312.125 174.624 310.968 174.024 309.145C173.285 306.891 174.537 304.429 176.824 303.694L185.104 301.034C187.391 300.308 189.826 301.526 190.574 303.807C191.313 306.07 190.069 308.506 187.782 309.24L179.503 311.927C179.059 312.065 178.616 312.125 178.172 312.125Z" fill="#0277BC"/>
<path d="M186.082 270.249C185.677 270.249 185.264 270.186 184.86 270.068L177.302 267.631C175.214 266.961 174.079 264.721 174.754 262.656C175.437 260.582 177.659 259.454 179.747 260.124L187.305 262.569C189.392 263.239 190.536 265.471 189.861 267.529C189.313 269.2 187.757 270.249 186.082 270.249Z" fill="#0277BC"/>
<path d="M314.017 310.612C313.636 310.612 313.247 310.552 312.866 310.441L305.749 308.146C303.783 307.515 302.714 305.406 303.35 303.461C303.993 301.508 306.086 300.446 308.052 301.077L315.168 303.379C317.134 304.01 318.211 306.112 317.576 308.05C317.06 309.624 315.595 310.612 314.017 310.612Z" fill="#0277BC"/>
<path d="M288.078 346.242C286.982 346.242 285.901 345.744 285.208 344.796L281.053 339.104C279.908 337.545 280.269 335.355 281.845 334.218C283.421 333.081 285.632 333.411 286.777 334.976L290.933 340.669C292.077 342.241 291.731 344.431 290.148 345.569C289.526 346.025 288.798 346.242 288.078 346.242Z" fill="#0277BC"/>
<path d="M208.863 237.933C207.771 237.933 206.693 237.443 206.003 236.498L201.861 230.831C200.72 229.27 201.079 227.08 202.65 225.947C204.221 224.813 206.426 225.156 207.567 226.716L211.709 232.384C212.85 233.944 212.505 236.127 210.927 237.261C210.307 237.716 209.581 237.933 208.863 237.933Z" fill="#0277BC"/>
<path d="M246.389 359.774C244.42 359.774 242.821 358.187 242.821 356.231V349.143C242.821 347.187 244.42 345.599 246.389 345.599C248.358 345.599 249.957 347.187 249.957 349.143V356.231C249.957 358.187 248.358 359.774 246.389 359.774Z" fill="#0277BC"/>
<path d="M246.389 226.889C244.392 226.889 242.771 225.279 242.771 223.295V216.108C242.771 214.124 244.392 212.515 246.389 212.515C248.386 212.515 250.007 214.124 250.007 216.108V223.295C250.007 225.279 248.386 226.889 246.389 226.889Z" fill="#0277BC"/>
<defs>
<filter id="filter0_d_29_1297" x="12" y="24" width="32.2188" height="32.2188" filterUnits="userSpaceOnUse" color-interpolation-filters="sRGB">
<feFlood flood-opacity="0" result="BackgroundImageFix"/>
<feColorMatrix in="SourceAlpha" type="matrix" values="0 0 0 0 0 0 0 0 0 0 0 0 0 0 0 0 0 0 127 0" result="hardAlpha"/>
<feOffset dy="4"/>
<feGaussianBlur stdDeviation="2"/>
<feComposite in2="hardAlpha" operator="out"/>
<feColorMatrix type="matrix" values="0 0 0 0 0 0 0 0 0 0 0 0 0 0 0 0 0 0 0.25 0"/>
<feBlend mode="normal" in2="BackgroundImageFix" result="effect1_dropShadow_29_1297"/>
<feBlend mode="normal" in="SourceGraphic" in2="effect1_dropShadow_29_1297" result="shape"/>
</filter>
<linearGradient id="paint0_linear_29_1297" x1="28.1094" y1="24" x2="28.1094" y2="48.2188" gradientUnits="userSpaceOnUse">
<stop stop-color="#00FFD1"/>
<stop offset="1" stop-color="#38A6BE" stop-opacity="0.84"/>
</linearGradient>
</defs>
</svg>
