<svg width="414" height="896" viewBox="0 0 414 896" fill="none" xmlns="http://www.w3.org/2000/svg">
<rect width="414" height="896" rx="20" fill="#EEF9FA"/>
<path d="M278.35 448.133C278.35 408.726 246.404 376.782 206.999 376.782C167.594 376.782 135.648 408.726 135.648 448.133C135.648 487.54 167.594 519.484 206.999 519.484C246.404 519.484 278.35 487.54 278.35 448.133Z" fill="#DEE6F7"/>
<path d="M231.715 452.124C227.341 447.812 221.068 444.181 212.938 441.224V414.112C214.266 414.749 215.45 415.585 216.42 416.706C218.299 418.883 219.387 421.912 219.69 425.795C219.791 427.102 220.893 428.111 222.202 428.111H238.002L238.134 427.714C238.311 418.756 235.54 411.613 229.818 406.293C225.33 402.115 219.69 399.608 212.748 398.709V390.892C212.748 389.996 212.024 389.268 211.128 389.268H202.783C201.874 389.268 201.142 390.017 201.159 390.924L201.317 398.722C195.029 399.601 189.666 401.947 185.253 405.794C179.533 410.781 176.673 417.246 176.673 425.182C176.673 433.165 179.179 439.373 184.19 443.808C188.262 447.413 193.992 450.707 201.317 453.696V482.366C199.712 481.705 198.314 480.809 197.193 479.597C195.064 477.292 193.854 473.711 193.567 468.849C193.489 467.525 192.377 466.488 191.05 466.488H175.211L175.077 466.892C174.855 477.355 178.006 485.15 184.525 490.269C189.383 494.086 194.982 496.477 201.317 497.447V505.372C201.317 506.268 202.043 506.996 202.937 506.996H211.16C212.043 506.996 212.763 506.288 212.78 505.407L212.938 497.689C220.014 496.985 225.878 494.721 230.488 490.837C236.119 486.094 238.931 479.573 238.931 471.283C238.931 463.254 236.527 456.871 231.715 452.124ZM198.824 433.366C196.563 431.234 195.433 428.532 195.433 425.249C195.433 421.702 196.429 418.745 198.425 416.371C199.241 415.399 200.23 414.676 201.317 414.101V435.341C200.347 434.664 199.505 434.003 198.824 433.366ZM217.15 480.258C216.052 481.465 214.629 482.314 212.938 482.865V458.865C214.774 459.986 216.204 461.118 217.214 462.267C219.187 464.507 220.174 467.557 220.174 471.415C220.174 475.095 219.167 478.044 217.15 480.258Z" fill="#256BF4"/>
<path d="M244.723 358.178L245.127 358.348C248.335 359.643 251.991 358.096 253.286 354.891C254.585 351.681 253.039 348.032 249.832 346.732L249.621 346.643C249.098 346.42 248.558 346.271 248.022 346.198C245.285 345.823 242.53 347.3 241.402 349.961C240.049 353.149 241.534 356.827 244.723 358.178Z" fill="#DEE6F7"/>
<path d="M266.849 371.121C269.564 373.268 273.513 372.796 275.657 370.073C277.8 367.357 277.331 363.416 274.613 361.273L274.289 361.023C273.407 360.344 272.417 359.948 271.404 359.809C269.264 359.515 267.031 360.384 265.598 362.248C263.489 364.992 264.105 369.01 266.849 371.121Z" fill="#DEE6F7"/>
<path d="M284.784 389.102C286.822 391.791 290.654 392.316 293.339 390.275C296.028 388.237 296.553 384.407 294.512 381.722L294.317 381.46C293.298 380.119 291.831 379.315 290.282 379.102C288.734 378.89 287.102 379.269 285.757 380.286C283.073 382.326 282.547 386.157 284.583 388.845L284.784 389.102Z" fill="#DEE6F7"/>
<path d="M297.689 411.108C298.929 414.03 302.299 415.389 305.223 414.147C308.142 412.907 309.501 409.539 308.258 406.621L308.186 406.434C307.388 404.454 305.611 403.164 303.638 402.893C302.678 402.761 301.675 402.869 300.714 403.255C297.772 404.439 296.344 407.785 297.53 410.726L297.689 411.108Z" fill="#DEE6F7"/>
<path d="M304.679 435.334L304.716 435.605C305.077 438.404 307.637 440.373 310.437 440.018C313.237 439.655 315.215 437.093 314.852 434.293L314.815 434.022C314.512 431.684 312.676 429.921 310.446 429.615C310.008 429.555 309.551 429.553 309.094 429.609C306.293 429.972 304.314 432.534 304.679 435.334Z" fill="#DEE6F7"/>
<path d="M303.377 460.912C296.682 509.716 254.568 545.1 206.558 544.724L214.935 538.368C217.7 536.272 218.241 532.327 216.143 529.562C215.092 528.177 213.581 527.351 211.99 527.133C210.396 526.914 208.72 527.302 207.334 528.354L187.334 543.528C184.566 545.626 184.025 549.572 186.126 552.337L201.301 572.337C203.396 575.105 207.346 575.647 210.109 573.546C212.875 571.448 213.416 567.502 211.318 564.737L205.665 557.29C260.229 558.114 308.233 518.024 315.833 462.621L315.856 462.454C316.328 459.017 313.91 455.926 310.471 455.454C307.032 454.982 303.849 457.471 303.377 460.912Z" fill="#DEE6F7"/>
<path d="M109.808 460.24L109.773 459.97C109.47 457.632 107.631 455.871 105.402 455.565C104.964 455.505 104.51 455.499 104.049 455.559C101.251 455.923 99.273 458.484 99.638 461.284L99.6732 461.552C100.035 464.349 102.597 466.322 105.395 465.964C108.192 465.603 110.169 463.041 109.808 460.24Z" fill="#256BF4"/>
<path d="M116.801 484.417C115.984 482.485 114.231 481.235 112.294 480.969C111.301 480.833 110.261 480.954 109.274 481.377C106.351 482.615 104.992 485.987 106.234 488.906L106.306 489.084C107.492 492.028 110.835 493.454 113.775 492.268C116.72 491.082 118.144 487.738 116.963 484.795L116.801 484.417Z" fill="#256BF4"/>
<path d="M129.716 506.363C128.697 505.02 127.232 504.219 125.681 504.006C124.135 503.794 122.502 504.17 121.163 505.19C118.472 507.228 117.946 511.061 119.989 513.748L120.18 514.005C122.216 516.694 126.053 517.22 128.74 515.179C131.427 513.141 131.952 509.308 129.914 506.624L129.716 506.363Z" fill="#256BF4"/>
<path d="M147.648 524.333C146.739 523.616 145.694 523.193 144.626 523.047C142.493 522.754 140.272 523.566 138.847 525.38C136.702 528.096 137.171 532.035 139.891 534.179L140.21 534.429C142.955 536.532 146.787 535.946 148.902 533.2C151.009 530.456 150.391 526.443 147.648 524.333Z" fill="#256BF4"/>
<path d="M169.777 537.274L169.373 537.107C168.875 536.906 168.376 536.775 167.872 536.706C165.095 536.325 162.311 537.85 161.211 540.564C159.913 543.771 161.463 547.425 164.668 548.723L164.879 548.81C168.063 550.16 171.743 548.675 173.099 545.489C174.449 542.305 172.963 538.63 169.777 537.274Z" fill="#256BF4"/>
<path d="M104.031 439.995C107.47 440.467 110.653 437.978 111.125 434.539C117.82 385.73 159.936 350.351 207.941 350.724L199.569 357.081C196.802 359.176 196.261 363.121 198.361 365.887C200.459 368.655 204.404 369.196 207.168 367.095L227.17 351.918C229.938 349.823 230.479 345.877 228.378 343.114L213.201 323.111C212.154 321.729 210.642 320.901 209.046 320.682C207.452 320.463 205.773 320.853 204.395 321.903C201.627 324.001 201.086 327.946 203.187 330.71L208.839 338.162C154.275 337.334 106.269 377.422 98.6684 432.83L98.6461 432.992C98.1743 436.432 100.589 439.523 104.031 439.995Z" fill="#256BF4"/>
<path d="M278.35 448.133C278.35 408.726 246.404 376.782 206.999 376.782C167.594 376.782 135.648 408.726 135.648 448.133C135.648 487.54 167.594 519.484 206.999 519.484C246.404 519.484 278.35 487.54 278.35 448.133Z" fill="#DEE6F7"/>
<path d="M231.715 452.124C227.341 447.812 221.068 444.181 212.938 441.224V414.112C214.266 414.749 215.45 415.585 216.42 416.706C218.299 418.883 219.387 421.912 219.69 425.795C219.791 427.102 220.893 428.111 222.202 428.111H238.002L238.134 427.714C238.311 418.756 235.54 411.613 229.818 406.293C225.33 402.115 219.69 399.608 212.748 398.709V390.892C212.748 389.996 212.024 389.268 211.128 389.268H202.783C201.874 389.268 201.142 390.017 201.159 390.924L201.317 398.722C195.029 399.601 189.666 401.947 185.253 405.794C179.533 410.781 176.673 417.246 176.673 425.182C176.673 433.165 179.179 439.373 184.19 443.808C188.262 447.413 193.992 450.707 201.317 453.696V482.366C199.712 481.705 198.314 480.809 197.193 479.597C195.064 477.292 193.854 473.711 193.567 468.849C193.489 467.525 192.377 466.488 191.05 466.488H175.211L175.077 466.892C174.855 477.355 178.006 485.15 184.525 490.269C189.383 494.086 194.982 496.477 201.317 497.447V505.372C201.317 506.268 202.043 506.996 202.937 506.996H211.16C212.043 506.996 212.763 506.288 212.78 505.407L212.938 497.689C220.014 496.985 225.878 494.721 230.488 490.837C236.119 486.094 238.931 479.573 238.931 471.283C238.931 463.254 236.527 456.871 231.715 452.124ZM198.824 433.366C196.563 431.234 195.433 428.532 195.433 425.249C195.433 421.702 196.429 418.745 198.425 416.371C199.241 415.399 200.23 414.676 201.317 414.101V435.341C200.347 434.664 199.505 434.003 198.824 433.366ZM217.15 480.258C216.052 481.465 214.629 482.314 212.938 482.865V458.865C214.774 459.986 216.204 461.118 217.214 462.267C219.187 464.507 220.174 467.557 220.174 471.415C220.174 475.095 219.167 478.044 217.15 480.258Z" fill="#256BF4"/>
<path d="M244.723 358.178L245.127 358.348C248.335 359.643 251.991 358.096 253.286 354.891C254.585 351.681 253.039 348.032 249.832 346.732L249.621 346.643C249.098 346.42 248.558 346.271 248.022 346.198C245.285 345.823 242.53 347.3 241.402 349.961C240.049 353.149 241.534 356.827 244.723 358.178Z" fill="#DEE6F7"/>
<path d="M266.849 371.121C269.564 373.268 273.513 372.796 275.657 370.073C277.8 367.357 277.331 363.416 274.613 361.273L274.289 361.023C273.407 360.344 272.417 359.948 271.404 359.809C269.264 359.515 267.031 360.384 265.598 362.248C263.489 364.992 264.105 369.01 266.849 371.121Z" fill="#DEE6F7"/>
<path d="M284.784 389.102C286.822 391.791 290.654 392.316 293.339 390.275C296.028 388.237 296.553 384.407 294.512 381.722L294.317 381.46C293.298 380.119 291.831 379.315 290.282 379.102C288.734 378.89 287.102 379.269 285.757 380.286C283.073 382.326 282.547 386.157 284.583 388.845L284.784 389.102Z" fill="#DEE6F7"/>
<path d="M297.689 411.108C298.929 414.03 302.299 415.389 305.223 414.147C308.142 412.907 309.501 409.539 308.258 406.621L308.186 406.434C307.388 404.454 305.611 403.164 303.638 402.893C302.678 402.761 301.675 402.869 300.714 403.255C297.772 404.439 296.344 407.785 297.53 410.726L297.689 411.108Z" fill="#DEE6F7"/>
<path d="M304.679 435.334L304.716 435.605C305.077 438.404 307.637 440.373 310.437 440.018C313.237 439.655 315.215 437.093 314.852 434.293L314.815 434.022C314.512 431.684 312.676 429.921 310.446 429.615C310.008 429.555 309.551 429.553 309.094 429.609C306.293 429.972 304.314 432.534 304.679 435.334Z" fill="#DEE6F7"/>
<path d="M303.377 460.912C296.682 509.716 254.568 545.1 206.558 544.724L214.935 538.368C217.7 536.272 218.241 532.327 216.143 529.562C215.092 528.177 213.581 527.351 211.99 527.133C210.396 526.914 208.72 527.302 207.334 528.354L187.334 543.528C184.566 545.626 184.025 549.572 186.126 552.337L201.301 572.337C203.396 575.105 207.346 575.647 210.109 573.546C212.875 571.448 213.416 567.502 211.318 564.737L205.665 557.29C260.229 558.114 308.233 518.024 315.833 462.621L315.856 462.454C316.328 459.017 313.91 455.926 310.471 455.454C307.032 454.982 303.849 457.471 303.377 460.912Z" fill="#DEE6F7"/>
<path d="M109.808 460.24L109.773 459.97C109.47 457.632 107.631 455.871 105.402 455.565C104.964 455.505 104.51 455.499 104.049 455.559C101.251 455.923 99.273 458.484 99.638 461.284L99.6732 461.552C100.035 464.349 102.597 466.322 105.395 465.964C108.192 465.603 110.169 463.041 109.808 460.24Z" fill="#256BF4"/>
<path d="M116.801 484.417C115.984 482.485 114.231 481.235 112.294 480.969C111.301 480.833 110.261 480.954 109.274 481.377C106.351 482.615 104.992 485.987 106.234 488.906L106.306 489.084C107.492 492.028 110.835 493.454 113.775 492.268C116.72 491.082 118.144 487.738 116.963 484.795L116.801 484.417Z" fill="#256BF4"/>
<path d="M129.716 506.363C128.697 505.02 127.232 504.219 125.681 504.006C124.135 503.794 122.502 504.17 121.163 505.19C118.472 507.228 117.946 511.061 119.989 513.748L120.18 514.005C122.216 516.694 126.053 517.22 128.74 515.179C131.427 513.141 131.952 509.308 129.914 506.624L129.716 506.363Z" fill="#256BF4"/>
<path d="M147.648 524.333C146.739 523.616 145.694 523.193 144.626 523.047C142.493 522.754 140.272 523.566 138.847 525.38C136.702 528.096 137.171 532.035 139.891 534.179L140.21 534.429C142.955 536.532 146.787 535.946 148.902 533.2C151.009 530.456 150.391 526.443 147.648 524.333Z" fill="#256BF4"/>
<path d="M169.777 537.274L169.373 537.107C168.875 536.906 168.376 536.775 167.872 536.706C165.095 536.325 162.311 537.85 161.211 540.564C159.913 543.771 161.463 547.425 164.668 548.723L164.879 548.81C168.063 550.16 171.743 548.675 173.099 545.489C174.449 542.305 172.963 538.63 169.777 537.274Z" fill="#256BF4"/>
<path d="M104.031 439.995C107.47 440.467 110.653 437.978 111.125 434.539C117.82 385.73 159.936 350.351 207.941 350.724L199.569 357.081C196.802 359.176 196.261 363.121 198.361 365.887C200.459 368.655 204.404 369.196 207.168 367.095L227.17 351.918C229.938 349.823 230.479 345.877 228.378 343.114L213.201 323.111C212.154 321.729 210.642 320.901 209.046 320.682C207.452 320.463 205.773 320.853 204.395 321.903C201.627 324.001 201.086 327.946 203.187 330.71L208.839 338.162C154.275 337.334 106.269 377.422 98.6684 432.83L98.6461 432.992C98.1743 436.432 100.589 439.523 104.031 439.995Z" fill="#256BF4"/>
<path d="M290.051 31.2129L286.184 43H283.068L288.352 28.7812H290.334L290.051 31.2129ZM293.264 43L289.387 31.2129L289.074 28.7812H291.076L296.389 43H293.264ZM293.088 37.707V40.002H285.578V37.707H293.088ZM300.5 28V43H297.678V28H300.5ZM305.637 34.4648V47.0625H302.824V32.4336H305.432L305.637 34.4648ZM312.326 37.5996V37.8047C312.326 38.5729 312.235 39.2858 312.053 39.9434C311.877 40.6009 311.617 41.1738 311.271 41.6621C310.926 42.1439 310.497 42.5215 309.982 42.7949C309.475 43.0618 308.889 43.1953 308.225 43.1953C307.58 43.1953 307.02 43.0651 306.545 42.8047C306.07 42.5443 305.669 42.1797 305.344 41.7109C305.025 41.2357 304.768 40.6855 304.572 40.0605C304.377 39.4355 304.227 38.765 304.123 38.0488V37.5117C304.227 36.7435 304.377 36.0404 304.572 35.4023C304.768 34.7578 305.025 34.2012 305.344 33.7324C305.669 33.2572 306.066 32.8893 306.535 32.6289C307.01 32.3685 307.567 32.2383 308.205 32.2383C308.876 32.2383 309.465 32.3652 309.973 32.6191C310.487 32.873 310.917 33.2376 311.262 33.7129C311.613 34.1882 311.877 34.7546 312.053 35.4121C312.235 36.0697 312.326 36.7988 312.326 37.5996ZM309.504 37.8047V37.5996C309.504 37.1504 309.465 36.737 309.387 36.3594C309.315 35.9753 309.198 35.64 309.035 35.3535C308.879 35.0671 308.671 34.8457 308.41 34.6895C308.156 34.5267 307.847 34.4453 307.482 34.4453C307.098 34.4453 306.77 34.5072 306.496 34.6309C306.229 34.7546 306.011 34.9336 305.842 35.168C305.673 35.4023 305.546 35.6823 305.461 36.0078C305.376 36.3333 305.324 36.7012 305.305 37.1113V38.4688C305.337 38.9505 305.428 39.3835 305.578 39.7676C305.728 40.1452 305.959 40.4447 306.271 40.666C306.584 40.8874 306.994 40.998 307.502 40.998C307.873 40.998 308.186 40.9167 308.439 40.7539C308.693 40.5846 308.898 40.3535 309.055 40.0605C309.217 39.7676 309.331 39.429 309.396 39.0449C309.468 38.6608 309.504 38.2474 309.504 37.8047ZM316.818 28V43H314.006V28H316.818ZM316.418 37.3457H315.646C315.653 36.61 315.751 35.9329 315.939 35.3145C316.128 34.6895 316.398 34.1491 316.75 33.6934C317.102 33.2311 317.521 32.873 318.01 32.6191C318.505 32.3652 319.051 32.2383 319.65 32.2383C320.171 32.2383 320.643 32.3132 321.066 32.4629C321.496 32.6061 321.864 32.8405 322.17 33.166C322.482 33.485 322.723 33.9049 322.893 34.4258C323.062 34.9466 323.146 35.5781 323.146 36.3203V43H320.314V36.3008C320.314 35.832 320.246 35.4642 320.109 35.1973C319.979 34.9238 319.787 34.7318 319.533 34.6211C319.286 34.5039 318.98 34.4453 318.615 34.4453C318.212 34.4453 317.867 34.5202 317.58 34.6699C317.3 34.8197 317.076 35.028 316.906 35.2949C316.737 35.5553 316.613 35.8613 316.535 36.2129C316.457 36.5645 316.418 36.9421 316.418 37.3457ZM330.988 40.6172V35.9102C330.988 35.5716 330.933 35.2819 330.822 35.041C330.712 34.7936 330.539 34.6016 330.305 34.4648C330.077 34.3281 329.781 34.2598 329.416 34.2598C329.104 34.2598 328.833 34.3151 328.605 34.4258C328.378 34.5299 328.202 34.6829 328.078 34.8848C327.954 35.0801 327.893 35.3112 327.893 35.5781H325.08C325.08 35.1289 325.184 34.7025 325.393 34.2988C325.601 33.8952 325.904 33.5404 326.301 33.2344C326.698 32.9219 327.17 32.6777 327.717 32.502C328.27 32.3262 328.889 32.2383 329.572 32.2383C330.393 32.2383 331.122 32.375 331.76 32.6484C332.398 32.9219 332.899 33.332 333.264 33.8789C333.635 34.4258 333.82 35.1094 333.82 35.9297V40.4512C333.82 41.0306 333.856 41.5059 333.928 41.877C333.999 42.2415 334.104 42.5605 334.24 42.834V43H331.398C331.262 42.7135 331.158 42.3555 331.086 41.9258C331.021 41.4896 330.988 41.0534 330.988 40.6172ZM331.359 36.5645L331.379 38.1562H329.807C329.436 38.1562 329.113 38.1986 328.84 38.2832C328.566 38.3678 328.342 38.4883 328.166 38.6445C327.99 38.7943 327.86 38.9701 327.775 39.1719C327.697 39.3737 327.658 39.5951 327.658 39.8359C327.658 40.0768 327.714 40.2949 327.824 40.4902C327.935 40.679 328.094 40.8288 328.303 40.9395C328.511 41.0436 328.755 41.0957 329.035 41.0957C329.458 41.0957 329.826 41.0111 330.139 40.8418C330.451 40.6725 330.692 40.4642 330.861 40.2168C331.037 39.9694 331.128 39.735 331.135 39.5137L331.877 40.7051C331.773 40.972 331.63 41.2487 331.447 41.5352C331.271 41.8216 331.047 42.0918 330.773 42.3457C330.5 42.5931 330.171 42.7982 329.787 42.9609C329.403 43.1172 328.947 43.1953 328.42 43.1953C327.749 43.1953 327.141 43.0618 326.594 42.7949C326.053 42.5215 325.624 42.1471 325.305 41.6719C324.992 41.1901 324.836 40.6432 324.836 40.0312C324.836 39.4779 324.94 38.9863 325.148 38.5566C325.357 38.127 325.663 37.7656 326.066 37.4727C326.477 37.1732 326.988 36.9486 327.6 36.7988C328.212 36.6426 328.921 36.5645 329.729 36.5645H331.359ZM345.305 40.7148V43H338.146V40.7148H345.305ZM339.094 28.7812V43H336.164V28.7812H339.094ZM346.359 37.8242V37.6191C346.359 36.8444 346.47 36.1315 346.691 35.4805C346.913 34.8229 347.235 34.2533 347.658 33.7715C348.081 33.2897 348.602 32.9154 349.221 32.6484C349.839 32.375 350.549 32.2383 351.35 32.2383C352.15 32.2383 352.863 32.375 353.488 32.6484C354.113 32.9154 354.637 33.2897 355.061 33.7715C355.49 34.2533 355.816 34.8229 356.037 35.4805C356.258 36.1315 356.369 36.8444 356.369 37.6191V37.8242C356.369 38.5924 356.258 39.3053 356.037 39.9629C355.816 40.6139 355.49 41.1836 355.061 41.6719C354.637 42.1536 354.117 42.528 353.498 42.7949C352.88 43.0618 352.17 43.1953 351.369 43.1953C350.568 43.1953 349.855 43.0618 349.23 42.7949C348.612 42.528 348.088 42.1536 347.658 41.6719C347.235 41.1836 346.913 40.6139 346.691 39.9629C346.47 39.3053 346.359 38.5924 346.359 37.8242ZM349.172 37.6191V37.8242C349.172 38.2669 349.211 38.6803 349.289 39.0645C349.367 39.4486 349.491 39.7871 349.66 40.0801C349.836 40.3665 350.064 40.5911 350.344 40.7539C350.624 40.9167 350.965 40.998 351.369 40.998C351.76 40.998 352.095 40.9167 352.375 40.7539C352.655 40.5911 352.88 40.3665 353.049 40.0801C353.218 39.7871 353.342 39.4486 353.42 39.0645C353.505 38.6803 353.547 38.2669 353.547 37.8242V37.6191C353.547 37.1895 353.505 36.7858 353.42 36.4082C353.342 36.0241 353.215 35.6855 353.039 35.3926C352.87 35.0931 352.645 34.8587 352.365 34.6895C352.085 34.5202 351.747 34.4355 351.35 34.4355C350.952 34.4355 350.614 34.5202 350.334 34.6895C350.061 34.8587 349.836 35.0931 349.66 35.3926C349.491 35.6855 349.367 36.0241 349.289 36.4082C349.211 36.7858 349.172 37.1895 349.172 37.6191ZM363.801 40.6172V35.9102C363.801 35.5716 363.745 35.2819 363.635 35.041C363.524 34.7936 363.352 34.6016 363.117 34.4648C362.889 34.3281 362.593 34.2598 362.229 34.2598C361.916 34.2598 361.646 34.3151 361.418 34.4258C361.19 34.5299 361.014 34.6829 360.891 34.8848C360.767 35.0801 360.705 35.3112 360.705 35.5781H357.893C357.893 35.1289 357.997 34.7025 358.205 34.2988C358.413 33.8952 358.716 33.5404 359.113 33.2344C359.51 32.9219 359.982 32.6777 360.529 32.502C361.083 32.3262 361.701 32.2383 362.385 32.2383C363.205 32.2383 363.934 32.375 364.572 32.6484C365.21 32.9219 365.712 33.332 366.076 33.8789C366.447 34.4258 366.633 35.1094 366.633 35.9297V40.4512C366.633 41.0306 366.669 41.5059 366.74 41.877C366.812 42.2415 366.916 42.5605 367.053 42.834V43H364.211C364.074 42.7135 363.97 42.3555 363.898 41.9258C363.833 41.4896 363.801 41.0534 363.801 40.6172ZM364.172 36.5645L364.191 38.1562H362.619C362.248 38.1562 361.926 38.1986 361.652 38.2832C361.379 38.3678 361.154 38.4883 360.979 38.6445C360.803 38.7943 360.673 38.9701 360.588 39.1719C360.51 39.3737 360.471 39.5951 360.471 39.8359C360.471 40.0768 360.526 40.2949 360.637 40.4902C360.747 40.679 360.907 40.8288 361.115 40.9395C361.324 41.0436 361.568 41.0957 361.848 41.0957C362.271 41.0957 362.639 41.0111 362.951 40.8418C363.264 40.6725 363.505 40.4642 363.674 40.2168C363.85 39.9694 363.941 39.735 363.947 39.5137L364.689 40.7051C364.585 40.972 364.442 41.2487 364.26 41.5352C364.084 41.8216 363.859 42.0918 363.586 42.3457C363.312 42.5931 362.984 42.7982 362.6 42.9609C362.215 43.1172 361.76 43.1953 361.232 43.1953C360.562 43.1953 359.953 43.0618 359.406 42.7949C358.866 42.5215 358.436 42.1471 358.117 41.6719C357.805 41.1901 357.648 40.6432 357.648 40.0312C357.648 39.4779 357.753 38.9863 357.961 38.5566C358.169 38.127 358.475 37.7656 358.879 37.4727C359.289 37.1732 359.8 36.9486 360.412 36.7988C361.024 36.6426 361.734 36.5645 362.541 36.5645H364.172ZM371.555 34.6895V43H368.742V32.4336H371.379L371.555 34.6895ZM371.145 37.3457H370.383C370.383 36.5645 370.484 35.8613 370.686 35.2363C370.887 34.6048 371.171 34.0677 371.535 33.625C371.9 33.1758 372.333 32.834 372.834 32.5996C373.342 32.3587 373.908 32.2383 374.533 32.2383C375.028 32.2383 375.48 32.3099 375.891 32.4531C376.301 32.5964 376.652 32.8242 376.945 33.1367C377.245 33.4492 377.473 33.8626 377.629 34.377C377.792 34.8913 377.873 35.5195 377.873 36.2617V43H375.041V36.252C375.041 35.7832 374.976 35.4186 374.846 35.1582C374.715 34.8978 374.523 34.7155 374.27 34.6113C374.022 34.5007 373.716 34.4453 373.352 34.4453C372.974 34.4453 372.645 34.5202 372.365 34.6699C372.092 34.8197 371.864 35.028 371.682 35.2949C371.506 35.5553 371.372 35.8613 371.281 36.2129C371.19 36.5645 371.145 36.9421 371.145 37.3457Z" fill="black"/>
<g filter="url(#filter0_d_28_492)">
<path d="M28.1094 24C21.4214 24 16 29.4214 16 36.1094C16 42.7974 21.4214 48.2188 28.1094 48.2188C34.7974 48.2188 40.2188 42.7974 40.2188 36.1094C40.2188 29.4214 34.7974 24 28.1094 24ZM28.1094 45.0938C23.144 45.0938 19.125 41.0757 19.125 36.1094C19.125 31.144 23.1431 27.125 28.1094 27.125C33.0747 27.125 37.0938 31.1431 37.0938 36.1094C37.0938 41.0747 33.0757 45.0938 28.1094 45.0938ZM28.1094 29.8594C24.6577 29.8594 21.8594 32.6577 21.8594 36.1094C21.8594 39.561 24.6577 42.3594 28.1094 42.3594C31.561 42.3594 34.3594 39.561 34.3594 36.1094C34.3594 32.6577 31.561 29.8594 28.1094 29.8594ZM28.1094 39.2344C26.3862 39.2344 24.9844 37.8325 24.9844 36.1094C24.9844 34.3862 26.3862 32.9844 28.1094 32.9844C29.8325 32.9844 31.2344 34.3862 31.2344 36.1094C31.2344 37.8325 29.8325 39.2344 28.1094 39.2344Z" fill="url(#paint0_linear_28_492)" shape-rendering="crispEdges"/>
</g>
<rect x="15" y="177" width="385" height="708" rx="30" fill="url(#paint1_diamond_28_492)"/>
<rect x="34.5" y="336.5" width="344" height="55" rx="9.5" stroke="#272727"/>
<rect x="34.5" y="267.5" width="344" height="55" rx="9.5" stroke="#272727"/>
<rect x="34.5" y="504.5" width="344" height="55" rx="9.5" stroke="#272727"/>
<rect x="34.5" y="420.5" width="344" height="55" rx="9.5" stroke="#272727"/>
<path d="M48.9355 355.749L46.2285 364H44.0479L47.7461 354.047H49.1338L48.9355 355.749ZM51.1846 364L48.4707 355.749L48.252 354.047H49.6533L53.3721 364H51.1846ZM51.0615 360.295V361.901H45.8047V360.295H51.0615ZM57.2275 362.599C57.4691 362.599 57.6833 362.553 57.8701 362.462C58.057 362.366 58.2028 362.234 58.3076 362.065C58.417 361.892 58.474 361.689 58.4785 361.457H60.3311C60.3265 361.977 60.1875 362.439 59.9141 362.845C59.6406 363.246 59.2738 363.562 58.8135 363.795C58.3532 364.023 57.8382 364.137 57.2686 364.137C56.6943 364.137 56.193 364.041 55.7646 363.85C55.3408 363.658 54.9876 363.394 54.7051 363.057C54.4225 362.715 54.2106 362.318 54.0693 361.867C53.9281 361.411 53.8574 360.924 53.8574 360.404V360.206C53.8574 359.682 53.9281 359.194 54.0693 358.743C54.2106 358.287 54.4225 357.891 54.7051 357.554C54.9876 357.212 55.3408 356.945 55.7646 356.754C56.1885 356.562 56.6852 356.467 57.2549 356.467C57.861 356.467 58.3919 356.583 58.8477 356.815C59.3079 357.048 59.668 357.381 59.9277 357.813C60.1921 358.242 60.3265 358.75 60.3311 359.338H58.4785C58.474 359.092 58.4215 358.868 58.3213 358.668C58.2256 358.467 58.0843 358.308 57.8975 358.189C57.7152 358.066 57.4896 358.005 57.2207 358.005C56.9336 358.005 56.6989 358.066 56.5166 358.189C56.3343 358.308 56.193 358.472 56.0928 358.682C55.9925 358.887 55.9219 359.121 55.8809 359.386C55.8444 359.646 55.8262 359.919 55.8262 360.206V360.404C55.8262 360.691 55.8444 360.967 55.8809 361.231C55.9173 361.496 55.9857 361.73 56.0859 361.936C56.1908 362.141 56.3343 362.302 56.5166 362.421C56.6989 362.539 56.9359 362.599 57.2275 362.599ZM64.5283 362.599C64.7699 362.599 64.984 362.553 65.1709 362.462C65.3577 362.366 65.5036 362.234 65.6084 362.065C65.7178 361.892 65.7747 361.689 65.7793 361.457H67.6318C67.6273 361.977 67.4883 362.439 67.2148 362.845C66.9414 363.246 66.5745 363.562 66.1143 363.795C65.654 364.023 65.139 364.137 64.5693 364.137C63.9951 364.137 63.4938 364.041 63.0654 363.85C62.6416 363.658 62.2884 363.394 62.0059 363.057C61.7233 362.715 61.5114 362.318 61.3701 361.867C61.2288 361.411 61.1582 360.924 61.1582 360.404V360.206C61.1582 359.682 61.2288 359.194 61.3701 358.743C61.5114 358.287 61.7233 357.891 62.0059 357.554C62.2884 357.212 62.6416 356.945 63.0654 356.754C63.4893 356.562 63.986 356.467 64.5557 356.467C65.1618 356.467 65.6927 356.583 66.1484 356.815C66.6087 357.048 66.9688 357.381 67.2285 357.813C67.4928 358.242 67.6273 358.75 67.6318 359.338H65.7793C65.7747 359.092 65.7223 358.868 65.6221 358.668C65.5264 358.467 65.3851 358.308 65.1982 358.189C65.016 358.066 64.7904 358.005 64.5215 358.005C64.2344 358.005 63.9997 358.066 63.8174 358.189C63.6351 358.308 63.4938 358.472 63.3936 358.682C63.2933 358.887 63.2227 359.121 63.1816 359.386C63.1452 359.646 63.127 359.919 63.127 360.206V360.404C63.127 360.691 63.1452 360.967 63.1816 361.231C63.2181 361.496 63.2865 361.73 63.3867 361.936C63.4915 362.141 63.6351 362.302 63.8174 362.421C63.9997 362.539 64.2367 362.599 64.5283 362.599ZM68.459 360.377V360.233C68.459 359.691 68.5365 359.192 68.6914 358.736C68.8464 358.276 69.0719 357.877 69.3682 357.54C69.6644 357.203 70.029 356.941 70.4619 356.754C70.8949 356.562 71.3916 356.467 71.9521 356.467C72.5127 356.467 73.0117 356.562 73.4492 356.754C73.8867 356.941 74.2536 357.203 74.5498 357.54C74.8506 357.877 75.0785 358.276 75.2334 358.736C75.3883 359.192 75.4658 359.691 75.4658 360.233V360.377C75.4658 360.915 75.3883 361.414 75.2334 361.874C75.0785 362.33 74.8506 362.729 74.5498 363.07C74.2536 363.408 73.889 363.67 73.4561 363.856C73.0231 364.043 72.5264 364.137 71.9658 364.137C71.4053 364.137 70.9062 364.043 70.4688 363.856C70.0358 363.67 69.6689 363.408 69.3682 363.07C69.0719 362.729 68.8464 362.33 68.6914 361.874C68.5365 361.414 68.459 360.915 68.459 360.377ZM70.4277 360.233V360.377C70.4277 360.687 70.4551 360.976 70.5098 361.245C70.5645 361.514 70.651 361.751 70.7695 361.956C70.8926 362.157 71.0521 362.314 71.248 362.428C71.444 362.542 71.6833 362.599 71.9658 362.599C72.2393 362.599 72.474 362.542 72.6699 362.428C72.8659 362.314 73.0231 362.157 73.1416 361.956C73.2601 361.751 73.3467 361.514 73.4014 361.245C73.4606 360.976 73.4902 360.687 73.4902 360.377V360.233C73.4902 359.933 73.4606 359.65 73.4014 359.386C73.3467 359.117 73.2578 358.88 73.1348 358.675C73.0163 358.465 72.859 358.301 72.6631 358.183C72.4671 358.064 72.2301 358.005 71.9521 358.005C71.6742 358.005 71.4372 358.064 71.2412 358.183C71.0498 358.301 70.8926 358.465 70.7695 358.675C70.651 358.88 70.5645 359.117 70.5098 359.386C70.4551 359.65 70.4277 359.933 70.4277 360.233ZM81.0508 362.229V356.604H83.0195V364H81.167L81.0508 362.229ZM81.2695 360.712L81.8506 360.698C81.8506 361.19 81.7936 361.648 81.6797 362.072C81.5658 362.492 81.3949 362.856 81.167 363.166C80.9391 363.471 80.652 363.711 80.3057 363.884C79.9593 364.052 79.5514 364.137 79.082 364.137C78.722 364.137 78.3893 364.087 78.084 363.986C77.7832 363.882 77.5234 363.72 77.3047 363.501C77.0905 363.278 76.9219 362.993 76.7988 362.646C76.6803 362.296 76.6211 361.874 76.6211 361.382V356.604H78.5898V361.396C78.5898 361.614 78.6149 361.799 78.665 361.949C78.7197 362.1 78.7949 362.223 78.8906 362.318C78.9863 362.414 79.098 362.482 79.2256 362.523C79.3577 362.564 79.5036 362.585 79.6631 362.585C80.0687 362.585 80.3877 362.503 80.6201 362.339C80.8571 362.175 81.0234 361.951 81.1191 361.669C81.2194 361.382 81.2695 361.063 81.2695 360.712ZM86.4512 358.183V364H84.4824V356.604H86.3281L86.4512 358.183ZM86.1641 360.042H85.6309C85.6309 359.495 85.7015 359.003 85.8428 358.565C85.984 358.123 86.1823 357.747 86.4375 357.438C86.6927 357.123 86.9958 356.884 87.3467 356.72C87.7021 356.551 88.0986 356.467 88.5361 356.467C88.8825 356.467 89.1992 356.517 89.4863 356.617C89.7734 356.717 90.0195 356.877 90.2246 357.096C90.4342 357.314 90.5938 357.604 90.7031 357.964C90.8171 358.324 90.874 358.764 90.874 359.283V364H88.8916V359.276C88.8916 358.948 88.846 358.693 88.7549 358.511C88.6637 358.328 88.5293 358.201 88.3516 358.128C88.1784 358.05 87.9642 358.012 87.709 358.012C87.4447 358.012 87.2145 358.064 87.0186 358.169C86.8271 358.274 86.6676 358.42 86.54 358.606C86.417 358.789 86.3236 359.003 86.2598 359.249C86.196 359.495 86.1641 359.759 86.1641 360.042ZM95.9941 356.604V357.998H91.6875V356.604H95.9941ZM92.7539 354.778H94.7227V361.771C94.7227 361.986 94.75 362.15 94.8047 362.264C94.8639 362.378 94.9505 362.457 95.0645 362.503C95.1784 362.544 95.3219 362.564 95.4951 362.564C95.6182 362.564 95.7275 362.56 95.8232 362.551C95.9235 362.537 96.0078 362.523 96.0762 362.51L96.083 363.959C95.9144 364.014 95.7321 364.057 95.5361 364.089C95.3402 364.121 95.1237 364.137 94.8867 364.137C94.4538 364.137 94.0755 364.066 93.752 363.925C93.4329 363.779 93.1868 363.547 93.0137 363.228C92.8405 362.909 92.7539 362.489 92.7539 361.97V354.778ZM108.825 354.047V364H106.774L102.775 357.328V364H100.725V354.047H102.775L106.781 360.726V354.047H108.825ZM114.861 362.229V356.604H116.83V364H114.978L114.861 362.229ZM115.08 360.712L115.661 360.698C115.661 361.19 115.604 361.648 115.49 362.072C115.376 362.492 115.205 362.856 114.978 363.166C114.75 363.471 114.463 363.711 114.116 363.884C113.77 364.052 113.362 364.137 112.893 364.137C112.533 364.137 112.2 364.087 111.895 363.986C111.594 363.882 111.334 363.72 111.115 363.501C110.901 363.278 110.732 362.993 110.609 362.646C110.491 362.296 110.432 361.874 110.432 361.382V356.604H112.4V361.396C112.4 361.614 112.425 361.799 112.476 361.949C112.53 362.1 112.605 362.223 112.701 362.318C112.797 362.414 112.909 362.482 113.036 362.523C113.168 362.564 113.314 362.585 113.474 362.585C113.879 362.585 114.198 362.503 114.431 362.339C114.668 362.175 114.834 361.951 114.93 361.669C115.03 361.382 115.08 361.063 115.08 360.712ZM120.303 358.135V364H118.327V356.604H120.18L120.303 358.135ZM120.029 360.042H119.482C119.482 359.527 119.544 359.053 119.667 358.62C119.795 358.183 119.979 357.804 120.221 357.485C120.467 357.162 120.77 356.911 121.13 356.733C121.49 356.556 121.907 356.467 122.381 356.467C122.709 356.467 123.01 356.517 123.283 356.617C123.557 356.713 123.791 356.866 123.987 357.075C124.188 357.28 124.343 357.549 124.452 357.882C124.562 358.21 124.616 358.604 124.616 359.064V364H122.647V359.283C122.647 358.946 122.602 358.686 122.511 358.504C122.42 358.322 122.29 358.194 122.121 358.121C121.957 358.048 121.759 358.012 121.526 358.012C121.271 358.012 121.048 358.064 120.856 358.169C120.67 358.274 120.515 358.42 120.392 358.606C120.269 358.789 120.177 359.003 120.118 359.249C120.059 359.495 120.029 359.759 120.029 360.042ZM124.432 359.816L123.728 359.905C123.728 359.422 123.787 358.973 123.905 358.559C124.028 358.144 124.208 357.779 124.445 357.465C124.687 357.15 124.985 356.907 125.341 356.733C125.696 356.556 126.106 356.467 126.571 356.467C126.927 356.467 127.25 356.519 127.542 356.624C127.834 356.724 128.082 356.886 128.287 357.109C128.497 357.328 128.656 357.615 128.766 357.971C128.88 358.326 128.937 358.761 128.937 359.276V364H126.961V359.276C126.961 358.935 126.915 358.675 126.824 358.497C126.738 358.315 126.61 358.189 126.441 358.121C126.277 358.048 126.081 358.012 125.854 358.012C125.617 358.012 125.409 358.06 125.231 358.155C125.054 358.246 124.906 358.374 124.787 358.538C124.669 358.702 124.58 358.894 124.521 359.112C124.461 359.326 124.432 359.561 124.432 359.816ZM130.461 353.5H132.43V362.305L132.231 364H130.461V353.5ZM137.112 360.227V360.37C137.112 360.922 137.053 361.427 136.935 361.888C136.821 362.348 136.643 362.747 136.401 363.084C136.16 363.417 135.859 363.676 135.499 363.863C135.144 364.046 134.724 364.137 134.241 364.137C133.79 364.137 133.398 364.046 133.065 363.863C132.737 363.681 132.462 363.424 132.238 363.091C132.015 362.758 131.835 362.368 131.698 361.922C131.562 361.475 131.459 360.988 131.391 360.459V360.145C131.459 359.616 131.562 359.128 131.698 358.682C131.835 358.235 132.015 357.845 132.238 357.513C132.462 357.18 132.737 356.923 133.065 356.74C133.394 356.558 133.781 356.467 134.228 356.467C134.715 356.467 135.139 356.56 135.499 356.747C135.864 356.929 136.164 357.189 136.401 357.526C136.643 357.859 136.821 358.256 136.935 358.716C137.053 359.172 137.112 359.675 137.112 360.227ZM135.144 360.37V360.227C135.144 359.926 135.121 359.643 135.075 359.379C135.034 359.11 134.961 358.875 134.856 358.675C134.752 358.47 134.608 358.308 134.426 358.189C134.248 358.071 134.018 358.012 133.735 358.012C133.466 358.012 133.239 358.057 133.052 358.148C132.865 358.24 132.71 358.367 132.587 358.531C132.468 358.695 132.38 358.891 132.32 359.119C132.261 359.342 132.225 359.589 132.211 359.857V360.753C132.225 361.113 132.284 361.432 132.389 361.71C132.498 361.983 132.662 362.2 132.881 362.359C133.104 362.514 133.394 362.592 133.749 362.592C134.027 362.592 134.257 362.537 134.439 362.428C134.622 362.318 134.763 362.163 134.863 361.963C134.968 361.762 135.041 361.528 135.082 361.259C135.123 360.985 135.144 360.689 135.144 360.37ZM141.74 364.137C141.166 364.137 140.651 364.046 140.195 363.863C139.74 363.676 139.352 363.419 139.033 363.091C138.719 362.763 138.477 362.382 138.309 361.949C138.14 361.512 138.056 361.047 138.056 360.555V360.281C138.056 359.721 138.135 359.208 138.295 358.743C138.454 358.278 138.682 357.875 138.979 357.533C139.279 357.191 139.644 356.929 140.072 356.747C140.501 356.56 140.984 356.467 141.521 356.467C142.046 356.467 142.51 356.553 142.916 356.727C143.322 356.9 143.661 357.146 143.935 357.465C144.213 357.784 144.422 358.167 144.563 358.613C144.705 359.055 144.775 359.548 144.775 360.09V360.91H138.896V359.598H142.841V359.447C142.841 359.174 142.791 358.93 142.69 358.716C142.595 358.497 142.449 358.324 142.253 358.196C142.057 358.069 141.806 358.005 141.501 358.005C141.241 358.005 141.018 358.062 140.831 358.176C140.644 358.29 140.492 358.449 140.373 358.654C140.259 358.859 140.173 359.101 140.113 359.379C140.059 359.652 140.031 359.953 140.031 360.281V360.555C140.031 360.851 140.072 361.124 140.154 361.375C140.241 361.626 140.362 361.842 140.517 362.024C140.676 362.207 140.868 362.348 141.091 362.448C141.319 362.549 141.576 362.599 141.863 362.599C142.219 362.599 142.549 362.53 142.854 362.394C143.164 362.252 143.431 362.04 143.654 361.758L144.611 362.797C144.456 363.02 144.244 363.234 143.976 363.439C143.711 363.645 143.392 363.813 143.019 363.945C142.645 364.073 142.219 364.137 141.74 364.137ZM147.865 358.217V364H145.896V356.604H147.749L147.865 358.217ZM150.094 356.556L150.06 358.381C149.964 358.367 149.848 358.356 149.711 358.347C149.579 358.333 149.458 358.326 149.349 358.326C149.071 358.326 148.829 358.363 148.624 358.436C148.424 358.504 148.255 358.606 148.118 358.743C147.986 358.88 147.886 359.046 147.817 359.242C147.754 359.438 147.717 359.661 147.708 359.912L147.312 359.789C147.312 359.311 147.359 358.871 147.455 358.47C147.551 358.064 147.69 357.711 147.872 357.41C148.059 357.109 148.287 356.877 148.556 356.713C148.825 356.549 149.132 356.467 149.479 356.467C149.588 356.467 149.7 356.476 149.813 356.494C149.927 356.508 150.021 356.528 150.094 356.556Z" fill="black"/>
<path d="M48.9355 286.749L46.2285 295H44.0479L47.7461 285.047H49.1338L48.9355 286.749ZM51.1846 295L48.4707 286.749L48.252 285.047H49.6533L53.3721 295H51.1846ZM51.0615 291.295V292.901H45.8047V291.295H51.0615ZM55.9219 289.135V295H53.9463V287.604H55.7988L55.9219 289.135ZM55.6484 291.042H55.1016C55.1016 290.527 55.1631 290.053 55.2861 289.62C55.4137 289.183 55.5983 288.804 55.8398 288.485C56.0859 288.162 56.389 287.911 56.749 287.733C57.109 287.556 57.526 287.467 58 287.467C58.3281 287.467 58.6289 287.517 58.9023 287.617C59.1758 287.713 59.4105 287.866 59.6064 288.075C59.807 288.28 59.9619 288.549 60.0713 288.882C60.1807 289.21 60.2354 289.604 60.2354 290.064V295H58.2666V290.283C58.2666 289.946 58.221 289.686 58.1299 289.504C58.0387 289.322 57.9089 289.194 57.7402 289.121C57.5762 289.048 57.3779 289.012 57.1455 289.012C56.8903 289.012 56.667 289.064 56.4756 289.169C56.2887 289.274 56.1338 289.42 56.0107 289.606C55.8877 289.789 55.7965 290.003 55.7373 290.249C55.6781 290.495 55.6484 290.759 55.6484 291.042ZM60.0508 290.816L59.3467 290.905C59.3467 290.422 59.4059 289.973 59.5244 289.559C59.6475 289.144 59.8275 288.779 60.0645 288.465C60.306 288.15 60.6045 287.907 60.96 287.733C61.3154 287.556 61.7256 287.467 62.1904 287.467C62.5459 287.467 62.8695 287.519 63.1611 287.624C63.4528 287.724 63.7012 287.886 63.9062 288.109C64.1159 288.328 64.2754 288.615 64.3848 288.971C64.4987 289.326 64.5557 289.761 64.5557 290.276V295H62.5801V290.276C62.5801 289.935 62.5345 289.675 62.4434 289.497C62.3568 289.315 62.2292 289.189 62.0605 289.121C61.8965 289.048 61.7005 289.012 61.4727 289.012C61.2357 289.012 61.0283 289.06 60.8506 289.155C60.6729 289.246 60.5247 289.374 60.4062 289.538C60.2878 289.702 60.1989 289.894 60.1396 290.112C60.0804 290.326 60.0508 290.561 60.0508 290.816ZM65.7656 291.377V291.233C65.7656 290.691 65.8431 290.192 65.998 289.736C66.153 289.276 66.3786 288.877 66.6748 288.54C66.971 288.203 67.3356 287.941 67.7686 287.754C68.2015 287.562 68.6982 287.467 69.2588 287.467C69.8193 287.467 70.3184 287.562 70.7559 287.754C71.1934 287.941 71.5602 288.203 71.8564 288.54C72.1572 288.877 72.3851 289.276 72.54 289.736C72.695 290.192 72.7725 290.691 72.7725 291.233V291.377C72.7725 291.915 72.695 292.414 72.54 292.874C72.3851 293.33 72.1572 293.729 71.8564 294.07C71.5602 294.408 71.1956 294.67 70.7627 294.856C70.3298 295.043 69.833 295.137 69.2725 295.137C68.7119 295.137 68.2129 295.043 67.7754 294.856C67.3424 294.67 66.9756 294.408 66.6748 294.07C66.3786 293.729 66.153 293.33 65.998 292.874C65.8431 292.414 65.7656 291.915 65.7656 291.377ZM67.7344 291.233V291.377C67.7344 291.687 67.7617 291.976 67.8164 292.245C67.8711 292.514 67.9577 292.751 68.0762 292.956C68.1992 293.157 68.3587 293.314 68.5547 293.428C68.7507 293.542 68.9899 293.599 69.2725 293.599C69.5459 293.599 69.7806 293.542 69.9766 293.428C70.1725 293.314 70.3298 293.157 70.4482 292.956C70.5667 292.751 70.6533 292.514 70.708 292.245C70.7673 291.976 70.7969 291.687 70.7969 291.377V291.233C70.7969 290.933 70.7673 290.65 70.708 290.386C70.6533 290.117 70.5645 289.88 70.4414 289.675C70.3229 289.465 70.1657 289.301 69.9697 289.183C69.7738 289.064 69.5368 289.005 69.2588 289.005C68.9808 289.005 68.7438 289.064 68.5479 289.183C68.3564 289.301 68.1992 289.465 68.0762 289.675C67.9577 289.88 67.8711 290.117 67.8164 290.386C67.7617 290.65 67.7344 290.933 67.7344 291.233ZM78.3574 293.229V287.604H80.3262V295H78.4736L78.3574 293.229ZM78.5762 291.712L79.1572 291.698C79.1572 292.19 79.1003 292.648 78.9863 293.072C78.8724 293.492 78.7015 293.856 78.4736 294.166C78.2458 294.471 77.9587 294.711 77.6123 294.884C77.266 295.052 76.8581 295.137 76.3887 295.137C76.0286 295.137 75.696 295.087 75.3906 294.986C75.0898 294.882 74.8301 294.72 74.6113 294.501C74.3971 294.278 74.2285 293.993 74.1055 293.646C73.987 293.296 73.9277 292.874 73.9277 292.382V287.604H75.8965V292.396C75.8965 292.614 75.9215 292.799 75.9717 292.949C76.0264 293.1 76.1016 293.223 76.1973 293.318C76.293 293.414 76.4046 293.482 76.5322 293.523C76.6644 293.564 76.8102 293.585 76.9697 293.585C77.3753 293.585 77.6943 293.503 77.9268 293.339C78.1637 293.175 78.3301 292.951 78.4258 292.669C78.526 292.382 78.5762 292.063 78.5762 291.712ZM83.7578 289.183V295H81.7891V287.604H83.6348L83.7578 289.183ZM83.4707 291.042H82.9375C82.9375 290.495 83.0081 290.003 83.1494 289.565C83.2907 289.123 83.4889 288.747 83.7441 288.438C83.9993 288.123 84.3024 287.884 84.6533 287.72C85.0088 287.551 85.4053 287.467 85.8428 287.467C86.1891 287.467 86.5059 287.517 86.793 287.617C87.0801 287.717 87.3262 287.877 87.5312 288.096C87.7409 288.314 87.9004 288.604 88.0098 288.964C88.1237 289.324 88.1807 289.764 88.1807 290.283V295H86.1982V290.276C86.1982 289.948 86.1527 289.693 86.0615 289.511C85.9704 289.328 85.8359 289.201 85.6582 289.128C85.485 289.05 85.2708 289.012 85.0156 289.012C84.7513 289.012 84.5212 289.064 84.3252 289.169C84.1338 289.274 83.9743 289.42 83.8467 289.606C83.7236 289.789 83.6302 290.003 83.5664 290.249C83.5026 290.495 83.4707 290.759 83.4707 291.042ZM93.3008 287.604V288.998H88.9941V287.604H93.3008ZM90.0605 285.778H92.0293V292.771C92.0293 292.986 92.0566 293.15 92.1113 293.264C92.1706 293.378 92.2572 293.457 92.3711 293.503C92.485 293.544 92.6286 293.564 92.8018 293.564C92.9248 293.564 93.0342 293.56 93.1299 293.551C93.2301 293.537 93.3145 293.523 93.3828 293.51L93.3896 294.959C93.221 295.014 93.0387 295.057 92.8428 295.089C92.6468 295.121 92.4303 295.137 92.1934 295.137C91.7604 295.137 91.3822 295.066 91.0586 294.925C90.7396 294.779 90.4935 294.547 90.3203 294.228C90.1471 293.909 90.0605 293.489 90.0605 292.97V285.778Z" fill="black"/>
<path d="M48.7852 527.632H46.2285L46.2148 526.224H48.3613C48.7396 526.224 49.0495 526.176 49.291 526.08C49.5326 525.98 49.7126 525.836 49.8311 525.649C49.9541 525.458 50.0156 525.226 50.0156 524.952C50.0156 524.642 49.9564 524.392 49.8379 524.2C49.724 524.009 49.5439 523.87 49.2979 523.783C49.0563 523.697 48.7441 523.653 48.3613 523.653H46.9395V532H44.8887V522.047H48.3613C48.9401 522.047 49.4574 522.102 49.9131 522.211C50.3734 522.32 50.763 522.487 51.082 522.71C51.401 522.933 51.6449 523.216 51.8135 523.558C51.9821 523.895 52.0664 524.296 52.0664 524.761C52.0664 525.171 51.973 525.549 51.7861 525.896C51.6038 526.242 51.3145 526.524 50.918 526.743C50.526 526.962 50.0133 527.083 49.3799 527.105L48.7852 527.632ZM48.6963 532H45.668L46.4678 530.4H48.6963C49.0563 530.4 49.3503 530.343 49.5781 530.229C49.806 530.111 49.9746 529.951 50.084 529.751C50.1934 529.55 50.248 529.32 50.248 529.061C50.248 528.769 50.1979 528.516 50.0977 528.302C50.002 528.088 49.847 527.924 49.6328 527.81C49.4186 527.691 49.1361 527.632 48.7852 527.632H46.8096L46.8232 526.224H49.2842L49.7559 526.777C50.362 526.768 50.8496 526.875 51.2188 527.099C51.5924 527.317 51.8636 527.602 52.0322 527.953C52.2054 528.304 52.292 528.68 52.292 529.081C52.292 529.719 52.153 530.257 51.875 530.694C51.597 531.127 51.1891 531.453 50.6514 531.672C50.1182 531.891 49.4665 532 48.6963 532ZM57.6992 530.332V527.037C57.6992 526.8 57.6605 526.597 57.583 526.429C57.5055 526.256 57.3848 526.121 57.2207 526.025C57.0612 525.93 56.8538 525.882 56.5986 525.882C56.3799 525.882 56.1908 525.921 56.0312 525.998C55.8717 526.071 55.7487 526.178 55.6621 526.319C55.5755 526.456 55.5322 526.618 55.5322 526.805H53.5635C53.5635 526.49 53.6364 526.192 53.7822 525.909C53.9281 525.627 54.14 525.378 54.418 525.164C54.696 524.945 55.0264 524.774 55.4092 524.651C55.7965 524.528 56.2295 524.467 56.708 524.467C57.2822 524.467 57.7926 524.562 58.2393 524.754C58.6859 524.945 59.0368 525.232 59.292 525.615C59.5518 525.998 59.6816 526.477 59.6816 527.051V530.216C59.6816 530.621 59.7067 530.954 59.7568 531.214C59.807 531.469 59.8799 531.692 59.9756 531.884V532H57.9863C57.8906 531.799 57.8177 531.549 57.7676 531.248C57.722 530.943 57.6992 530.637 57.6992 530.332ZM57.959 527.495L57.9727 528.609H56.8721C56.6123 528.609 56.3867 528.639 56.1953 528.698C56.0039 528.757 55.8467 528.842 55.7236 528.951C55.6006 529.056 55.5094 529.179 55.4502 529.32C55.3955 529.462 55.3682 529.617 55.3682 529.785C55.3682 529.954 55.4069 530.106 55.4844 530.243C55.5618 530.375 55.6735 530.48 55.8193 530.558C55.9652 530.631 56.1361 530.667 56.332 530.667C56.6283 530.667 56.8857 530.608 57.1045 530.489C57.3232 530.371 57.4919 530.225 57.6104 530.052C57.7334 529.879 57.7972 529.715 57.8018 529.56L58.3213 530.394C58.2484 530.58 58.1481 530.774 58.0205 530.975C57.8975 531.175 57.7402 531.364 57.5488 531.542C57.3574 531.715 57.1273 531.859 56.8584 531.973C56.5895 532.082 56.2705 532.137 55.9014 532.137C55.432 532.137 55.0059 532.043 54.623 531.856C54.2448 531.665 53.944 531.403 53.7207 531.07C53.502 530.733 53.3926 530.35 53.3926 529.922C53.3926 529.535 53.4655 529.19 53.6113 528.89C53.7572 528.589 53.9714 528.336 54.2539 528.131C54.541 527.921 54.8988 527.764 55.3271 527.659C55.7555 527.55 56.2523 527.495 56.8174 527.495H57.959ZM63.127 526.183V532H61.1582V524.604H63.0039L63.127 526.183ZM62.8398 528.042H62.3066C62.3066 527.495 62.3773 527.003 62.5186 526.565C62.6598 526.123 62.8581 525.747 63.1133 525.438C63.3685 525.123 63.6715 524.884 64.0225 524.72C64.3779 524.551 64.7744 524.467 65.2119 524.467C65.5583 524.467 65.875 524.517 66.1621 524.617C66.4492 524.717 66.6953 524.877 66.9004 525.096C67.11 525.314 67.2695 525.604 67.3789 525.964C67.4928 526.324 67.5498 526.764 67.5498 527.283V532H65.5674V527.276C65.5674 526.948 65.5218 526.693 65.4307 526.511C65.3395 526.328 65.2051 526.201 65.0273 526.128C64.8542 526.05 64.64 526.012 64.3848 526.012C64.1204 526.012 63.8903 526.064 63.6943 526.169C63.5029 526.274 63.3434 526.42 63.2158 526.606C63.0928 526.789 62.9993 527.003 62.9355 527.249C62.8717 527.495 62.8398 527.759 62.8398 528.042ZM71.0156 521.493V532H69.0469V521.493H71.0156ZM75.6777 524.604L72.4648 528.268L70.7422 530.011L70.0244 528.589L71.3916 526.853L73.3125 524.604H75.6777ZM73.6338 532L71.4463 528.582L72.8066 527.393L75.9033 532H73.6338ZM88.2354 522.047V532H86.1846L82.1855 525.328V532H80.1348V522.047H82.1855L86.1914 528.726V522.047H88.2354ZM93.8887 530.332V527.037C93.8887 526.8 93.8499 526.597 93.7725 526.429C93.695 526.256 93.5742 526.121 93.4102 526.025C93.2507 525.93 93.0433 525.882 92.7881 525.882C92.5693 525.882 92.3802 525.921 92.2207 525.998C92.0612 526.071 91.9382 526.178 91.8516 526.319C91.765 526.456 91.7217 526.618 91.7217 526.805H89.7529C89.7529 526.49 89.8258 526.192 89.9717 525.909C90.1175 525.627 90.3294 525.378 90.6074 525.164C90.8854 524.945 91.2158 524.774 91.5986 524.651C91.986 524.528 92.4189 524.467 92.8975 524.467C93.4717 524.467 93.9821 524.562 94.4287 524.754C94.8753 524.945 95.2262 525.232 95.4814 525.615C95.7412 525.998 95.8711 526.477 95.8711 527.051V530.216C95.8711 530.621 95.8962 530.954 95.9463 531.214C95.9964 531.469 96.0693 531.692 96.165 531.884V532H94.1758C94.0801 531.799 94.0072 531.549 93.957 531.248C93.9115 530.943 93.8887 530.637 93.8887 530.332ZM94.1484 527.495L94.1621 528.609H93.0615C92.8018 528.609 92.5762 528.639 92.3848 528.698C92.1934 528.757 92.0361 528.842 91.9131 528.951C91.79 529.056 91.6989 529.179 91.6396 529.32C91.585 529.462 91.5576 529.617 91.5576 529.785C91.5576 529.954 91.5964 530.106 91.6738 530.243C91.7513 530.375 91.863 530.48 92.0088 530.558C92.1546 530.631 92.3255 530.667 92.5215 530.667C92.8177 530.667 93.0752 530.608 93.2939 530.489C93.5127 530.371 93.6813 530.225 93.7998 530.052C93.9229 529.879 93.9867 529.715 93.9912 529.56L94.5107 530.394C94.4378 530.58 94.3376 530.774 94.21 530.975C94.0869 531.175 93.9297 531.364 93.7383 531.542C93.5469 531.715 93.3167 531.859 93.0479 531.973C92.779 532.082 92.46 532.137 92.0908 532.137C91.6214 532.137 91.1953 532.043 90.8125 531.856C90.4342 531.665 90.1335 531.403 89.9102 531.07C89.6914 530.733 89.582 530.35 89.582 529.922C89.582 529.535 89.6549 529.19 89.8008 528.89C89.9466 528.589 90.1608 528.336 90.4434 528.131C90.7305 527.921 91.0882 527.764 91.5166 527.659C91.945 527.55 92.4417 527.495 93.0068 527.495H94.1484ZM99.3574 526.135V532H97.3818V524.604H99.2344L99.3574 526.135ZM99.084 528.042H98.5371C98.5371 527.527 98.5986 527.053 98.7217 526.62C98.8493 526.183 99.0339 525.804 99.2754 525.485C99.5215 525.162 99.8245 524.911 100.185 524.733C100.545 524.556 100.962 524.467 101.436 524.467C101.764 524.467 102.064 524.517 102.338 524.617C102.611 524.713 102.846 524.866 103.042 525.075C103.243 525.28 103.397 525.549 103.507 525.882C103.616 526.21 103.671 526.604 103.671 527.064V532H101.702V527.283C101.702 526.946 101.657 526.686 101.565 526.504C101.474 526.322 101.344 526.194 101.176 526.121C101.012 526.048 100.813 526.012 100.581 526.012C100.326 526.012 100.103 526.064 99.9111 526.169C99.7243 526.274 99.5693 526.42 99.4463 526.606C99.3232 526.789 99.2321 527.003 99.1729 527.249C99.1136 527.495 99.084 527.759 99.084 528.042ZM103.486 527.816L102.782 527.905C102.782 527.422 102.841 526.973 102.96 526.559C103.083 526.144 103.263 525.779 103.5 525.465C103.742 525.15 104.04 524.907 104.396 524.733C104.751 524.556 105.161 524.467 105.626 524.467C105.981 524.467 106.305 524.519 106.597 524.624C106.888 524.724 107.137 524.886 107.342 525.109C107.551 525.328 107.711 525.615 107.82 525.971C107.934 526.326 107.991 526.761 107.991 527.276V532H106.016V527.276C106.016 526.935 105.97 526.675 105.879 526.497C105.792 526.315 105.665 526.189 105.496 526.121C105.332 526.048 105.136 526.012 104.908 526.012C104.671 526.012 104.464 526.06 104.286 526.155C104.108 526.246 103.96 526.374 103.842 526.538C103.723 526.702 103.634 526.894 103.575 527.112C103.516 527.326 103.486 527.561 103.486 527.816ZM112.92 532.137C112.346 532.137 111.831 532.046 111.375 531.863C110.919 531.676 110.532 531.419 110.213 531.091C109.898 530.763 109.657 530.382 109.488 529.949C109.32 529.512 109.235 529.047 109.235 528.555V528.281C109.235 527.721 109.315 527.208 109.475 526.743C109.634 526.278 109.862 525.875 110.158 525.533C110.459 525.191 110.824 524.929 111.252 524.747C111.68 524.56 112.163 524.467 112.701 524.467C113.225 524.467 113.69 524.553 114.096 524.727C114.501 524.9 114.841 525.146 115.114 525.465C115.392 525.784 115.602 526.167 115.743 526.613C115.884 527.055 115.955 527.548 115.955 528.09V528.91H110.076V527.598H114.021V527.447C114.021 527.174 113.97 526.93 113.87 526.716C113.774 526.497 113.629 526.324 113.433 526.196C113.237 526.069 112.986 526.005 112.681 526.005C112.421 526.005 112.198 526.062 112.011 526.176C111.824 526.29 111.671 526.449 111.553 526.654C111.439 526.859 111.352 527.101 111.293 527.379C111.238 527.652 111.211 527.953 111.211 528.281V528.555C111.211 528.851 111.252 529.124 111.334 529.375C111.421 529.626 111.541 529.842 111.696 530.024C111.856 530.207 112.047 530.348 112.271 530.448C112.498 530.549 112.756 530.599 113.043 530.599C113.398 530.599 113.729 530.53 114.034 530.394C114.344 530.252 114.611 530.04 114.834 529.758L115.791 530.797C115.636 531.02 115.424 531.234 115.155 531.439C114.891 531.645 114.572 531.813 114.198 531.945C113.825 532.073 113.398 532.137 112.92 532.137Z" fill="black"/>
<path d="M48.9355 439.749L46.2285 448H44.0479L47.7461 438.047H49.1338L48.9355 439.749ZM51.1846 448L48.4707 439.749L48.252 438.047H49.6533L53.3721 448H51.1846ZM51.0615 444.295V445.901H45.8047V444.295H51.0615ZM57.2275 446.599C57.4691 446.599 57.6833 446.553 57.8701 446.462C58.057 446.366 58.2028 446.234 58.3076 446.065C58.417 445.892 58.474 445.689 58.4785 445.457H60.3311C60.3265 445.977 60.1875 446.439 59.9141 446.845C59.6406 447.246 59.2738 447.562 58.8135 447.795C58.3532 448.023 57.8382 448.137 57.2686 448.137C56.6943 448.137 56.193 448.041 55.7646 447.85C55.3408 447.658 54.9876 447.394 54.7051 447.057C54.4225 446.715 54.2106 446.318 54.0693 445.867C53.9281 445.411 53.8574 444.924 53.8574 444.404V444.206C53.8574 443.682 53.9281 443.194 54.0693 442.743C54.2106 442.287 54.4225 441.891 54.7051 441.554C54.9876 441.212 55.3408 440.945 55.7646 440.754C56.1885 440.562 56.6852 440.467 57.2549 440.467C57.861 440.467 58.3919 440.583 58.8477 440.815C59.3079 441.048 59.668 441.381 59.9277 441.813C60.1921 442.242 60.3265 442.75 60.3311 443.338H58.4785C58.474 443.092 58.4215 442.868 58.3213 442.668C58.2256 442.467 58.0843 442.308 57.8975 442.189C57.7152 442.066 57.4896 442.005 57.2207 442.005C56.9336 442.005 56.6989 442.066 56.5166 442.189C56.3343 442.308 56.193 442.472 56.0928 442.682C55.9925 442.887 55.9219 443.121 55.8809 443.386C55.8444 443.646 55.8262 443.919 55.8262 444.206V444.404C55.8262 444.691 55.8444 444.967 55.8809 445.231C55.9173 445.496 55.9857 445.73 56.0859 445.936C56.1908 446.141 56.3343 446.302 56.5166 446.421C56.6989 446.539 56.9359 446.599 57.2275 446.599ZM64.5283 446.599C64.7699 446.599 64.984 446.553 65.1709 446.462C65.3577 446.366 65.5036 446.234 65.6084 446.065C65.7178 445.892 65.7747 445.689 65.7793 445.457H67.6318C67.6273 445.977 67.4883 446.439 67.2148 446.845C66.9414 447.246 66.5745 447.562 66.1143 447.795C65.654 448.023 65.139 448.137 64.5693 448.137C63.9951 448.137 63.4938 448.041 63.0654 447.85C62.6416 447.658 62.2884 447.394 62.0059 447.057C61.7233 446.715 61.5114 446.318 61.3701 445.867C61.2288 445.411 61.1582 444.924 61.1582 444.404V444.206C61.1582 443.682 61.2288 443.194 61.3701 442.743C61.5114 442.287 61.7233 441.891 62.0059 441.554C62.2884 441.212 62.6416 440.945 63.0654 440.754C63.4893 440.562 63.986 440.467 64.5557 440.467C65.1618 440.467 65.6927 440.583 66.1484 440.815C66.6087 441.048 66.9688 441.381 67.2285 441.813C67.4928 442.242 67.6273 442.75 67.6318 443.338H65.7793C65.7747 443.092 65.7223 442.868 65.6221 442.668C65.5264 442.467 65.3851 442.308 65.1982 442.189C65.016 442.066 64.7904 442.005 64.5215 442.005C64.2344 442.005 63.9997 442.066 63.8174 442.189C63.6351 442.308 63.4938 442.472 63.3936 442.682C63.2933 442.887 63.2227 443.121 63.1816 443.386C63.1452 443.646 63.127 443.919 63.127 444.206V444.404C63.127 444.691 63.1452 444.967 63.1816 445.231C63.2181 445.496 63.2865 445.73 63.3867 445.936C63.4915 446.141 63.6351 446.302 63.8174 446.421C63.9997 446.539 64.2367 446.599 64.5283 446.599ZM68.459 444.377V444.233C68.459 443.691 68.5365 443.192 68.6914 442.736C68.8464 442.276 69.0719 441.877 69.3682 441.54C69.6644 441.203 70.029 440.941 70.4619 440.754C70.8949 440.562 71.3916 440.467 71.9521 440.467C72.5127 440.467 73.0117 440.562 73.4492 440.754C73.8867 440.941 74.2536 441.203 74.5498 441.54C74.8506 441.877 75.0785 442.276 75.2334 442.736C75.3883 443.192 75.4658 443.691 75.4658 444.233V444.377C75.4658 444.915 75.3883 445.414 75.2334 445.874C75.0785 446.33 74.8506 446.729 74.5498 447.07C74.2536 447.408 73.889 447.67 73.4561 447.856C73.0231 448.043 72.5264 448.137 71.9658 448.137C71.4053 448.137 70.9062 448.043 70.4688 447.856C70.0358 447.67 69.6689 447.408 69.3682 447.07C69.0719 446.729 68.8464 446.33 68.6914 445.874C68.5365 445.414 68.459 444.915 68.459 444.377ZM70.4277 444.233V444.377C70.4277 444.687 70.4551 444.976 70.5098 445.245C70.5645 445.514 70.651 445.751 70.7695 445.956C70.8926 446.157 71.0521 446.314 71.248 446.428C71.444 446.542 71.6833 446.599 71.9658 446.599C72.2393 446.599 72.474 446.542 72.6699 446.428C72.8659 446.314 73.0231 446.157 73.1416 445.956C73.2601 445.751 73.3467 445.514 73.4014 445.245C73.4606 444.976 73.4902 444.687 73.4902 444.377V444.233C73.4902 443.933 73.4606 443.65 73.4014 443.386C73.3467 443.117 73.2578 442.88 73.1348 442.675C73.0163 442.465 72.859 442.301 72.6631 442.183C72.4671 442.064 72.2301 442.005 71.9521 442.005C71.6742 442.005 71.4372 442.064 71.2412 442.183C71.0498 442.301 70.8926 442.465 70.7695 442.675C70.651 442.88 70.5645 443.117 70.5098 443.386C70.4551 443.65 70.4277 443.933 70.4277 444.233ZM81.0508 446.229V440.604H83.0195V448H81.167L81.0508 446.229ZM81.2695 444.712L81.8506 444.698C81.8506 445.19 81.7936 445.648 81.6797 446.072C81.5658 446.492 81.3949 446.856 81.167 447.166C80.9391 447.471 80.652 447.711 80.3057 447.884C79.9593 448.052 79.5514 448.137 79.082 448.137C78.722 448.137 78.3893 448.087 78.084 447.986C77.7832 447.882 77.5234 447.72 77.3047 447.501C77.0905 447.278 76.9219 446.993 76.7988 446.646C76.6803 446.296 76.6211 445.874 76.6211 445.382V440.604H78.5898V445.396C78.5898 445.614 78.6149 445.799 78.665 445.949C78.7197 446.1 78.7949 446.223 78.8906 446.318C78.9863 446.414 79.098 446.482 79.2256 446.523C79.3577 446.564 79.5036 446.585 79.6631 446.585C80.0687 446.585 80.3877 446.503 80.6201 446.339C80.8571 446.175 81.0234 445.951 81.1191 445.669C81.2194 445.382 81.2695 445.063 81.2695 444.712ZM86.4512 442.183V448H84.4824V440.604H86.3281L86.4512 442.183ZM86.1641 444.042H85.6309C85.6309 443.495 85.7015 443.003 85.8428 442.565C85.984 442.123 86.1823 441.747 86.4375 441.438C86.6927 441.123 86.9958 440.884 87.3467 440.72C87.7021 440.551 88.0986 440.467 88.5361 440.467C88.8825 440.467 89.1992 440.517 89.4863 440.617C89.7734 440.717 90.0195 440.877 90.2246 441.096C90.4342 441.314 90.5938 441.604 90.7031 441.964C90.8171 442.324 90.874 442.764 90.874 443.283V448H88.8916V443.276C88.8916 442.948 88.846 442.693 88.7549 442.511C88.6637 442.328 88.5293 442.201 88.3516 442.128C88.1784 442.05 87.9642 442.012 87.709 442.012C87.4447 442.012 87.2145 442.064 87.0186 442.169C86.8271 442.274 86.6676 442.42 86.54 442.606C86.417 442.789 86.3236 443.003 86.2598 443.249C86.196 443.495 86.1641 443.759 86.1641 444.042ZM95.9941 440.604V441.998H91.6875V440.604H95.9941ZM92.7539 438.778H94.7227V445.771C94.7227 445.986 94.75 446.15 94.8047 446.264C94.8639 446.378 94.9505 446.457 95.0645 446.503C95.1784 446.544 95.3219 446.564 95.4951 446.564C95.6182 446.564 95.7275 446.56 95.8232 446.551C95.9235 446.537 96.0078 446.523 96.0762 446.51L96.083 447.959C95.9144 448.014 95.7321 448.057 95.5361 448.089C95.3402 448.121 95.1237 448.137 94.8867 448.137C94.4538 448.137 94.0755 448.066 93.752 447.925C93.4329 447.779 93.1868 447.547 93.0137 447.228C92.8405 446.909 92.7539 446.489 92.7539 445.97V438.778ZM108.825 438.047V448H106.774L102.775 441.328V448H100.725V438.047H102.775L106.781 444.726V438.047H108.825ZM114.479 446.332V443.037C114.479 442.8 114.44 442.597 114.362 442.429C114.285 442.256 114.164 442.121 114 442.025C113.84 441.93 113.633 441.882 113.378 441.882C113.159 441.882 112.97 441.921 112.811 441.998C112.651 442.071 112.528 442.178 112.441 442.319C112.355 442.456 112.312 442.618 112.312 442.805H110.343C110.343 442.49 110.416 442.192 110.562 441.909C110.707 441.627 110.919 441.378 111.197 441.164C111.475 440.945 111.806 440.774 112.188 440.651C112.576 440.528 113.009 440.467 113.487 440.467C114.062 440.467 114.572 440.562 115.019 440.754C115.465 440.945 115.816 441.232 116.071 441.615C116.331 441.998 116.461 442.477 116.461 443.051V446.216C116.461 446.621 116.486 446.954 116.536 447.214C116.586 447.469 116.659 447.692 116.755 447.884V448H114.766C114.67 447.799 114.597 447.549 114.547 447.248C114.501 446.943 114.479 446.637 114.479 446.332ZM114.738 443.495L114.752 444.609H113.651C113.392 444.609 113.166 444.639 112.975 444.698C112.783 444.757 112.626 444.842 112.503 444.951C112.38 445.056 112.289 445.179 112.229 445.32C112.175 445.462 112.147 445.617 112.147 445.785C112.147 445.954 112.186 446.106 112.264 446.243C112.341 446.375 112.453 446.48 112.599 446.558C112.744 446.631 112.915 446.667 113.111 446.667C113.408 446.667 113.665 446.608 113.884 446.489C114.103 446.371 114.271 446.225 114.39 446.052C114.513 445.879 114.576 445.715 114.581 445.56L115.101 446.394C115.028 446.58 114.927 446.774 114.8 446.975C114.677 447.175 114.52 447.364 114.328 447.542C114.137 447.715 113.907 447.859 113.638 447.973C113.369 448.082 113.05 448.137 112.681 448.137C112.211 448.137 111.785 448.043 111.402 447.856C111.024 447.665 110.723 447.403 110.5 447.07C110.281 446.733 110.172 446.35 110.172 445.922C110.172 445.535 110.245 445.19 110.391 444.89C110.536 444.589 110.751 444.336 111.033 444.131C111.32 443.921 111.678 443.764 112.106 443.659C112.535 443.55 113.032 443.495 113.597 443.495H114.738ZM119.947 442.135V448H117.972V440.604H119.824L119.947 442.135ZM119.674 444.042H119.127C119.127 443.527 119.188 443.053 119.312 442.62C119.439 442.183 119.624 441.804 119.865 441.485C120.111 441.162 120.414 440.911 120.774 440.733C121.134 440.556 121.551 440.467 122.025 440.467C122.354 440.467 122.654 440.517 122.928 440.617C123.201 440.713 123.436 440.866 123.632 441.075C123.832 441.28 123.987 441.549 124.097 441.882C124.206 442.21 124.261 442.604 124.261 443.064V448H122.292V443.283C122.292 442.946 122.246 442.686 122.155 442.504C122.064 442.322 121.934 442.194 121.766 442.121C121.602 442.048 121.403 442.012 121.171 442.012C120.916 442.012 120.692 442.064 120.501 442.169C120.314 442.274 120.159 442.42 120.036 442.606C119.913 442.789 119.822 443.003 119.763 443.249C119.703 443.495 119.674 443.759 119.674 444.042ZM124.076 443.816L123.372 443.905C123.372 443.422 123.431 442.973 123.55 442.559C123.673 442.144 123.853 441.779 124.09 441.465C124.331 441.15 124.63 440.907 124.985 440.733C125.341 440.556 125.751 440.467 126.216 440.467C126.571 440.467 126.895 440.519 127.187 440.624C127.478 440.724 127.727 440.886 127.932 441.109C128.141 441.328 128.301 441.615 128.41 441.971C128.524 442.326 128.581 442.761 128.581 443.276V448H126.605V443.276C126.605 442.935 126.56 442.675 126.469 442.497C126.382 442.315 126.255 442.189 126.086 442.121C125.922 442.048 125.726 442.012 125.498 442.012C125.261 442.012 125.054 442.06 124.876 442.155C124.698 442.246 124.55 442.374 124.432 442.538C124.313 442.702 124.224 442.894 124.165 443.112C124.106 443.326 124.076 443.561 124.076 443.816ZM133.51 448.137C132.936 448.137 132.421 448.046 131.965 447.863C131.509 447.676 131.122 447.419 130.803 447.091C130.488 446.763 130.247 446.382 130.078 445.949C129.91 445.512 129.825 445.047 129.825 444.555V444.281C129.825 443.721 129.905 443.208 130.064 442.743C130.224 442.278 130.452 441.875 130.748 441.533C131.049 441.191 131.413 440.929 131.842 440.747C132.27 440.56 132.753 440.467 133.291 440.467C133.815 440.467 134.28 440.553 134.686 440.727C135.091 440.9 135.431 441.146 135.704 441.465C135.982 441.784 136.192 442.167 136.333 442.613C136.474 443.055 136.545 443.548 136.545 444.09V444.91H130.666V443.598H134.61V443.447C134.61 443.174 134.56 442.93 134.46 442.716C134.364 442.497 134.218 442.324 134.022 442.196C133.826 442.069 133.576 442.005 133.271 442.005C133.011 442.005 132.787 442.062 132.601 442.176C132.414 442.29 132.261 442.449 132.143 442.654C132.029 442.859 131.942 443.101 131.883 443.379C131.828 443.652 131.801 443.953 131.801 444.281V444.555C131.801 444.851 131.842 445.124 131.924 445.375C132.01 445.626 132.131 445.842 132.286 446.024C132.446 446.207 132.637 446.348 132.86 446.448C133.088 446.549 133.346 446.599 133.633 446.599C133.988 446.599 134.319 446.53 134.624 446.394C134.934 446.252 135.201 446.04 135.424 445.758L136.381 446.797C136.226 447.02 136.014 447.234 135.745 447.439C135.481 447.645 135.162 447.813 134.788 447.945C134.414 448.073 133.988 448.137 133.51 448.137Z" fill="black"/>
<rect x="31" y="816" width="354" height="56" rx="20" fill="#256BF4"/>
<path d="M185.21 850.12C185.21 849.817 185.122 849.544 184.946 849.3C184.771 849.056 184.443 848.831 183.965 848.626C183.496 848.411 182.817 848.216 181.929 848.04C181.128 847.864 180.381 847.645 179.688 847.381C179.004 847.107 178.408 846.78 177.9 846.399C177.402 846.019 177.012 845.569 176.729 845.052C176.445 844.524 176.304 843.924 176.304 843.25C176.304 842.586 176.445 841.961 176.729 841.375C177.021 840.789 177.437 840.271 177.974 839.822C178.521 839.363 179.185 839.007 179.966 838.753C180.757 838.489 181.646 838.357 182.632 838.357C184.009 838.357 185.19 838.577 186.177 839.017C187.173 839.456 187.935 840.062 188.462 840.833C188.999 841.595 189.268 842.464 189.268 843.44H185.049C185.049 843.03 184.961 842.664 184.785 842.342C184.619 842.01 184.355 841.751 183.994 841.565C183.643 841.37 183.184 841.272 182.617 841.272C182.148 841.272 181.743 841.355 181.401 841.521C181.06 841.678 180.796 841.893 180.61 842.166C180.435 842.43 180.347 842.723 180.347 843.045C180.347 843.289 180.396 843.509 180.493 843.704C180.601 843.89 180.771 844.061 181.006 844.217C181.24 844.373 181.543 844.52 181.914 844.656C182.295 844.783 182.764 844.9 183.32 845.008C184.463 845.242 185.483 845.55 186.382 845.931C187.28 846.302 187.993 846.81 188.521 847.454C189.048 848.089 189.312 848.924 189.312 849.959C189.312 850.662 189.155 851.307 188.843 851.893C188.53 852.479 188.081 852.991 187.495 853.431C186.909 853.86 186.206 854.197 185.386 854.441C184.575 854.676 183.662 854.793 182.646 854.793C181.172 854.793 179.922 854.529 178.896 854.002C177.881 853.475 177.109 852.806 176.582 851.995C176.064 851.175 175.806 850.335 175.806 849.476H179.805C179.824 850.052 179.971 850.516 180.244 850.867C180.527 851.219 180.884 851.473 181.313 851.629C181.753 851.785 182.227 851.863 182.734 851.863C183.281 851.863 183.735 851.79 184.097 851.644C184.458 851.487 184.731 851.282 184.917 851.028C185.112 850.765 185.21 850.462 185.21 850.12ZM199.346 854.793C198.115 854.793 197.012 854.598 196.035 854.207C195.059 853.807 194.229 853.255 193.545 852.552C192.871 851.849 192.354 851.033 191.992 850.105C191.631 849.168 191.45 848.172 191.45 847.117V846.531C191.45 845.33 191.621 844.231 191.963 843.235C192.305 842.239 192.793 841.375 193.428 840.643C194.072 839.91 194.854 839.349 195.771 838.958C196.689 838.558 197.725 838.357 198.877 838.357C200 838.357 200.996 838.543 201.865 838.914C202.734 839.285 203.462 839.812 204.048 840.496C204.644 841.18 205.093 842 205.396 842.957C205.698 843.904 205.85 844.959 205.85 846.121V847.879H193.252V845.066H201.704V844.744C201.704 844.158 201.597 843.636 201.382 843.177C201.177 842.708 200.864 842.337 200.444 842.063C200.024 841.79 199.487 841.653 198.833 841.653C198.276 841.653 197.798 841.775 197.397 842.02C196.997 842.264 196.67 842.605 196.416 843.045C196.172 843.484 195.986 844.002 195.859 844.598C195.742 845.184 195.684 845.828 195.684 846.531V847.117C195.684 847.752 195.771 848.338 195.947 848.875C196.133 849.412 196.392 849.876 196.724 850.267C197.065 850.657 197.476 850.96 197.954 851.175C198.442 851.39 198.994 851.497 199.609 851.497C200.371 851.497 201.079 851.351 201.733 851.058C202.397 850.755 202.969 850.301 203.447 849.695L205.498 851.922C205.166 852.4 204.712 852.859 204.136 853.299C203.569 853.738 202.886 854.1 202.085 854.383C201.284 854.656 200.371 854.793 199.346 854.793ZM212.383 842.034V854.5H208.164V838.65H212.119L212.383 842.034ZM211.768 846.019H210.625C210.625 844.847 210.776 843.792 211.079 842.854C211.382 841.907 211.807 841.102 212.354 840.438C212.9 839.764 213.55 839.251 214.302 838.899C215.063 838.538 215.913 838.357 216.851 838.357C217.593 838.357 218.271 838.465 218.887 838.68C219.502 838.895 220.029 839.236 220.469 839.705C220.918 840.174 221.26 840.794 221.494 841.565C221.738 842.337 221.86 843.279 221.86 844.393V854.5H217.612V844.378C217.612 843.675 217.515 843.128 217.319 842.737C217.124 842.347 216.836 842.073 216.455 841.917C216.084 841.751 215.625 841.668 215.078 841.668C214.512 841.668 214.019 841.78 213.599 842.005C213.188 842.229 212.847 842.542 212.573 842.942C212.31 843.333 212.109 843.792 211.973 844.319C211.836 844.847 211.768 845.413 211.768 846.019ZM234.429 851.043V832H238.677V854.5H234.854L234.429 851.043ZM224.409 846.766V846.458C224.409 845.247 224.546 844.148 224.819 843.162C225.093 842.166 225.493 841.312 226.021 840.599C226.548 839.886 227.197 839.334 227.969 838.943C228.74 838.553 229.619 838.357 230.605 838.357C231.533 838.357 232.344 838.553 233.037 838.943C233.74 839.334 234.336 839.891 234.824 840.613C235.322 841.326 235.723 842.171 236.025 843.147C236.328 844.114 236.548 845.174 236.685 846.326V847C236.548 848.104 236.328 849.129 236.025 850.076C235.723 851.023 235.322 851.854 234.824 852.566C234.336 853.27 233.74 853.816 233.037 854.207C232.334 854.598 231.514 854.793 230.576 854.793C229.59 854.793 228.711 854.593 227.939 854.192C227.178 853.792 226.533 853.23 226.006 852.508C225.488 851.785 225.093 850.936 224.819 849.959C224.546 848.982 224.409 847.918 224.409 846.766ZM228.628 846.458V846.766C228.628 847.42 228.677 848.03 228.774 848.597C228.882 849.163 229.053 849.666 229.287 850.105C229.531 850.535 229.844 850.872 230.225 851.116C230.615 851.351 231.089 851.468 231.646 851.468C232.368 851.468 232.964 851.307 233.433 850.984C233.901 850.652 234.258 850.198 234.502 849.622C234.756 849.046 234.902 848.382 234.941 847.63V845.711C234.912 845.096 234.824 844.544 234.678 844.056C234.541 843.558 234.336 843.133 234.062 842.781C233.799 842.43 233.467 842.156 233.066 841.961C232.676 841.766 232.212 841.668 231.675 841.668C231.128 841.668 230.659 841.795 230.269 842.049C229.878 842.293 229.561 842.63 229.316 843.06C229.082 843.489 228.906 843.997 228.789 844.583C228.682 845.159 228.628 845.784 228.628 846.458Z" fill="#FFFCFC"/>
<path d="M143.525 106.51H148.781C148.676 108.232 148.201 109.762 147.357 111.098C146.525 112.434 145.359 113.477 143.859 114.227C142.371 114.977 140.578 115.352 138.48 115.352C136.84 115.352 135.369 115.07 134.068 114.508C132.768 113.934 131.654 113.113 130.729 112.047C129.814 110.98 129.117 109.691 128.637 108.18C128.156 106.668 127.916 104.975 127.916 103.1V101.324C127.916 99.4492 128.162 97.7559 128.654 96.2441C129.158 94.7207 129.873 93.4258 130.799 92.3594C131.736 91.293 132.855 90.4727 134.156 89.8984C135.457 89.3242 136.91 89.0371 138.516 89.0371C140.648 89.0371 142.447 89.4238 143.912 90.1973C145.389 90.9707 146.531 92.0371 147.34 93.3965C148.16 94.7559 148.652 96.3027 148.816 98.0371H143.543C143.484 97.0059 143.279 96.1328 142.928 95.418C142.576 94.6914 142.043 94.1465 141.328 93.7832C140.625 93.4082 139.688 93.2207 138.516 93.2207C137.637 93.2207 136.869 93.3848 136.213 93.7129C135.557 94.041 135.006 94.5391 134.561 95.207C134.115 95.875 133.781 96.7188 133.559 97.7383C133.348 98.7461 133.242 99.9297 133.242 101.289V103.1C133.242 104.424 133.342 105.59 133.541 106.598C133.74 107.594 134.045 108.438 134.455 109.129C134.877 109.809 135.416 110.324 136.072 110.676C136.74 111.016 137.543 111.186 138.48 111.186C139.582 111.186 140.49 111.01 141.205 110.658C141.92 110.307 142.465 109.785 142.84 109.094C143.227 108.402 143.455 107.541 143.525 106.51ZM162.193 110.711V102.238C162.193 101.629 162.094 101.107 161.895 100.674C161.695 100.229 161.385 99.8828 160.963 99.6367C160.553 99.3906 160.02 99.2676 159.363 99.2676C158.801 99.2676 158.314 99.3672 157.904 99.5664C157.494 99.7539 157.178 100.029 156.955 100.393C156.732 100.744 156.621 101.16 156.621 101.641H151.559C151.559 100.832 151.746 100.064 152.121 99.3379C152.496 98.6113 153.041 97.9727 153.756 97.4219C154.471 96.8594 155.32 96.4199 156.305 96.1035C157.301 95.7871 158.414 95.6289 159.645 95.6289C161.121 95.6289 162.434 95.875 163.582 96.3672C164.73 96.8594 165.633 97.5977 166.289 98.582C166.957 99.5664 167.291 100.797 167.291 102.273V110.412C167.291 111.455 167.355 112.311 167.484 112.979C167.613 113.635 167.801 114.209 168.047 114.701V115H162.932C162.686 114.484 162.498 113.84 162.369 113.066C162.252 112.281 162.193 111.496 162.193 110.711ZM162.861 103.416L162.896 106.281H160.066C159.398 106.281 158.818 106.357 158.326 106.51C157.834 106.662 157.43 106.879 157.113 107.16C156.797 107.43 156.562 107.746 156.41 108.109C156.27 108.473 156.199 108.871 156.199 109.305C156.199 109.738 156.299 110.131 156.498 110.482C156.697 110.822 156.984 111.092 157.359 111.291C157.734 111.479 158.174 111.572 158.678 111.572C159.439 111.572 160.102 111.42 160.664 111.115C161.227 110.811 161.66 110.436 161.965 109.99C162.281 109.545 162.445 109.123 162.457 108.725L163.793 110.869C163.605 111.35 163.348 111.848 163.02 112.363C162.703 112.879 162.299 113.365 161.807 113.822C161.314 114.268 160.723 114.637 160.031 114.93C159.34 115.211 158.52 115.352 157.57 115.352C156.363 115.352 155.268 115.111 154.283 114.631C153.311 114.139 152.537 113.465 151.963 112.609C151.4 111.742 151.119 110.758 151.119 109.656C151.119 108.66 151.307 107.775 151.682 107.002C152.057 106.229 152.607 105.578 153.334 105.051C154.072 104.512 154.992 104.107 156.094 103.838C157.195 103.557 158.473 103.416 159.926 103.416H162.861ZM181.477 109.744C181.477 109.381 181.371 109.053 181.16 108.76C180.949 108.467 180.557 108.197 179.982 107.951C179.42 107.693 178.605 107.459 177.539 107.248C176.578 107.037 175.682 106.773 174.85 106.457C174.029 106.129 173.314 105.736 172.705 105.279C172.107 104.822 171.639 104.283 171.299 103.662C170.959 103.029 170.789 102.309 170.789 101.5C170.789 100.703 170.959 99.9531 171.299 99.25C171.65 98.5469 172.148 97.9258 172.793 97.3867C173.449 96.8359 174.246 96.4082 175.184 96.1035C176.133 95.7871 177.199 95.6289 178.383 95.6289C180.035 95.6289 181.453 95.8926 182.637 96.4199C183.832 96.9473 184.746 97.6738 185.379 98.5996C186.023 99.5137 186.346 100.557 186.346 101.729H181.283C181.283 101.236 181.178 100.797 180.967 100.41C180.768 100.012 180.451 99.7012 180.018 99.4785C179.596 99.2441 179.045 99.127 178.365 99.127C177.803 99.127 177.316 99.2266 176.906 99.4258C176.496 99.6133 176.18 99.8711 175.957 100.199C175.746 100.516 175.641 100.867 175.641 101.254C175.641 101.547 175.699 101.811 175.816 102.045C175.945 102.268 176.15 102.473 176.432 102.66C176.713 102.848 177.076 103.023 177.521 103.188C177.979 103.34 178.541 103.48 179.209 103.609C180.58 103.891 181.805 104.26 182.883 104.717C183.961 105.162 184.816 105.771 185.449 106.545C186.082 107.307 186.398 108.309 186.398 109.551C186.398 110.395 186.211 111.168 185.836 111.871C185.461 112.574 184.922 113.189 184.219 113.717C183.516 114.232 182.672 114.637 181.688 114.93C180.715 115.211 179.619 115.352 178.4 115.352C176.631 115.352 175.131 115.035 173.9 114.402C172.682 113.77 171.756 112.967 171.123 111.994C170.502 111.01 170.191 110.002 170.191 108.971H174.99C175.014 109.662 175.189 110.219 175.518 110.641C175.857 111.062 176.285 111.367 176.801 111.555C177.328 111.742 177.896 111.836 178.506 111.836C179.162 111.836 179.707 111.748 180.141 111.572C180.574 111.385 180.902 111.139 181.125 110.834C181.359 110.518 181.477 110.154 181.477 109.744ZM194.625 88V115H189.562V88H194.625ZM193.904 104.822H192.516C192.527 103.498 192.703 102.279 193.043 101.166C193.383 100.041 193.869 99.0684 194.502 98.248C195.135 97.416 195.891 96.7715 196.77 96.3145C197.66 95.8574 198.645 95.6289 199.723 95.6289C200.66 95.6289 201.51 95.7637 202.271 96.0332C203.045 96.291 203.707 96.7129 204.258 97.2988C204.82 97.873 205.254 98.6289 205.559 99.5664C205.863 100.504 206.016 101.641 206.016 102.977V115H200.918V102.941C200.918 102.098 200.795 101.436 200.549 100.955C200.314 100.463 199.969 100.117 199.512 99.918C199.066 99.707 198.516 99.6016 197.859 99.6016C197.133 99.6016 196.512 99.7363 195.996 100.006C195.492 100.275 195.088 100.65 194.783 101.131C194.479 101.6 194.256 102.15 194.115 102.783C193.975 103.416 193.904 104.096 193.904 104.822ZM209.057 105.684V105.314C209.057 103.92 209.256 102.637 209.654 101.465C210.053 100.281 210.633 99.2559 211.395 98.3887C212.156 97.5215 213.094 96.8477 214.207 96.3672C215.32 95.875 216.598 95.6289 218.039 95.6289C219.48 95.6289 220.764 95.875 221.889 96.3672C223.014 96.8477 223.957 97.5215 224.719 98.3887C225.492 99.2559 226.078 100.281 226.477 101.465C226.875 102.637 227.074 103.92 227.074 105.314V105.684C227.074 107.066 226.875 108.35 226.477 109.533C226.078 110.705 225.492 111.73 224.719 112.609C223.957 113.477 223.02 114.15 221.906 114.631C220.793 115.111 219.516 115.352 218.074 115.352C216.633 115.352 215.35 115.111 214.225 114.631C213.111 114.15 212.168 113.477 211.395 112.609C210.633 111.73 210.053 110.705 209.654 109.533C209.256 108.35 209.057 107.066 209.057 105.684ZM214.119 105.314V105.684C214.119 106.48 214.189 107.225 214.33 107.916C214.471 108.607 214.693 109.217 214.998 109.744C215.314 110.26 215.725 110.664 216.229 110.957C216.732 111.25 217.348 111.396 218.074 111.396C218.777 111.396 219.381 111.25 219.885 110.957C220.389 110.664 220.793 110.26 221.098 109.744C221.402 109.217 221.625 108.607 221.766 107.916C221.918 107.225 221.994 106.48 221.994 105.684V105.314C221.994 104.541 221.918 103.814 221.766 103.135C221.625 102.443 221.396 101.834 221.08 101.307C220.775 100.768 220.371 100.346 219.867 100.041C219.363 99.7363 218.754 99.584 218.039 99.584C217.324 99.584 216.715 99.7363 216.211 100.041C215.719 100.346 215.314 100.768 214.998 101.307C214.693 101.834 214.471 102.443 214.33 103.135C214.189 103.814 214.119 104.541 214.119 105.314ZM241.436 110.447V95.9805H246.498V115H241.734L241.436 110.447ZM241.998 106.545L243.492 106.51C243.492 107.775 243.346 108.953 243.053 110.043C242.76 111.121 242.32 112.059 241.734 112.855C241.148 113.641 240.41 114.256 239.52 114.701C238.629 115.135 237.58 115.352 236.373 115.352C235.447 115.352 234.592 115.223 233.807 114.965C233.033 114.695 232.365 114.279 231.803 113.717C231.252 113.143 230.818 112.41 230.502 111.52C230.197 110.617 230.045 109.533 230.045 108.268V95.9805H235.107V108.303C235.107 108.865 235.172 109.34 235.301 109.727C235.441 110.113 235.635 110.43 235.881 110.676C236.127 110.922 236.414 111.098 236.742 111.203C237.082 111.309 237.457 111.361 237.867 111.361C238.91 111.361 239.73 111.15 240.328 110.729C240.938 110.307 241.365 109.732 241.611 109.006C241.869 108.268 241.998 107.447 241.998 106.545ZM259.682 95.9805V99.5664H248.607V95.9805H259.682ZM251.35 91.2871H256.412V109.27C256.412 109.82 256.482 110.242 256.623 110.535C256.775 110.828 256.998 111.033 257.291 111.15C257.584 111.256 257.953 111.309 258.398 111.309C258.715 111.309 258.996 111.297 259.242 111.273C259.5 111.238 259.717 111.203 259.893 111.168L259.91 114.895C259.477 115.035 259.008 115.146 258.504 115.229C258 115.311 257.443 115.352 256.834 115.352C255.721 115.352 254.748 115.17 253.916 114.807C253.096 114.432 252.463 113.834 252.018 113.014C251.572 112.193 251.35 111.115 251.35 109.779V91.2871Z" fill="black"/>
<defs>
<filter id="filter0_d_28_492" x="12" y="24" width="32.2188" height="32.2188" filterUnits="userSpaceOnUse" color-interpolation-filters="sRGB">
<feFlood flood-opacity="0" result="BackgroundImageFix"/>
<feColorMatrix in="SourceAlpha" type="matrix" values="0 0 0 0 0 0 0 0 0 0 0 0 0 0 0 0 0 0 127 0" result="hardAlpha"/>
<feOffset dy="4"/>
<feGaussianBlur stdDeviation="2"/>
<feComposite in2="hardAlpha" operator="out"/>
<feColorMatrix type="matrix" values="0 0 0 0 0 0 0 0 0 0 0 0 0 0 0 0 0 0 0.25 0"/>
<feBlend mode="normal" in2="BackgroundImageFix" result="effect1_dropShadow_28_492"/>
<feBlend mode="normal" in="SourceGraphic" in2="effect1_dropShadow_28_492" result="shape"/>
</filter>
<linearGradient id="paint0_linear_28_492" x1="28.1094" y1="24" x2="28.1094" y2="48.2188" gradientUnits="userSpaceOnUse">
<stop stop-color="#00FFD1"/>
<stop offset="1" stop-color="#38A6BE" stop-opacity="0.84"/>
</linearGradient>
<radialGradient id="paint1_diamond_28_492" cx="0" cy="0" r="1" gradientUnits="userSpaceOnUse" gradientTransform="translate(371.5 210.68) rotate(112.841) scale(761.245 479.702)">
<stop stop-color="#77D7AE" stop-opacity="0.17"/>
<stop offset="1" stop-color="#A7EBF4" stop-opacity="0.73"/>
<stop offset="1" stop-color="#A7EBF4" stop-opacity="0.2"/>
</radialGradient>
</defs>
</svg>
