<svg width="414" height="896" viewBox="0 0 414 896" fill="none" xmlns="http://www.w3.org/2000/svg">
<rect width="414" height="896" rx="20" fill="#EEF9FA"/>
<rect x="30" y="779" width="354" height="56" rx="20" fill="#256BF4"/>
<path d="M176.595 813.047L181.619 796.172H186.512L179.085 817.5H175.862L176.595 813.047ZM171.966 796.172L176.976 813.047L177.737 817.5H174.485L167.103 796.172H171.966ZM194.891 817.793C193.66 817.793 192.557 817.598 191.58 817.207C190.604 816.807 189.773 816.255 189.09 815.552C188.416 814.849 187.898 814.033 187.537 813.105C187.176 812.168 186.995 811.172 186.995 810.117V809.531C186.995 808.33 187.166 807.231 187.508 806.235C187.85 805.239 188.338 804.375 188.973 803.643C189.617 802.91 190.398 802.349 191.316 801.958C192.234 801.558 193.27 801.357 194.422 801.357C195.545 801.357 196.541 801.543 197.41 801.914C198.279 802.285 199.007 802.812 199.593 803.496C200.188 804.18 200.638 805 200.94 805.957C201.243 806.904 201.395 807.959 201.395 809.121V810.879H188.797V808.066H197.249V807.744C197.249 807.158 197.142 806.636 196.927 806.177C196.722 805.708 196.409 805.337 195.989 805.063C195.569 804.79 195.032 804.653 194.378 804.653C193.821 804.653 193.343 804.775 192.942 805.02C192.542 805.264 192.215 805.605 191.961 806.045C191.717 806.484 191.531 807.002 191.404 807.598C191.287 808.184 191.229 808.828 191.229 809.531V810.117C191.229 810.752 191.316 811.338 191.492 811.875C191.678 812.412 191.937 812.876 192.269 813.267C192.61 813.657 193.021 813.96 193.499 814.175C193.987 814.39 194.539 814.497 195.154 814.497C195.916 814.497 196.624 814.351 197.278 814.058C197.942 813.755 198.514 813.301 198.992 812.695L201.043 814.922C200.711 815.4 200.257 815.859 199.681 816.299C199.114 816.738 198.431 817.1 197.63 817.383C196.829 817.656 195.916 817.793 194.891 817.793ZM208.016 805.107V817.5H203.797V801.65H207.767L208.016 805.107ZM212.791 801.548L212.718 805.459C212.513 805.43 212.264 805.405 211.971 805.386C211.688 805.356 211.429 805.342 211.194 805.342C210.599 805.342 210.081 805.42 209.642 805.576C209.212 805.723 208.851 805.942 208.558 806.235C208.274 806.528 208.06 806.885 207.913 807.305C207.776 807.725 207.698 808.203 207.679 808.74L206.829 808.477C206.829 807.451 206.932 806.509 207.137 805.649C207.342 804.78 207.64 804.023 208.03 803.379C208.431 802.734 208.919 802.236 209.495 801.885C210.071 801.533 210.73 801.357 211.473 801.357C211.707 801.357 211.946 801.377 212.19 801.416C212.435 801.445 212.635 801.489 212.791 801.548ZM219.236 801.65V817.5H215.003V801.65H219.236ZM214.739 797.52C214.739 796.904 214.954 796.396 215.384 795.996C215.813 795.596 216.39 795.396 217.112 795.396C217.825 795.396 218.396 795.596 218.826 795.996C219.266 796.396 219.485 796.904 219.485 797.52C219.485 798.135 219.266 798.643 218.826 799.043C218.396 799.443 217.825 799.644 217.112 799.644C216.39 799.644 215.813 799.443 215.384 799.043C214.954 798.643 214.739 798.135 214.739 797.52ZM228.099 817.5H223.851V800.244C223.851 799.043 224.085 798.032 224.554 797.212C225.032 796.382 225.701 795.757 226.561 795.337C227.43 794.907 228.46 794.692 229.651 794.692C230.042 794.692 230.418 794.722 230.779 794.78C231.141 794.829 231.492 794.893 231.834 794.971L231.79 798.149C231.604 798.101 231.409 798.066 231.204 798.047C230.999 798.027 230.76 798.018 230.486 798.018C229.979 798.018 229.544 798.105 229.183 798.281C228.831 798.447 228.562 798.696 228.377 799.028C228.191 799.36 228.099 799.766 228.099 800.244V817.5ZM231.263 801.65V804.639H221.492V801.65H231.263ZM238.177 815.713L242.381 801.65H246.907L240.535 819.888C240.398 820.288 240.213 820.718 239.979 821.177C239.754 821.636 239.446 822.07 239.056 822.48C238.675 822.9 238.191 823.242 237.605 823.506C237.029 823.77 236.321 823.901 235.481 823.901C235.081 823.901 234.754 823.877 234.5 823.828C234.246 823.779 233.943 823.711 233.592 823.623V820.532C233.699 820.532 233.812 820.532 233.929 820.532C234.046 820.542 234.158 820.547 234.266 820.547C234.822 820.547 235.276 820.483 235.628 820.356C235.979 820.229 236.263 820.034 236.478 819.771C236.692 819.517 236.863 819.185 236.99 818.774L238.177 815.713ZM236.419 801.65L239.861 813.135L240.462 817.603L237.591 817.91L231.893 801.65H236.419Z" fill="#FFFCFC"/>
<rect x="16" y="338" width="381" height="63" rx="29" fill="#B5B5B5" fill-opacity="0.4" stroke="#787878" stroke-width="2"/>
<line x1="85.5" y1="344" x2="85.5" y2="393" stroke="black"/>
<path d="M126.661 370.137V373.389C126.661 375.137 126.505 376.611 126.192 377.812C125.88 379.014 125.431 379.98 124.845 380.713C124.259 381.445 123.551 381.978 122.721 382.31C121.9 382.632 120.973 382.793 119.938 382.793C119.117 382.793 118.36 382.69 117.667 382.485C116.974 382.28 116.349 381.953 115.792 381.504C115.245 381.045 114.776 380.449 114.386 379.717C113.995 378.984 113.697 378.096 113.492 377.051C113.287 376.006 113.185 374.785 113.185 373.389V370.137C113.185 368.389 113.341 366.924 113.653 365.742C113.976 364.561 114.43 363.613 115.016 362.9C115.602 362.178 116.305 361.66 117.125 361.348C117.955 361.035 118.883 360.879 119.908 360.879C120.738 360.879 121.5 360.981 122.193 361.187C122.896 361.382 123.521 361.699 124.068 362.139C124.615 362.568 125.079 363.145 125.46 363.867C125.851 364.58 126.148 365.454 126.354 366.489C126.559 367.524 126.661 368.74 126.661 370.137ZM123.937 373.828V369.683C123.937 368.726 123.878 367.886 123.761 367.163C123.653 366.431 123.492 365.806 123.277 365.288C123.062 364.771 122.789 364.351 122.457 364.028C122.135 363.706 121.759 363.472 121.329 363.325C120.909 363.169 120.436 363.091 119.908 363.091C119.264 363.091 118.692 363.213 118.194 363.457C117.696 363.691 117.276 364.067 116.935 364.585C116.603 365.103 116.349 365.781 116.173 366.621C115.997 367.461 115.909 368.481 115.909 369.683V373.828C115.909 374.785 115.963 375.63 116.07 376.362C116.188 377.095 116.358 377.729 116.583 378.267C116.808 378.794 117.081 379.229 117.403 379.57C117.726 379.912 118.097 380.166 118.517 380.332C118.946 380.488 119.42 380.566 119.938 380.566C120.602 380.566 121.183 380.439 121.681 380.186C122.179 379.932 122.594 379.536 122.926 378.999C123.268 378.452 123.521 377.754 123.688 376.904C123.854 376.045 123.937 375.02 123.937 373.828ZM143.595 376.729C143.595 378.027 143.292 379.131 142.687 380.039C142.091 380.938 141.28 381.621 140.255 382.09C139.239 382.559 138.092 382.793 136.812 382.793C135.533 382.793 134.381 382.559 133.355 382.09C132.33 381.621 131.52 380.938 130.924 380.039C130.328 379.131 130.03 378.027 130.03 376.729C130.03 375.879 130.191 375.103 130.514 374.399C130.846 373.687 131.31 373.066 131.905 372.539C132.511 372.012 133.224 371.606 134.044 371.323C134.874 371.03 135.787 370.884 136.783 370.884C138.092 370.884 139.259 371.138 140.284 371.646C141.31 372.144 142.115 372.832 142.701 373.711C143.297 374.59 143.595 375.596 143.595 376.729ZM140.87 376.67C140.87 375.879 140.699 375.181 140.357 374.575C140.016 373.96 139.537 373.481 138.922 373.14C138.307 372.798 137.594 372.627 136.783 372.627C135.953 372.627 135.235 372.798 134.63 373.14C134.034 373.481 133.57 373.96 133.238 374.575C132.906 375.181 132.74 375.879 132.74 376.67C132.74 377.49 132.901 378.193 133.224 378.779C133.556 379.355 134.024 379.8 134.63 380.112C135.245 380.415 135.973 380.566 136.812 380.566C137.652 380.566 138.375 380.415 138.98 380.112C139.586 379.8 140.05 379.355 140.372 378.779C140.704 378.193 140.87 377.49 140.87 376.67ZM143.097 366.724C143.097 367.759 142.823 368.691 142.276 369.521C141.729 370.352 140.982 371.006 140.035 371.484C139.088 371.963 138.014 372.202 136.812 372.202C135.592 372.202 134.503 371.963 133.546 371.484C132.599 371.006 131.856 370.352 131.319 369.521C130.782 368.691 130.514 367.759 130.514 366.724C130.514 365.483 130.782 364.429 131.319 363.56C131.866 362.69 132.613 362.026 133.561 361.567C134.508 361.108 135.587 360.879 136.798 360.879C138.019 360.879 139.103 361.108 140.05 361.567C140.997 362.026 141.739 362.69 142.276 363.56C142.823 364.429 143.097 365.483 143.097 366.724ZM140.387 366.768C140.387 366.055 140.235 365.425 139.933 364.878C139.63 364.331 139.21 363.901 138.673 363.589C138.136 363.267 137.511 363.105 136.798 363.105C136.085 363.105 135.46 363.257 134.923 363.56C134.396 363.853 133.98 364.272 133.678 364.819C133.385 365.366 133.238 366.016 133.238 366.768C133.238 367.5 133.385 368.14 133.678 368.687C133.98 369.233 134.4 369.658 134.938 369.961C135.475 370.264 136.1 370.415 136.812 370.415C137.525 370.415 138.146 370.264 138.673 369.961C139.21 369.658 139.63 369.233 139.933 368.687C140.235 368.14 140.387 367.5 140.387 366.768ZM155.929 361.055V382.5H153.219V364.438L147.755 366.431V363.984L155.504 361.055H155.929ZM174.298 361.143H174.532V363.442H174.298C172.862 363.442 171.661 363.677 170.694 364.146C169.728 364.604 168.961 365.225 168.395 366.006C167.828 366.777 167.418 367.646 167.164 368.613C166.92 369.58 166.798 370.562 166.798 371.558V374.692C166.798 375.64 166.91 376.479 167.135 377.212C167.359 377.935 167.667 378.545 168.058 379.043C168.448 379.541 168.888 379.917 169.376 380.171C169.874 380.425 170.392 380.552 170.929 380.552C171.554 380.552 172.11 380.435 172.599 380.2C173.087 379.956 173.497 379.619 173.829 379.189C174.171 378.75 174.43 378.232 174.605 377.637C174.781 377.041 174.869 376.387 174.869 375.674C174.869 375.039 174.791 374.429 174.635 373.843C174.479 373.247 174.239 372.72 173.917 372.261C173.595 371.792 173.189 371.426 172.701 371.162C172.223 370.889 171.651 370.752 170.987 370.752C170.235 370.752 169.532 370.938 168.878 371.309C168.233 371.67 167.701 372.148 167.281 372.744C166.871 373.33 166.637 373.97 166.578 374.663L165.143 374.648C165.279 373.555 165.533 372.622 165.904 371.851C166.285 371.069 166.754 370.435 167.311 369.946C167.877 369.448 168.507 369.087 169.2 368.862C169.903 368.628 170.646 368.511 171.427 368.511C172.491 368.511 173.409 368.711 174.181 369.111C174.952 369.512 175.587 370.049 176.085 370.723C176.583 371.387 176.949 372.139 177.184 372.979C177.428 373.809 177.55 374.663 177.55 375.542C177.55 376.548 177.408 377.49 177.125 378.369C176.842 379.248 176.417 380.02 175.851 380.684C175.294 381.348 174.605 381.865 173.785 382.236C172.965 382.607 172.013 382.793 170.929 382.793C169.776 382.793 168.771 382.559 167.911 382.09C167.052 381.611 166.339 380.977 165.772 380.186C165.206 379.395 164.781 378.516 164.498 377.549C164.215 376.582 164.073 375.601 164.073 374.604V373.33C164.073 371.826 164.225 370.352 164.527 368.906C164.83 367.461 165.353 366.152 166.095 364.98C166.847 363.809 167.887 362.876 169.215 362.183C170.543 361.489 172.237 361.143 174.298 361.143ZM192.169 370.503H194.103C195.05 370.503 195.831 370.347 196.446 370.034C197.071 369.712 197.535 369.277 197.838 368.73C198.15 368.174 198.307 367.549 198.307 366.855C198.307 366.035 198.17 365.347 197.896 364.79C197.623 364.233 197.213 363.813 196.666 363.53C196.119 363.247 195.426 363.105 194.586 363.105C193.824 363.105 193.15 363.257 192.564 363.56C191.988 363.853 191.534 364.272 191.202 364.819C190.88 365.366 190.719 366.011 190.719 366.753H188.009C188.009 365.669 188.282 364.683 188.829 363.794C189.376 362.905 190.143 362.197 191.129 361.67C192.125 361.143 193.277 360.879 194.586 360.879C195.875 360.879 197.003 361.108 197.97 361.567C198.937 362.017 199.688 362.69 200.226 363.589C200.763 364.478 201.031 365.586 201.031 366.914C201.031 367.451 200.904 368.027 200.65 368.643C200.406 369.248 200.021 369.814 199.493 370.342C198.976 370.869 198.302 371.304 197.472 371.646C196.642 371.978 195.646 372.144 194.483 372.144H192.169V370.503ZM192.169 372.729V371.104H194.483C195.841 371.104 196.964 371.265 197.853 371.587C198.741 371.909 199.439 372.339 199.947 372.876C200.465 373.413 200.826 374.004 201.031 374.648C201.246 375.283 201.354 375.918 201.354 376.553C201.354 377.549 201.183 378.433 200.841 379.204C200.509 379.976 200.035 380.63 199.42 381.167C198.814 381.704 198.102 382.109 197.281 382.383C196.461 382.656 195.567 382.793 194.601 382.793C193.673 382.793 192.799 382.661 191.979 382.397C191.168 382.134 190.45 381.753 189.825 381.255C189.2 380.747 188.712 380.127 188.36 379.395C188.009 378.652 187.833 377.808 187.833 376.86H190.543C190.543 377.603 190.704 378.252 191.026 378.809C191.358 379.365 191.827 379.8 192.433 380.112C193.048 380.415 193.771 380.566 194.601 380.566C195.431 380.566 196.144 380.425 196.739 380.142C197.345 379.849 197.809 379.409 198.131 378.823C198.463 378.237 198.629 377.5 198.629 376.611C198.629 375.723 198.443 374.995 198.072 374.429C197.701 373.853 197.174 373.428 196.49 373.154C195.816 372.871 195.021 372.729 194.103 372.729H192.169ZM209.044 370.503H210.978C211.925 370.503 212.706 370.347 213.321 370.034C213.946 369.712 214.41 369.277 214.713 368.73C215.025 368.174 215.182 367.549 215.182 366.855C215.182 366.035 215.045 365.347 214.771 364.79C214.498 364.233 214.088 363.813 213.541 363.53C212.994 363.247 212.301 363.105 211.461 363.105C210.699 363.105 210.025 363.257 209.439 363.56C208.863 363.853 208.409 364.272 208.077 364.819C207.755 365.366 207.594 366.011 207.594 366.753H204.884C204.884 365.669 205.157 364.683 205.704 363.794C206.251 362.905 207.018 362.197 208.004 361.67C209 361.143 210.152 360.879 211.461 360.879C212.75 360.879 213.878 361.108 214.845 361.567C215.812 362.017 216.563 362.69 217.101 363.589C217.638 364.478 217.906 365.586 217.906 366.914C217.906 367.451 217.779 368.027 217.525 368.643C217.281 369.248 216.896 369.814 216.368 370.342C215.851 370.869 215.177 371.304 214.347 371.646C213.517 371.978 212.521 372.144 211.358 372.144H209.044V370.503ZM209.044 372.729V371.104H211.358C212.716 371.104 213.839 371.265 214.728 371.587C215.616 371.909 216.314 372.339 216.822 372.876C217.34 373.413 217.701 374.004 217.906 374.648C218.121 375.283 218.229 375.918 218.229 376.553C218.229 377.549 218.058 378.433 217.716 379.204C217.384 379.976 216.91 380.63 216.295 381.167C215.689 381.704 214.977 382.109 214.156 382.383C213.336 382.656 212.442 382.793 211.476 382.793C210.548 382.793 209.674 382.661 208.854 382.397C208.043 382.134 207.325 381.753 206.7 381.255C206.075 380.747 205.587 380.127 205.235 379.395C204.884 378.652 204.708 377.808 204.708 376.86H207.418C207.418 377.603 207.579 378.252 207.901 378.809C208.233 379.365 208.702 379.8 209.308 380.112C209.923 380.415 210.646 380.566 211.476 380.566C212.306 380.566 213.019 380.425 213.614 380.142C214.22 379.849 214.684 379.409 215.006 378.823C215.338 378.237 215.504 377.5 215.504 376.611C215.504 375.723 215.318 374.995 214.947 374.429C214.576 373.853 214.049 373.428 213.365 373.154C212.691 372.871 211.896 372.729 210.978 372.729H209.044ZM235.353 370.137V373.389C235.353 375.137 235.196 376.611 234.884 377.812C234.571 379.014 234.122 379.98 233.536 380.713C232.95 381.445 232.242 381.978 231.412 382.31C230.592 382.632 229.664 382.793 228.629 382.793C227.809 382.793 227.052 382.69 226.358 382.485C225.665 382.28 225.04 381.953 224.483 381.504C223.937 381.045 223.468 380.449 223.077 379.717C222.687 378.984 222.389 378.096 222.184 377.051C221.979 376.006 221.876 374.785 221.876 373.389V370.137C221.876 368.389 222.032 366.924 222.345 365.742C222.667 364.561 223.121 363.613 223.707 362.9C224.293 362.178 224.996 361.66 225.816 361.348C226.646 361.035 227.574 360.879 228.6 360.879C229.43 360.879 230.191 360.981 230.885 361.187C231.588 361.382 232.213 361.699 232.76 362.139C233.307 362.568 233.771 363.145 234.151 363.867C234.542 364.58 234.84 365.454 235.045 366.489C235.25 367.524 235.353 368.74 235.353 370.137ZM232.628 373.828V369.683C232.628 368.726 232.569 367.886 232.452 367.163C232.345 366.431 232.184 365.806 231.969 365.288C231.754 364.771 231.48 364.351 231.148 364.028C230.826 363.706 230.45 363.472 230.021 363.325C229.601 363.169 229.127 363.091 228.6 363.091C227.955 363.091 227.384 363.213 226.886 363.457C226.388 363.691 225.968 364.067 225.626 364.585C225.294 365.103 225.04 365.781 224.864 366.621C224.688 367.461 224.601 368.481 224.601 369.683V373.828C224.601 374.785 224.654 375.63 224.762 376.362C224.879 377.095 225.05 377.729 225.274 378.267C225.499 378.794 225.772 379.229 226.095 379.57C226.417 379.912 226.788 380.166 227.208 380.332C227.638 380.488 228.111 380.566 228.629 380.566C229.293 380.566 229.874 380.439 230.372 380.186C230.87 379.932 231.285 379.536 231.617 378.999C231.959 378.452 232.213 377.754 232.379 376.904C232.545 376.045 232.628 375.02 232.628 373.828ZM248.814 361.172L253.941 369.346L259.068 361.172H262.364L255.626 371.733L262.525 382.5H259.2L253.941 374.165L248.683 382.5H245.357L252.257 371.733L245.519 361.172H248.814ZM267.623 361.172L272.75 369.346L277.877 361.172H281.173L274.435 371.733L281.334 382.5H278.009L272.75 374.165L267.491 382.5H264.166L271.065 371.733L264.327 361.172H267.623ZM286.432 361.172L291.559 369.346L296.686 361.172H299.981L293.243 371.733L300.143 382.5H296.817L291.559 374.165L286.3 382.5H282.975L289.874 371.733L283.136 361.172H286.432ZM305.24 361.172L310.367 369.346L315.494 361.172H318.79L312.052 371.733L318.951 382.5H315.626L310.367 374.165L305.108 382.5H301.783L308.683 371.733L301.944 361.172H305.24Z" fill="#A6ADA6"/>
<rect x="42" y="354" width="11" height="28" fill="#156518"/>
<rect x="53" y="354" width="11" height="28" fill="white"/>
<rect x="64" y="354" width="11" height="28" fill="#156518"/>
<circle cx="360" cy="370" r="8" fill="#C4C4C4"/>
<path d="M36.6211 216.43V221H21.4844V216.43H36.6211ZM23.3984 192.562V221H17.5391V192.562H23.3984ZM34.6484 204.145V208.598H21.4844V204.145H34.6484ZM36.6016 192.562V197.152H21.4844V192.562H36.6016ZM49.1953 204.379V221H43.5703V199.867H48.8438L49.1953 204.379ZM48.375 209.691H46.8516C46.8516 208.129 47.0534 206.723 47.457 205.473C47.8607 204.21 48.4271 203.135 49.1562 202.25C49.8854 201.352 50.7513 200.668 51.7539 200.199C52.7695 199.717 53.9023 199.477 55.1523 199.477C56.1419 199.477 57.0469 199.62 57.8672 199.906C58.6875 200.193 59.3906 200.648 59.9766 201.273C60.5755 201.898 61.0312 202.725 61.3438 203.754C61.6693 204.783 61.832 206.039 61.832 207.523V221H56.168V207.504C56.168 206.566 56.0378 205.837 55.7773 205.316C55.5169 204.796 55.1328 204.431 54.625 204.223C54.1302 204.001 53.5182 203.891 52.7891 203.891C52.0339 203.891 51.3763 204.04 50.8164 204.34C50.2695 204.639 49.8138 205.056 49.4492 205.59C49.0977 206.111 48.8307 206.723 48.6484 207.426C48.4661 208.129 48.375 208.884 48.375 209.691ZM80.4609 199.867V203.852H68.1562V199.867H80.4609ZM71.2031 194.652H76.8281V214.633C76.8281 215.245 76.9062 215.714 77.0625 216.039C77.2318 216.365 77.4792 216.592 77.8047 216.723C78.1302 216.84 78.5404 216.898 79.0352 216.898C79.3867 216.898 79.6992 216.885 79.9727 216.859C80.2591 216.82 80.5 216.781 80.6953 216.742L80.7148 220.883C80.2331 221.039 79.7122 221.163 79.1523 221.254C78.5924 221.345 77.974 221.391 77.2969 221.391C76.0599 221.391 74.9792 221.189 74.0547 220.785C73.1432 220.368 72.4401 219.704 71.9453 218.793C71.4505 217.882 71.2031 216.684 71.2031 215.199V194.652ZM97.3906 221.391C95.75 221.391 94.2786 221.13 92.9766 220.609C91.6745 220.076 90.5677 219.34 89.6562 218.402C88.7578 217.465 88.0677 216.378 87.5859 215.141C87.1042 213.891 86.8633 212.562 86.8633 211.156V210.375C86.8633 208.773 87.0911 207.309 87.5469 205.98C88.0026 204.652 88.6536 203.5 89.5 202.523C90.3594 201.547 91.401 200.798 92.625 200.277C93.849 199.743 95.2292 199.477 96.7656 199.477C98.263 199.477 99.5911 199.724 100.75 200.219C101.909 200.714 102.879 201.417 103.66 202.328C104.454 203.24 105.053 204.333 105.457 205.609C105.861 206.872 106.062 208.279 106.062 209.828V212.172H89.2656V208.422H100.535V207.992C100.535 207.211 100.392 206.514 100.105 205.902C99.832 205.277 99.4154 204.783 98.8555 204.418C98.2956 204.053 97.5794 203.871 96.707 203.871C95.9648 203.871 95.3268 204.034 94.793 204.359C94.2591 204.685 93.8229 205.141 93.4844 205.727C93.1589 206.312 92.9115 207.003 92.7422 207.797C92.5859 208.578 92.5078 209.438 92.5078 210.375V211.156C92.5078 212.003 92.625 212.784 92.8594 213.5C93.1068 214.216 93.4518 214.835 93.8945 215.355C94.3503 215.876 94.8971 216.28 95.5352 216.566C96.1862 216.853 96.9219 216.996 97.7422 216.996C98.7578 216.996 99.7018 216.801 100.574 216.41C101.46 216.007 102.221 215.401 102.859 214.594L105.594 217.562C105.151 218.201 104.546 218.812 103.777 219.398C103.022 219.984 102.111 220.466 101.043 220.844C99.9753 221.208 98.7578 221.391 97.3906 221.391ZM118.891 204.477V221H113.266V199.867H118.559L118.891 204.477ZM125.258 199.73L125.16 204.945C124.887 204.906 124.555 204.874 124.164 204.848C123.786 204.809 123.441 204.789 123.129 204.789C122.335 204.789 121.645 204.893 121.059 205.102C120.486 205.297 120.004 205.59 119.613 205.98C119.236 206.371 118.949 206.846 118.754 207.406C118.572 207.966 118.467 208.604 118.441 209.32L117.309 208.969C117.309 207.602 117.445 206.345 117.719 205.199C117.992 204.04 118.389 203.031 118.91 202.172C119.444 201.312 120.095 200.648 120.863 200.18C121.632 199.711 122.51 199.477 123.5 199.477C123.812 199.477 124.132 199.503 124.457 199.555C124.783 199.594 125.049 199.652 125.258 199.73ZM152.145 218.617L157.75 199.867H163.785L155.289 224.184C155.107 224.717 154.859 225.29 154.547 225.902C154.247 226.514 153.837 227.094 153.316 227.641C152.809 228.201 152.164 228.656 151.383 229.008C150.615 229.359 149.671 229.535 148.551 229.535C148.017 229.535 147.581 229.503 147.242 229.438C146.904 229.372 146.5 229.281 146.031 229.164V225.043C146.174 225.043 146.324 225.043 146.48 225.043C146.637 225.056 146.786 225.062 146.93 225.062C147.672 225.062 148.277 224.978 148.746 224.809C149.215 224.639 149.592 224.379 149.879 224.027C150.165 223.689 150.393 223.246 150.562 222.699L152.145 218.617ZM149.801 199.867L154.391 215.18L155.191 221.137L151.363 221.547L143.766 199.867H149.801ZM168.82 210.648V210.238C168.82 208.689 169.042 207.263 169.484 205.961C169.927 204.646 170.572 203.507 171.418 202.543C172.264 201.579 173.306 200.831 174.543 200.297C175.78 199.75 177.199 199.477 178.801 199.477C180.402 199.477 181.828 199.75 183.078 200.297C184.328 200.831 185.376 201.579 186.223 202.543C187.082 203.507 187.733 204.646 188.176 205.961C188.618 207.263 188.84 208.689 188.84 210.238V210.648C188.84 212.185 188.618 213.611 188.176 214.926C187.733 216.228 187.082 217.367 186.223 218.344C185.376 219.307 184.335 220.056 183.098 220.59C181.861 221.124 180.441 221.391 178.84 221.391C177.238 221.391 175.812 221.124 174.562 220.59C173.326 220.056 172.277 219.307 171.418 218.344C170.572 217.367 169.927 216.228 169.484 214.926C169.042 213.611 168.82 212.185 168.82 210.648ZM174.445 210.238V210.648C174.445 211.534 174.523 212.361 174.68 213.129C174.836 213.897 175.083 214.574 175.422 215.16C175.773 215.733 176.229 216.182 176.789 216.508C177.349 216.833 178.033 216.996 178.84 216.996C179.621 216.996 180.292 216.833 180.852 216.508C181.411 216.182 181.861 215.733 182.199 215.16C182.538 214.574 182.785 213.897 182.941 213.129C183.111 212.361 183.195 211.534 183.195 210.648V210.238C183.195 209.379 183.111 208.572 182.941 207.816C182.785 207.048 182.531 206.371 182.18 205.785C181.841 205.186 181.392 204.717 180.832 204.379C180.272 204.04 179.595 203.871 178.801 203.871C178.007 203.871 177.329 204.04 176.77 204.379C176.223 204.717 175.773 205.186 175.422 205.785C175.083 206.371 174.836 207.048 174.68 207.816C174.523 208.572 174.445 209.379 174.445 210.238ZM208.797 215.941V199.867H214.422V221H209.129L208.797 215.941ZM209.422 211.605L211.082 211.566C211.082 212.973 210.919 214.281 210.594 215.492C210.268 216.69 209.78 217.732 209.129 218.617C208.478 219.49 207.658 220.173 206.668 220.668C205.678 221.15 204.513 221.391 203.172 221.391C202.143 221.391 201.193 221.247 200.32 220.961C199.461 220.661 198.719 220.199 198.094 219.574C197.482 218.936 197 218.122 196.648 217.133C196.31 216.13 196.141 214.926 196.141 213.52V199.867H201.766V213.559C201.766 214.184 201.837 214.711 201.98 215.141C202.137 215.57 202.352 215.922 202.625 216.195C202.898 216.469 203.217 216.664 203.582 216.781C203.96 216.898 204.376 216.957 204.832 216.957C205.991 216.957 206.902 216.723 207.566 216.254C208.243 215.785 208.719 215.147 208.992 214.34C209.279 213.52 209.422 212.608 209.422 211.605ZM228.344 204.477V221H222.719V199.867H228.012L228.344 204.477ZM234.711 199.73L234.613 204.945C234.34 204.906 234.008 204.874 233.617 204.848C233.24 204.809 232.895 204.789 232.582 204.789C231.788 204.789 231.098 204.893 230.512 205.102C229.939 205.297 229.457 205.59 229.066 205.98C228.689 206.371 228.402 206.846 228.207 207.406C228.025 207.966 227.921 208.604 227.895 209.32L226.762 208.969C226.762 207.602 226.898 206.345 227.172 205.199C227.445 204.04 227.842 203.031 228.363 202.172C228.897 201.312 229.548 200.648 230.316 200.18C231.085 199.711 231.964 199.477 232.953 199.477C233.266 199.477 233.585 199.503 233.91 199.555C234.236 199.594 234.503 199.652 234.711 199.73ZM22.8125 251.242V268H17.168V246.867H22.4609L22.8125 251.242ZM22.0312 256.691H20.4688C20.4688 255.22 20.6445 253.866 20.9961 252.629C21.3607 251.379 21.888 250.298 22.5781 249.387C23.2812 248.462 24.1471 247.746 25.1758 247.238C26.2044 246.73 27.3958 246.477 28.75 246.477C29.6875 246.477 30.5469 246.62 31.3281 246.906C32.1094 247.18 32.7799 247.616 33.3398 248.215C33.9128 248.801 34.3555 249.569 34.668 250.52C34.9805 251.457 35.1367 252.583 35.1367 253.898V268H29.5117V254.523C29.5117 253.56 29.3815 252.818 29.1211 252.297C28.8607 251.776 28.4896 251.411 28.0078 251.203C27.5391 250.995 26.9727 250.891 26.3086 250.891C25.5794 250.891 24.9414 251.04 24.3945 251.34C23.8607 251.639 23.418 252.056 23.0664 252.59C22.7148 253.111 22.4544 253.723 22.2852 254.426C22.1159 255.129 22.0312 255.884 22.0312 256.691ZM34.6094 256.047L32.5977 256.301C32.5977 254.921 32.7669 253.638 33.1055 252.453C33.457 251.268 33.9714 250.227 34.6484 249.328C35.3385 248.43 36.1914 247.733 37.207 247.238C38.2227 246.73 39.3945 246.477 40.7227 246.477C41.7383 246.477 42.6628 246.626 43.4961 246.926C44.3294 247.212 45.0391 247.674 45.625 248.312C46.224 248.938 46.6797 249.758 46.9922 250.773C47.3177 251.789 47.4805 253.033 47.4805 254.504V268H41.8359V254.504C41.8359 253.527 41.7057 252.785 41.4453 252.277C41.1979 251.757 40.8333 251.398 40.3516 251.203C39.8828 250.995 39.3229 250.891 38.6719 250.891C37.9948 250.891 37.4023 251.027 36.8945 251.301C36.3867 251.561 35.9635 251.926 35.625 252.395C35.2865 252.863 35.0326 253.41 34.8633 254.035C34.694 254.647 34.6094 255.318 34.6094 256.047ZM54.9375 257.648V257.238C54.9375 255.689 55.1589 254.263 55.6016 252.961C56.0443 251.646 56.6888 250.507 57.5352 249.543C58.3815 248.579 59.4232 247.831 60.6602 247.297C61.8971 246.75 63.3164 246.477 64.918 246.477C66.5195 246.477 67.9453 246.75 69.1953 247.297C70.4453 247.831 71.4935 248.579 72.3398 249.543C73.1992 250.507 73.8503 251.646 74.293 252.961C74.7357 254.263 74.957 255.689 74.957 257.238V257.648C74.957 259.185 74.7357 260.611 74.293 261.926C73.8503 263.228 73.1992 264.367 72.3398 265.344C71.4935 266.307 70.4518 267.056 69.2148 267.59C67.9779 268.124 66.5586 268.391 64.957 268.391C63.3555 268.391 61.9297 268.124 60.6797 267.59C59.4427 267.056 58.3945 266.307 57.5352 265.344C56.6888 264.367 56.0443 263.228 55.6016 261.926C55.1589 260.611 54.9375 259.185 54.9375 257.648ZM60.5625 257.238V257.648C60.5625 258.534 60.6406 259.361 60.7969 260.129C60.9531 260.897 61.2005 261.574 61.5391 262.16C61.8906 262.733 62.3464 263.182 62.9062 263.508C63.4661 263.833 64.1497 263.996 64.957 263.996C65.7383 263.996 66.4089 263.833 66.9688 263.508C67.5286 263.182 67.9779 262.733 68.3164 262.16C68.6549 261.574 68.9023 260.897 69.0586 260.129C69.2279 259.361 69.3125 258.534 69.3125 257.648V257.238C69.3125 256.379 69.2279 255.572 69.0586 254.816C68.9023 254.048 68.6484 253.371 68.2969 252.785C67.9583 252.186 67.5091 251.717 66.9492 251.379C66.3893 251.04 65.7122 250.871 64.918 250.871C64.1237 250.871 63.4466 251.04 62.8867 251.379C62.3398 251.717 61.8906 252.186 61.5391 252.785C61.2005 253.371 60.9531 254.048 60.7969 254.816C60.6406 255.572 60.5625 256.379 60.5625 257.238ZM82.4141 238H88.0391V263.156L87.4727 268H82.4141V238ZM101.418 257.219V257.629C101.418 259.204 101.249 260.65 100.91 261.965C100.585 263.28 100.077 264.419 99.3867 265.383C98.6966 266.333 97.8372 267.076 96.8086 267.609C95.793 268.13 94.5951 268.391 93.2148 268.391C91.9258 268.391 90.806 268.13 89.8555 267.609C88.918 267.089 88.1302 266.353 87.4922 265.402C86.8542 264.452 86.3398 263.339 85.9492 262.062C85.5586 260.786 85.2656 259.393 85.0703 257.883V256.984C85.2656 255.474 85.5586 254.081 85.9492 252.805C86.3398 251.529 86.8542 250.415 87.4922 249.465C88.1302 248.514 88.918 247.779 89.8555 247.258C90.793 246.737 91.8997 246.477 93.1758 246.477C94.569 246.477 95.7799 246.743 96.8086 247.277C97.8503 247.798 98.7096 248.54 99.3867 249.504C100.077 250.454 100.585 251.587 100.91 252.902C101.249 254.204 101.418 255.643 101.418 257.219ZM95.793 257.629V257.219C95.793 256.359 95.7279 255.552 95.5977 254.797C95.4805 254.029 95.2721 253.358 94.9727 252.785C94.6732 252.199 94.263 251.737 93.7422 251.398C93.2344 251.06 92.5768 250.891 91.7695 250.891C91.0013 250.891 90.3503 251.021 89.8164 251.281C89.2826 251.542 88.8398 251.906 88.4883 252.375C88.1497 252.844 87.8958 253.404 87.7266 254.055C87.5573 254.693 87.4531 255.396 87.4141 256.164V258.723C87.4531 259.751 87.6224 260.663 87.9219 261.457C88.2344 262.238 88.7031 262.857 89.3281 263.312C89.9661 263.755 90.793 263.977 91.8086 263.977C92.6029 263.977 93.2604 263.82 93.7812 263.508C94.3021 263.195 94.7057 262.753 94.9922 262.18C95.2917 261.607 95.5 260.936 95.6172 260.168C95.7344 259.387 95.793 258.54 95.793 257.629ZM114.852 246.867V268H109.207V246.867H114.852ZM108.855 241.359C108.855 240.539 109.142 239.862 109.715 239.328C110.288 238.794 111.056 238.527 112.02 238.527C112.97 238.527 113.732 238.794 114.305 239.328C114.891 239.862 115.184 240.539 115.184 241.359C115.184 242.18 114.891 242.857 114.305 243.391C113.732 243.924 112.97 244.191 112.02 244.191C111.056 244.191 110.288 243.924 109.715 243.391C109.142 242.857 108.855 242.18 108.855 241.359ZM129.438 238V268H123.793V238H129.438ZM147.812 268.391C146.172 268.391 144.701 268.13 143.398 267.609C142.096 267.076 140.99 266.34 140.078 265.402C139.18 264.465 138.49 263.378 138.008 262.141C137.526 260.891 137.285 259.562 137.285 258.156V257.375C137.285 255.773 137.513 254.309 137.969 252.98C138.424 251.652 139.076 250.5 139.922 249.523C140.781 248.547 141.823 247.798 143.047 247.277C144.271 246.743 145.651 246.477 147.188 246.477C148.685 246.477 150.013 246.724 151.172 247.219C152.331 247.714 153.301 248.417 154.082 249.328C154.876 250.24 155.475 251.333 155.879 252.609C156.283 253.872 156.484 255.279 156.484 256.828V259.172H139.688V255.422H150.957V254.992C150.957 254.211 150.814 253.514 150.527 252.902C150.254 252.277 149.837 251.783 149.277 251.418C148.717 251.053 148.001 250.871 147.129 250.871C146.387 250.871 145.749 251.034 145.215 251.359C144.681 251.685 144.245 252.141 143.906 252.727C143.581 253.312 143.333 254.003 143.164 254.797C143.008 255.578 142.93 256.438 142.93 257.375V258.156C142.93 259.003 143.047 259.784 143.281 260.5C143.529 261.216 143.874 261.835 144.316 262.355C144.772 262.876 145.319 263.28 145.957 263.566C146.608 263.853 147.344 263.996 148.164 263.996C149.18 263.996 150.124 263.801 150.996 263.41C151.882 263.007 152.643 262.401 153.281 261.594L156.016 264.562C155.573 265.201 154.967 265.812 154.199 266.398C153.444 266.984 152.533 267.466 151.465 267.844C150.397 268.208 149.18 268.391 147.812 268.391ZM183.156 251.379V268H177.531V246.867H182.805L183.156 251.379ZM182.336 256.691H180.812C180.812 255.129 181.014 253.723 181.418 252.473C181.822 251.21 182.388 250.135 183.117 249.25C183.846 248.352 184.712 247.668 185.715 247.199C186.73 246.717 187.863 246.477 189.113 246.477C190.103 246.477 191.008 246.62 191.828 246.906C192.648 247.193 193.352 247.648 193.938 248.273C194.536 248.898 194.992 249.725 195.305 250.754C195.63 251.783 195.793 253.039 195.793 254.523V268H190.129V254.504C190.129 253.566 189.999 252.837 189.738 252.316C189.478 251.796 189.094 251.431 188.586 251.223C188.091 251.001 187.479 250.891 186.75 250.891C185.995 250.891 185.337 251.04 184.777 251.34C184.23 251.639 183.775 252.056 183.41 252.59C183.059 253.111 182.792 253.723 182.609 254.426C182.427 255.129 182.336 255.884 182.336 256.691ZM216.57 262.941V246.867H222.195V268H216.902L216.57 262.941ZM217.195 258.605L218.855 258.566C218.855 259.973 218.693 261.281 218.367 262.492C218.042 263.69 217.553 264.732 216.902 265.617C216.251 266.49 215.431 267.173 214.441 267.668C213.452 268.15 212.286 268.391 210.945 268.391C209.917 268.391 208.966 268.247 208.094 267.961C207.234 267.661 206.492 267.199 205.867 266.574C205.255 265.936 204.773 265.122 204.422 264.133C204.083 263.13 203.914 261.926 203.914 260.52V246.867H209.539V260.559C209.539 261.184 209.611 261.711 209.754 262.141C209.91 262.57 210.125 262.922 210.398 263.195C210.672 263.469 210.991 263.664 211.355 263.781C211.733 263.898 212.15 263.957 212.605 263.957C213.764 263.957 214.676 263.723 215.34 263.254C216.017 262.785 216.492 262.147 216.766 261.34C217.052 260.52 217.195 259.608 217.195 258.605ZM236.117 251.242V268H230.473V246.867H235.766L236.117 251.242ZM235.336 256.691H233.773C233.773 255.22 233.949 253.866 234.301 252.629C234.665 251.379 235.193 250.298 235.883 249.387C236.586 248.462 237.452 247.746 238.48 247.238C239.509 246.73 240.701 246.477 242.055 246.477C242.992 246.477 243.852 246.62 244.633 246.906C245.414 247.18 246.085 247.616 246.645 248.215C247.217 248.801 247.66 249.569 247.973 250.52C248.285 251.457 248.441 252.583 248.441 253.898V268H242.816V254.523C242.816 253.56 242.686 252.818 242.426 252.297C242.165 251.776 241.794 251.411 241.312 251.203C240.844 250.995 240.277 250.891 239.613 250.891C238.884 250.891 238.246 251.04 237.699 251.34C237.165 251.639 236.723 252.056 236.371 252.59C236.02 253.111 235.759 253.723 235.59 254.426C235.421 255.129 235.336 255.884 235.336 256.691ZM247.914 256.047L245.902 256.301C245.902 254.921 246.072 253.638 246.41 252.453C246.762 251.268 247.276 250.227 247.953 249.328C248.643 248.43 249.496 247.733 250.512 247.238C251.527 246.73 252.699 246.477 254.027 246.477C255.043 246.477 255.967 246.626 256.801 246.926C257.634 247.212 258.344 247.674 258.93 248.312C259.529 248.938 259.984 249.758 260.297 250.773C260.622 251.789 260.785 253.033 260.785 254.504V268H255.141V254.504C255.141 253.527 255.01 252.785 254.75 252.277C254.503 251.757 254.138 251.398 253.656 251.203C253.188 250.995 252.628 250.891 251.977 250.891C251.299 250.891 250.707 251.027 250.199 251.301C249.691 251.561 249.268 251.926 248.93 252.395C248.591 252.863 248.337 253.41 248.168 254.035C247.999 254.647 247.914 255.318 247.914 256.047ZM269.141 238H274.766V263.156L274.199 268H269.141V238ZM288.145 257.219V257.629C288.145 259.204 287.975 260.65 287.637 261.965C287.311 263.28 286.803 264.419 286.113 265.383C285.423 266.333 284.564 267.076 283.535 267.609C282.52 268.13 281.322 268.391 279.941 268.391C278.652 268.391 277.533 268.13 276.582 267.609C275.645 267.089 274.857 266.353 274.219 265.402C273.581 264.452 273.066 263.339 272.676 262.062C272.285 260.786 271.992 259.393 271.797 257.883V256.984C271.992 255.474 272.285 254.081 272.676 252.805C273.066 251.529 273.581 250.415 274.219 249.465C274.857 248.514 275.645 247.779 276.582 247.258C277.52 246.737 278.626 246.477 279.902 246.477C281.296 246.477 282.507 246.743 283.535 247.277C284.577 247.798 285.436 248.54 286.113 249.504C286.803 250.454 287.311 251.587 287.637 252.902C287.975 254.204 288.145 255.643 288.145 257.219ZM282.52 257.629V257.219C282.52 256.359 282.454 255.552 282.324 254.797C282.207 254.029 281.999 253.358 281.699 252.785C281.4 252.199 280.99 251.737 280.469 251.398C279.961 251.06 279.303 250.891 278.496 250.891C277.728 250.891 277.077 251.021 276.543 251.281C276.009 251.542 275.566 251.906 275.215 252.375C274.876 252.844 274.622 253.404 274.453 254.055C274.284 254.693 274.18 255.396 274.141 256.164V258.723C274.18 259.751 274.349 260.663 274.648 261.457C274.961 262.238 275.43 262.857 276.055 263.312C276.693 263.755 277.52 263.977 278.535 263.977C279.329 263.977 279.987 263.82 280.508 263.508C281.029 263.195 281.432 262.753 281.719 262.18C282.018 261.607 282.227 260.936 282.344 260.168C282.461 259.387 282.52 258.54 282.52 257.629ZM305.367 268.391C303.727 268.391 302.255 268.13 300.953 267.609C299.651 267.076 298.544 266.34 297.633 265.402C296.734 264.465 296.044 263.378 295.562 262.141C295.081 260.891 294.84 259.562 294.84 258.156V257.375C294.84 255.773 295.068 254.309 295.523 252.98C295.979 251.652 296.63 250.5 297.477 249.523C298.336 248.547 299.378 247.798 300.602 247.277C301.826 246.743 303.206 246.477 304.742 246.477C306.24 246.477 307.568 246.724 308.727 247.219C309.885 247.714 310.855 248.417 311.637 249.328C312.431 250.24 313.03 251.333 313.434 252.609C313.837 253.872 314.039 255.279 314.039 256.828V259.172H297.242V255.422H308.512V254.992C308.512 254.211 308.368 253.514 308.082 252.902C307.809 252.277 307.392 251.783 306.832 251.418C306.272 251.053 305.556 250.871 304.684 250.871C303.941 250.871 303.303 251.034 302.77 251.359C302.236 251.685 301.799 252.141 301.461 252.727C301.135 253.312 300.888 254.003 300.719 254.797C300.562 255.578 300.484 256.438 300.484 257.375V258.156C300.484 259.003 300.602 259.784 300.836 260.5C301.083 261.216 301.428 261.835 301.871 262.355C302.327 262.876 302.874 263.28 303.512 263.566C304.163 263.853 304.898 263.996 305.719 263.996C306.734 263.996 307.678 263.801 308.551 263.41C309.436 263.007 310.198 262.401 310.836 261.594L313.57 264.562C313.128 265.201 312.522 265.812 311.754 266.398C310.999 266.984 310.087 267.466 309.02 267.844C307.952 268.208 306.734 268.391 305.367 268.391ZM326.867 251.477V268H321.242V246.867H326.535L326.867 251.477ZM333.234 246.73L333.137 251.945C332.863 251.906 332.531 251.874 332.141 251.848C331.763 251.809 331.418 251.789 331.105 251.789C330.311 251.789 329.621 251.893 329.035 252.102C328.462 252.297 327.98 252.59 327.59 252.98C327.212 253.371 326.926 253.846 326.73 254.406C326.548 254.966 326.444 255.604 326.418 256.32L325.285 255.969C325.285 254.602 325.422 253.345 325.695 252.199C325.969 251.04 326.366 250.031 326.887 249.172C327.421 248.312 328.072 247.648 328.84 247.18C329.608 246.711 330.487 246.477 331.477 246.477C331.789 246.477 332.108 246.503 332.434 246.555C332.759 246.594 333.026 246.652 333.234 246.73Z" fill="black"/>
<path d="M26.632 684.832H28.904V696H27.448V686.368H27.416L23.48 696H21.976L18.024 686.368H18.008V696H16.552V684.832H18.824L22.712 694.384H22.744L26.632 684.832ZM31.8611 688.288C32.7891 687.883 33.7811 687.68 34.8371 687.68C35.9038 687.68 36.7198 687.989 37.2851 688.608C37.8505 689.227 38.1331 689.968 38.1331 690.832V696H36.8531L36.6771 694.976H36.6291C35.8611 695.765 34.8745 696.16 33.6691 696.16C32.9438 696.16 32.3251 695.941 31.8131 695.504C31.3118 695.067 31.0611 694.469 31.0611 693.712C31.0611 692.955 31.3705 692.341 31.9891 691.872C32.6185 691.403 33.5358 691.168 34.7411 691.168H36.6771V691.04C36.6771 690.336 36.5011 689.829 36.1491 689.52C35.8078 689.211 35.2105 689.056 34.3571 689.056C33.5038 689.056 32.7038 689.237 31.9571 689.6H31.8611V688.288ZM36.6771 693.68V692.336H34.9331C33.3225 692.336 32.5171 692.763 32.5171 693.616C32.5171 694.459 33.0825 694.88 34.2131 694.88C34.6825 694.88 35.1358 694.768 35.5731 694.544C36.0105 694.309 36.3785 694.021 36.6771 693.68ZM44.2721 691.12L47.9521 696H46.1601L43.2801 692.144H43.2321L42.0481 693.328V696H40.5921V684.32H42.0481V691.472H42.0961L45.6321 687.84H47.5841L44.2721 691.12ZM56.4945 691.92V692.432H50.3185C50.4038 693.179 50.6812 693.76 51.1505 694.176C51.6198 694.592 52.3292 694.8 53.2785 694.8C54.2385 694.8 55.1238 694.533 55.9345 694H56.0145V695.408C55.1185 695.909 54.0625 696.16 52.8465 696.16C51.6412 696.16 50.6705 695.792 49.9345 695.056C49.2092 694.309 48.8465 693.307 48.8465 692.048C48.8465 690.779 49.1718 689.733 49.8225 688.912C50.4732 688.091 51.4225 687.68 52.6705 687.68C53.9185 687.68 54.8678 688.091 55.5185 688.912C56.1692 689.733 56.4945 690.736 56.4945 691.92ZM50.3185 691.248H55.0385C54.9958 690.48 54.7345 689.899 54.2545 689.504C53.7852 689.109 53.2572 688.912 52.6705 688.912C52.0838 688.912 51.5558 689.109 51.0865 689.504C50.6172 689.899 50.3612 690.48 50.3185 691.248ZM65.5677 689.008C64.8851 689.008 64.3784 689.115 64.0478 689.328C63.7278 689.531 63.5678 689.792 63.5678 690.112C63.5678 690.421 63.7331 690.661 64.0638 690.832C64.3944 691.003 64.7944 691.141 65.2638 691.248C65.7438 691.344 66.2184 691.467 66.6878 691.616C67.1571 691.765 67.5571 692.021 67.8878 692.384C68.2184 692.747 68.3838 693.243 68.3838 693.872C68.3838 694.501 68.1118 695.04 67.5678 695.488C67.0344 695.936 66.2344 696.16 65.1678 696.16C64.1118 696.16 63.1464 695.92 62.2718 695.44V694.048H62.3518C63.2158 694.56 64.1651 694.816 65.1998 694.816C66.3838 694.816 66.9758 694.437 66.9758 693.68C66.9758 693.435 66.8104 693.237 66.4798 693.088C66.1491 692.928 65.7491 692.795 65.2798 692.688C64.8104 692.581 64.3411 692.453 63.8718 692.304C63.4024 692.155 63.0024 691.904 62.6718 691.552C62.3411 691.2 62.1758 690.752 62.1758 690.208C62.1758 689.461 62.4424 688.853 62.9758 688.384C63.5198 687.915 64.2558 687.68 65.1838 687.68C66.1118 687.68 66.9758 687.829 67.7758 688.128V689.456H67.6638C66.9491 689.157 66.2504 689.008 65.5677 689.008ZM73.0953 696.16C72.2099 696.16 71.5113 695.861 70.9993 695.264C70.4873 694.667 70.2313 693.92 70.2313 693.024V687.84H71.6873V692.864C71.6873 694.165 72.2739 694.816 73.4473 694.816C74.3753 694.816 75.2499 694.304 76.0713 693.28V687.84H77.5273V696H76.2473L76.0713 694.976V694.736H76.0393C75.1753 695.685 74.1939 696.16 73.0953 696.16ZM84.5569 687.68H84.6849V689.072H84.5569C83.9275 689.072 83.3409 689.195 82.7969 689.44C82.2529 689.685 81.8262 690.027 81.5169 690.464V696H80.0609V687.84H81.3409L81.5169 688.864V689.104H81.5489C82.3169 688.155 83.3195 687.68 84.5569 687.68ZM93.4164 691.92V692.432H87.2404C87.3257 693.179 87.603 693.76 88.0724 694.176C88.5417 694.592 89.251 694.8 90.2004 694.8C91.1604 694.8 92.0457 694.533 92.8564 694H92.9364V695.408C92.0404 695.909 90.9844 696.16 89.7684 696.16C88.563 696.16 87.5924 695.792 86.8564 695.056C86.131 694.309 85.7684 693.307 85.7684 692.048C85.7684 690.779 86.0937 689.733 86.7444 688.912C87.395 688.091 88.3444 687.68 89.5924 687.68C90.8404 687.68 91.7897 688.091 92.4404 688.912C93.091 689.733 93.4164 690.736 93.4164 691.92ZM87.2404 691.248H91.9604C91.9177 690.48 91.6564 689.899 91.1764 689.504C90.707 689.109 90.179 688.912 89.5924 688.912C89.0057 688.912 88.4777 689.109 88.0084 689.504C87.539 689.899 87.283 690.48 87.2404 691.248ZM106.73 687.84L101.818 699.68H100.346L101.722 696.128L98.3456 687.84H99.9136L102.474 694.288H102.538L105.162 687.84H106.73ZM107.565 691.92C107.565 690.651 107.938 689.627 108.685 688.848C109.432 688.069 110.418 687.68 111.645 687.68C112.882 687.68 113.874 688.069 114.621 688.848C115.378 689.627 115.757 690.651 115.757 691.92C115.757 693.189 115.378 694.213 114.621 694.992C113.874 695.771 112.882 696.16 111.645 696.16C110.418 696.16 109.432 695.771 108.685 694.992C107.938 694.213 107.565 693.189 107.565 691.92ZM109.805 694.112C110.338 694.592 110.957 694.832 111.661 694.832C112.365 694.832 112.978 694.592 113.501 694.112C114.034 693.621 114.301 692.891 114.301 691.92C114.301 690.939 114.034 690.208 113.501 689.728C112.978 689.248 112.365 689.008 111.661 689.008C110.957 689.008 110.338 689.248 109.805 689.728C109.282 690.208 109.021 690.939 109.021 691.92C109.021 692.891 109.282 693.621 109.805 694.112ZM120.595 696.16C119.71 696.16 119.011 695.861 118.499 695.264C117.987 694.667 117.731 693.92 117.731 693.024V687.84H119.187V692.864C119.187 694.165 119.774 694.816 120.947 694.816C121.875 694.816 122.75 694.304 123.571 693.28V687.84H125.027V696H123.747L123.571 694.976V694.736H123.539C122.675 695.685 121.694 696.16 120.595 696.16ZM132.057 687.68H132.185V689.072H132.057C131.428 689.072 130.841 689.195 130.297 689.44C129.753 689.685 129.326 690.027 129.017 690.464V696H127.561V687.84H128.841L129.017 688.864V689.104H129.049C129.817 688.155 130.82 687.68 132.057 687.68ZM147.473 687.68C148.347 687.68 149.009 687.989 149.457 688.608C149.915 689.227 150.145 689.941 150.145 690.752V696H148.689V691.04C148.689 690.347 148.561 689.84 148.305 689.52C148.059 689.189 147.643 689.024 147.057 689.024C146.139 689.024 145.371 689.536 144.753 690.56V696H143.297V691.04C143.297 690.347 143.174 689.84 142.929 689.52C142.683 689.189 142.262 689.024 141.665 689.024C140.747 689.024 139.979 689.536 139.361 690.56V696H137.905V687.84H139.185L139.361 688.864V689.104H139.393C140.075 688.155 140.971 687.68 142.081 687.68C142.678 687.68 143.185 687.835 143.601 688.144C144.027 688.453 144.331 688.837 144.513 689.296H144.561C145.211 688.219 146.182 687.68 147.473 687.68ZM152.112 691.92C152.112 690.651 152.485 689.627 153.232 688.848C153.978 688.069 154.965 687.68 156.192 687.68C157.429 687.68 158.421 688.069 159.168 688.848C159.925 689.627 160.304 690.651 160.304 691.92C160.304 693.189 159.925 694.213 159.168 694.992C158.421 695.771 157.429 696.16 156.192 696.16C154.965 696.16 153.978 695.771 153.232 694.992C152.485 694.213 152.112 693.189 152.112 691.92ZM154.352 694.112C154.885 694.592 155.504 694.832 156.208 694.832C156.912 694.832 157.525 694.592 158.048 694.112C158.581 693.621 158.848 692.891 158.848 691.92C158.848 690.939 158.581 690.208 158.048 689.728C157.525 689.248 156.912 689.008 156.208 689.008C155.504 689.008 154.885 689.248 154.352 689.728C153.829 690.208 153.568 690.939 153.568 691.92C153.568 692.891 153.829 693.621 154.352 694.112ZM163.846 688.864C164.603 688.075 165.499 687.68 166.534 687.68C167.569 687.68 168.47 688.064 169.238 688.832C170.017 689.6 170.406 690.629 170.406 691.92C170.406 693.211 170.017 694.24 169.238 695.008C168.47 695.776 167.569 696.16 166.534 696.16C165.499 696.16 164.603 695.765 163.846 694.976H163.798L163.622 696H162.342V684.32H163.798V688.864H163.846ZM166.326 694.8C167.115 694.8 167.75 694.549 168.23 694.048C168.71 693.547 168.95 692.837 168.95 691.92C168.95 691.003 168.71 690.293 168.23 689.792C167.75 689.291 167.115 689.04 166.326 689.04C165.366 689.04 164.523 689.44 163.798 690.24V693.6C164.523 694.4 165.366 694.8 166.326 694.8ZM172.5 696V687.84H173.956V696H172.5ZM174.02 684.544V686.112H172.452V684.544H174.02ZM178.129 684.32V696H176.673V684.32H178.129ZM187.948 691.92V692.432H181.772C181.857 693.179 182.134 693.76 182.604 694.176C183.073 694.592 183.782 694.8 184.732 694.8C185.692 694.8 186.577 694.533 187.388 694H187.468V695.408C186.572 695.909 185.516 696.16 184.3 696.16C183.094 696.16 182.124 695.792 181.388 695.056C180.662 694.309 180.3 693.307 180.3 692.048C180.3 690.779 180.625 689.733 181.276 688.912C181.926 688.091 182.876 687.68 184.124 687.68C185.372 687.68 186.321 688.091 186.972 688.912C187.622 689.733 187.948 690.736 187.948 691.92ZM181.772 691.248H186.492C186.449 690.48 186.188 689.899 185.708 689.504C185.238 689.109 184.71 688.912 184.124 688.912C183.537 688.912 183.009 689.109 182.54 689.504C182.07 689.899 181.814 690.48 181.772 691.248ZM198.493 687.68C199.378 687.68 200.077 687.979 200.589 688.576C201.101 689.173 201.357 689.92 201.357 690.816V696H199.901V690.976C199.901 689.675 199.314 689.024 198.141 689.024C197.213 689.024 196.338 689.536 195.517 690.56V696H194.061V687.84H195.341L195.517 688.864V689.104H195.549C196.413 688.155 197.394 687.68 198.493 687.68ZM206.611 696.16C205.726 696.16 205.027 695.861 204.515 695.264C204.003 694.667 203.747 693.92 203.747 693.024V687.84H205.203V692.864C205.203 694.165 205.79 694.816 206.963 694.816C207.891 694.816 208.766 694.304 209.587 693.28V687.84H211.043V696H209.763L209.587 694.976V694.736H209.555C208.691 695.685 207.71 696.16 206.611 696.16ZM223.145 687.68C224.019 687.68 224.681 687.989 225.129 688.608C225.587 689.227 225.817 689.941 225.817 690.752V696H224.361V691.04C224.361 690.347 224.233 689.84 223.977 689.52C223.731 689.189 223.315 689.024 222.729 689.024C221.811 689.024 221.043 689.536 220.425 690.56V696H218.969V691.04C218.969 690.347 218.846 689.84 218.601 689.52C218.355 689.189 217.934 689.024 217.337 689.024C216.419 689.024 215.651 689.536 215.033 690.56V696H213.577V687.84H214.857L215.033 688.864V689.104H215.065C215.747 688.155 216.643 687.68 217.753 687.68C218.35 687.68 218.857 687.835 219.273 688.144C219.699 688.453 220.003 688.837 220.185 689.296H220.233C220.883 688.219 221.854 687.68 223.145 687.68ZM229.784 688.864C230.541 688.075 231.437 687.68 232.472 687.68C233.506 687.68 234.408 688.064 235.176 688.832C235.954 689.6 236.344 690.629 236.344 691.92C236.344 693.211 235.954 694.24 235.176 695.008C234.408 695.776 233.506 696.16 232.472 696.16C231.437 696.16 230.541 695.765 229.784 694.976H229.736L229.56 696H228.28V684.32H229.736V688.864H229.784ZM232.264 694.8C233.053 694.8 233.688 694.549 234.168 694.048C234.648 693.547 234.888 692.837 234.888 691.92C234.888 691.003 234.648 690.293 234.168 689.792C233.688 689.291 233.053 689.04 232.264 689.04C231.304 689.04 230.461 689.44 229.736 690.24V693.6C230.461 694.4 231.304 694.8 232.264 694.8ZM245.541 691.92V692.432H239.365C239.451 693.179 239.728 693.76 240.197 694.176C240.667 694.592 241.376 694.8 242.325 694.8C243.285 694.8 244.171 694.533 244.981 694H245.061V695.408C244.165 695.909 243.109 696.16 241.893 696.16C240.688 696.16 239.717 695.792 238.981 695.056C238.256 694.309 237.893 693.307 237.893 692.048C237.893 690.779 238.219 689.733 238.869 688.912C239.52 688.091 240.469 687.68 241.717 687.68C242.965 687.68 243.915 688.091 244.565 688.912C245.216 689.733 245.541 690.736 245.541 691.92ZM239.365 691.248H244.085C244.043 690.48 243.781 689.899 243.301 689.504C242.832 689.109 242.304 688.912 241.717 688.912C241.131 688.912 240.603 689.109 240.133 689.504C239.664 689.899 239.408 690.48 239.365 691.248ZM251.994 687.68H252.122V689.072H251.994C251.365 689.072 250.778 689.195 250.234 689.44C249.69 689.685 249.264 690.027 248.954 690.464V696H247.498V687.84H248.778L248.954 688.864V689.104H248.986C249.754 688.155 250.757 687.68 251.994 687.68ZM257.906 696V687.84H259.362V696H257.906ZM259.426 684.544V686.112H257.858V684.544H259.426ZM264.911 689.008C264.229 689.008 263.722 689.115 263.392 689.328C263.072 689.531 262.912 689.792 262.912 690.112C262.912 690.421 263.077 690.661 263.408 690.832C263.738 691.003 264.138 691.141 264.608 691.248C265.088 691.344 265.562 691.467 266.032 691.616C266.501 691.765 266.901 692.021 267.232 692.384C267.562 692.747 267.728 693.243 267.728 693.872C267.728 694.501 267.456 695.04 266.912 695.488C266.378 695.936 265.578 696.16 264.512 696.16C263.456 696.16 262.49 695.92 261.616 695.44V694.048H261.696C262.56 694.56 263.509 694.816 264.544 694.816C265.728 694.816 266.32 694.437 266.32 693.68C266.32 693.435 266.154 693.237 265.824 693.088C265.493 692.928 265.093 692.795 264.624 692.688C264.154 692.581 263.685 692.453 263.216 692.304C262.746 692.155 262.346 691.904 262.016 691.552C261.685 691.2 261.52 690.752 261.52 690.208C261.52 689.461 261.786 688.853 262.32 688.384C262.864 687.915 263.6 687.68 264.528 687.68C265.456 687.68 266.32 687.829 267.12 688.128V689.456H267.008C266.293 689.157 265.594 689.008 264.911 689.008ZM280.243 689.84C279.454 689.307 278.595 689.04 277.667 689.04C276.75 689.04 276.03 689.307 275.507 689.84C274.985 690.363 274.723 691.056 274.723 691.92C274.723 692.784 274.985 693.483 275.507 694.016C276.03 694.539 276.75 694.8 277.667 694.8C278.595 694.8 279.454 694.533 280.243 694H280.307V695.376C279.422 695.899 278.499 696.16 277.539 696.16C276.355 696.16 275.347 695.776 274.515 695.008C273.683 694.24 273.267 693.211 273.267 691.92C273.267 690.629 273.683 689.6 274.515 688.832C275.347 688.064 276.355 687.68 277.539 687.68C278.499 687.68 279.422 687.941 280.307 688.464V689.84H280.243ZM281.877 691.92C281.877 690.651 282.251 689.627 282.997 688.848C283.744 688.069 284.731 687.68 285.957 687.68C287.195 687.68 288.187 688.069 288.933 688.848C289.691 689.627 290.069 690.651 290.069 691.92C290.069 693.189 289.691 694.213 288.933 694.992C288.187 695.771 287.195 696.16 285.957 696.16C284.731 696.16 283.744 695.771 282.997 694.992C282.251 694.213 281.877 693.189 281.877 691.92ZM284.117 694.112C284.651 694.592 285.269 694.832 285.973 694.832C286.677 694.832 287.291 694.592 287.813 694.112C288.347 693.621 288.613 692.891 288.613 691.92C288.613 690.939 288.347 690.208 287.813 689.728C287.291 689.248 286.677 689.008 285.973 689.008C285.269 689.008 284.651 689.248 284.117 689.728C283.595 690.208 283.333 690.939 283.333 691.92C283.333 692.891 283.595 693.621 284.117 694.112ZM296.54 687.68C297.425 687.68 298.124 687.979 298.636 688.576C299.148 689.173 299.404 689.92 299.404 690.816V696H297.948V690.976C297.948 689.675 297.361 689.024 296.188 689.024C295.26 689.024 294.385 689.536 293.564 690.56V696H292.108V687.84H293.388L293.564 688.864V689.104H293.596C294.46 688.155 295.441 687.68 296.54 687.68ZM306.29 687.68C307.175 687.68 307.874 687.979 308.386 688.576C308.898 689.173 309.154 689.92 309.154 690.816V696H307.698V690.976C307.698 689.675 307.111 689.024 305.938 689.024C305.01 689.024 304.135 689.536 303.314 690.56V696H301.858V687.84H303.138L303.314 688.864V689.104H303.346C304.21 688.155 305.191 687.68 306.29 687.68ZM318.776 691.92V692.432H312.6C312.685 693.179 312.962 693.76 313.432 694.176C313.901 694.592 314.61 694.8 315.56 694.8C316.52 694.8 317.405 694.533 318.216 694H318.296V695.408C317.4 695.909 316.344 696.16 315.128 696.16C313.922 696.16 312.952 695.792 312.216 695.056C311.49 694.309 311.128 693.307 311.128 692.048C311.128 690.779 311.453 689.733 312.104 688.912C312.754 688.091 313.704 687.68 314.952 687.68C316.2 687.68 317.149 688.091 317.8 688.912C318.45 689.733 318.776 690.736 318.776 691.92ZM312.6 691.248H317.32C317.277 690.48 317.016 689.899 316.536 689.504C316.066 689.109 315.538 688.912 314.952 688.912C314.365 688.912 313.837 689.109 313.368 689.504C312.898 689.899 312.642 690.48 312.6 691.248ZM327.181 689.84C326.391 689.307 325.533 689.04 324.605 689.04C323.687 689.04 322.967 689.307 322.445 689.84C321.922 690.363 321.661 691.056 321.661 691.92C321.661 692.784 321.922 693.483 322.445 694.016C322.967 694.539 323.687 694.8 324.605 694.8C325.533 694.8 326.391 694.533 327.181 694H327.245V695.376C326.359 695.899 325.437 696.16 324.477 696.16C323.293 696.16 322.285 695.776 321.453 695.008C320.621 694.24 320.205 693.211 320.205 691.92C320.205 690.629 320.621 689.6 321.453 688.832C322.285 688.064 323.293 687.68 324.477 687.68C325.437 687.68 326.359 687.941 327.245 688.464V689.84H327.181ZM333.615 689.088H331.295V693.92C331.295 694.368 331.418 694.645 331.663 694.752C331.866 694.837 332.127 694.88 332.447 694.88C332.767 694.88 333.119 694.795 333.503 694.624H333.615V695.808C333.167 696.043 332.687 696.16 332.175 696.16C330.618 696.16 329.839 695.456 329.839 694.048V689.088H328.319V688.992L331.295 686.08V687.84H333.615V689.088ZM342.62 691.92V692.432H336.444C336.529 693.179 336.806 693.76 337.276 694.176C337.745 694.592 338.454 694.8 339.404 694.8C340.364 694.8 341.249 694.533 342.06 694H342.14V695.408C341.244 695.909 340.188 696.16 338.972 696.16C337.766 696.16 336.796 695.792 336.06 695.056C335.334 694.309 334.972 693.307 334.972 692.048C334.972 690.779 335.297 689.733 335.948 688.912C336.598 688.091 337.548 687.68 338.796 687.68C340.044 687.68 340.993 688.091 341.644 688.912C342.294 689.733 342.62 690.736 342.62 691.92ZM336.444 691.248H341.164C341.121 690.48 340.86 689.899 340.38 689.504C339.91 689.109 339.382 688.912 338.796 688.912C338.209 688.912 337.681 689.109 337.212 689.504C336.742 689.899 336.486 690.48 336.444 691.248ZM345.233 688.832C346.011 688.064 346.918 687.68 347.953 687.68C348.987 687.68 349.883 688.075 350.641 688.864H350.689V684.32H352.145V696H350.865L350.689 694.976H350.641C349.883 695.765 348.987 696.16 347.953 696.16C346.918 696.16 346.011 695.776 345.233 695.008C344.465 694.24 344.081 693.211 344.081 691.92C344.081 690.629 344.465 689.6 345.233 688.832ZM348.161 694.8C349.121 694.8 349.963 694.4 350.689 693.6V690.24C349.963 689.44 349.121 689.04 348.161 689.04C347.371 689.04 346.737 689.291 346.257 689.792C345.777 690.293 345.537 691.003 345.537 691.92C345.537 692.837 345.777 693.547 346.257 694.048C346.737 694.549 347.371 694.8 348.161 694.8ZM20.568 710.088H18.248V714.92C18.248 715.368 18.3707 715.645 18.616 715.752C18.8187 715.837 19.08 715.88 19.4 715.88C19.72 715.88 20.072 715.795 20.456 715.624H20.568V716.808C20.12 717.043 19.64 717.16 19.128 717.16C17.5707 717.16 16.792 716.456 16.792 715.048V710.088H15.272V709.992L18.248 707.08V708.84H20.568V710.088ZM21.9086 712.92C21.9086 711.651 22.282 710.627 23.0286 709.848C23.7753 709.069 24.762 708.68 25.9886 708.68C27.226 708.68 28.218 709.069 28.9646 709.848C29.722 710.627 30.1006 711.651 30.1006 712.92C30.1006 714.189 29.722 715.213 28.9646 715.992C28.218 716.771 27.226 717.16 25.9886 717.16C24.762 717.16 23.7753 716.771 23.0286 715.992C22.282 715.213 21.9086 714.189 21.9086 712.92ZM24.1486 715.112C24.682 715.592 25.3006 715.832 26.0046 715.832C26.7086 715.832 27.322 715.592 27.8446 715.112C28.378 714.621 28.6446 713.891 28.6446 712.92C28.6446 711.939 28.378 711.208 27.8446 710.728C27.322 710.248 26.7086 710.008 26.0046 710.008C25.3006 710.008 24.682 710.248 24.1486 710.728C23.626 711.208 23.3646 711.939 23.3646 712.92C23.3646 713.891 23.626 714.621 24.1486 715.112ZM43.4953 708.84L38.5833 720.68H37.1113L38.4873 717.128L35.1113 708.84H36.6793L39.2393 715.288H39.3033L41.9273 708.84H43.4953ZM44.3305 712.92C44.3305 711.651 44.7038 710.627 45.4505 709.848C46.1972 709.069 47.1838 708.68 48.4105 708.68C49.6478 708.68 50.6398 709.069 51.3865 709.848C52.1438 710.627 52.5225 711.651 52.5225 712.92C52.5225 714.189 52.1438 715.213 51.3865 715.992C50.6398 716.771 49.6478 717.16 48.4105 717.16C47.1838 717.16 46.1972 716.771 45.4505 715.992C44.7038 715.213 44.3305 714.189 44.3305 712.92ZM46.5705 715.112C47.1038 715.592 47.7225 715.832 48.4265 715.832C49.1305 715.832 49.7438 715.592 50.2665 715.112C50.7998 714.621 51.0665 713.891 51.0665 712.92C51.0665 711.939 50.7998 711.208 50.2665 710.728C49.7438 710.248 49.1305 710.008 48.4265 710.008C47.7225 710.008 47.1038 710.248 46.5705 710.728C46.0478 711.208 45.7865 711.939 45.7865 712.92C45.7865 713.891 46.0478 714.621 46.5705 715.112ZM57.3609 717.16C56.4755 717.16 55.7769 716.861 55.2649 716.264C54.7529 715.667 54.4969 714.92 54.4969 714.024V708.84H55.9529V713.864C55.9529 715.165 56.5395 715.816 57.7129 715.816C58.6409 715.816 59.5155 715.304 60.3369 714.28V708.84H61.7929V717H60.5129L60.3369 715.976V715.736H60.3049C59.4409 716.685 58.4595 717.16 57.3609 717.16ZM68.8225 708.68H68.9505V710.072H68.8225C68.1932 710.072 67.6065 710.195 67.0625 710.44C66.5185 710.685 66.0918 711.027 65.7825 711.464V717H64.3265V708.84H65.6065L65.7825 709.864V710.104H65.8145C66.5825 709.155 67.5852 708.68 68.8225 708.68ZM76.1743 709.864C76.9316 709.075 77.8276 708.68 78.8623 708.68C79.8969 708.68 80.7983 709.064 81.5663 709.832C82.3449 710.6 82.7343 711.629 82.7343 712.92C82.7343 714.211 82.3449 715.24 81.5663 716.008C80.7983 716.776 79.8969 717.16 78.8623 717.16C77.8276 717.16 76.9316 716.765 76.1743 715.976H76.1263L75.9503 717H74.6703V705.32H76.1263V709.864H76.1743ZM78.6543 715.8C79.4436 715.8 80.0783 715.549 80.5583 715.048C81.0383 714.547 81.2783 713.837 81.2783 712.92C81.2783 712.003 81.0383 711.293 80.5583 710.792C80.0783 710.291 79.4436 710.04 78.6543 710.04C77.6943 710.04 76.8516 710.44 76.1263 711.24V714.6C76.8516 715.4 77.6943 715.8 78.6543 715.8ZM90.3 708.84H91.884L88.46 717H87.02L83.596 708.84H85.18L87.708 715.272H87.772L90.3 708.84ZM97.6804 708.68C98.5657 708.68 99.2644 708.979 99.7764 709.576C100.288 710.173 100.544 710.92 100.544 711.816V717H99.0884V711.976C99.0884 710.675 98.5017 710.024 97.3284 710.024C96.4004 710.024 95.5257 710.536 94.7044 711.56V717H93.2484V708.84H94.5284L94.7044 709.864V710.104H94.7364C95.6004 709.155 96.5817 708.68 97.6804 708.68Z" fill="black"/>
</svg>
