<svg width="414" height="896" viewBox="0 0 414 896" fill="none" xmlns="http://www.w3.org/2000/svg">
<rect width="414" height="896" rx="20" fill="#EEF9FA"/>
<path d="M288.051 31.2129L284.184 43H281.068L286.352 28.7812H288.334L288.051 31.2129ZM291.264 43L287.387 31.2129L287.074 28.7812H289.076L294.389 43H291.264ZM291.088 37.707V40.002H283.578V37.707H291.088ZM298.5 28V43H295.678V28H298.5ZM303.637 34.4648V47.0625H300.824V32.4336H303.432L303.637 34.4648ZM310.326 37.5996V37.8047C310.326 38.5729 310.235 39.2858 310.053 39.9434C309.877 40.6009 309.617 41.1738 309.271 41.6621C308.926 42.1439 308.497 42.5215 307.982 42.7949C307.475 43.0618 306.889 43.1953 306.225 43.1953C305.58 43.1953 305.02 43.0651 304.545 42.8047C304.07 42.5443 303.669 42.1797 303.344 41.7109C303.025 41.2357 302.768 40.6855 302.572 40.0605C302.377 39.4355 302.227 38.765 302.123 38.0488V37.5117C302.227 36.7435 302.377 36.0404 302.572 35.4023C302.768 34.7578 303.025 34.2012 303.344 33.7324C303.669 33.2572 304.066 32.8893 304.535 32.6289C305.01 32.3685 305.567 32.2383 306.205 32.2383C306.876 32.2383 307.465 32.3652 307.973 32.6191C308.487 32.873 308.917 33.2376 309.262 33.7129C309.613 34.1882 309.877 34.7546 310.053 35.4121C310.235 36.0697 310.326 36.7988 310.326 37.5996ZM307.504 37.8047V37.5996C307.504 37.1504 307.465 36.737 307.387 36.3594C307.315 35.9753 307.198 35.64 307.035 35.3535C306.879 35.0671 306.671 34.8457 306.41 34.6895C306.156 34.5267 305.847 34.4453 305.482 34.4453C305.098 34.4453 304.77 34.5072 304.496 34.6309C304.229 34.7546 304.011 34.9336 303.842 35.168C303.673 35.4023 303.546 35.6823 303.461 36.0078C303.376 36.3333 303.324 36.7012 303.305 37.1113V38.4688C303.337 38.9505 303.428 39.3835 303.578 39.7676C303.728 40.1452 303.959 40.4447 304.271 40.666C304.584 40.8874 304.994 40.998 305.502 40.998C305.873 40.998 306.186 40.9167 306.439 40.7539C306.693 40.5846 306.898 40.3535 307.055 40.0605C307.217 39.7676 307.331 39.429 307.396 39.0449C307.468 38.6608 307.504 38.2474 307.504 37.8047ZM314.818 28V43H312.006V28H314.818ZM314.418 37.3457H313.646C313.653 36.61 313.751 35.9329 313.939 35.3145C314.128 34.6895 314.398 34.1491 314.75 33.6934C315.102 33.2311 315.521 32.873 316.01 32.6191C316.505 32.3652 317.051 32.2383 317.65 32.2383C318.171 32.2383 318.643 32.3132 319.066 32.4629C319.496 32.6061 319.864 32.8405 320.17 33.166C320.482 33.485 320.723 33.9049 320.893 34.4258C321.062 34.9466 321.146 35.5781 321.146 36.3203V43H318.314V36.3008C318.314 35.832 318.246 35.4642 318.109 35.1973C317.979 34.9238 317.787 34.7318 317.533 34.6211C317.286 34.5039 316.98 34.4453 316.615 34.4453C316.212 34.4453 315.867 34.5202 315.58 34.6699C315.3 34.8197 315.076 35.028 314.906 35.2949C314.737 35.5553 314.613 35.8613 314.535 36.2129C314.457 36.5645 314.418 36.9421 314.418 37.3457ZM328.988 40.6172V35.9102C328.988 35.5716 328.933 35.2819 328.822 35.041C328.712 34.7936 328.539 34.6016 328.305 34.4648C328.077 34.3281 327.781 34.2598 327.416 34.2598C327.104 34.2598 326.833 34.3151 326.605 34.4258C326.378 34.5299 326.202 34.6829 326.078 34.8848C325.954 35.0801 325.893 35.3112 325.893 35.5781H323.08C323.08 35.1289 323.184 34.7025 323.393 34.2988C323.601 33.8952 323.904 33.5404 324.301 33.2344C324.698 32.9219 325.17 32.6777 325.717 32.502C326.27 32.3262 326.889 32.2383 327.572 32.2383C328.393 32.2383 329.122 32.375 329.76 32.6484C330.398 32.9219 330.899 33.332 331.264 33.8789C331.635 34.4258 331.82 35.1094 331.82 35.9297V40.4512C331.82 41.0306 331.856 41.5059 331.928 41.877C331.999 42.2415 332.104 42.5605 332.24 42.834V43H329.398C329.262 42.7135 329.158 42.3555 329.086 41.9258C329.021 41.4896 328.988 41.0534 328.988 40.6172ZM329.359 36.5645L329.379 38.1562H327.807C327.436 38.1562 327.113 38.1986 326.84 38.2832C326.566 38.3678 326.342 38.4883 326.166 38.6445C325.99 38.7943 325.86 38.9701 325.775 39.1719C325.697 39.3737 325.658 39.5951 325.658 39.8359C325.658 40.0768 325.714 40.2949 325.824 40.4902C325.935 40.679 326.094 40.8288 326.303 40.9395C326.511 41.0436 326.755 41.0957 327.035 41.0957C327.458 41.0957 327.826 41.0111 328.139 40.8418C328.451 40.6725 328.692 40.4642 328.861 40.2168C329.037 39.9694 329.128 39.735 329.135 39.5137L329.877 40.7051C329.773 40.972 329.63 41.2487 329.447 41.5352C329.271 41.8216 329.047 42.0918 328.773 42.3457C328.5 42.5931 328.171 42.7982 327.787 42.9609C327.403 43.1172 326.947 43.1953 326.42 43.1953C325.749 43.1953 325.141 43.0618 324.594 42.7949C324.053 42.5215 323.624 42.1471 323.305 41.6719C322.992 41.1901 322.836 40.6432 322.836 40.0312C322.836 39.4779 322.94 38.9863 323.148 38.5566C323.357 38.127 323.663 37.7656 324.066 37.4727C324.477 37.1732 324.988 36.9486 325.6 36.7988C326.212 36.6426 326.921 36.5645 327.729 36.5645H329.359ZM343.305 40.7148V43H336.146V40.7148H343.305ZM337.094 28.7812V43H334.164V28.7812H337.094ZM344.359 37.8242V37.6191C344.359 36.8444 344.47 36.1315 344.691 35.4805C344.913 34.8229 345.235 34.2533 345.658 33.7715C346.081 33.2897 346.602 32.9154 347.221 32.6484C347.839 32.375 348.549 32.2383 349.35 32.2383C350.15 32.2383 350.863 32.375 351.488 32.6484C352.113 32.9154 352.637 33.2897 353.061 33.7715C353.49 34.2533 353.816 34.8229 354.037 35.4805C354.258 36.1315 354.369 36.8444 354.369 37.6191V37.8242C354.369 38.5924 354.258 39.3053 354.037 39.9629C353.816 40.6139 353.49 41.1836 353.061 41.6719C352.637 42.1536 352.117 42.528 351.498 42.7949C350.88 43.0618 350.17 43.1953 349.369 43.1953C348.568 43.1953 347.855 43.0618 347.23 42.7949C346.612 42.528 346.088 42.1536 345.658 41.6719C345.235 41.1836 344.913 40.6139 344.691 39.9629C344.47 39.3053 344.359 38.5924 344.359 37.8242ZM347.172 37.6191V37.8242C347.172 38.2669 347.211 38.6803 347.289 39.0645C347.367 39.4486 347.491 39.7871 347.66 40.0801C347.836 40.3665 348.064 40.5911 348.344 40.7539C348.624 40.9167 348.965 40.998 349.369 40.998C349.76 40.998 350.095 40.9167 350.375 40.7539C350.655 40.5911 350.88 40.3665 351.049 40.0801C351.218 39.7871 351.342 39.4486 351.42 39.0645C351.505 38.6803 351.547 38.2669 351.547 37.8242V37.6191C351.547 37.1895 351.505 36.7858 351.42 36.4082C351.342 36.0241 351.215 35.6855 351.039 35.3926C350.87 35.0931 350.645 34.8587 350.365 34.6895C350.085 34.5202 349.747 34.4355 349.35 34.4355C348.952 34.4355 348.614 34.5202 348.334 34.6895C348.061 34.8587 347.836 35.0931 347.66 35.3926C347.491 35.6855 347.367 36.0241 347.289 36.4082C347.211 36.7858 347.172 37.1895 347.172 37.6191ZM361.801 40.6172V35.9102C361.801 35.5716 361.745 35.2819 361.635 35.041C361.524 34.7936 361.352 34.6016 361.117 34.4648C360.889 34.3281 360.593 34.2598 360.229 34.2598C359.916 34.2598 359.646 34.3151 359.418 34.4258C359.19 34.5299 359.014 34.6829 358.891 34.8848C358.767 35.0801 358.705 35.3112 358.705 35.5781H355.893C355.893 35.1289 355.997 34.7025 356.205 34.2988C356.413 33.8952 356.716 33.5404 357.113 33.2344C357.51 32.9219 357.982 32.6777 358.529 32.502C359.083 32.3262 359.701 32.2383 360.385 32.2383C361.205 32.2383 361.934 32.375 362.572 32.6484C363.21 32.9219 363.712 33.332 364.076 33.8789C364.447 34.4258 364.633 35.1094 364.633 35.9297V40.4512C364.633 41.0306 364.669 41.5059 364.74 41.877C364.812 42.2415 364.916 42.5605 365.053 42.834V43H362.211C362.074 42.7135 361.97 42.3555 361.898 41.9258C361.833 41.4896 361.801 41.0534 361.801 40.6172ZM362.172 36.5645L362.191 38.1562H360.619C360.248 38.1562 359.926 38.1986 359.652 38.2832C359.379 38.3678 359.154 38.4883 358.979 38.6445C358.803 38.7943 358.673 38.9701 358.588 39.1719C358.51 39.3737 358.471 39.5951 358.471 39.8359C358.471 40.0768 358.526 40.2949 358.637 40.4902C358.747 40.679 358.907 40.8288 359.115 40.9395C359.324 41.0436 359.568 41.0957 359.848 41.0957C360.271 41.0957 360.639 41.0111 360.951 40.8418C361.264 40.6725 361.505 40.4642 361.674 40.2168C361.85 39.9694 361.941 39.735 361.947 39.5137L362.689 40.7051C362.585 40.972 362.442 41.2487 362.26 41.5352C362.084 41.8216 361.859 42.0918 361.586 42.3457C361.312 42.5931 360.984 42.7982 360.6 42.9609C360.215 43.1172 359.76 43.1953 359.232 43.1953C358.562 43.1953 357.953 43.0618 357.406 42.7949C356.866 42.5215 356.436 42.1471 356.117 41.6719C355.805 41.1901 355.648 40.6432 355.648 40.0312C355.648 39.4779 355.753 38.9863 355.961 38.5566C356.169 38.127 356.475 37.7656 356.879 37.4727C357.289 37.1732 357.8 36.9486 358.412 36.7988C359.024 36.6426 359.734 36.5645 360.541 36.5645H362.172ZM369.555 34.6895V43H366.742V32.4336H369.379L369.555 34.6895ZM369.145 37.3457H368.383C368.383 36.5645 368.484 35.8613 368.686 35.2363C368.887 34.6048 369.171 34.0677 369.535 33.625C369.9 33.1758 370.333 32.834 370.834 32.5996C371.342 32.3587 371.908 32.2383 372.533 32.2383C373.028 32.2383 373.48 32.3099 373.891 32.4531C374.301 32.5964 374.652 32.8242 374.945 33.1367C375.245 33.4492 375.473 33.8626 375.629 34.377C375.792 34.8913 375.873 35.5195 375.873 36.2617V43H373.041V36.252C373.041 35.7832 372.976 35.4186 372.846 35.1582C372.715 34.8978 372.523 34.7155 372.27 34.6113C372.022 34.5007 371.716 34.4453 371.352 34.4453C370.974 34.4453 370.645 34.5202 370.365 34.6699C370.092 34.8197 369.864 35.028 369.682 35.2949C369.506 35.5553 369.372 35.8613 369.281 36.2129C369.19 36.5645 369.145 36.9421 369.145 37.3457Z" fill="black"/>
<g filter="url(#filter0_d_29_3422)">
<path d="M28.1094 24C21.4214 24 16 29.4214 16 36.1094C16 42.7974 21.4214 48.2188 28.1094 48.2188C34.7974 48.2188 40.2188 42.7974 40.2188 36.1094C40.2188 29.4214 34.7974 24 28.1094 24ZM28.1094 45.0938C23.144 45.0938 19.125 41.0757 19.125 36.1094C19.125 31.144 23.1431 27.125 28.1094 27.125C33.0747 27.125 37.0938 31.1431 37.0938 36.1094C37.0938 41.0747 33.0757 45.0938 28.1094 45.0938ZM28.1094 29.8594C24.6577 29.8594 21.8594 32.6577 21.8594 36.1094C21.8594 39.561 24.6577 42.3594 28.1094 42.3594C31.561 42.3594 34.3594 39.561 34.3594 36.1094C34.3594 32.6577 31.561 29.8594 28.1094 29.8594ZM28.1094 39.2344C26.3862 39.2344 24.9844 37.8325 24.9844 36.1094C24.9844 34.3862 26.3862 32.9844 28.1094 32.9844C29.8325 32.9844 31.2344 34.3862 31.2344 36.1094C31.2344 37.8325 29.8325 39.2344 28.1094 39.2344Z" fill="url(#paint0_linear_29_3422)" shape-rendering="crispEdges"/>
</g>
<rect x="31" y="816" width="354" height="56" rx="20" fill="#256BF4"/>
<path d="M156.44 833.172V854.5H152.061V833.172H156.44ZM163.003 833.172V836.614H145.601V833.172H163.003ZM168.438 842.107V854.5H164.219V838.65H168.188L168.438 842.107ZM173.213 838.548L173.14 842.459C172.935 842.43 172.686 842.405 172.393 842.386C172.109 842.356 171.851 842.342 171.616 842.342C171.021 842.342 170.503 842.42 170.063 842.576C169.634 842.723 169.272 842.942 168.979 843.235C168.696 843.528 168.481 843.885 168.335 844.305C168.198 844.725 168.12 845.203 168.101 845.74L167.251 845.477C167.251 844.451 167.354 843.509 167.559 842.649C167.764 841.78 168.062 841.023 168.452 840.379C168.853 839.734 169.341 839.236 169.917 838.885C170.493 838.533 171.152 838.357 171.895 838.357C172.129 838.357 172.368 838.377 172.612 838.416C172.856 838.445 173.057 838.489 173.213 838.548ZM180.171 852.713L184.375 838.65H188.901L182.529 856.888C182.393 857.288 182.207 857.718 181.973 858.177C181.748 858.636 181.44 859.07 181.05 859.48C180.669 859.9 180.186 860.242 179.6 860.506C179.023 860.77 178.315 860.901 177.476 860.901C177.075 860.901 176.748 860.877 176.494 860.828C176.24 860.779 175.938 860.711 175.586 860.623V857.532C175.693 857.532 175.806 857.532 175.923 857.532C176.04 857.542 176.152 857.547 176.26 857.547C176.816 857.547 177.271 857.483 177.622 857.356C177.974 857.229 178.257 857.034 178.472 856.771C178.687 856.517 178.857 856.185 178.984 855.774L180.171 852.713ZM178.413 838.65L181.855 850.135L182.456 854.603L179.585 854.91L173.887 838.65H178.413ZM206.611 850.926V843.865C206.611 843.357 206.528 842.923 206.362 842.562C206.196 842.19 205.938 841.902 205.586 841.697C205.244 841.492 204.8 841.39 204.253 841.39C203.784 841.39 203.379 841.473 203.037 841.639C202.695 841.795 202.432 842.024 202.246 842.327C202.061 842.62 201.968 842.967 201.968 843.367H197.749C197.749 842.693 197.905 842.054 198.218 841.448C198.53 840.843 198.984 840.311 199.58 839.852C200.176 839.383 200.884 839.017 201.704 838.753C202.534 838.489 203.462 838.357 204.487 838.357C205.718 838.357 206.812 838.562 207.769 838.973C208.726 839.383 209.478 839.998 210.024 840.818C210.581 841.639 210.859 842.664 210.859 843.895V850.677C210.859 851.546 210.913 852.259 211.021 852.815C211.128 853.362 211.284 853.841 211.489 854.251V854.5H207.227C207.021 854.07 206.865 853.533 206.758 852.889C206.66 852.234 206.611 851.58 206.611 850.926ZM207.168 844.847L207.197 847.234H204.839C204.282 847.234 203.799 847.298 203.389 847.425C202.979 847.552 202.642 847.732 202.378 847.967C202.114 848.191 201.919 848.455 201.792 848.758C201.675 849.061 201.616 849.393 201.616 849.754C201.616 850.115 201.699 850.442 201.865 850.735C202.031 851.019 202.271 851.243 202.583 851.409C202.896 851.565 203.262 851.644 203.682 851.644C204.316 851.644 204.868 851.517 205.337 851.263C205.806 851.009 206.167 850.696 206.421 850.325C206.685 849.954 206.821 849.603 206.831 849.271L207.944 851.058C207.788 851.458 207.573 851.873 207.3 852.303C207.036 852.732 206.699 853.138 206.289 853.519C205.879 853.89 205.386 854.197 204.81 854.441C204.233 854.676 203.55 854.793 202.759 854.793C201.753 854.793 200.84 854.593 200.02 854.192C199.209 853.782 198.564 853.221 198.086 852.508C197.617 851.785 197.383 850.965 197.383 850.047C197.383 849.217 197.539 848.479 197.852 847.835C198.164 847.19 198.623 846.648 199.229 846.209C199.844 845.76 200.61 845.423 201.528 845.198C202.446 844.964 203.511 844.847 204.722 844.847H207.168ZM224.146 838.65H227.969V853.973C227.969 855.418 227.646 856.644 227.002 857.649C226.367 858.665 225.479 859.432 224.336 859.949C223.193 860.477 221.865 860.74 220.352 860.74C219.688 860.74 218.984 860.652 218.242 860.477C217.51 860.301 216.807 860.027 216.133 859.656C215.469 859.285 214.912 858.816 214.463 858.25L216.323 855.76C216.812 856.326 217.378 856.766 218.022 857.078C218.667 857.4 219.38 857.562 220.161 857.562C220.923 857.562 221.567 857.42 222.095 857.137C222.622 856.863 223.027 856.458 223.311 855.921C223.594 855.394 223.735 854.754 223.735 854.002V842.312L224.146 838.65ZM213.481 846.766V846.458C213.481 845.247 213.628 844.148 213.921 843.162C214.224 842.166 214.648 841.312 215.195 840.599C215.752 839.886 216.426 839.334 217.217 838.943C218.008 838.553 218.901 838.357 219.897 838.357C220.952 838.357 221.836 838.553 222.549 838.943C223.262 839.334 223.848 839.891 224.307 840.613C224.766 841.326 225.122 842.171 225.376 843.147C225.64 844.114 225.845 845.174 225.991 846.326V847C225.845 848.104 225.625 849.129 225.332 850.076C225.039 851.023 224.653 851.854 224.175 852.566C223.696 853.27 223.101 853.816 222.388 854.207C221.685 854.598 220.845 854.793 219.868 854.793C218.892 854.793 218.008 854.593 217.217 854.192C216.436 853.792 215.767 853.23 215.21 852.508C214.653 851.785 214.224 850.936 213.921 849.959C213.628 848.982 213.481 847.918 213.481 846.766ZM217.7 846.458V846.766C217.7 847.42 217.764 848.03 217.891 848.597C218.018 849.163 218.213 849.666 218.477 850.105C218.75 850.535 219.087 850.872 219.487 851.116C219.897 851.351 220.381 851.468 220.938 851.468C221.709 851.468 222.339 851.307 222.827 850.984C223.315 850.652 223.682 850.198 223.926 849.622C224.17 849.046 224.312 848.382 224.351 847.63V845.711C224.331 845.096 224.248 844.544 224.102 844.056C223.955 843.558 223.75 843.133 223.486 842.781C223.223 842.43 222.881 842.156 222.461 841.961C222.041 841.766 221.543 841.668 220.967 841.668C220.41 841.668 219.927 841.795 219.517 842.049C219.116 842.293 218.779 842.63 218.506 843.06C218.242 843.489 218.042 843.997 217.905 844.583C217.769 845.159 217.7 845.784 217.7 846.458ZM239.805 850.926V843.865C239.805 843.357 239.722 842.923 239.556 842.562C239.39 842.19 239.131 841.902 238.779 841.697C238.438 841.492 237.993 841.39 237.446 841.39C236.978 841.39 236.572 841.473 236.23 841.639C235.889 841.795 235.625 842.024 235.439 842.327C235.254 842.62 235.161 842.967 235.161 843.367H230.942C230.942 842.693 231.099 842.054 231.411 841.448C231.724 840.843 232.178 840.311 232.773 839.852C233.369 839.383 234.077 839.017 234.897 838.753C235.728 838.489 236.655 838.357 237.681 838.357C238.911 838.357 240.005 838.562 240.962 838.973C241.919 839.383 242.671 839.998 243.218 840.818C243.774 841.639 244.053 842.664 244.053 843.895V850.677C244.053 851.546 244.106 852.259 244.214 852.815C244.321 853.362 244.478 853.841 244.683 854.251V854.5H240.42C240.215 854.07 240.059 853.533 239.951 852.889C239.854 852.234 239.805 851.58 239.805 850.926ZM240.361 844.847L240.391 847.234H238.032C237.476 847.234 236.992 847.298 236.582 847.425C236.172 847.552 235.835 847.732 235.571 847.967C235.308 848.191 235.112 848.455 234.985 848.758C234.868 849.061 234.81 849.393 234.81 849.754C234.81 850.115 234.893 850.442 235.059 850.735C235.225 851.019 235.464 851.243 235.776 851.409C236.089 851.565 236.455 851.644 236.875 851.644C237.51 851.644 238.062 851.517 238.53 851.263C238.999 851.009 239.36 850.696 239.614 850.325C239.878 849.954 240.015 849.603 240.024 849.271L241.138 851.058C240.981 851.458 240.767 851.873 240.493 852.303C240.229 852.732 239.893 853.138 239.482 853.519C239.072 853.89 238.579 854.197 238.003 854.441C237.427 854.676 236.743 854.793 235.952 854.793C234.946 854.793 234.033 854.593 233.213 854.192C232.402 853.782 231.758 853.221 231.279 852.508C230.811 851.785 230.576 850.965 230.576 850.047C230.576 849.217 230.732 848.479 231.045 847.835C231.357 847.19 231.816 846.648 232.422 846.209C233.037 845.76 233.804 845.423 234.722 845.198C235.64 844.964 236.704 844.847 237.915 844.847H240.361ZM251.758 838.65V854.5H247.524V838.65H251.758ZM247.261 834.52C247.261 833.904 247.476 833.396 247.905 832.996C248.335 832.596 248.911 832.396 249.634 832.396C250.347 832.396 250.918 832.596 251.348 832.996C251.787 833.396 252.007 833.904 252.007 834.52C252.007 835.135 251.787 835.643 251.348 836.043C250.918 836.443 250.347 836.644 249.634 836.644C248.911 836.644 248.335 836.443 247.905 836.043C247.476 835.643 247.261 835.135 247.261 834.52ZM259.375 842.034V854.5H255.156V838.65H259.111L259.375 842.034ZM258.76 846.019H257.617C257.617 844.847 257.769 843.792 258.071 842.854C258.374 841.907 258.799 841.102 259.346 840.438C259.893 839.764 260.542 839.251 261.294 838.899C262.056 838.538 262.905 838.357 263.843 838.357C264.585 838.357 265.264 838.465 265.879 838.68C266.494 838.895 267.021 839.236 267.461 839.705C267.91 840.174 268.252 840.794 268.486 841.565C268.73 842.337 268.853 843.279 268.853 844.393V854.5H264.604V844.378C264.604 843.675 264.507 843.128 264.312 842.737C264.116 842.347 263.828 842.073 263.447 841.917C263.076 841.751 262.617 841.668 262.07 841.668C261.504 841.668 261.011 841.78 260.591 842.005C260.181 842.229 259.839 842.542 259.565 842.942C259.302 843.333 259.102 843.792 258.965 844.319C258.828 844.847 258.76 845.413 258.76 846.019Z" fill="#FFFCFC"/>
<path d="M179.963 616.303C179.963 615.846 179.893 615.436 179.752 615.072C179.623 614.697 179.377 614.357 179.014 614.053C178.65 613.736 178.141 613.426 177.484 613.121C176.828 612.816 175.979 612.5 174.936 612.172C173.775 611.797 172.674 611.375 171.631 610.906C170.6 610.438 169.686 609.893 168.889 609.271C168.104 608.639 167.482 607.906 167.025 607.074C166.58 606.242 166.357 605.275 166.357 604.174C166.357 603.107 166.592 602.141 167.061 601.273C167.529 600.395 168.186 599.645 169.029 599.023C169.873 598.391 170.869 597.904 172.018 597.564C173.178 597.225 174.449 597.055 175.832 597.055C177.719 597.055 179.365 597.395 180.771 598.074C182.178 598.754 183.268 599.686 184.041 600.869C184.826 602.053 185.219 603.406 185.219 604.93H179.98C179.98 604.18 179.822 603.523 179.506 602.961C179.201 602.387 178.732 601.936 178.1 601.607C177.479 601.279 176.693 601.115 175.744 601.115C174.83 601.115 174.068 601.256 173.459 601.537C172.85 601.807 172.393 602.176 172.088 602.645C171.783 603.102 171.631 603.617 171.631 604.191C171.631 604.625 171.736 605.018 171.947 605.369C172.17 605.721 172.498 606.049 172.932 606.354C173.365 606.658 173.898 606.945 174.531 607.215C175.164 607.484 175.896 607.748 176.729 608.006C178.123 608.428 179.348 608.902 180.402 609.43C181.469 609.957 182.359 610.549 183.074 611.205C183.789 611.861 184.328 612.605 184.691 613.438C185.055 614.27 185.236 615.213 185.236 616.268C185.236 617.381 185.02 618.377 184.586 619.256C184.152 620.135 183.525 620.879 182.705 621.488C181.885 622.098 180.906 622.561 179.77 622.877C178.633 623.193 177.361 623.352 175.955 623.352C174.689 623.352 173.441 623.188 172.211 622.859C170.98 622.52 169.861 622.01 168.854 621.33C167.857 620.65 167.061 619.783 166.463 618.729C165.865 617.674 165.566 616.426 165.566 614.984H170.857C170.857 615.781 170.98 616.455 171.227 617.006C171.473 617.557 171.818 618.002 172.264 618.342C172.721 618.682 173.26 618.928 173.881 619.08C174.514 619.232 175.205 619.309 175.955 619.309C176.869 619.309 177.619 619.18 178.205 618.922C178.803 618.664 179.242 618.307 179.523 617.85C179.816 617.393 179.963 616.877 179.963 616.303ZM187.697 613.684V613.314C187.697 611.92 187.896 610.637 188.295 609.465C188.693 608.281 189.273 607.256 190.035 606.389C190.797 605.521 191.734 604.848 192.848 604.367C193.961 603.875 195.238 603.629 196.68 603.629C198.121 603.629 199.404 603.875 200.529 604.367C201.654 604.848 202.598 605.521 203.359 606.389C204.133 607.256 204.719 608.281 205.117 609.465C205.516 610.637 205.715 611.92 205.715 613.314V613.684C205.715 615.066 205.516 616.35 205.117 617.533C204.719 618.705 204.133 619.73 203.359 620.609C202.598 621.477 201.66 622.15 200.547 622.631C199.434 623.111 198.156 623.352 196.715 623.352C195.273 623.352 193.99 623.111 192.865 622.631C191.752 622.15 190.809 621.477 190.035 620.609C189.273 619.73 188.693 618.705 188.295 617.533C187.896 616.35 187.697 615.066 187.697 613.684ZM192.76 613.314V613.684C192.76 614.48 192.83 615.225 192.971 615.916C193.111 616.607 193.334 617.217 193.639 617.744C193.955 618.26 194.365 618.664 194.869 618.957C195.373 619.25 195.988 619.396 196.715 619.396C197.418 619.396 198.021 619.25 198.525 618.957C199.029 618.664 199.434 618.26 199.738 617.744C200.043 617.217 200.266 616.607 200.406 615.916C200.559 615.225 200.635 614.48 200.635 613.684V613.314C200.635 612.541 200.559 611.814 200.406 611.135C200.266 610.443 200.037 609.834 199.721 609.307C199.416 608.768 199.012 608.346 198.508 608.041C198.004 607.736 197.395 607.584 196.68 607.584C195.965 607.584 195.355 607.736 194.852 608.041C194.359 608.346 193.955 608.768 193.639 609.307C193.334 609.834 193.111 610.443 192.971 611.135C192.83 611.814 192.76 612.541 192.76 613.314ZM213.889 608.129V623H208.826V603.98H213.59L213.889 608.129ZM219.619 603.857L219.531 608.551C219.285 608.516 218.986 608.486 218.635 608.463C218.295 608.428 217.984 608.41 217.703 608.41C216.988 608.41 216.367 608.504 215.84 608.691C215.324 608.867 214.891 609.131 214.539 609.482C214.199 609.834 213.941 610.262 213.766 610.766C213.602 611.27 213.508 611.844 213.484 612.488L212.465 612.172C212.465 610.941 212.588 609.811 212.834 608.779C213.08 607.736 213.438 606.828 213.906 606.055C214.387 605.281 214.973 604.684 215.664 604.262C216.355 603.84 217.146 603.629 218.037 603.629C218.318 603.629 218.605 603.652 218.898 603.699C219.191 603.734 219.432 603.787 219.619 603.857ZM227.072 608.129V623H222.01V603.98H226.773L227.072 608.129ZM232.803 603.857L232.715 608.551C232.469 608.516 232.17 608.486 231.818 608.463C231.479 608.428 231.168 608.41 230.887 608.41C230.172 608.41 229.551 608.504 229.023 608.691C228.508 608.867 228.074 609.131 227.723 609.482C227.383 609.834 227.125 610.262 226.949 610.766C226.785 611.27 226.691 611.844 226.668 612.488L225.648 612.172C225.648 610.941 225.771 609.811 226.018 608.779C226.264 607.736 226.621 606.828 227.09 606.055C227.57 605.281 228.156 604.684 228.848 604.262C229.539 603.84 230.33 603.629 231.221 603.629C231.502 603.629 231.789 603.652 232.082 603.699C232.375 603.734 232.615 603.787 232.803 603.857ZM241.152 620.855L246.197 603.98H251.629L243.982 625.865C243.818 626.346 243.596 626.861 243.314 627.412C243.045 627.963 242.676 628.484 242.207 628.977C241.75 629.48 241.17 629.891 240.467 630.207C239.775 630.523 238.926 630.682 237.918 630.682C237.438 630.682 237.045 630.652 236.74 630.594C236.436 630.535 236.072 630.453 235.65 630.348V626.639C235.779 626.639 235.914 626.639 236.055 626.639C236.195 626.65 236.33 626.656 236.459 626.656C237.127 626.656 237.672 626.58 238.094 626.428C238.516 626.275 238.855 626.041 239.113 625.725C239.371 625.42 239.576 625.021 239.729 624.529L241.152 620.855ZM239.043 603.98L243.174 617.762L243.895 623.123L240.449 623.492L233.611 603.98H239.043ZM73 639.406L78.3438 651.078L83.6875 639.406H89.4355L81.0156 655.684V665H75.6719V655.684L67.2344 639.406H73ZM89.4883 655.684V655.314C89.4883 653.92 89.6875 652.637 90.0859 651.465C90.4844 650.281 91.0645 649.256 91.8262 648.389C92.5879 647.521 93.5254 646.848 94.6387 646.367C95.752 645.875 97.0293 645.629 98.4707 645.629C99.9121 645.629 101.195 645.875 102.32 646.367C103.445 646.848 104.389 647.521 105.15 648.389C105.924 649.256 106.51 650.281 106.908 651.465C107.307 652.637 107.506 653.92 107.506 655.314V655.684C107.506 657.066 107.307 658.35 106.908 659.533C106.51 660.705 105.924 661.73 105.15 662.609C104.389 663.477 103.451 664.15 102.338 664.631C101.225 665.111 99.9473 665.352 98.5059 665.352C97.0645 665.352 95.7812 665.111 94.6562 664.631C93.543 664.15 92.5996 663.477 91.8262 662.609C91.0645 661.73 90.4844 660.705 90.0859 659.533C89.6875 658.35 89.4883 657.066 89.4883 655.684ZM94.5508 655.314V655.684C94.5508 656.48 94.6211 657.225 94.7617 657.916C94.9023 658.607 95.125 659.217 95.4297 659.744C95.7461 660.26 96.1562 660.664 96.6602 660.957C97.1641 661.25 97.7793 661.396 98.5059 661.396C99.209 661.396 99.8125 661.25 100.316 660.957C100.82 660.664 101.225 660.26 101.529 659.744C101.834 659.217 102.057 658.607 102.197 657.916C102.35 657.225 102.426 656.48 102.426 655.684V655.314C102.426 654.541 102.35 653.814 102.197 653.135C102.057 652.443 101.828 651.834 101.512 651.307C101.207 650.768 100.803 650.346 100.299 650.041C99.7949 649.736 99.1855 649.584 98.4707 649.584C97.7559 649.584 97.1465 649.736 96.6426 650.041C96.1504 650.346 95.7461 650.768 95.4297 651.307C95.125 651.834 94.9023 652.443 94.7617 653.135C94.6211 653.814 94.5508 654.541 94.5508 655.314ZM121.867 660.447V645.98H126.93V665H122.166L121.867 660.447ZM122.43 656.545L123.924 656.51C123.924 657.775 123.777 658.953 123.484 660.043C123.191 661.121 122.752 662.059 122.166 662.855C121.58 663.641 120.842 664.256 119.951 664.701C119.061 665.135 118.012 665.352 116.805 665.352C115.879 665.352 115.023 665.223 114.238 664.965C113.465 664.695 112.797 664.279 112.234 663.717C111.684 663.143 111.25 662.41 110.934 661.52C110.629 660.617 110.477 659.533 110.477 658.268V645.98H115.539V658.303C115.539 658.865 115.604 659.34 115.732 659.727C115.873 660.113 116.066 660.43 116.312 660.676C116.559 660.922 116.846 661.098 117.174 661.203C117.514 661.309 117.889 661.361 118.299 661.361C119.342 661.361 120.162 661.15 120.76 660.729C121.369 660.307 121.797 659.732 122.043 659.006C122.301 658.268 122.43 657.447 122.43 656.545ZM135.42 638V640.672C135.42 641.434 135.273 642.219 134.98 643.027C134.699 643.836 134.318 644.604 133.838 645.33C133.357 646.045 132.83 646.654 132.256 647.158L129.883 645.787C130.316 645.096 130.686 644.346 130.99 643.537C131.295 642.717 131.447 641.768 131.447 640.689V638H135.42ZM144.121 650.129V665H139.059V645.98H143.822L144.121 650.129ZM149.852 645.857L149.764 650.551C149.518 650.516 149.219 650.486 148.867 650.463C148.527 650.428 148.217 650.41 147.936 650.41C147.221 650.41 146.6 650.504 146.072 650.691C145.557 650.867 145.123 651.131 144.771 651.482C144.432 651.834 144.174 652.262 143.998 652.766C143.834 653.27 143.74 653.844 143.717 654.488L142.697 654.172C142.697 652.941 142.82 651.811 143.066 650.779C143.312 649.736 143.67 648.828 144.139 648.055C144.619 647.281 145.205 646.684 145.896 646.262C146.588 645.84 147.379 645.629 148.27 645.629C148.551 645.629 148.838 645.652 149.131 645.699C149.424 645.734 149.664 645.787 149.852 645.857ZM160.645 665.352C159.168 665.352 157.844 665.117 156.672 664.648C155.5 664.168 154.504 663.506 153.684 662.662C152.875 661.818 152.254 660.84 151.82 659.727C151.387 658.602 151.17 657.406 151.17 656.141V655.438C151.17 653.996 151.375 652.678 151.785 651.482C152.195 650.287 152.781 649.25 153.543 648.371C154.316 647.492 155.254 646.818 156.355 646.35C157.457 645.869 158.699 645.629 160.082 645.629C161.43 645.629 162.625 645.852 163.668 646.297C164.711 646.742 165.584 647.375 166.287 648.195C167.002 649.016 167.541 650 167.904 651.148C168.268 652.285 168.449 653.551 168.449 654.945V657.055H153.332V653.68H163.475V653.293C163.475 652.59 163.346 651.963 163.088 651.412C162.842 650.85 162.467 650.404 161.963 650.076C161.459 649.748 160.814 649.584 160.029 649.584C159.361 649.584 158.787 649.73 158.307 650.023C157.826 650.316 157.434 650.727 157.129 651.254C156.836 651.781 156.613 652.402 156.461 653.117C156.32 653.82 156.25 654.594 156.25 655.438V656.141C156.25 656.902 156.355 657.605 156.566 658.25C156.789 658.895 157.1 659.451 157.498 659.92C157.908 660.389 158.4 660.752 158.975 661.01C159.561 661.268 160.223 661.396 160.961 661.396C161.875 661.396 162.725 661.221 163.51 660.869C164.307 660.506 164.992 659.961 165.566 659.234L168.027 661.906C167.629 662.48 167.084 663.031 166.393 663.559C165.713 664.086 164.893 664.52 163.932 664.859C162.971 665.188 161.875 665.352 160.645 665.352ZM185.254 650.041V665H180.191V645.98H184.938L185.254 650.041ZM184.516 654.822H183.145C183.145 653.416 183.326 652.15 183.689 651.025C184.053 649.889 184.562 648.922 185.219 648.125C185.875 647.316 186.654 646.701 187.557 646.279C188.471 645.846 189.49 645.629 190.615 645.629C191.506 645.629 192.32 645.758 193.059 646.016C193.797 646.273 194.43 646.684 194.957 647.246C195.496 647.809 195.906 648.553 196.188 649.479C196.48 650.404 196.627 651.535 196.627 652.871V665H191.529V652.854C191.529 652.01 191.412 651.354 191.178 650.885C190.943 650.416 190.598 650.088 190.141 649.9C189.695 649.701 189.145 649.602 188.488 649.602C187.809 649.602 187.217 649.736 186.713 650.006C186.221 650.275 185.811 650.65 185.482 651.131C185.166 651.6 184.926 652.15 184.762 652.783C184.598 653.416 184.516 654.096 184.516 654.822ZM199.668 655.684V655.314C199.668 653.92 199.867 652.637 200.266 651.465C200.664 650.281 201.244 649.256 202.006 648.389C202.768 647.521 203.705 646.848 204.818 646.367C205.932 645.875 207.209 645.629 208.65 645.629C210.092 645.629 211.375 645.875 212.5 646.367C213.625 646.848 214.568 647.521 215.33 648.389C216.104 649.256 216.689 650.281 217.088 651.465C217.486 652.637 217.686 653.92 217.686 655.314V655.684C217.686 657.066 217.486 658.35 217.088 659.533C216.689 660.705 216.104 661.73 215.33 662.609C214.568 663.477 213.631 664.15 212.518 664.631C211.404 665.111 210.127 665.352 208.686 665.352C207.244 665.352 205.961 665.111 204.836 664.631C203.723 664.15 202.779 663.477 202.006 662.609C201.244 661.73 200.664 660.705 200.266 659.533C199.867 658.35 199.668 657.066 199.668 655.684ZM204.73 655.314V655.684C204.73 656.48 204.801 657.225 204.941 657.916C205.082 658.607 205.305 659.217 205.609 659.744C205.926 660.26 206.336 660.664 206.84 660.957C207.344 661.25 207.959 661.396 208.686 661.396C209.389 661.396 209.992 661.25 210.496 660.957C211 660.664 211.404 660.26 211.709 659.744C212.014 659.217 212.236 658.607 212.377 657.916C212.529 657.225 212.605 656.48 212.605 655.684V655.314C212.605 654.541 212.529 653.814 212.377 653.135C212.236 652.443 212.008 651.834 211.691 651.307C211.387 650.768 210.982 650.346 210.479 650.041C209.975 649.736 209.365 649.584 208.65 649.584C207.936 649.584 207.326 649.736 206.822 650.041C206.33 650.346 205.926 650.768 205.609 651.307C205.305 651.834 205.082 652.443 204.941 653.135C204.801 653.814 204.73 654.541 204.73 655.314ZM230.113 645.98V649.566H219.039V645.98H230.113ZM221.781 641.287H226.844V659.27C226.844 659.82 226.914 660.242 227.055 660.535C227.207 660.828 227.43 661.033 227.723 661.15C228.016 661.256 228.385 661.309 228.83 661.309C229.146 661.309 229.428 661.297 229.674 661.273C229.932 661.238 230.148 661.203 230.324 661.168L230.342 664.895C229.908 665.035 229.439 665.146 228.936 665.229C228.432 665.311 227.875 665.352 227.266 665.352C226.152 665.352 225.18 665.17 224.348 664.807C223.527 664.432 222.895 663.834 222.449 663.014C222.004 662.193 221.781 661.115 221.781 659.779V641.287ZM250.715 665.352C249.238 665.352 247.914 665.117 246.742 664.648C245.57 664.168 244.574 663.506 243.754 662.662C242.945 661.818 242.324 660.84 241.891 659.727C241.457 658.602 241.24 657.406 241.24 656.141V655.438C241.24 653.996 241.445 652.678 241.855 651.482C242.266 650.287 242.852 649.25 243.613 648.371C244.387 647.492 245.324 646.818 246.426 646.35C247.527 645.869 248.77 645.629 250.152 645.629C251.5 645.629 252.695 645.852 253.738 646.297C254.781 646.742 255.654 647.375 256.357 648.195C257.072 649.016 257.611 650 257.975 651.148C258.338 652.285 258.52 653.551 258.52 654.945V657.055H243.402V653.68H253.545V653.293C253.545 652.59 253.416 651.963 253.158 651.412C252.912 650.85 252.537 650.404 252.033 650.076C251.529 649.748 250.885 649.584 250.1 649.584C249.432 649.584 248.857 649.73 248.377 650.023C247.896 650.316 247.504 650.727 247.199 651.254C246.906 651.781 246.684 652.402 246.531 653.117C246.391 653.82 246.32 654.594 246.32 655.438V656.141C246.32 656.902 246.426 657.605 246.637 658.25C246.859 658.895 247.17 659.451 247.568 659.92C247.979 660.389 248.471 660.752 249.045 661.01C249.631 661.268 250.293 661.396 251.031 661.396C251.945 661.396 252.795 661.221 253.58 660.869C254.377 660.506 255.062 659.961 255.637 659.234L258.098 661.906C257.699 662.48 257.154 663.031 256.463 663.559C255.783 664.086 254.963 664.52 254.002 664.859C253.041 665.188 251.945 665.352 250.715 665.352ZM266.746 638V665H261.666V638H266.746ZM276.273 645.98V665H271.193V645.98H276.273ZM270.877 641.023C270.877 640.285 271.135 639.676 271.65 639.195C272.166 638.715 272.857 638.475 273.725 638.475C274.58 638.475 275.266 638.715 275.781 639.195C276.309 639.676 276.572 640.285 276.572 641.023C276.572 641.762 276.309 642.371 275.781 642.852C275.266 643.332 274.58 643.572 273.725 643.572C272.857 643.572 272.166 643.332 271.65 642.852C271.135 642.371 270.877 641.762 270.877 641.023ZM292.498 645.98H297.086V664.367C297.086 666.102 296.699 667.572 295.926 668.779C295.164 669.998 294.098 670.918 292.727 671.539C291.355 672.172 289.762 672.488 287.945 672.488C287.148 672.488 286.305 672.383 285.414 672.172C284.535 671.961 283.691 671.633 282.883 671.188C282.086 670.742 281.418 670.18 280.879 669.5L283.111 666.512C283.697 667.191 284.377 667.719 285.15 668.094C285.924 668.48 286.779 668.674 287.717 668.674C288.631 668.674 289.404 668.504 290.037 668.164C290.67 667.836 291.156 667.35 291.496 666.705C291.836 666.072 292.006 665.305 292.006 664.402V650.375L292.498 645.98ZM279.701 655.719V655.35C279.701 653.896 279.877 652.578 280.229 651.395C280.592 650.199 281.102 649.174 281.758 648.318C282.426 647.463 283.234 646.801 284.184 646.332C285.133 645.863 286.205 645.629 287.4 645.629C288.666 645.629 289.727 645.863 290.582 646.332C291.438 646.801 292.141 647.469 292.691 648.336C293.242 649.191 293.67 650.205 293.975 651.377C294.291 652.537 294.537 653.809 294.713 655.191V656C294.537 657.324 294.273 658.555 293.922 659.691C293.57 660.828 293.107 661.824 292.533 662.68C291.959 663.523 291.244 664.18 290.389 664.648C289.545 665.117 288.537 665.352 287.365 665.352C286.193 665.352 285.133 665.111 284.184 664.631C283.246 664.15 282.443 663.477 281.775 662.609C281.107 661.742 280.592 660.723 280.229 659.551C279.877 658.379 279.701 657.102 279.701 655.719ZM284.764 655.35V655.719C284.764 656.504 284.84 657.236 284.992 657.916C285.145 658.596 285.379 659.199 285.695 659.727C286.023 660.242 286.428 660.646 286.908 660.939C287.4 661.221 287.98 661.361 288.648 661.361C289.574 661.361 290.33 661.168 290.916 660.781C291.502 660.383 291.941 659.838 292.234 659.146C292.527 658.455 292.697 657.658 292.744 656.756V654.453C292.721 653.715 292.621 653.053 292.445 652.467C292.27 651.869 292.023 651.359 291.707 650.938C291.391 650.516 290.98 650.188 290.477 649.953C289.973 649.719 289.375 649.602 288.684 649.602C288.016 649.602 287.436 649.754 286.943 650.059C286.463 650.352 286.059 650.756 285.73 651.271C285.414 651.787 285.174 652.396 285.01 653.1C284.846 653.791 284.764 654.541 284.764 655.35ZM306.367 645.98V665H301.287V645.98H306.367ZM300.971 641.023C300.971 640.285 301.229 639.676 301.744 639.195C302.26 638.715 302.951 638.475 303.818 638.475C304.674 638.475 305.359 638.715 305.875 639.195C306.402 639.676 306.666 640.285 306.666 641.023C306.666 641.762 306.402 642.371 305.875 642.852C305.359 643.332 304.674 643.572 303.818 643.572C302.951 643.572 302.26 643.332 301.744 642.852C301.229 642.371 300.971 641.762 300.971 641.023ZM310.551 638H315.613V660.641L315.104 665H310.551V638ZM327.654 655.297V655.666C327.654 657.084 327.502 658.385 327.197 659.568C326.904 660.752 326.447 661.777 325.826 662.645C325.205 663.5 324.432 664.168 323.506 664.648C322.592 665.117 321.514 665.352 320.271 665.352C319.111 665.352 318.104 665.117 317.248 664.648C316.404 664.18 315.695 663.518 315.121 662.662C314.547 661.807 314.084 660.805 313.732 659.656C313.381 658.508 313.117 657.254 312.941 655.895V655.086C313.117 653.727 313.381 652.473 313.732 651.324C314.084 650.176 314.547 649.174 315.121 648.318C315.695 647.463 316.404 646.801 317.248 646.332C318.092 645.863 319.088 645.629 320.236 645.629C321.49 645.629 322.58 645.869 323.506 646.35C324.443 646.818 325.217 647.486 325.826 648.354C326.447 649.209 326.904 650.229 327.197 651.412C327.502 652.584 327.654 653.879 327.654 655.297ZM322.592 655.666V655.297C322.592 654.523 322.533 653.797 322.416 653.117C322.311 652.426 322.123 651.822 321.854 651.307C321.584 650.779 321.215 650.363 320.746 650.059C320.289 649.754 319.697 649.602 318.971 649.602C318.279 649.602 317.693 649.719 317.213 649.953C316.732 650.188 316.334 650.516 316.018 650.938C315.713 651.359 315.484 651.863 315.332 652.449C315.18 653.023 315.086 653.656 315.051 654.348V656.65C315.086 657.576 315.238 658.396 315.508 659.111C315.789 659.814 316.211 660.371 316.773 660.781C317.348 661.18 318.092 661.379 319.006 661.379C319.721 661.379 320.312 661.238 320.781 660.957C321.25 660.676 321.613 660.277 321.871 659.762C322.141 659.246 322.328 658.643 322.434 657.951C322.539 657.248 322.592 656.486 322.592 655.666ZM336.145 638V665H331.064V638H336.145ZM349.082 665.352C347.605 665.352 346.281 665.117 345.109 664.648C343.938 664.168 342.941 663.506 342.121 662.662C341.312 661.818 340.691 660.84 340.258 659.727C339.824 658.602 339.607 657.406 339.607 656.141V655.438C339.607 653.996 339.812 652.678 340.223 651.482C340.633 650.287 341.219 649.25 341.98 648.371C342.754 647.492 343.691 646.818 344.793 646.35C345.895 645.869 347.137 645.629 348.52 645.629C349.867 645.629 351.062 645.852 352.105 646.297C353.148 646.742 354.021 647.375 354.725 648.195C355.439 649.016 355.979 650 356.342 651.148C356.705 652.285 356.887 653.551 356.887 654.945V657.055H341.77V653.68H351.912V653.293C351.912 652.59 351.783 651.963 351.525 651.412C351.279 650.85 350.904 650.404 350.4 650.076C349.896 649.748 349.252 649.584 348.467 649.584C347.799 649.584 347.225 649.73 346.744 650.023C346.264 650.316 345.871 650.727 345.566 651.254C345.273 651.781 345.051 652.402 344.898 653.117C344.758 653.82 344.688 654.594 344.688 655.438V656.141C344.688 656.902 344.793 657.605 345.004 658.25C345.227 658.895 345.537 659.451 345.936 659.92C346.346 660.389 346.838 660.752 347.412 661.01C347.998 661.268 348.66 661.396 349.398 661.396C350.312 661.396 351.162 661.221 351.947 660.869C352.744 660.506 353.43 659.961 354.004 659.234L356.465 661.906C356.066 662.48 355.521 663.031 354.83 663.559C354.15 664.086 353.33 664.52 352.369 664.859C351.408 665.188 350.312 665.352 349.082 665.352Z" fill="black"/>
<path d="M213 505.428C131.708 505.428 65.5713 439.292 65.5713 357.999C65.5713 276.709 131.708 210.573 213 210.573C294.291 210.573 360.427 276.709 360.427 357.999C360.427 439.292 294.291 505.428 213 505.428Z" fill="#FFD271"/>
<path d="M213.266 211.021C208.229 211.021 203.254 211.269 198.341 211.722C276.326 218.908 341.564 280.228 341.564 356.755C341.564 433.281 276.326 497.717 198.341 504.903C203.254 505.356 208.229 505.604 213.266 505.604C298.256 505.604 367.154 439.66 367.154 358.312C367.154 276.965 298.256 211.021 213.266 211.021Z" fill="#FFCE00"/>
<path d="M213 213C293.081 213 358 277.919 358 358C358 438.081 293.081 503 213 503C132.919 503 67.9999 438.081 67.9999 358C67.9999 277.919 132.919 213 213 213ZM213 198C124.776 198 53 269.775 53 358C53 446.224 124.776 518 213 518C301.225 518 373 446.224 373 358C373 269.775 301.225 198 213 198Z" fill="#333F76"/>
<path d="M91.1503 305.307C90.3116 305.307 89.4602 305.118 88.6564 304.721C85.8732 303.342 84.7342 299.967 86.113 297.182C98.2748 272.631 118.303 252.019 142.508 239.145C145.26 237.684 148.658 238.728 150.116 241.469C151.575 244.212 150.535 247.617 147.792 249.077C125.645 260.856 107.322 279.714 96.1949 302.177C95.2134 304.158 93.2212 305.307 91.1503 305.307ZM173.05 238.935C170.539 238.935 168.252 237.243 167.602 234.698C166.835 231.687 168.653 228.626 171.663 227.857C177.005 226.494 182.489 225.46 187.964 224.782C191.042 224.398 193.854 226.592 194.237 229.675C194.618 232.757 192.428 235.565 189.344 235.948C184.34 236.567 179.327 237.514 174.443 238.759C173.978 238.878 173.509 238.935 173.05 238.935Z" fill="white"/>
<path d="M126.602 372.781C126.602 382.101 119.047 389.656 109.727 389.656C100.407 389.656 92.8521 382.101 92.8521 372.781C92.8521 363.462 100.407 355.906 109.727 355.906C119.047 355.906 126.602 363.462 126.602 372.781Z" fill="#FB4F66"/>
<path d="M335.665 372.781C335.665 382.101 328.109 389.656 318.79 389.656C309.47 389.656 301.915 382.101 301.915 372.781C301.915 363.461 309.47 355.906 318.79 355.906C328.109 355.906 335.665 363.461 335.665 372.781Z" fill="#FB4F66"/>
<path d="M173.633 316C173.633 325.319 166.078 332.875 156.758 332.875C147.439 332.875 139.883 325.319 139.883 316C139.883 306.68 147.439 299.125 156.758 299.125C166.078 299.125 173.633 306.68 173.633 316Z" fill="#333F76"/>
<path d="M288.634 316C288.634 325.319 281.079 332.875 271.759 332.875C262.439 332.875 254.884 325.319 254.884 316C254.884 306.68 262.439 299.125 271.759 299.125C281.079 299.125 288.634 306.68 288.634 316Z" fill="#333F76"/>
<path d="M249.315 361.786C240.925 356.32 231.95 352.915 222.639 351.665C219.705 351.271 216.74 351.091 213.758 351.124C210.775 351.091 207.811 351.271 204.876 351.665C195.566 352.915 186.591 356.32 178.2 361.786C175.473 363.562 174.703 367.213 176.479 369.94C177.609 371.674 179.497 372.617 181.422 372.617C182.525 372.617 183.64 372.308 184.633 371.661C184.713 371.609 184.794 371.558 184.874 371.506L184.899 371.542L184.884 371.553C184.955 371.503 192.165 366.558 202.964 364.178C206.608 363.375 210.208 362.949 213.758 362.896C217.307 362.949 220.907 363.375 224.552 364.178C235.351 366.558 242.56 371.503 242.632 371.553L242.616 371.542L242.642 371.506C242.722 371.558 242.802 371.609 242.882 371.661C243.875 372.308 244.99 372.617 246.093 372.617C248.019 372.617 249.906 371.674 251.036 369.94C252.812 367.213 252.042 363.562 249.315 361.786Z" fill="#333F76"/>
<defs>
<filter id="filter0_d_29_3422" x="12" y="24" width="32.2188" height="32.2188" filterUnits="userSpaceOnUse" color-interpolation-filters="sRGB">
<feFlood flood-opacity="0" result="BackgroundImageFix"/>
<feColorMatrix in="SourceAlpha" type="matrix" values="0 0 0 0 0 0 0 0 0 0 0 0 0 0 0 0 0 0 127 0" result="hardAlpha"/>
<feOffset dy="4"/>
<feGaussianBlur stdDeviation="2"/>
<feComposite in2="hardAlpha" operator="out"/>
<feColorMatrix type="matrix" values="0 0 0 0 0 0 0 0 0 0 0 0 0 0 0 0 0 0 0.25 0"/>
<feBlend mode="normal" in2="BackgroundImageFix" result="effect1_dropShadow_29_3422"/>
<feBlend mode="normal" in="SourceGraphic" in2="effect1_dropShadow_29_3422" result="shape"/>
</filter>
<linearGradient id="paint0_linear_29_3422" x1="28.1094" y1="24" x2="28.1094" y2="48.2188" gradientUnits="userSpaceOnUse">
<stop stop-color="#00FFD1"/>
<stop offset="1" stop-color="#38A6BE" stop-opacity="0.84"/>
</linearGradient>
</defs>
</svg>
