<svg width="414" height="896" viewBox="0 0 414 896" fill="none" xmlns="http://www.w3.org/2000/svg">
<g clip-path="url(#clip0_28_822)">
<rect width="414" height="896" rx="20" fill="#EEF9FA"/>
<path d="M290.051 31.2129L286.184 43H283.068L288.352 28.7812H290.334L290.051 31.2129ZM293.264 43L289.387 31.2129L289.074 28.7812H291.076L296.389 43H293.264ZM293.088 37.707V40.002H285.578V37.707H293.088ZM300.5 28V43H297.678V28H300.5ZM305.637 34.4648V47.0625H302.824V32.4336H305.432L305.637 34.4648ZM312.326 37.5996V37.8047C312.326 38.5729 312.235 39.2858 312.053 39.9434C311.877 40.6009 311.617 41.1738 311.271 41.6621C310.926 42.1439 310.497 42.5215 309.982 42.7949C309.475 43.0618 308.889 43.1953 308.225 43.1953C307.58 43.1953 307.02 43.0651 306.545 42.8047C306.07 42.5443 305.669 42.1797 305.344 41.7109C305.025 41.2357 304.768 40.6855 304.572 40.0605C304.377 39.4355 304.227 38.765 304.123 38.0488V37.5117C304.227 36.7435 304.377 36.0404 304.572 35.4023C304.768 34.7578 305.025 34.2012 305.344 33.7324C305.669 33.2572 306.066 32.8893 306.535 32.6289C307.01 32.3685 307.567 32.2383 308.205 32.2383C308.876 32.2383 309.465 32.3652 309.973 32.6191C310.487 32.873 310.917 33.2376 311.262 33.7129C311.613 34.1882 311.877 34.7546 312.053 35.4121C312.235 36.0697 312.326 36.7988 312.326 37.5996ZM309.504 37.8047V37.5996C309.504 37.1504 309.465 36.737 309.387 36.3594C309.315 35.9753 309.198 35.64 309.035 35.3535C308.879 35.0671 308.671 34.8457 308.41 34.6895C308.156 34.5267 307.847 34.4453 307.482 34.4453C307.098 34.4453 306.77 34.5072 306.496 34.6309C306.229 34.7546 306.011 34.9336 305.842 35.168C305.673 35.4023 305.546 35.6823 305.461 36.0078C305.376 36.3333 305.324 36.7012 305.305 37.1113V38.4688C305.337 38.9505 305.428 39.3835 305.578 39.7676C305.728 40.1452 305.959 40.4447 306.271 40.666C306.584 40.8874 306.994 40.998 307.502 40.998C307.873 40.998 308.186 40.9167 308.439 40.7539C308.693 40.5846 308.898 40.3535 309.055 40.0605C309.217 39.7676 309.331 39.429 309.396 39.0449C309.468 38.6608 309.504 38.2474 309.504 37.8047ZM316.818 28V43H314.006V28H316.818ZM316.418 37.3457H315.646C315.653 36.61 315.751 35.9329 315.939 35.3145C316.128 34.6895 316.398 34.1491 316.75 33.6934C317.102 33.2311 317.521 32.873 318.01 32.6191C318.505 32.3652 319.051 32.2383 319.65 32.2383C320.171 32.2383 320.643 32.3132 321.066 32.4629C321.496 32.6061 321.864 32.8405 322.17 33.166C322.482 33.485 322.723 33.9049 322.893 34.4258C323.062 34.9466 323.146 35.5781 323.146 36.3203V43H320.314V36.3008C320.314 35.832 320.246 35.4642 320.109 35.1973C319.979 34.9238 319.787 34.7318 319.533 34.6211C319.286 34.5039 318.98 34.4453 318.615 34.4453C318.212 34.4453 317.867 34.5202 317.58 34.6699C317.3 34.8197 317.076 35.028 316.906 35.2949C316.737 35.5553 316.613 35.8613 316.535 36.2129C316.457 36.5645 316.418 36.9421 316.418 37.3457ZM330.988 40.6172V35.9102C330.988 35.5716 330.933 35.2819 330.822 35.041C330.712 34.7936 330.539 34.6016 330.305 34.4648C330.077 34.3281 329.781 34.2598 329.416 34.2598C329.104 34.2598 328.833 34.3151 328.605 34.4258C328.378 34.5299 328.202 34.6829 328.078 34.8848C327.954 35.0801 327.893 35.3112 327.893 35.5781H325.08C325.08 35.1289 325.184 34.7025 325.393 34.2988C325.601 33.8952 325.904 33.5404 326.301 33.2344C326.698 32.9219 327.17 32.6777 327.717 32.502C328.27 32.3262 328.889 32.2383 329.572 32.2383C330.393 32.2383 331.122 32.375 331.76 32.6484C332.398 32.9219 332.899 33.332 333.264 33.8789C333.635 34.4258 333.82 35.1094 333.82 35.9297V40.4512C333.82 41.0306 333.856 41.5059 333.928 41.877C333.999 42.2415 334.104 42.5605 334.24 42.834V43H331.398C331.262 42.7135 331.158 42.3555 331.086 41.9258C331.021 41.4896 330.988 41.0534 330.988 40.6172ZM331.359 36.5645L331.379 38.1562H329.807C329.436 38.1562 329.113 38.1986 328.84 38.2832C328.566 38.3678 328.342 38.4883 328.166 38.6445C327.99 38.7943 327.86 38.9701 327.775 39.1719C327.697 39.3737 327.658 39.5951 327.658 39.8359C327.658 40.0768 327.714 40.2949 327.824 40.4902C327.935 40.679 328.094 40.8288 328.303 40.9395C328.511 41.0436 328.755 41.0957 329.035 41.0957C329.458 41.0957 329.826 41.0111 330.139 40.8418C330.451 40.6725 330.692 40.4642 330.861 40.2168C331.037 39.9694 331.128 39.735 331.135 39.5137L331.877 40.7051C331.773 40.972 331.63 41.2487 331.447 41.5352C331.271 41.8216 331.047 42.0918 330.773 42.3457C330.5 42.5931 330.171 42.7982 329.787 42.9609C329.403 43.1172 328.947 43.1953 328.42 43.1953C327.749 43.1953 327.141 43.0618 326.594 42.7949C326.053 42.5215 325.624 42.1471 325.305 41.6719C324.992 41.1901 324.836 40.6432 324.836 40.0312C324.836 39.4779 324.94 38.9863 325.148 38.5566C325.357 38.127 325.663 37.7656 326.066 37.4727C326.477 37.1732 326.988 36.9486 327.6 36.7988C328.212 36.6426 328.921 36.5645 329.729 36.5645H331.359ZM345.305 40.7148V43H338.146V40.7148H345.305ZM339.094 28.7812V43H336.164V28.7812H339.094ZM346.359 37.8242V37.6191C346.359 36.8444 346.47 36.1315 346.691 35.4805C346.913 34.8229 347.235 34.2533 347.658 33.7715C348.081 33.2897 348.602 32.9154 349.221 32.6484C349.839 32.375 350.549 32.2383 351.35 32.2383C352.15 32.2383 352.863 32.375 353.488 32.6484C354.113 32.9154 354.637 33.2897 355.061 33.7715C355.49 34.2533 355.816 34.8229 356.037 35.4805C356.258 36.1315 356.369 36.8444 356.369 37.6191V37.8242C356.369 38.5924 356.258 39.3053 356.037 39.9629C355.816 40.6139 355.49 41.1836 355.061 41.6719C354.637 42.1536 354.117 42.528 353.498 42.7949C352.88 43.0618 352.17 43.1953 351.369 43.1953C350.568 43.1953 349.855 43.0618 349.23 42.7949C348.612 42.528 348.088 42.1536 347.658 41.6719C347.235 41.1836 346.913 40.6139 346.691 39.9629C346.47 39.3053 346.359 38.5924 346.359 37.8242ZM349.172 37.6191V37.8242C349.172 38.2669 349.211 38.6803 349.289 39.0645C349.367 39.4486 349.491 39.7871 349.66 40.0801C349.836 40.3665 350.064 40.5911 350.344 40.7539C350.624 40.9167 350.965 40.998 351.369 40.998C351.76 40.998 352.095 40.9167 352.375 40.7539C352.655 40.5911 352.88 40.3665 353.049 40.0801C353.218 39.7871 353.342 39.4486 353.42 39.0645C353.505 38.6803 353.547 38.2669 353.547 37.8242V37.6191C353.547 37.1895 353.505 36.7858 353.42 36.4082C353.342 36.0241 353.215 35.6855 353.039 35.3926C352.87 35.0931 352.645 34.8587 352.365 34.6895C352.085 34.5202 351.747 34.4355 351.35 34.4355C350.952 34.4355 350.614 34.5202 350.334 34.6895C350.061 34.8587 349.836 35.0931 349.66 35.3926C349.491 35.6855 349.367 36.0241 349.289 36.4082C349.211 36.7858 349.172 37.1895 349.172 37.6191ZM363.801 40.6172V35.9102C363.801 35.5716 363.745 35.2819 363.635 35.041C363.524 34.7936 363.352 34.6016 363.117 34.4648C362.889 34.3281 362.593 34.2598 362.229 34.2598C361.916 34.2598 361.646 34.3151 361.418 34.4258C361.19 34.5299 361.014 34.6829 360.891 34.8848C360.767 35.0801 360.705 35.3112 360.705 35.5781H357.893C357.893 35.1289 357.997 34.7025 358.205 34.2988C358.413 33.8952 358.716 33.5404 359.113 33.2344C359.51 32.9219 359.982 32.6777 360.529 32.502C361.083 32.3262 361.701 32.2383 362.385 32.2383C363.205 32.2383 363.934 32.375 364.572 32.6484C365.21 32.9219 365.712 33.332 366.076 33.8789C366.447 34.4258 366.633 35.1094 366.633 35.9297V40.4512C366.633 41.0306 366.669 41.5059 366.74 41.877C366.812 42.2415 366.916 42.5605 367.053 42.834V43H364.211C364.074 42.7135 363.97 42.3555 363.898 41.9258C363.833 41.4896 363.801 41.0534 363.801 40.6172ZM364.172 36.5645L364.191 38.1562H362.619C362.248 38.1562 361.926 38.1986 361.652 38.2832C361.379 38.3678 361.154 38.4883 360.979 38.6445C360.803 38.7943 360.673 38.9701 360.588 39.1719C360.51 39.3737 360.471 39.5951 360.471 39.8359C360.471 40.0768 360.526 40.2949 360.637 40.4902C360.747 40.679 360.907 40.8288 361.115 40.9395C361.324 41.0436 361.568 41.0957 361.848 41.0957C362.271 41.0957 362.639 41.0111 362.951 40.8418C363.264 40.6725 363.505 40.4642 363.674 40.2168C363.85 39.9694 363.941 39.735 363.947 39.5137L364.689 40.7051C364.585 40.972 364.442 41.2487 364.26 41.5352C364.084 41.8216 363.859 42.0918 363.586 42.3457C363.312 42.5931 362.984 42.7982 362.6 42.9609C362.215 43.1172 361.76 43.1953 361.232 43.1953C360.562 43.1953 359.953 43.0618 359.406 42.7949C358.866 42.5215 358.436 42.1471 358.117 41.6719C357.805 41.1901 357.648 40.6432 357.648 40.0312C357.648 39.4779 357.753 38.9863 357.961 38.5566C358.169 38.127 358.475 37.7656 358.879 37.4727C359.289 37.1732 359.8 36.9486 360.412 36.7988C361.024 36.6426 361.734 36.5645 362.541 36.5645H364.172ZM371.555 34.6895V43H368.742V32.4336H371.379L371.555 34.6895ZM371.145 37.3457H370.383C370.383 36.5645 370.484 35.8613 370.686 35.2363C370.887 34.6048 371.171 34.0677 371.535 33.625C371.9 33.1758 372.333 32.834 372.834 32.5996C373.342 32.3587 373.908 32.2383 374.533 32.2383C375.028 32.2383 375.48 32.3099 375.891 32.4531C376.301 32.5964 376.652 32.8242 376.945 33.1367C377.245 33.4492 377.473 33.8626 377.629 34.377C377.792 34.8913 377.873 35.5195 377.873 36.2617V43H375.041V36.252C375.041 35.7832 374.976 35.4186 374.846 35.1582C374.715 34.8978 374.523 34.7155 374.27 34.6113C374.022 34.5007 373.716 34.4453 373.352 34.4453C372.974 34.4453 372.645 34.5202 372.365 34.6699C372.092 34.8197 371.864 35.028 371.682 35.2949C371.506 35.5553 371.372 35.8613 371.281 36.2129C371.19 36.5645 371.145 36.9421 371.145 37.3457Z" fill="black"/>
<g filter="url(#filter0_d_28_822)">
<path d="M28.1094 24C21.4214 24 16 29.4214 16 36.1094C16 42.7974 21.4214 48.2188 28.1094 48.2188C34.7974 48.2188 40.2188 42.7974 40.2188 36.1094C40.2188 29.4214 34.7974 24 28.1094 24ZM28.1094 45.0938C23.144 45.0938 19.125 41.0757 19.125 36.1094C19.125 31.144 23.1431 27.125 28.1094 27.125C33.0747 27.125 37.0938 31.1431 37.0938 36.1094C37.0938 41.0747 33.0757 45.0938 28.1094 45.0938ZM28.1094 29.8594C24.6577 29.8594 21.8594 32.6577 21.8594 36.1094C21.8594 39.561 24.6577 42.3594 28.1094 42.3594C31.561 42.3594 34.3594 39.561 34.3594 36.1094C34.3594 32.6577 31.561 29.8594 28.1094 29.8594ZM28.1094 39.2344C26.3862 39.2344 24.9844 37.8325 24.9844 36.1094C24.9844 34.3862 26.3862 32.9844 28.1094 32.9844C29.8325 32.9844 31.2344 34.3862 31.2344 36.1094C31.2344 37.8325 29.8325 39.2344 28.1094 39.2344Z" fill="url(#paint0_linear_28_822)" shape-rendering="crispEdges"/>
</g>
<rect x="31" y="816" width="354" height="56" rx="20" fill="#256BF4"/>
<path d="M176.967 846.736V846.429C176.967 845.267 177.133 844.197 177.465 843.221C177.797 842.234 178.28 841.38 178.915 840.657C179.55 839.935 180.331 839.373 181.259 838.973C182.187 838.562 183.251 838.357 184.452 838.357C185.653 838.357 186.723 838.562 187.66 838.973C188.598 839.373 189.384 839.935 190.019 840.657C190.663 841.38 191.151 842.234 191.483 843.221C191.815 844.197 191.981 845.267 191.981 846.429V846.736C191.981 847.889 191.815 848.958 191.483 849.944C191.151 850.921 190.663 851.775 190.019 852.508C189.384 853.23 188.603 853.792 187.675 854.192C186.747 854.593 185.683 854.793 184.481 854.793C183.28 854.793 182.211 854.593 181.273 854.192C180.346 853.792 179.56 853.23 178.915 852.508C178.28 851.775 177.797 850.921 177.465 849.944C177.133 848.958 176.967 847.889 176.967 846.736ZM181.186 846.429V846.736C181.186 847.4 181.244 848.021 181.361 848.597C181.479 849.173 181.664 849.681 181.918 850.12C182.182 850.55 182.523 850.887 182.943 851.131C183.363 851.375 183.876 851.497 184.481 851.497C185.067 851.497 185.57 851.375 185.99 851.131C186.41 850.887 186.747 850.55 187.001 850.12C187.255 849.681 187.44 849.173 187.558 848.597C187.685 848.021 187.748 847.4 187.748 846.736V846.429C187.748 845.784 187.685 845.179 187.558 844.612C187.44 844.036 187.25 843.528 186.986 843.089C186.732 842.64 186.396 842.288 185.976 842.034C185.556 841.78 185.048 841.653 184.452 841.653C183.856 841.653 183.349 841.78 182.929 842.034C182.519 842.288 182.182 842.64 181.918 843.089C181.664 843.528 181.479 844.036 181.361 844.612C181.244 845.179 181.186 845.784 181.186 846.429ZM198.793 831.985V854.5H194.574V831.985H198.793ZM208.783 838.65L201.898 846.502L198.207 850.237L196.669 847.19L199.599 843.47L203.715 838.65H208.783ZM204.403 854.5L199.716 847.176L202.631 844.627L209.267 854.5H204.403ZM219.154 850.926V843.865C219.154 843.357 219.071 842.923 218.905 842.562C218.739 842.19 218.48 841.902 218.129 841.697C217.787 841.492 217.343 841.39 216.796 841.39C216.327 841.39 215.922 841.473 215.58 841.639C215.238 841.795 214.975 842.024 214.789 842.327C214.604 842.62 214.511 842.967 214.511 843.367H210.292C210.292 842.693 210.448 842.054 210.761 841.448C211.073 840.843 211.527 840.311 212.123 839.852C212.719 839.383 213.427 839.017 214.247 838.753C215.077 838.489 216.005 838.357 217.03 838.357C218.261 838.357 219.354 838.562 220.312 838.973C221.269 839.383 222.021 839.998 222.567 840.818C223.124 841.639 223.402 842.664 223.402 843.895V850.677C223.402 851.546 223.456 852.259 223.563 852.815C223.671 853.362 223.827 853.841 224.032 854.251V854.5H219.77C219.564 854.07 219.408 853.533 219.301 852.889C219.203 852.234 219.154 851.58 219.154 850.926ZM219.711 844.847L219.74 847.234H217.382C216.825 847.234 216.342 847.298 215.932 847.425C215.521 847.552 215.185 847.732 214.921 847.967C214.657 848.191 214.462 848.455 214.335 848.758C214.218 849.061 214.159 849.393 214.159 849.754C214.159 850.115 214.242 850.442 214.408 850.735C214.574 851.019 214.813 851.243 215.126 851.409C215.438 851.565 215.805 851.644 216.225 851.644C216.859 851.644 217.411 851.517 217.88 851.263C218.349 851.009 218.71 850.696 218.964 850.325C219.228 849.954 219.364 849.603 219.374 849.271L220.487 851.058C220.331 851.458 220.116 851.873 219.843 852.303C219.579 852.732 219.242 853.138 218.832 853.519C218.422 853.89 217.929 854.197 217.353 854.441C216.776 854.676 216.093 854.793 215.302 854.793C214.296 854.793 213.383 854.593 212.562 854.192C211.752 853.782 211.107 853.221 210.629 852.508C210.16 851.785 209.926 850.965 209.926 850.047C209.926 849.217 210.082 848.479 210.395 847.835C210.707 847.19 211.166 846.648 211.771 846.209C212.387 845.76 213.153 845.423 214.071 845.198C214.989 844.964 216.054 844.847 217.265 844.847H219.711ZM231.122 852.713L235.326 838.65H239.853L233.48 856.888C233.344 857.288 233.158 857.718 232.924 858.177C232.699 858.636 232.392 859.07 232.001 859.48C231.62 859.9 231.137 860.242 230.551 860.506C229.975 860.77 229.267 860.901 228.427 860.901C228.026 860.901 227.699 860.877 227.445 860.828C227.191 860.779 226.889 860.711 226.537 860.623V857.532C226.645 857.532 226.757 857.532 226.874 857.532C226.991 857.542 227.104 857.547 227.211 857.547C227.768 857.547 228.222 857.483 228.573 857.356C228.925 857.229 229.208 857.034 229.423 856.771C229.638 856.517 229.809 856.185 229.936 855.774L231.122 852.713ZM229.364 838.65L232.807 850.135L233.407 854.603L230.536 854.91L224.838 838.65H229.364Z" fill="#FFFCFC"/>
<path d="M151.955 89.4062V115H146.682V89.4062H151.955ZM162.15 100.34V104.453H150.514V100.34H162.15ZM163.381 89.4062V93.5371H150.514V89.4062H163.381ZM175.791 110.711V102.238C175.791 101.629 175.691 101.107 175.492 100.674C175.293 100.229 174.982 99.8828 174.561 99.6367C174.15 99.3906 173.617 99.2676 172.961 99.2676C172.398 99.2676 171.912 99.3672 171.502 99.5664C171.092 99.7539 170.775 100.029 170.553 100.393C170.33 100.744 170.219 101.16 170.219 101.641H165.156C165.156 100.832 165.344 100.064 165.719 99.3379C166.094 98.6113 166.639 97.9727 167.354 97.4219C168.068 96.8594 168.918 96.4199 169.902 96.1035C170.898 95.7871 172.012 95.6289 173.242 95.6289C174.719 95.6289 176.031 95.875 177.18 96.3672C178.328 96.8594 179.23 97.5977 179.887 98.582C180.555 99.5664 180.889 100.797 180.889 102.273V110.412C180.889 111.455 180.953 112.311 181.082 112.979C181.211 113.635 181.398 114.209 181.645 114.701V115H176.529C176.283 114.484 176.096 113.84 175.967 113.066C175.85 112.281 175.791 111.496 175.791 110.711ZM176.459 103.416L176.494 106.281H173.664C172.996 106.281 172.416 106.357 171.924 106.51C171.432 106.662 171.027 106.879 170.711 107.16C170.395 107.43 170.16 107.746 170.008 108.109C169.867 108.473 169.797 108.871 169.797 109.305C169.797 109.738 169.896 110.131 170.096 110.482C170.295 110.822 170.582 111.092 170.957 111.291C171.332 111.479 171.771 111.572 172.275 111.572C173.037 111.572 173.699 111.42 174.262 111.115C174.824 110.811 175.258 110.436 175.562 109.99C175.879 109.545 176.043 109.123 176.055 108.725L177.391 110.869C177.203 111.35 176.945 111.848 176.617 112.363C176.301 112.879 175.896 113.365 175.404 113.822C174.912 114.268 174.32 114.637 173.629 114.93C172.938 115.211 172.117 115.352 171.168 115.352C169.961 115.352 168.865 115.111 167.881 114.631C166.908 114.139 166.135 113.465 165.561 112.609C164.998 111.742 164.717 110.758 164.717 109.656C164.717 108.66 164.904 107.775 165.279 107.002C165.654 106.229 166.205 105.578 166.932 105.051C167.67 104.512 168.59 104.107 169.691 103.838C170.793 103.557 172.07 103.416 173.523 103.416H176.459ZM190.135 95.9805V115H185.055V95.9805H190.135ZM184.738 91.0234C184.738 90.2852 184.996 89.6758 185.512 89.1953C186.027 88.7148 186.719 88.4746 187.586 88.4746C188.441 88.4746 189.127 88.7148 189.643 89.1953C190.17 89.6758 190.434 90.2852 190.434 91.0234C190.434 91.7617 190.17 92.3711 189.643 92.8516C189.127 93.332 188.441 93.5723 187.586 93.5723C186.719 93.5723 186.027 93.332 185.512 92.8516C184.996 92.3711 184.738 91.7617 184.738 91.0234ZM199.662 88V115H194.582V88H199.662ZM212.6 115.352C211.123 115.352 209.799 115.117 208.627 114.648C207.455 114.168 206.459 113.506 205.639 112.662C204.83 111.818 204.209 110.84 203.775 109.727C203.342 108.602 203.125 107.406 203.125 106.141V105.438C203.125 103.996 203.33 102.678 203.74 101.482C204.15 100.287 204.736 99.25 205.498 98.3711C206.271 97.4922 207.209 96.8184 208.311 96.3496C209.412 95.8691 210.654 95.6289 212.037 95.6289C213.385 95.6289 214.58 95.8516 215.623 96.2969C216.666 96.7422 217.539 97.375 218.242 98.1953C218.957 99.0156 219.496 100 219.859 101.148C220.223 102.285 220.404 103.551 220.404 104.945V107.055H205.287V103.68H215.43V103.293C215.43 102.59 215.301 101.963 215.043 101.412C214.797 100.85 214.422 100.404 213.918 100.076C213.414 99.748 212.77 99.584 211.984 99.584C211.316 99.584 210.742 99.7305 210.262 100.023C209.781 100.316 209.389 100.727 209.084 101.254C208.791 101.781 208.568 102.402 208.416 103.117C208.275 103.82 208.205 104.594 208.205 105.438V106.141C208.205 106.902 208.311 107.605 208.521 108.25C208.744 108.895 209.055 109.451 209.453 109.92C209.863 110.389 210.355 110.752 210.93 111.01C211.516 111.268 212.178 111.396 212.916 111.396C213.83 111.396 214.68 111.221 215.465 110.869C216.262 110.506 216.947 109.961 217.521 109.234L219.982 111.906C219.584 112.48 219.039 113.031 218.348 113.559C217.668 114.086 216.848 114.52 215.887 114.859C214.926 115.188 213.83 115.352 212.6 115.352ZM234.52 110.852V88H239.617V115H235.029L234.52 110.852ZM222.496 105.719V105.35C222.496 103.896 222.66 102.578 222.988 101.395C223.316 100.199 223.797 99.1738 224.43 98.3184C225.062 97.4629 225.842 96.8008 226.768 96.332C227.693 95.8633 228.748 95.6289 229.932 95.6289C231.045 95.6289 232.018 95.8633 232.85 96.332C233.693 96.8008 234.408 97.4688 234.994 98.3359C235.592 99.1914 236.072 100.205 236.436 101.377C236.799 102.537 237.062 103.809 237.227 105.191V106C237.062 107.324 236.799 108.555 236.436 109.691C236.072 110.828 235.592 111.824 234.994 112.68C234.408 113.523 233.693 114.18 232.85 114.648C232.006 115.117 231.021 115.352 229.896 115.352C228.713 115.352 227.658 115.111 226.732 114.631C225.818 114.15 225.045 113.477 224.412 112.609C223.791 111.742 223.316 110.723 222.988 109.551C222.66 108.379 222.496 107.102 222.496 105.719ZM227.559 105.35V105.719C227.559 106.504 227.617 107.236 227.734 107.916C227.863 108.596 228.068 109.199 228.35 109.727C228.643 110.242 229.018 110.646 229.475 110.939C229.943 111.221 230.512 111.361 231.18 111.361C232.047 111.361 232.762 111.168 233.324 110.781C233.887 110.383 234.314 109.838 234.607 109.146C234.912 108.455 235.088 107.658 235.135 106.756V104.453C235.1 103.715 234.994 103.053 234.818 102.467C234.654 101.869 234.408 101.359 234.08 100.938C233.764 100.516 233.365 100.188 232.885 99.9531C232.416 99.7188 231.859 99.6016 231.215 99.6016C230.559 99.6016 229.996 99.7539 229.527 100.059C229.059 100.352 228.678 100.756 228.385 101.271C228.104 101.787 227.893 102.396 227.752 103.1C227.623 103.791 227.559 104.541 227.559 105.35Z" fill="black"/>
<path d="M111.168 682.918H106.82V680.176H111.168C111.84 680.176 112.387 680.066 112.809 679.848C113.23 679.621 113.539 679.309 113.734 678.91C113.93 678.512 114.027 678.062 114.027 677.562C114.027 677.055 113.93 676.582 113.734 676.145C113.539 675.707 113.23 675.355 112.809 675.09C112.387 674.824 111.84 674.691 111.168 674.691H108.039V689H104.523V671.938H111.168C112.504 671.938 113.648 672.18 114.602 672.664C115.562 673.141 116.297 673.801 116.805 674.645C117.312 675.488 117.566 676.453 117.566 677.539C117.566 678.641 117.312 679.594 116.805 680.398C116.297 681.203 115.562 681.824 114.602 682.262C113.648 682.699 112.504 682.918 111.168 682.918ZM123.344 671V689H119.957V671H123.344ZM131.969 689.234C130.984 689.234 130.102 689.078 129.32 688.766C128.539 688.445 127.875 688.004 127.328 687.441C126.789 686.879 126.375 686.227 126.086 685.484C125.797 684.734 125.652 683.938 125.652 683.094V682.625C125.652 681.664 125.789 680.785 126.062 679.988C126.336 679.191 126.727 678.5 127.234 677.914C127.75 677.328 128.375 676.879 129.109 676.566C129.844 676.246 130.672 676.086 131.594 676.086C132.492 676.086 133.289 676.234 133.984 676.531C134.68 676.828 135.262 677.25 135.73 677.797C136.207 678.344 136.566 679 136.809 679.766C137.051 680.523 137.172 681.367 137.172 682.297V683.703H127.094V681.453H133.855V681.195C133.855 680.727 133.77 680.309 133.598 679.941C133.434 679.566 133.184 679.27 132.848 679.051C132.512 678.832 132.082 678.723 131.559 678.723C131.113 678.723 130.73 678.82 130.41 679.016C130.09 679.211 129.828 679.484 129.625 679.836C129.43 680.188 129.281 680.602 129.18 681.078C129.086 681.547 129.039 682.062 129.039 682.625V683.094C129.039 683.602 129.109 684.07 129.25 684.5C129.398 684.93 129.605 685.301 129.871 685.613C130.145 685.926 130.473 686.168 130.855 686.34C131.246 686.512 131.688 686.598 132.18 686.598C132.789 686.598 133.355 686.48 133.879 686.246C134.41 686.004 134.867 685.641 135.25 685.156L136.891 686.938C136.625 687.32 136.262 687.688 135.801 688.039C135.348 688.391 134.801 688.68 134.16 688.906C133.52 689.125 132.789 689.234 131.969 689.234ZM145.938 686.141V680.492C145.938 680.086 145.871 679.738 145.738 679.449C145.605 679.152 145.398 678.922 145.117 678.758C144.844 678.594 144.488 678.512 144.051 678.512C143.676 678.512 143.352 678.578 143.078 678.711C142.805 678.836 142.594 679.02 142.445 679.262C142.297 679.496 142.223 679.773 142.223 680.094H138.848C138.848 679.555 138.973 679.043 139.223 678.559C139.473 678.074 139.836 677.648 140.312 677.281C140.789 676.906 141.355 676.613 142.012 676.402C142.676 676.191 143.418 676.086 144.238 676.086C145.223 676.086 146.098 676.25 146.863 676.578C147.629 676.906 148.23 677.398 148.668 678.055C149.113 678.711 149.336 679.531 149.336 680.516V685.941C149.336 686.637 149.379 687.207 149.465 687.652C149.551 688.09 149.676 688.473 149.84 688.801V689H146.43C146.266 688.656 146.141 688.227 146.055 687.711C145.977 687.188 145.938 686.664 145.938 686.141ZM146.383 681.277L146.406 683.188H144.52C144.074 683.188 143.688 683.238 143.359 683.34C143.031 683.441 142.762 683.586 142.551 683.773C142.34 683.953 142.184 684.164 142.082 684.406C141.988 684.648 141.941 684.914 141.941 685.203C141.941 685.492 142.008 685.754 142.141 685.988C142.273 686.215 142.465 686.395 142.715 686.527C142.965 686.652 143.258 686.715 143.594 686.715C144.102 686.715 144.543 686.613 144.918 686.41C145.293 686.207 145.582 685.957 145.785 685.66C145.996 685.363 146.105 685.082 146.113 684.816L147.004 686.246C146.879 686.566 146.707 686.898 146.488 687.242C146.277 687.586 146.008 687.91 145.68 688.215C145.352 688.512 144.957 688.758 144.496 688.953C144.035 689.141 143.488 689.234 142.855 689.234C142.051 689.234 141.32 689.074 140.664 688.754C140.016 688.426 139.5 687.977 139.117 687.406C138.742 686.828 138.555 686.172 138.555 685.438C138.555 684.773 138.68 684.184 138.93 683.668C139.18 683.152 139.547 682.719 140.031 682.367C140.523 682.008 141.137 681.738 141.871 681.559C142.605 681.371 143.457 681.277 144.426 681.277H146.383ZM158.793 685.496C158.793 685.254 158.723 685.035 158.582 684.84C158.441 684.645 158.18 684.465 157.797 684.301C157.422 684.129 156.879 683.973 156.168 683.832C155.527 683.691 154.93 683.516 154.375 683.305C153.828 683.086 153.352 682.824 152.945 682.52C152.547 682.215 152.234 681.855 152.008 681.441C151.781 681.02 151.668 680.539 151.668 680C151.668 679.469 151.781 678.969 152.008 678.5C152.242 678.031 152.574 677.617 153.004 677.258C153.441 676.891 153.973 676.605 154.598 676.402C155.23 676.191 155.941 676.086 156.73 676.086C157.832 676.086 158.777 676.262 159.566 676.613C160.363 676.965 160.973 677.449 161.395 678.066C161.824 678.676 162.039 679.371 162.039 680.152H158.664C158.664 679.824 158.594 679.531 158.453 679.273C158.32 679.008 158.109 678.801 157.82 678.652C157.539 678.496 157.172 678.418 156.719 678.418C156.344 678.418 156.02 678.484 155.746 678.617C155.473 678.742 155.262 678.914 155.113 679.133C154.973 679.344 154.902 679.578 154.902 679.836C154.902 680.031 154.941 680.207 155.02 680.363C155.105 680.512 155.242 680.648 155.43 680.773C155.617 680.898 155.859 681.016 156.156 681.125C156.461 681.227 156.836 681.32 157.281 681.406C158.195 681.594 159.012 681.84 159.73 682.145C160.449 682.441 161.02 682.848 161.441 683.363C161.863 683.871 162.074 684.539 162.074 685.367C162.074 685.93 161.949 686.445 161.699 686.914C161.449 687.383 161.09 687.793 160.621 688.145C160.152 688.488 159.59 688.758 158.934 688.953C158.285 689.141 157.555 689.234 156.742 689.234C155.562 689.234 154.562 689.023 153.742 688.602C152.93 688.18 152.312 687.645 151.891 686.996C151.477 686.34 151.27 685.668 151.27 684.98H154.469C154.484 685.441 154.602 685.812 154.82 686.094C155.047 686.375 155.332 686.578 155.676 686.703C156.027 686.828 156.406 686.891 156.812 686.891C157.25 686.891 157.613 686.832 157.902 686.715C158.191 686.59 158.41 686.426 158.559 686.223C158.715 686.012 158.793 685.77 158.793 685.496ZM170.102 689.234C169.117 689.234 168.234 689.078 167.453 688.766C166.672 688.445 166.008 688.004 165.461 687.441C164.922 686.879 164.508 686.227 164.219 685.484C163.93 684.734 163.785 683.938 163.785 683.094V682.625C163.785 681.664 163.922 680.785 164.195 679.988C164.469 679.191 164.859 678.5 165.367 677.914C165.883 677.328 166.508 676.879 167.242 676.566C167.977 676.246 168.805 676.086 169.727 676.086C170.625 676.086 171.422 676.234 172.117 676.531C172.812 676.828 173.395 677.25 173.863 677.797C174.34 678.344 174.699 679 174.941 679.766C175.184 680.523 175.305 681.367 175.305 682.297V683.703H165.227V681.453H171.988V681.195C171.988 680.727 171.902 680.309 171.73 679.941C171.566 679.566 171.316 679.27 170.98 679.051C170.645 678.832 170.215 678.723 169.691 678.723C169.246 678.723 168.863 678.82 168.543 679.016C168.223 679.211 167.961 679.484 167.758 679.836C167.562 680.188 167.414 680.602 167.312 681.078C167.219 681.547 167.172 682.062 167.172 682.625V683.094C167.172 683.602 167.242 684.07 167.383 684.5C167.531 684.93 167.738 685.301 168.004 685.613C168.277 685.926 168.605 686.168 168.988 686.34C169.379 686.512 169.82 686.598 170.312 686.598C170.922 686.598 171.488 686.48 172.012 686.246C172.543 686.004 173 685.641 173.383 685.156L175.023 686.938C174.758 687.32 174.395 687.688 173.934 688.039C173.48 688.391 172.934 688.68 172.293 688.906C171.652 689.125 170.922 689.234 170.102 689.234ZM189.414 676.32V678.711H182.031V676.32H189.414ZM183.859 673.191H187.234V685.18C187.234 685.547 187.281 685.828 187.375 686.023C187.477 686.219 187.625 686.355 187.82 686.434C188.016 686.504 188.262 686.539 188.559 686.539C188.77 686.539 188.957 686.531 189.121 686.516C189.293 686.492 189.438 686.469 189.555 686.445L189.566 688.93C189.277 689.023 188.965 689.098 188.629 689.152C188.293 689.207 187.922 689.234 187.516 689.234C186.773 689.234 186.125 689.113 185.57 688.871C185.023 688.621 184.602 688.223 184.305 687.676C184.008 687.129 183.859 686.41 183.859 685.52V673.191ZM194.711 679.086V689H191.336V676.32H194.512L194.711 679.086ZM198.531 676.238L198.473 679.367C198.309 679.344 198.109 679.324 197.875 679.309C197.648 679.285 197.441 679.273 197.254 679.273C196.777 679.273 196.363 679.336 196.012 679.461C195.668 679.578 195.379 679.754 195.145 679.988C194.918 680.223 194.746 680.508 194.629 680.844C194.52 681.18 194.457 681.562 194.441 681.992L193.762 681.781C193.762 680.961 193.844 680.207 194.008 679.52C194.172 678.824 194.41 678.219 194.723 677.703C195.043 677.188 195.434 676.789 195.895 676.508C196.355 676.227 196.883 676.086 197.477 676.086C197.664 676.086 197.855 676.102 198.051 676.133C198.246 676.156 198.406 676.191 198.531 676.238ZM204.098 687.57L207.461 676.32H211.082L205.984 690.91C205.875 691.23 205.727 691.574 205.539 691.941C205.359 692.309 205.113 692.656 204.801 692.984C204.496 693.32 204.109 693.594 203.641 693.805C203.18 694.016 202.613 694.121 201.941 694.121C201.621 694.121 201.359 694.102 201.156 694.062C200.953 694.023 200.711 693.969 200.43 693.898V691.426C200.516 691.426 200.605 691.426 200.699 691.426C200.793 691.434 200.883 691.438 200.969 691.438C201.414 691.438 201.777 691.387 202.059 691.285C202.34 691.184 202.566 691.027 202.738 690.816C202.91 690.613 203.047 690.348 203.148 690.02L204.098 687.57ZM202.691 676.32L205.445 685.508L205.926 689.082L203.629 689.328L199.07 676.32H202.691ZM225.25 686.141V680.492C225.25 680.086 225.184 679.738 225.051 679.449C224.918 679.152 224.711 678.922 224.43 678.758C224.156 678.594 223.801 678.512 223.363 678.512C222.988 678.512 222.664 678.578 222.391 678.711C222.117 678.836 221.906 679.02 221.758 679.262C221.609 679.496 221.535 679.773 221.535 680.094H218.16C218.16 679.555 218.285 679.043 218.535 678.559C218.785 678.074 219.148 677.648 219.625 677.281C220.102 676.906 220.668 676.613 221.324 676.402C221.988 676.191 222.73 676.086 223.551 676.086C224.535 676.086 225.41 676.25 226.176 676.578C226.941 676.906 227.543 677.398 227.98 678.055C228.426 678.711 228.648 679.531 228.648 680.516V685.941C228.648 686.637 228.691 687.207 228.777 687.652C228.863 688.09 228.988 688.473 229.152 688.801V689H225.742C225.578 688.656 225.453 688.227 225.367 687.711C225.289 687.188 225.25 686.664 225.25 686.141ZM225.695 681.277L225.719 683.188H223.832C223.387 683.188 223 683.238 222.672 683.34C222.344 683.441 222.074 683.586 221.863 683.773C221.652 683.953 221.496 684.164 221.395 684.406C221.301 684.648 221.254 684.914 221.254 685.203C221.254 685.492 221.32 685.754 221.453 685.988C221.586 686.215 221.777 686.395 222.027 686.527C222.277 686.652 222.57 686.715 222.906 686.715C223.414 686.715 223.855 686.613 224.23 686.41C224.605 686.207 224.895 685.957 225.098 685.66C225.309 685.363 225.418 685.082 225.426 684.816L226.316 686.246C226.191 686.566 226.02 686.898 225.801 687.242C225.59 687.586 225.32 687.91 224.992 688.215C224.664 688.512 224.27 688.758 223.809 688.953C223.348 689.141 222.801 689.234 222.168 689.234C221.363 689.234 220.633 689.074 219.977 688.754C219.328 688.426 218.812 687.977 218.43 687.406C218.055 686.828 217.867 686.172 217.867 685.438C217.867 684.773 217.992 684.184 218.242 683.668C218.492 683.152 218.859 682.719 219.344 682.367C219.836 682.008 220.449 681.738 221.184 681.559C221.918 681.371 222.77 681.277 223.738 681.277H225.695ZM239.277 676.32H242.336V688.578C242.336 689.734 242.078 690.715 241.562 691.52C241.055 692.332 240.344 692.945 239.43 693.359C238.516 693.781 237.453 693.992 236.242 693.992C235.711 693.992 235.148 693.922 234.555 693.781C233.969 693.641 233.406 693.422 232.867 693.125C232.336 692.828 231.891 692.453 231.531 692L233.02 690.008C233.41 690.461 233.863 690.812 234.379 691.062C234.895 691.32 235.465 691.449 236.09 691.449C236.699 691.449 237.215 691.336 237.637 691.109C238.059 690.891 238.383 690.566 238.609 690.137C238.836 689.715 238.949 689.203 238.949 688.602V679.25L239.277 676.32ZM230.746 682.812V682.566C230.746 681.598 230.863 680.719 231.098 679.93C231.34 679.133 231.68 678.449 232.117 677.879C232.562 677.309 233.102 676.867 233.734 676.555C234.367 676.242 235.082 676.086 235.879 676.086C236.723 676.086 237.43 676.242 238 676.555C238.57 676.867 239.039 677.312 239.406 677.891C239.773 678.461 240.059 679.137 240.262 679.918C240.473 680.691 240.637 681.539 240.754 682.461V683C240.637 683.883 240.461 684.703 240.227 685.461C239.992 686.219 239.684 686.883 239.301 687.453C238.918 688.016 238.441 688.453 237.871 688.766C237.309 689.078 236.637 689.234 235.855 689.234C235.074 689.234 234.367 689.074 233.734 688.754C233.109 688.434 232.574 687.984 232.129 687.406C231.684 686.828 231.34 686.148 231.098 685.367C230.863 684.586 230.746 683.734 230.746 682.812ZM234.121 682.566V682.812C234.121 683.336 234.172 683.824 234.273 684.277C234.375 684.73 234.531 685.133 234.742 685.484C234.961 685.828 235.23 686.098 235.551 686.293C235.879 686.48 236.266 686.574 236.711 686.574C237.328 686.574 237.832 686.445 238.223 686.188C238.613 685.922 238.906 685.559 239.102 685.098C239.297 684.637 239.41 684.105 239.441 683.504V681.969C239.426 681.477 239.359 681.035 239.242 680.645C239.125 680.246 238.961 679.906 238.75 679.625C238.539 679.344 238.266 679.125 237.93 678.969C237.594 678.812 237.195 678.734 236.734 678.734C236.289 678.734 235.902 678.836 235.574 679.039C235.254 679.234 234.984 679.504 234.766 679.848C234.555 680.191 234.395 680.598 234.285 681.066C234.176 681.527 234.121 682.027 234.121 682.566ZM251.805 686.141V680.492C251.805 680.086 251.738 679.738 251.605 679.449C251.473 679.152 251.266 678.922 250.984 678.758C250.711 678.594 250.355 678.512 249.918 678.512C249.543 678.512 249.219 678.578 248.945 678.711C248.672 678.836 248.461 679.02 248.312 679.262C248.164 679.496 248.09 679.773 248.09 680.094H244.715C244.715 679.555 244.84 679.043 245.09 678.559C245.34 678.074 245.703 677.648 246.18 677.281C246.656 676.906 247.223 676.613 247.879 676.402C248.543 676.191 249.285 676.086 250.105 676.086C251.09 676.086 251.965 676.25 252.73 676.578C253.496 676.906 254.098 677.398 254.535 678.055C254.98 678.711 255.203 679.531 255.203 680.516V685.941C255.203 686.637 255.246 687.207 255.332 687.652C255.418 688.09 255.543 688.473 255.707 688.801V689H252.297C252.133 688.656 252.008 688.227 251.922 687.711C251.844 687.188 251.805 686.664 251.805 686.141ZM252.25 681.277L252.273 683.188H250.387C249.941 683.188 249.555 683.238 249.227 683.34C248.898 683.441 248.629 683.586 248.418 683.773C248.207 683.953 248.051 684.164 247.949 684.406C247.855 684.648 247.809 684.914 247.809 685.203C247.809 685.492 247.875 685.754 248.008 685.988C248.141 686.215 248.332 686.395 248.582 686.527C248.832 686.652 249.125 686.715 249.461 686.715C249.969 686.715 250.41 686.613 250.785 686.41C251.16 686.207 251.449 685.957 251.652 685.66C251.863 685.363 251.973 685.082 251.98 684.816L252.871 686.246C252.746 686.566 252.574 686.898 252.355 687.242C252.145 687.586 251.875 687.91 251.547 688.215C251.219 688.512 250.824 688.758 250.363 688.953C249.902 689.141 249.355 689.234 248.723 689.234C247.918 689.234 247.188 689.074 246.531 688.754C245.883 688.426 245.367 687.977 244.984 687.406C244.609 686.828 244.422 686.172 244.422 685.438C244.422 684.773 244.547 684.184 244.797 683.668C245.047 683.152 245.414 682.719 245.898 682.367C246.391 682.008 247.004 681.738 247.738 681.559C248.473 681.371 249.324 681.277 250.293 681.277H252.25ZM261.367 676.32V689H257.98V676.32H261.367ZM257.77 673.016C257.77 672.523 257.941 672.117 258.285 671.797C258.629 671.477 259.09 671.316 259.668 671.316C260.238 671.316 260.695 671.477 261.039 671.797C261.391 672.117 261.566 672.523 261.566 673.016C261.566 673.508 261.391 673.914 261.039 674.234C260.695 674.555 260.238 674.715 259.668 674.715C259.09 674.715 258.629 674.555 258.285 674.234C257.941 673.914 257.77 673.508 257.77 673.016ZM267.461 679.027V689H264.086V676.32H267.25L267.461 679.027ZM266.969 682.215H266.055C266.055 681.277 266.176 680.434 266.418 679.684C266.66 678.926 267 678.281 267.438 677.75C267.875 677.211 268.395 676.801 268.996 676.52C269.605 676.23 270.285 676.086 271.035 676.086C271.629 676.086 272.172 676.172 272.664 676.344C273.156 676.516 273.578 676.789 273.93 677.164C274.289 677.539 274.562 678.035 274.75 678.652C274.945 679.27 275.043 680.023 275.043 680.914V689H271.645V680.902C271.645 680.34 271.566 679.902 271.41 679.59C271.254 679.277 271.023 679.059 270.719 678.934C270.422 678.801 270.055 678.734 269.617 678.734C269.164 678.734 268.77 678.824 268.434 679.004C268.105 679.184 267.832 679.434 267.613 679.754C267.402 680.066 267.242 680.434 267.133 680.855C267.023 681.277 266.969 681.73 266.969 682.215ZM287.148 671V689H283.762V671H287.148ZM296.781 686.141V680.492C296.781 680.086 296.715 679.738 296.582 679.449C296.449 679.152 296.242 678.922 295.961 678.758C295.688 678.594 295.332 678.512 294.895 678.512C294.52 678.512 294.195 678.578 293.922 678.711C293.648 678.836 293.438 679.02 293.289 679.262C293.141 679.496 293.066 679.773 293.066 680.094H289.691C289.691 679.555 289.816 679.043 290.066 678.559C290.316 678.074 290.68 677.648 291.156 677.281C291.633 676.906 292.199 676.613 292.855 676.402C293.52 676.191 294.262 676.086 295.082 676.086C296.066 676.086 296.941 676.25 297.707 676.578C298.473 676.906 299.074 677.398 299.512 678.055C299.957 678.711 300.18 679.531 300.18 680.516V685.941C300.18 686.637 300.223 687.207 300.309 687.652C300.395 688.09 300.52 688.473 300.684 688.801V689H297.273C297.109 688.656 296.984 688.227 296.898 687.711C296.82 687.188 296.781 686.664 296.781 686.141ZM297.227 681.277L297.25 683.188H295.363C294.918 683.188 294.531 683.238 294.203 683.34C293.875 683.441 293.605 683.586 293.395 683.773C293.184 683.953 293.027 684.164 292.926 684.406C292.832 684.648 292.785 684.914 292.785 685.203C292.785 685.492 292.852 685.754 292.984 685.988C293.117 686.215 293.309 686.395 293.559 686.527C293.809 686.652 294.102 686.715 294.438 686.715C294.945 686.715 295.387 686.613 295.762 686.41C296.137 686.207 296.426 685.957 296.629 685.66C296.84 685.363 296.949 685.082 296.957 684.816L297.848 686.246C297.723 686.566 297.551 686.898 297.332 687.242C297.121 687.586 296.852 687.91 296.523 688.215C296.195 688.512 295.801 688.758 295.34 688.953C294.879 689.141 294.332 689.234 293.699 689.234C292.895 689.234 292.164 689.074 291.508 688.754C290.859 688.426 290.344 687.977 289.961 687.406C289.586 686.828 289.398 686.172 289.398 685.438C289.398 684.773 289.523 684.184 289.773 683.668C290.023 683.152 290.391 682.719 290.875 682.367C291.367 682.008 291.98 681.738 292.715 681.559C293.449 681.371 294.301 681.277 295.27 681.277H297.227ZM308.992 676.32V678.711H301.609V676.32H308.992ZM303.438 673.191H306.812V685.18C306.812 685.547 306.859 685.828 306.953 686.023C307.055 686.219 307.203 686.355 307.398 686.434C307.594 686.504 307.84 686.539 308.137 686.539C308.348 686.539 308.535 686.531 308.699 686.516C308.871 686.492 309.016 686.469 309.133 686.445L309.145 688.93C308.855 689.023 308.543 689.098 308.207 689.152C307.871 689.207 307.5 689.234 307.094 689.234C306.352 689.234 305.703 689.113 305.148 688.871C304.602 688.621 304.18 688.223 303.883 687.676C303.586 687.129 303.438 686.41 303.438 685.52V673.191ZM316.75 689.234C315.766 689.234 314.883 689.078 314.102 688.766C313.32 688.445 312.656 688.004 312.109 687.441C311.57 686.879 311.156 686.227 310.867 685.484C310.578 684.734 310.434 683.938 310.434 683.094V682.625C310.434 681.664 310.57 680.785 310.844 679.988C311.117 679.191 311.508 678.5 312.016 677.914C312.531 677.328 313.156 676.879 313.891 676.566C314.625 676.246 315.453 676.086 316.375 676.086C317.273 676.086 318.07 676.234 318.766 676.531C319.461 676.828 320.043 677.25 320.512 677.797C320.988 678.344 321.348 679 321.59 679.766C321.832 680.523 321.953 681.367 321.953 682.297V683.703H311.875V681.453H318.637V681.195C318.637 680.727 318.551 680.309 318.379 679.941C318.215 679.566 317.965 679.27 317.629 679.051C317.293 678.832 316.863 678.723 316.34 678.723C315.895 678.723 315.512 678.82 315.191 679.016C314.871 679.211 314.609 679.484 314.406 679.836C314.211 680.188 314.062 680.602 313.961 681.078C313.867 681.547 313.82 682.062 313.82 682.625V683.094C313.82 683.602 313.891 684.07 314.031 684.5C314.18 684.93 314.387 685.301 314.652 685.613C314.926 685.926 315.254 686.168 315.637 686.34C316.027 686.512 316.469 686.598 316.961 686.598C317.57 686.598 318.137 686.48 318.66 686.246C319.191 686.004 319.648 685.641 320.031 685.156L321.672 686.938C321.406 687.32 321.043 687.688 320.582 688.039C320.129 688.391 319.582 688.68 318.941 688.906C318.301 689.125 317.57 689.234 316.75 689.234ZM327.25 679.086V689H323.875V676.32H327.051L327.25 679.086ZM331.07 676.238L331.012 679.367C330.848 679.344 330.648 679.324 330.414 679.309C330.188 679.285 329.98 679.273 329.793 679.273C329.316 679.273 328.902 679.336 328.551 679.461C328.207 679.578 327.918 679.754 327.684 679.988C327.457 680.223 327.285 680.508 327.168 680.844C327.059 681.18 326.996 681.562 326.98 681.992L326.301 681.781C326.301 680.961 326.383 680.207 326.547 679.52C326.711 678.824 326.949 678.219 327.262 677.703C327.582 677.188 327.973 676.789 328.434 676.508C328.895 676.227 329.422 676.086 330.016 676.086C330.203 676.086 330.395 676.102 330.59 676.133C330.785 676.156 330.945 676.191 331.07 676.238Z" fill="black"/>
<path d="M129.152 634.938V652H125.648V634.938H129.152ZM134.402 634.938V637.691H120.48V634.938H134.402ZM138.75 642.086V652H135.375V639.32H138.551L138.75 642.086ZM142.57 639.238L142.512 642.367C142.348 642.344 142.148 642.324 141.914 642.309C141.688 642.285 141.48 642.273 141.293 642.273C140.816 642.273 140.402 642.336 140.051 642.461C139.707 642.578 139.418 642.754 139.184 642.988C138.957 643.223 138.785 643.508 138.668 643.844C138.559 644.18 138.496 644.562 138.48 644.992L137.801 644.781C137.801 643.961 137.883 643.207 138.047 642.52C138.211 641.824 138.449 641.219 138.762 640.703C139.082 640.188 139.473 639.789 139.934 639.508C140.395 639.227 140.922 639.086 141.516 639.086C141.703 639.086 141.895 639.102 142.09 639.133C142.285 639.156 142.445 639.191 142.57 639.238ZM150.609 649.141V643.492C150.609 643.086 150.543 642.738 150.41 642.449C150.277 642.152 150.07 641.922 149.789 641.758C149.516 641.594 149.16 641.512 148.723 641.512C148.348 641.512 148.023 641.578 147.75 641.711C147.477 641.836 147.266 642.02 147.117 642.262C146.969 642.496 146.895 642.773 146.895 643.094H143.52C143.52 642.555 143.645 642.043 143.895 641.559C144.145 641.074 144.508 640.648 144.984 640.281C145.461 639.906 146.027 639.613 146.684 639.402C147.348 639.191 148.09 639.086 148.91 639.086C149.895 639.086 150.77 639.25 151.535 639.578C152.301 639.906 152.902 640.398 153.34 641.055C153.785 641.711 154.008 642.531 154.008 643.516V648.941C154.008 649.637 154.051 650.207 154.137 650.652C154.223 651.09 154.348 651.473 154.512 651.801V652H151.102C150.938 651.656 150.812 651.227 150.727 650.711C150.648 650.188 150.609 649.664 150.609 649.141ZM151.055 644.277L151.078 646.188H149.191C148.746 646.188 148.359 646.238 148.031 646.34C147.703 646.441 147.434 646.586 147.223 646.773C147.012 646.953 146.855 647.164 146.754 647.406C146.66 647.648 146.613 647.914 146.613 648.203C146.613 648.492 146.68 648.754 146.812 648.988C146.945 649.215 147.137 649.395 147.387 649.527C147.637 649.652 147.93 649.715 148.266 649.715C148.773 649.715 149.215 649.613 149.59 649.41C149.965 649.207 150.254 648.957 150.457 648.66C150.668 648.363 150.777 648.082 150.785 647.816L151.676 649.246C151.551 649.566 151.379 649.898 151.16 650.242C150.949 650.586 150.68 650.91 150.352 651.215C150.023 651.512 149.629 651.758 149.168 651.953C148.707 652.141 148.16 652.234 147.527 652.234C146.723 652.234 145.992 652.074 145.336 651.754C144.688 651.426 144.172 650.977 143.789 650.406C143.414 649.828 143.227 649.172 143.227 648.438C143.227 647.773 143.352 647.184 143.602 646.668C143.852 646.152 144.219 645.719 144.703 645.367C145.195 645.008 145.809 644.738 146.543 644.559C147.277 644.371 148.129 644.277 149.098 644.277H151.055ZM159.914 642.027V652H156.539V639.32H159.703L159.914 642.027ZM159.422 645.215H158.508C158.508 644.277 158.629 643.434 158.871 642.684C159.113 641.926 159.453 641.281 159.891 640.75C160.328 640.211 160.848 639.801 161.449 639.52C162.059 639.23 162.738 639.086 163.488 639.086C164.082 639.086 164.625 639.172 165.117 639.344C165.609 639.516 166.031 639.789 166.383 640.164C166.742 640.539 167.016 641.035 167.203 641.652C167.398 642.27 167.496 643.023 167.496 643.914V652H164.098V643.902C164.098 643.34 164.02 642.902 163.863 642.59C163.707 642.277 163.477 642.059 163.172 641.934C162.875 641.801 162.508 641.734 162.07 641.734C161.617 641.734 161.223 641.824 160.887 642.004C160.559 642.184 160.285 642.434 160.066 642.754C159.855 643.066 159.695 643.434 159.586 643.855C159.477 644.277 159.422 644.73 159.422 645.215ZM176.918 648.496C176.918 648.254 176.848 648.035 176.707 647.84C176.566 647.645 176.305 647.465 175.922 647.301C175.547 647.129 175.004 646.973 174.293 646.832C173.652 646.691 173.055 646.516 172.5 646.305C171.953 646.086 171.477 645.824 171.07 645.52C170.672 645.215 170.359 644.855 170.133 644.441C169.906 644.02 169.793 643.539 169.793 643C169.793 642.469 169.906 641.969 170.133 641.5C170.367 641.031 170.699 640.617 171.129 640.258C171.566 639.891 172.098 639.605 172.723 639.402C173.355 639.191 174.066 639.086 174.855 639.086C175.957 639.086 176.902 639.262 177.691 639.613C178.488 639.965 179.098 640.449 179.52 641.066C179.949 641.676 180.164 642.371 180.164 643.152H176.789C176.789 642.824 176.719 642.531 176.578 642.273C176.445 642.008 176.234 641.801 175.945 641.652C175.664 641.496 175.297 641.418 174.844 641.418C174.469 641.418 174.145 641.484 173.871 641.617C173.598 641.742 173.387 641.914 173.238 642.133C173.098 642.344 173.027 642.578 173.027 642.836C173.027 643.031 173.066 643.207 173.145 643.363C173.23 643.512 173.367 643.648 173.555 643.773C173.742 643.898 173.984 644.016 174.281 644.125C174.586 644.227 174.961 644.32 175.406 644.406C176.32 644.594 177.137 644.84 177.855 645.145C178.574 645.441 179.145 645.848 179.566 646.363C179.988 646.871 180.199 647.539 180.199 648.367C180.199 648.93 180.074 649.445 179.824 649.914C179.574 650.383 179.215 650.793 178.746 651.145C178.277 651.488 177.715 651.758 177.059 651.953C176.41 652.141 175.68 652.234 174.867 652.234C173.688 652.234 172.688 652.023 171.867 651.602C171.055 651.18 170.438 650.645 170.016 649.996C169.602 649.34 169.395 648.668 169.395 647.98H172.594C172.609 648.441 172.727 648.812 172.945 649.094C173.172 649.375 173.457 649.578 173.801 649.703C174.152 649.828 174.531 649.891 174.938 649.891C175.375 649.891 175.738 649.832 176.027 649.715C176.316 649.59 176.535 649.426 176.684 649.223C176.84 649.012 176.918 648.77 176.918 648.496ZM189.234 649.141V643.492C189.234 643.086 189.168 642.738 189.035 642.449C188.902 642.152 188.695 641.922 188.414 641.758C188.141 641.594 187.785 641.512 187.348 641.512C186.973 641.512 186.648 641.578 186.375 641.711C186.102 641.836 185.891 642.02 185.742 642.262C185.594 642.496 185.52 642.773 185.52 643.094H182.145C182.145 642.555 182.27 642.043 182.52 641.559C182.77 641.074 183.133 640.648 183.609 640.281C184.086 639.906 184.652 639.613 185.309 639.402C185.973 639.191 186.715 639.086 187.535 639.086C188.52 639.086 189.395 639.25 190.16 639.578C190.926 639.906 191.527 640.398 191.965 641.055C192.41 641.711 192.633 642.531 192.633 643.516V648.941C192.633 649.637 192.676 650.207 192.762 650.652C192.848 651.09 192.973 651.473 193.137 651.801V652H189.727C189.562 651.656 189.438 651.227 189.352 650.711C189.273 650.188 189.234 649.664 189.234 649.141ZM189.68 644.277L189.703 646.188H187.816C187.371 646.188 186.984 646.238 186.656 646.34C186.328 646.441 186.059 646.586 185.848 646.773C185.637 646.953 185.48 647.164 185.379 647.406C185.285 647.648 185.238 647.914 185.238 648.203C185.238 648.492 185.305 648.754 185.438 648.988C185.57 649.215 185.762 649.395 186.012 649.527C186.262 649.652 186.555 649.715 186.891 649.715C187.398 649.715 187.84 649.613 188.215 649.41C188.59 649.207 188.879 648.957 189.082 648.66C189.293 648.363 189.402 648.082 189.41 647.816L190.301 649.246C190.176 649.566 190.004 649.898 189.785 650.242C189.574 650.586 189.305 650.91 188.977 651.215C188.648 651.512 188.254 651.758 187.793 651.953C187.332 652.141 186.785 652.234 186.152 652.234C185.348 652.234 184.617 652.074 183.961 651.754C183.312 651.426 182.797 650.977 182.414 650.406C182.039 649.828 181.852 649.172 181.852 648.438C181.852 647.773 181.977 647.184 182.227 646.668C182.477 646.152 182.844 645.719 183.328 645.367C183.82 645.008 184.434 644.738 185.168 644.559C185.902 644.371 186.754 644.277 187.723 644.277H189.68ZM200.473 649.598C200.887 649.598 201.254 649.52 201.574 649.363C201.895 649.199 202.145 648.973 202.324 648.684C202.512 648.387 202.609 648.039 202.617 647.641H205.793C205.785 648.531 205.547 649.324 205.078 650.02C204.609 650.707 203.98 651.25 203.191 651.648C202.402 652.039 201.52 652.234 200.543 652.234C199.559 652.234 198.699 652.07 197.965 651.742C197.238 651.414 196.633 650.961 196.148 650.383C195.664 649.797 195.301 649.117 195.059 648.344C194.816 647.562 194.695 646.727 194.695 645.836V645.496C194.695 644.598 194.816 643.762 195.059 642.988C195.301 642.207 195.664 641.527 196.148 640.949C196.633 640.363 197.238 639.906 197.965 639.578C198.691 639.25 199.543 639.086 200.52 639.086C201.559 639.086 202.469 639.285 203.25 639.684C204.039 640.082 204.656 640.652 205.102 641.395C205.555 642.129 205.785 643 205.793 644.008H202.617C202.609 643.586 202.52 643.203 202.348 642.859C202.184 642.516 201.941 642.242 201.621 642.039C201.309 641.828 200.922 641.723 200.461 641.723C199.969 641.723 199.566 641.828 199.254 642.039C198.941 642.242 198.699 642.523 198.527 642.883C198.355 643.234 198.234 643.637 198.164 644.09C198.102 644.535 198.07 645.004 198.07 645.496V645.836C198.07 646.328 198.102 646.801 198.164 647.254C198.227 647.707 198.344 648.109 198.516 648.461C198.695 648.812 198.941 649.09 199.254 649.293C199.566 649.496 199.973 649.598 200.473 649.598ZM213.961 639.32V641.711H206.578V639.32H213.961ZM208.406 636.191H211.781V648.18C211.781 648.547 211.828 648.828 211.922 649.023C212.023 649.219 212.172 649.355 212.367 649.434C212.562 649.504 212.809 649.539 213.105 649.539C213.316 649.539 213.504 649.531 213.668 649.516C213.84 649.492 213.984 649.469 214.102 649.445L214.113 651.93C213.824 652.023 213.512 652.098 213.176 652.152C212.84 652.207 212.469 652.234 212.062 652.234C211.32 652.234 210.672 652.113 210.117 651.871C209.57 651.621 209.148 651.223 208.852 650.676C208.555 650.129 208.406 649.41 208.406 648.52V636.191ZM219.445 639.32V652H216.059V639.32H219.445ZM215.848 636.016C215.848 635.523 216.02 635.117 216.363 634.797C216.707 634.477 217.168 634.316 217.746 634.316C218.316 634.316 218.773 634.477 219.117 634.797C219.469 635.117 219.645 635.523 219.645 636.016C219.645 636.508 219.469 636.914 219.117 637.234C218.773 637.555 218.316 637.715 217.746 637.715C217.168 637.715 216.707 637.555 216.363 637.234C216.02 636.914 215.848 636.508 215.848 636.016ZM221.695 645.789V645.543C221.695 644.613 221.828 643.758 222.094 642.977C222.359 642.188 222.746 641.504 223.254 640.926C223.762 640.348 224.387 639.898 225.129 639.578C225.871 639.25 226.723 639.086 227.684 639.086C228.645 639.086 229.5 639.25 230.25 639.578C231 639.898 231.629 640.348 232.137 640.926C232.652 641.504 233.043 642.188 233.309 642.977C233.574 643.758 233.707 644.613 233.707 645.543V645.789C233.707 646.711 233.574 647.566 233.309 648.355C233.043 649.137 232.652 649.82 232.137 650.406C231.629 650.984 231.004 651.434 230.262 651.754C229.52 652.074 228.668 652.234 227.707 652.234C226.746 652.234 225.891 652.074 225.141 651.754C224.398 651.434 223.77 650.984 223.254 650.406C222.746 649.82 222.359 649.137 222.094 648.355C221.828 647.566 221.695 646.711 221.695 645.789ZM225.07 645.543V645.789C225.07 646.32 225.117 646.816 225.211 647.277C225.305 647.738 225.453 648.145 225.656 648.496C225.867 648.84 226.141 649.109 226.477 649.305C226.812 649.5 227.223 649.598 227.707 649.598C228.176 649.598 228.578 649.5 228.914 649.305C229.25 649.109 229.52 648.84 229.723 648.496C229.926 648.145 230.074 647.738 230.168 647.277C230.27 646.816 230.32 646.32 230.32 645.789V645.543C230.32 645.027 230.27 644.543 230.168 644.09C230.074 643.629 229.922 643.223 229.711 642.871C229.508 642.512 229.238 642.23 228.902 642.027C228.566 641.824 228.16 641.723 227.684 641.723C227.207 641.723 226.801 641.824 226.465 642.027C226.137 642.23 225.867 642.512 225.656 642.871C225.453 643.223 225.305 643.629 225.211 644.09C225.117 644.543 225.07 645.027 225.07 645.543ZM239.086 642.027V652H235.711V639.32H238.875L239.086 642.027ZM238.594 645.215H237.68C237.68 644.277 237.801 643.434 238.043 642.684C238.285 641.926 238.625 641.281 239.062 640.75C239.5 640.211 240.02 639.801 240.621 639.52C241.23 639.23 241.91 639.086 242.66 639.086C243.254 639.086 243.797 639.172 244.289 639.344C244.781 639.516 245.203 639.789 245.555 640.164C245.914 640.539 246.188 641.035 246.375 641.652C246.57 642.27 246.668 643.023 246.668 643.914V652H243.27V643.902C243.27 643.34 243.191 642.902 243.035 642.59C242.879 642.277 242.648 642.059 242.344 641.934C242.047 641.801 241.68 641.734 241.242 641.734C240.789 641.734 240.395 641.824 240.059 642.004C239.73 642.184 239.457 642.434 239.238 642.754C239.027 643.066 238.867 643.434 238.758 643.855C238.648 644.277 238.594 644.73 238.594 645.215ZM259.512 652H256.113V638.195C256.113 637.234 256.301 636.426 256.676 635.77C257.059 635.105 257.594 634.605 258.281 634.27C258.977 633.926 259.801 633.754 260.754 633.754C261.066 633.754 261.367 633.777 261.656 633.824C261.945 633.863 262.227 633.914 262.5 633.977L262.465 636.52C262.316 636.48 262.16 636.453 261.996 636.438C261.832 636.422 261.641 636.414 261.422 636.414C261.016 636.414 260.668 636.484 260.379 636.625C260.098 636.758 259.883 636.957 259.734 637.223C259.586 637.488 259.512 637.812 259.512 638.195V652ZM262.043 639.32V641.711H254.227V639.32H262.043ZM270.656 649.141V643.492C270.656 643.086 270.59 642.738 270.457 642.449C270.324 642.152 270.117 641.922 269.836 641.758C269.562 641.594 269.207 641.512 268.77 641.512C268.395 641.512 268.07 641.578 267.797 641.711C267.523 641.836 267.312 642.02 267.164 642.262C267.016 642.496 266.941 642.773 266.941 643.094H263.566C263.566 642.555 263.691 642.043 263.941 641.559C264.191 641.074 264.555 640.648 265.031 640.281C265.508 639.906 266.074 639.613 266.73 639.402C267.395 639.191 268.137 639.086 268.957 639.086C269.941 639.086 270.816 639.25 271.582 639.578C272.348 639.906 272.949 640.398 273.387 641.055C273.832 641.711 274.055 642.531 274.055 643.516V648.941C274.055 649.637 274.098 650.207 274.184 650.652C274.27 651.09 274.395 651.473 274.559 651.801V652H271.148C270.984 651.656 270.859 651.227 270.773 650.711C270.695 650.188 270.656 649.664 270.656 649.141ZM271.102 644.277L271.125 646.188H269.238C268.793 646.188 268.406 646.238 268.078 646.34C267.75 646.441 267.48 646.586 267.27 646.773C267.059 646.953 266.902 647.164 266.801 647.406C266.707 647.648 266.66 647.914 266.66 648.203C266.66 648.492 266.727 648.754 266.859 648.988C266.992 649.215 267.184 649.395 267.434 649.527C267.684 649.652 267.977 649.715 268.312 649.715C268.82 649.715 269.262 649.613 269.637 649.41C270.012 649.207 270.301 648.957 270.504 648.66C270.715 648.363 270.824 648.082 270.832 647.816L271.723 649.246C271.598 649.566 271.426 649.898 271.207 650.242C270.996 650.586 270.727 650.91 270.398 651.215C270.07 651.512 269.676 651.758 269.215 651.953C268.754 652.141 268.207 652.234 267.574 652.234C266.77 652.234 266.039 652.074 265.383 651.754C264.734 651.426 264.219 650.977 263.836 650.406C263.461 649.828 263.273 649.172 263.273 648.438C263.273 647.773 263.398 647.184 263.648 646.668C263.898 646.152 264.266 645.719 264.75 645.367C265.242 645.008 265.855 644.738 266.59 644.559C267.324 644.371 268.176 644.277 269.145 644.277H271.102ZM280.219 639.32V652H276.832V639.32H280.219ZM276.621 636.016C276.621 635.523 276.793 635.117 277.137 634.797C277.48 634.477 277.941 634.316 278.52 634.316C279.09 634.316 279.547 634.477 279.891 634.797C280.242 635.117 280.418 635.523 280.418 636.016C280.418 636.508 280.242 636.914 279.891 637.234C279.547 637.555 279.09 637.715 278.52 637.715C277.941 637.715 277.48 637.555 277.137 637.234C276.793 636.914 276.621 636.508 276.621 636.016ZM286.57 634V652H283.184V634H286.57ZM295.195 652.234C294.211 652.234 293.328 652.078 292.547 651.766C291.766 651.445 291.102 651.004 290.555 650.441C290.016 649.879 289.602 649.227 289.312 648.484C289.023 647.734 288.879 646.938 288.879 646.094V645.625C288.879 644.664 289.016 643.785 289.289 642.988C289.562 642.191 289.953 641.5 290.461 640.914C290.977 640.328 291.602 639.879 292.336 639.566C293.07 639.246 293.898 639.086 294.82 639.086C295.719 639.086 296.516 639.234 297.211 639.531C297.906 639.828 298.488 640.25 298.957 640.797C299.434 641.344 299.793 642 300.035 642.766C300.277 643.523 300.398 644.367 300.398 645.297V646.703H290.32V644.453H297.082V644.195C297.082 643.727 296.996 643.309 296.824 642.941C296.66 642.566 296.41 642.27 296.074 642.051C295.738 641.832 295.309 641.723 294.785 641.723C294.34 641.723 293.957 641.82 293.637 642.016C293.316 642.211 293.055 642.484 292.852 642.836C292.656 643.188 292.508 643.602 292.406 644.078C292.312 644.547 292.266 645.062 292.266 645.625V646.094C292.266 646.602 292.336 647.07 292.477 647.5C292.625 647.93 292.832 648.301 293.098 648.613C293.371 648.926 293.699 649.168 294.082 649.34C294.473 649.512 294.914 649.598 295.406 649.598C296.016 649.598 296.582 649.48 297.105 649.246C297.637 649.004 298.094 648.641 298.477 648.156L300.117 649.938C299.852 650.32 299.488 650.688 299.027 651.039C298.574 651.391 298.027 651.68 297.387 651.906C296.746 652.125 296.016 652.234 295.195 652.234ZM309.809 649.234V634H313.207V652H310.148L309.809 649.234ZM301.793 645.812V645.566C301.793 644.598 301.902 643.719 302.121 642.93C302.34 642.133 302.66 641.449 303.082 640.879C303.504 640.309 304.023 639.867 304.641 639.555C305.258 639.242 305.961 639.086 306.75 639.086C307.492 639.086 308.141 639.242 308.695 639.555C309.258 639.867 309.734 640.312 310.125 640.891C310.523 641.461 310.844 642.137 311.086 642.918C311.328 643.691 311.504 644.539 311.613 645.461V646C311.504 646.883 311.328 647.703 311.086 648.461C310.844 649.219 310.523 649.883 310.125 650.453C309.734 651.016 309.258 651.453 308.695 651.766C308.133 652.078 307.477 652.234 306.727 652.234C305.938 652.234 305.234 652.074 304.617 651.754C304.008 651.434 303.492 650.984 303.07 650.406C302.656 649.828 302.34 649.148 302.121 648.367C301.902 647.586 301.793 646.734 301.793 645.812ZM305.168 645.566V645.812C305.168 646.336 305.207 646.824 305.285 647.277C305.371 647.73 305.508 648.133 305.695 648.484C305.891 648.828 306.141 649.098 306.445 649.293C306.758 649.48 307.137 649.574 307.582 649.574C308.16 649.574 308.637 649.445 309.012 649.188C309.387 648.922 309.672 648.559 309.867 648.098C310.07 647.637 310.188 647.105 310.219 646.504V644.969C310.195 644.477 310.125 644.035 310.008 643.645C309.898 643.246 309.734 642.906 309.516 642.625C309.305 642.344 309.039 642.125 308.719 641.969C308.406 641.812 308.035 641.734 307.605 641.734C307.168 641.734 306.793 641.836 306.48 642.039C306.168 642.234 305.914 642.504 305.719 642.848C305.531 643.191 305.391 643.598 305.297 644.066C305.211 644.527 305.168 645.027 305.168 645.566Z" fill="black"/>
<g opacity="0.5">
<path d="M390.913 380C390.913 481.572 308.573 563.913 207 563.913C105.428 563.913 23.0869 481.572 23.0869 380C23.0869 278.428 105.428 196.087 207 196.087C308.573 196.087 390.913 278.428 390.913 380Z" fill="#E25B5B"/>
</g>
<path d="M320.516 380C320.516 442.693 269.694 493.516 207 493.516C144.307 493.516 93.4836 442.693 93.4836 380C93.4836 317.307 144.307 266.484 207 266.484C269.694 266.484 320.516 317.307 320.516 380Z" fill="#E25B5B"/>
</g>
<defs>
<filter id="filter0_d_28_822" x="12" y="24" width="32.2188" height="32.2188" filterUnits="userSpaceOnUse" color-interpolation-filters="sRGB">
<feFlood flood-opacity="0" result="BackgroundImageFix"/>
<feColorMatrix in="SourceAlpha" type="matrix" values="0 0 0 0 0 0 0 0 0 0 0 0 0 0 0 0 0 0 127 0" result="hardAlpha"/>
<feOffset dy="4"/>
<feGaussianBlur stdDeviation="2"/>
<feComposite in2="hardAlpha" operator="out"/>
<feColorMatrix type="matrix" values="0 0 0 0 0 0 0 0 0 0 0 0 0 0 0 0 0 0 0.25 0"/>
<feBlend mode="normal" in2="BackgroundImageFix" result="effect1_dropShadow_28_822"/>
<feBlend mode="normal" in="SourceGraphic" in2="effect1_dropShadow_28_822" result="shape"/>
</filter>
<linearGradient id="paint0_linear_28_822" x1="28.1094" y1="24" x2="28.1094" y2="48.2188" gradientUnits="userSpaceOnUse">
<stop stop-color="#00FFD1"/>
<stop offset="1" stop-color="#38A6BE" stop-opacity="0.84"/>
</linearGradient>
<clipPath id="clip0_28_822">
<rect width="414" height="896" rx="20" fill="white"/>
</clipPath>
</defs>
</svg>
