<svg width="414" height="896" viewBox="0 0 414 896" fill="none" xmlns="http://www.w3.org/2000/svg">
<g clip-path="url(#clip0_28_654)">
<rect width="414" height="896" rx="20" fill="#EEF9FA"/>
<path d="M290.051 31.2129L286.184 43H283.068L288.352 28.7812H290.334L290.051 31.2129ZM293.264 43L289.387 31.2129L289.074 28.7812H291.076L296.389 43H293.264ZM293.088 37.707V40.002H285.578V37.707H293.088ZM300.5 28V43H297.678V28H300.5ZM305.637 34.4648V47.0625H302.824V32.4336H305.432L305.637 34.4648ZM312.326 37.5996V37.8047C312.326 38.5729 312.235 39.2858 312.053 39.9434C311.877 40.6009 311.617 41.1738 311.271 41.6621C310.926 42.1439 310.497 42.5215 309.982 42.7949C309.475 43.0618 308.889 43.1953 308.225 43.1953C307.58 43.1953 307.02 43.0651 306.545 42.8047C306.07 42.5443 305.669 42.1797 305.344 41.7109C305.025 41.2357 304.768 40.6855 304.572 40.0605C304.377 39.4355 304.227 38.765 304.123 38.0488V37.5117C304.227 36.7435 304.377 36.0404 304.572 35.4023C304.768 34.7578 305.025 34.2012 305.344 33.7324C305.669 33.2572 306.066 32.8893 306.535 32.6289C307.01 32.3685 307.567 32.2383 308.205 32.2383C308.876 32.2383 309.465 32.3652 309.973 32.6191C310.487 32.873 310.917 33.2376 311.262 33.7129C311.613 34.1882 311.877 34.7546 312.053 35.4121C312.235 36.0697 312.326 36.7988 312.326 37.5996ZM309.504 37.8047V37.5996C309.504 37.1504 309.465 36.737 309.387 36.3594C309.315 35.9753 309.198 35.64 309.035 35.3535C308.879 35.0671 308.671 34.8457 308.41 34.6895C308.156 34.5267 307.847 34.4453 307.482 34.4453C307.098 34.4453 306.77 34.5072 306.496 34.6309C306.229 34.7546 306.011 34.9336 305.842 35.168C305.673 35.4023 305.546 35.6823 305.461 36.0078C305.376 36.3333 305.324 36.7012 305.305 37.1113V38.4688C305.337 38.9505 305.428 39.3835 305.578 39.7676C305.728 40.1452 305.959 40.4447 306.271 40.666C306.584 40.8874 306.994 40.998 307.502 40.998C307.873 40.998 308.186 40.9167 308.439 40.7539C308.693 40.5846 308.898 40.3535 309.055 40.0605C309.217 39.7676 309.331 39.429 309.396 39.0449C309.468 38.6608 309.504 38.2474 309.504 37.8047ZM316.818 28V43H314.006V28H316.818ZM316.418 37.3457H315.646C315.653 36.61 315.751 35.9329 315.939 35.3145C316.128 34.6895 316.398 34.1491 316.75 33.6934C317.102 33.2311 317.521 32.873 318.01 32.6191C318.505 32.3652 319.051 32.2383 319.65 32.2383C320.171 32.2383 320.643 32.3132 321.066 32.4629C321.496 32.6061 321.864 32.8405 322.17 33.166C322.482 33.485 322.723 33.9049 322.893 34.4258C323.062 34.9466 323.146 35.5781 323.146 36.3203V43H320.314V36.3008C320.314 35.832 320.246 35.4642 320.109 35.1973C319.979 34.9238 319.787 34.7318 319.533 34.6211C319.286 34.5039 318.98 34.4453 318.615 34.4453C318.212 34.4453 317.867 34.5202 317.58 34.6699C317.3 34.8197 317.076 35.028 316.906 35.2949C316.737 35.5553 316.613 35.8613 316.535 36.2129C316.457 36.5645 316.418 36.9421 316.418 37.3457ZM330.988 40.6172V35.9102C330.988 35.5716 330.933 35.2819 330.822 35.041C330.712 34.7936 330.539 34.6016 330.305 34.4648C330.077 34.3281 329.781 34.2598 329.416 34.2598C329.104 34.2598 328.833 34.3151 328.605 34.4258C328.378 34.5299 328.202 34.6829 328.078 34.8848C327.954 35.0801 327.893 35.3112 327.893 35.5781H325.08C325.08 35.1289 325.184 34.7025 325.393 34.2988C325.601 33.8952 325.904 33.5404 326.301 33.2344C326.698 32.9219 327.17 32.6777 327.717 32.502C328.27 32.3262 328.889 32.2383 329.572 32.2383C330.393 32.2383 331.122 32.375 331.76 32.6484C332.398 32.9219 332.899 33.332 333.264 33.8789C333.635 34.4258 333.82 35.1094 333.82 35.9297V40.4512C333.82 41.0306 333.856 41.5059 333.928 41.877C333.999 42.2415 334.104 42.5605 334.24 42.834V43H331.398C331.262 42.7135 331.158 42.3555 331.086 41.9258C331.021 41.4896 330.988 41.0534 330.988 40.6172ZM331.359 36.5645L331.379 38.1562H329.807C329.436 38.1562 329.113 38.1986 328.84 38.2832C328.566 38.3678 328.342 38.4883 328.166 38.6445C327.99 38.7943 327.86 38.9701 327.775 39.1719C327.697 39.3737 327.658 39.5951 327.658 39.8359C327.658 40.0768 327.714 40.2949 327.824 40.4902C327.935 40.679 328.094 40.8288 328.303 40.9395C328.511 41.0436 328.755 41.0957 329.035 41.0957C329.458 41.0957 329.826 41.0111 330.139 40.8418C330.451 40.6725 330.692 40.4642 330.861 40.2168C331.037 39.9694 331.128 39.735 331.135 39.5137L331.877 40.7051C331.773 40.972 331.63 41.2487 331.447 41.5352C331.271 41.8216 331.047 42.0918 330.773 42.3457C330.5 42.5931 330.171 42.7982 329.787 42.9609C329.403 43.1172 328.947 43.1953 328.42 43.1953C327.749 43.1953 327.141 43.0618 326.594 42.7949C326.053 42.5215 325.624 42.1471 325.305 41.6719C324.992 41.1901 324.836 40.6432 324.836 40.0312C324.836 39.4779 324.94 38.9863 325.148 38.5566C325.357 38.127 325.663 37.7656 326.066 37.4727C326.477 37.1732 326.988 36.9486 327.6 36.7988C328.212 36.6426 328.921 36.5645 329.729 36.5645H331.359ZM345.305 40.7148V43H338.146V40.7148H345.305ZM339.094 28.7812V43H336.164V28.7812H339.094ZM346.359 37.8242V37.6191C346.359 36.8444 346.47 36.1315 346.691 35.4805C346.913 34.8229 347.235 34.2533 347.658 33.7715C348.081 33.2897 348.602 32.9154 349.221 32.6484C349.839 32.375 350.549 32.2383 351.35 32.2383C352.15 32.2383 352.863 32.375 353.488 32.6484C354.113 32.9154 354.637 33.2897 355.061 33.7715C355.49 34.2533 355.816 34.8229 356.037 35.4805C356.258 36.1315 356.369 36.8444 356.369 37.6191V37.8242C356.369 38.5924 356.258 39.3053 356.037 39.9629C355.816 40.6139 355.49 41.1836 355.061 41.6719C354.637 42.1536 354.117 42.528 353.498 42.7949C352.88 43.0618 352.17 43.1953 351.369 43.1953C350.568 43.1953 349.855 43.0618 349.23 42.7949C348.612 42.528 348.088 42.1536 347.658 41.6719C347.235 41.1836 346.913 40.6139 346.691 39.9629C346.47 39.3053 346.359 38.5924 346.359 37.8242ZM349.172 37.6191V37.8242C349.172 38.2669 349.211 38.6803 349.289 39.0645C349.367 39.4486 349.491 39.7871 349.66 40.0801C349.836 40.3665 350.064 40.5911 350.344 40.7539C350.624 40.9167 350.965 40.998 351.369 40.998C351.76 40.998 352.095 40.9167 352.375 40.7539C352.655 40.5911 352.88 40.3665 353.049 40.0801C353.218 39.7871 353.342 39.4486 353.42 39.0645C353.505 38.6803 353.547 38.2669 353.547 37.8242V37.6191C353.547 37.1895 353.505 36.7858 353.42 36.4082C353.342 36.0241 353.215 35.6855 353.039 35.3926C352.87 35.0931 352.645 34.8587 352.365 34.6895C352.085 34.5202 351.747 34.4355 351.35 34.4355C350.952 34.4355 350.614 34.5202 350.334 34.6895C350.061 34.8587 349.836 35.0931 349.66 35.3926C349.491 35.6855 349.367 36.0241 349.289 36.4082C349.211 36.7858 349.172 37.1895 349.172 37.6191ZM363.801 40.6172V35.9102C363.801 35.5716 363.745 35.2819 363.635 35.041C363.524 34.7936 363.352 34.6016 363.117 34.4648C362.889 34.3281 362.593 34.2598 362.229 34.2598C361.916 34.2598 361.646 34.3151 361.418 34.4258C361.19 34.5299 361.014 34.6829 360.891 34.8848C360.767 35.0801 360.705 35.3112 360.705 35.5781H357.893C357.893 35.1289 357.997 34.7025 358.205 34.2988C358.413 33.8952 358.716 33.5404 359.113 33.2344C359.51 32.9219 359.982 32.6777 360.529 32.502C361.083 32.3262 361.701 32.2383 362.385 32.2383C363.205 32.2383 363.934 32.375 364.572 32.6484C365.21 32.9219 365.712 33.332 366.076 33.8789C366.447 34.4258 366.633 35.1094 366.633 35.9297V40.4512C366.633 41.0306 366.669 41.5059 366.74 41.877C366.812 42.2415 366.916 42.5605 367.053 42.834V43H364.211C364.074 42.7135 363.97 42.3555 363.898 41.9258C363.833 41.4896 363.801 41.0534 363.801 40.6172ZM364.172 36.5645L364.191 38.1562H362.619C362.248 38.1562 361.926 38.1986 361.652 38.2832C361.379 38.3678 361.154 38.4883 360.979 38.6445C360.803 38.7943 360.673 38.9701 360.588 39.1719C360.51 39.3737 360.471 39.5951 360.471 39.8359C360.471 40.0768 360.526 40.2949 360.637 40.4902C360.747 40.679 360.907 40.8288 361.115 40.9395C361.324 41.0436 361.568 41.0957 361.848 41.0957C362.271 41.0957 362.639 41.0111 362.951 40.8418C363.264 40.6725 363.505 40.4642 363.674 40.2168C363.85 39.9694 363.941 39.735 363.947 39.5137L364.689 40.7051C364.585 40.972 364.442 41.2487 364.26 41.5352C364.084 41.8216 363.859 42.0918 363.586 42.3457C363.312 42.5931 362.984 42.7982 362.6 42.9609C362.215 43.1172 361.76 43.1953 361.232 43.1953C360.562 43.1953 359.953 43.0618 359.406 42.7949C358.866 42.5215 358.436 42.1471 358.117 41.6719C357.805 41.1901 357.648 40.6432 357.648 40.0312C357.648 39.4779 357.753 38.9863 357.961 38.5566C358.169 38.127 358.475 37.7656 358.879 37.4727C359.289 37.1732 359.8 36.9486 360.412 36.7988C361.024 36.6426 361.734 36.5645 362.541 36.5645H364.172ZM371.555 34.6895V43H368.742V32.4336H371.379L371.555 34.6895ZM371.145 37.3457H370.383C370.383 36.5645 370.484 35.8613 370.686 35.2363C370.887 34.6048 371.171 34.0677 371.535 33.625C371.9 33.1758 372.333 32.834 372.834 32.5996C373.342 32.3587 373.908 32.2383 374.533 32.2383C375.028 32.2383 375.48 32.3099 375.891 32.4531C376.301 32.5964 376.652 32.8242 376.945 33.1367C377.245 33.4492 377.473 33.8626 377.629 34.377C377.792 34.8913 377.873 35.5195 377.873 36.2617V43H375.041V36.252C375.041 35.7832 374.976 35.4186 374.846 35.1582C374.715 34.8978 374.523 34.7155 374.27 34.6113C374.022 34.5007 373.716 34.4453 373.352 34.4453C372.974 34.4453 372.645 34.5202 372.365 34.6699C372.092 34.8197 371.864 35.028 371.682 35.2949C371.506 35.5553 371.372 35.8613 371.281 36.2129C371.19 36.5645 371.145 36.9421 371.145 37.3457Z" fill="black"/>
<g filter="url(#filter0_d_28_654)">
<path d="M28.1094 24C21.4214 24 16 29.4214 16 36.1094C16 42.7974 21.4214 48.2188 28.1094 48.2188C34.7974 48.2188 40.2188 42.7974 40.2188 36.1094C40.2188 29.4214 34.7974 24 28.1094 24ZM28.1094 45.0938C23.144 45.0938 19.125 41.0757 19.125 36.1094C19.125 31.144 23.1431 27.125 28.1094 27.125C33.0747 27.125 37.0938 31.1431 37.0938 36.1094C37.0938 41.0747 33.0757 45.0938 28.1094 45.0938ZM28.1094 29.8594C24.6577 29.8594 21.8594 32.6577 21.8594 36.1094C21.8594 39.561 24.6577 42.3594 28.1094 42.3594C31.561 42.3594 34.3594 39.561 34.3594 36.1094C34.3594 32.6577 31.561 29.8594 28.1094 29.8594ZM28.1094 39.2344C26.3862 39.2344 24.9844 37.8325 24.9844 36.1094C24.9844 34.3862 26.3862 32.9844 28.1094 32.9844C29.8325 32.9844 31.2344 34.3862 31.2344 36.1094C31.2344 37.8325 29.8325 39.2344 28.1094 39.2344Z" fill="url(#paint0_linear_28_654)" shape-rendering="crispEdges"/>
</g>
<rect x="31" y="816" width="354" height="56" rx="20" fill="#256BF4"/>
<path d="M176.967 846.736V846.429C176.967 845.267 177.133 844.197 177.465 843.221C177.797 842.234 178.28 841.38 178.915 840.657C179.55 839.935 180.331 839.373 181.259 838.973C182.187 838.562 183.251 838.357 184.452 838.357C185.653 838.357 186.723 838.562 187.66 838.973C188.598 839.373 189.384 839.935 190.019 840.657C190.663 841.38 191.151 842.234 191.483 843.221C191.815 844.197 191.981 845.267 191.981 846.429V846.736C191.981 847.889 191.815 848.958 191.483 849.944C191.151 850.921 190.663 851.775 190.019 852.508C189.384 853.23 188.603 853.792 187.675 854.192C186.747 854.593 185.683 854.793 184.481 854.793C183.28 854.793 182.211 854.593 181.273 854.192C180.346 853.792 179.56 853.23 178.915 852.508C178.28 851.775 177.797 850.921 177.465 849.944C177.133 848.958 176.967 847.889 176.967 846.736ZM181.186 846.429V846.736C181.186 847.4 181.244 848.021 181.361 848.597C181.479 849.173 181.664 849.681 181.918 850.12C182.182 850.55 182.523 850.887 182.943 851.131C183.363 851.375 183.876 851.497 184.481 851.497C185.067 851.497 185.57 851.375 185.99 851.131C186.41 850.887 186.747 850.55 187.001 850.12C187.255 849.681 187.44 849.173 187.558 848.597C187.685 848.021 187.748 847.4 187.748 846.736V846.429C187.748 845.784 187.685 845.179 187.558 844.612C187.44 844.036 187.25 843.528 186.986 843.089C186.732 842.64 186.396 842.288 185.976 842.034C185.556 841.78 185.048 841.653 184.452 841.653C183.856 841.653 183.349 841.78 182.929 842.034C182.519 842.288 182.182 842.64 181.918 843.089C181.664 843.528 181.479 844.036 181.361 844.612C181.244 845.179 181.186 845.784 181.186 846.429ZM198.793 831.985V854.5H194.574V831.985H198.793ZM208.783 838.65L201.898 846.502L198.207 850.237L196.669 847.19L199.599 843.47L203.715 838.65H208.783ZM204.403 854.5L199.716 847.176L202.631 844.627L209.267 854.5H204.403ZM219.154 850.926V843.865C219.154 843.357 219.071 842.923 218.905 842.562C218.739 842.19 218.48 841.902 218.129 841.697C217.787 841.492 217.343 841.39 216.796 841.39C216.327 841.39 215.922 841.473 215.58 841.639C215.238 841.795 214.975 842.024 214.789 842.327C214.604 842.62 214.511 842.967 214.511 843.367H210.292C210.292 842.693 210.448 842.054 210.761 841.448C211.073 840.843 211.527 840.311 212.123 839.852C212.719 839.383 213.427 839.017 214.247 838.753C215.077 838.489 216.005 838.357 217.03 838.357C218.261 838.357 219.354 838.562 220.312 838.973C221.269 839.383 222.021 839.998 222.567 840.818C223.124 841.639 223.402 842.664 223.402 843.895V850.677C223.402 851.546 223.456 852.259 223.563 852.815C223.671 853.362 223.827 853.841 224.032 854.251V854.5H219.77C219.564 854.07 219.408 853.533 219.301 852.889C219.203 852.234 219.154 851.58 219.154 850.926ZM219.711 844.847L219.74 847.234H217.382C216.825 847.234 216.342 847.298 215.932 847.425C215.521 847.552 215.185 847.732 214.921 847.967C214.657 848.191 214.462 848.455 214.335 848.758C214.218 849.061 214.159 849.393 214.159 849.754C214.159 850.115 214.242 850.442 214.408 850.735C214.574 851.019 214.813 851.243 215.126 851.409C215.438 851.565 215.805 851.644 216.225 851.644C216.859 851.644 217.411 851.517 217.88 851.263C218.349 851.009 218.71 850.696 218.964 850.325C219.228 849.954 219.364 849.603 219.374 849.271L220.487 851.058C220.331 851.458 220.116 851.873 219.843 852.303C219.579 852.732 219.242 853.138 218.832 853.519C218.422 853.89 217.929 854.197 217.353 854.441C216.776 854.676 216.093 854.793 215.302 854.793C214.296 854.793 213.383 854.593 212.562 854.192C211.752 853.782 211.107 853.221 210.629 852.508C210.16 851.785 209.926 850.965 209.926 850.047C209.926 849.217 210.082 848.479 210.395 847.835C210.707 847.19 211.166 846.648 211.771 846.209C212.387 845.76 213.153 845.423 214.071 845.198C214.989 844.964 216.054 844.847 217.265 844.847H219.711ZM231.122 852.713L235.326 838.65H239.853L233.48 856.888C233.344 857.288 233.158 857.718 232.924 858.177C232.699 858.636 232.392 859.07 232.001 859.48C231.62 859.9 231.137 860.242 230.551 860.506C229.975 860.77 229.267 860.901 228.427 860.901C228.026 860.901 227.699 860.877 227.445 860.828C227.191 860.779 226.889 860.711 226.537 860.623V857.532C226.645 857.532 226.757 857.532 226.874 857.532C226.991 857.542 227.104 857.547 227.211 857.547C227.768 857.547 228.222 857.483 228.573 857.356C228.925 857.229 229.208 857.034 229.423 856.771C229.638 856.517 229.809 856.185 229.936 855.774L231.122 852.713ZM229.364 838.65L232.807 850.135L233.407 854.603L230.536 854.91L224.838 838.65H229.364Z" fill="#FFFCFC"/>
<path d="M119.637 108.303C119.637 107.846 119.566 107.436 119.426 107.072C119.297 106.697 119.051 106.357 118.688 106.053C118.324 105.736 117.814 105.426 117.158 105.121C116.502 104.816 115.652 104.5 114.609 104.172C113.449 103.797 112.348 103.375 111.305 102.906C110.273 102.438 109.359 101.893 108.562 101.271C107.777 100.639 107.156 99.9062 106.699 99.0742C106.254 98.2422 106.031 97.2754 106.031 96.1738C106.031 95.1074 106.266 94.1406 106.734 93.2734C107.203 92.3945 107.859 91.6445 108.703 91.0234C109.547 90.3906 110.543 89.9043 111.691 89.5645C112.852 89.2246 114.123 89.0547 115.506 89.0547C117.393 89.0547 119.039 89.3945 120.445 90.0742C121.852 90.7539 122.941 91.6855 123.715 92.8691C124.5 94.0527 124.893 95.4062 124.893 96.9297H119.654C119.654 96.1797 119.496 95.5234 119.18 94.9609C118.875 94.3867 118.406 93.9355 117.773 93.6074C117.152 93.2793 116.367 93.1152 115.418 93.1152C114.504 93.1152 113.742 93.2559 113.133 93.5371C112.523 93.8066 112.066 94.1758 111.762 94.6445C111.457 95.1016 111.305 95.6172 111.305 96.1914C111.305 96.625 111.41 97.0176 111.621 97.3691C111.844 97.7207 112.172 98.0488 112.605 98.3535C113.039 98.6582 113.572 98.9453 114.205 99.2148C114.838 99.4844 115.57 99.748 116.402 100.006C117.797 100.428 119.021 100.902 120.076 101.43C121.143 101.957 122.033 102.549 122.748 103.205C123.463 103.861 124.002 104.605 124.365 105.438C124.729 106.27 124.91 107.213 124.91 108.268C124.91 109.381 124.693 110.377 124.26 111.256C123.826 112.135 123.199 112.879 122.379 113.488C121.559 114.098 120.58 114.561 119.443 114.877C118.307 115.193 117.035 115.352 115.629 115.352C114.363 115.352 113.115 115.188 111.885 114.859C110.654 114.52 109.535 114.01 108.527 113.33C107.531 112.65 106.734 111.783 106.137 110.729C105.539 109.674 105.24 108.426 105.24 106.984H110.531C110.531 107.781 110.654 108.455 110.9 109.006C111.146 109.557 111.492 110.002 111.938 110.342C112.395 110.682 112.934 110.928 113.555 111.08C114.188 111.232 114.879 111.309 115.629 111.309C116.543 111.309 117.293 111.18 117.879 110.922C118.477 110.664 118.916 110.307 119.197 109.85C119.49 109.393 119.637 108.877 119.637 108.303ZM139.43 110.447V95.9805H144.492V115H139.729L139.43 110.447ZM139.992 106.545L141.486 106.51C141.486 107.775 141.34 108.953 141.047 110.043C140.754 111.121 140.314 112.059 139.729 112.855C139.143 113.641 138.404 114.256 137.514 114.701C136.623 115.135 135.574 115.352 134.367 115.352C133.441 115.352 132.586 115.223 131.801 114.965C131.027 114.695 130.359 114.279 129.797 113.717C129.246 113.143 128.812 112.41 128.496 111.52C128.191 110.617 128.039 109.533 128.039 108.268V95.9805H133.102V108.303C133.102 108.865 133.166 109.34 133.295 109.727C133.436 110.113 133.629 110.43 133.875 110.676C134.121 110.922 134.408 111.098 134.736 111.203C135.076 111.309 135.451 111.361 135.861 111.361C136.904 111.361 137.725 111.15 138.322 110.729C138.932 110.307 139.359 109.732 139.605 109.006C139.863 108.268 139.992 107.447 139.992 106.545ZM156.217 111.396C156.838 111.396 157.389 111.279 157.869 111.045C158.35 110.799 158.725 110.459 158.994 110.025C159.275 109.58 159.422 109.059 159.434 108.461H164.197C164.186 109.797 163.828 110.986 163.125 112.029C162.422 113.061 161.479 113.875 160.295 114.473C159.111 115.059 157.787 115.352 156.322 115.352C154.846 115.352 153.557 115.105 152.455 114.613C151.365 114.121 150.457 113.441 149.73 112.574C149.004 111.695 148.459 110.676 148.096 109.516C147.732 108.344 147.551 107.09 147.551 105.754V105.244C147.551 103.896 147.732 102.643 148.096 101.482C148.459 100.311 149.004 99.291 149.73 98.4238C150.457 97.5449 151.365 96.8594 152.455 96.3672C153.545 95.875 154.822 95.6289 156.287 95.6289C157.846 95.6289 159.211 95.9277 160.383 96.5254C161.566 97.123 162.492 97.9785 163.16 99.0918C163.84 100.193 164.186 101.5 164.197 103.012H159.434C159.422 102.379 159.287 101.805 159.029 101.289C158.783 100.773 158.42 100.363 157.939 100.059C157.471 99.7422 156.891 99.584 156.199 99.584C155.461 99.584 154.857 99.7422 154.389 100.059C153.92 100.363 153.557 100.785 153.299 101.324C153.041 101.852 152.859 102.455 152.754 103.135C152.66 103.803 152.613 104.506 152.613 105.244V105.754C152.613 106.492 152.66 107.201 152.754 107.881C152.848 108.561 153.023 109.164 153.281 109.691C153.551 110.219 153.92 110.635 154.389 110.939C154.857 111.244 155.467 111.396 156.217 111.396ZM174.99 111.396C175.611 111.396 176.162 111.279 176.643 111.045C177.123 110.799 177.498 110.459 177.768 110.025C178.049 109.58 178.195 109.059 178.207 108.461H182.971C182.959 109.797 182.602 110.986 181.898 112.029C181.195 113.061 180.252 113.875 179.068 114.473C177.885 115.059 176.561 115.352 175.096 115.352C173.619 115.352 172.33 115.105 171.229 114.613C170.139 114.121 169.23 113.441 168.504 112.574C167.777 111.695 167.232 110.676 166.869 109.516C166.506 108.344 166.324 107.09 166.324 105.754V105.244C166.324 103.896 166.506 102.643 166.869 101.482C167.232 100.311 167.777 99.291 168.504 98.4238C169.23 97.5449 170.139 96.8594 171.229 96.3672C172.318 95.875 173.596 95.6289 175.061 95.6289C176.619 95.6289 177.984 95.9277 179.156 96.5254C180.34 97.123 181.266 97.9785 181.934 99.0918C182.613 100.193 182.959 101.5 182.971 103.012H178.207C178.195 102.379 178.061 101.805 177.803 101.289C177.557 100.773 177.193 100.363 176.713 100.059C176.244 99.7422 175.664 99.584 174.973 99.584C174.234 99.584 173.631 99.7422 173.162 100.059C172.693 100.363 172.33 100.785 172.072 101.324C171.814 101.852 171.633 102.455 171.527 103.135C171.434 103.803 171.387 104.506 171.387 105.244V105.754C171.387 106.492 171.434 107.201 171.527 107.881C171.621 108.561 171.797 109.164 172.055 109.691C172.324 110.219 172.693 110.635 173.162 110.939C173.631 111.244 174.24 111.396 174.99 111.396ZM194.66 115.352C193.184 115.352 191.859 115.117 190.688 114.648C189.516 114.168 188.52 113.506 187.699 112.662C186.891 111.818 186.27 110.84 185.836 109.727C185.402 108.602 185.186 107.406 185.186 106.141V105.438C185.186 103.996 185.391 102.678 185.801 101.482C186.211 100.287 186.797 99.25 187.559 98.3711C188.332 97.4922 189.27 96.8184 190.371 96.3496C191.473 95.8691 192.715 95.6289 194.098 95.6289C195.445 95.6289 196.641 95.8516 197.684 96.2969C198.727 96.7422 199.6 97.375 200.303 98.1953C201.018 99.0156 201.557 100 201.92 101.148C202.283 102.285 202.465 103.551 202.465 104.945V107.055H187.348V103.68H197.49V103.293C197.49 102.59 197.361 101.963 197.104 101.412C196.857 100.85 196.482 100.404 195.979 100.076C195.475 99.748 194.83 99.584 194.045 99.584C193.377 99.584 192.803 99.7305 192.322 100.023C191.842 100.316 191.449 100.727 191.145 101.254C190.852 101.781 190.629 102.402 190.477 103.117C190.336 103.82 190.266 104.594 190.266 105.438V106.141C190.266 106.902 190.371 107.605 190.582 108.25C190.805 108.895 191.115 109.451 191.514 109.92C191.924 110.389 192.416 110.752 192.99 111.01C193.576 111.268 194.238 111.396 194.977 111.396C195.891 111.396 196.74 111.221 197.525 110.869C198.322 110.506 199.008 109.961 199.582 109.234L202.043 111.906C201.645 112.48 201.1 113.031 200.408 113.559C199.729 114.086 198.908 114.52 197.947 114.859C196.986 115.188 195.891 115.352 194.66 115.352ZM215.631 109.744C215.631 109.381 215.525 109.053 215.314 108.76C215.104 108.467 214.711 108.197 214.137 107.951C213.574 107.693 212.76 107.459 211.693 107.248C210.732 107.037 209.836 106.773 209.004 106.457C208.184 106.129 207.469 105.736 206.859 105.279C206.262 104.822 205.793 104.283 205.453 103.662C205.113 103.029 204.943 102.309 204.943 101.5C204.943 100.703 205.113 99.9531 205.453 99.25C205.805 98.5469 206.303 97.9258 206.947 97.3867C207.604 96.8359 208.4 96.4082 209.338 96.1035C210.287 95.7871 211.354 95.6289 212.537 95.6289C214.189 95.6289 215.607 95.8926 216.791 96.4199C217.986 96.9473 218.9 97.6738 219.533 98.5996C220.178 99.5137 220.5 100.557 220.5 101.729H215.438C215.438 101.236 215.332 100.797 215.121 100.41C214.922 100.012 214.605 99.7012 214.172 99.4785C213.75 99.2441 213.199 99.127 212.52 99.127C211.957 99.127 211.471 99.2266 211.061 99.4258C210.65 99.6133 210.334 99.8711 210.111 100.199C209.9 100.516 209.795 100.867 209.795 101.254C209.795 101.547 209.854 101.811 209.971 102.045C210.1 102.268 210.305 102.473 210.586 102.66C210.867 102.848 211.23 103.023 211.676 103.188C212.133 103.34 212.695 103.48 213.363 103.609C214.734 103.891 215.959 104.26 217.037 104.717C218.115 105.162 218.971 105.771 219.604 106.545C220.236 107.307 220.553 108.309 220.553 109.551C220.553 110.395 220.365 111.168 219.99 111.871C219.615 112.574 219.076 113.189 218.373 113.717C217.67 114.232 216.826 114.637 215.842 114.93C214.869 115.211 213.773 115.352 212.555 115.352C210.785 115.352 209.285 115.035 208.055 114.402C206.836 113.77 205.91 112.967 205.277 111.994C204.656 111.01 204.346 110.002 204.346 108.971H209.145C209.168 109.662 209.344 110.219 209.672 110.641C210.012 111.062 210.439 111.367 210.955 111.555C211.482 111.742 212.051 111.836 212.66 111.836C213.316 111.836 213.861 111.748 214.295 111.572C214.729 111.385 215.057 111.139 215.279 110.834C215.514 110.518 215.631 110.154 215.631 109.744ZM234.123 109.744C234.123 109.381 234.018 109.053 233.807 108.76C233.596 108.467 233.203 108.197 232.629 107.951C232.066 107.693 231.252 107.459 230.186 107.248C229.225 107.037 228.328 106.773 227.496 106.457C226.676 106.129 225.961 105.736 225.352 105.279C224.754 104.822 224.285 104.283 223.945 103.662C223.605 103.029 223.436 102.309 223.436 101.5C223.436 100.703 223.605 99.9531 223.945 99.25C224.297 98.5469 224.795 97.9258 225.439 97.3867C226.096 96.8359 226.893 96.4082 227.83 96.1035C228.779 95.7871 229.846 95.6289 231.029 95.6289C232.682 95.6289 234.1 95.8926 235.283 96.4199C236.479 96.9473 237.393 97.6738 238.025 98.5996C238.67 99.5137 238.992 100.557 238.992 101.729H233.93C233.93 101.236 233.824 100.797 233.613 100.41C233.414 100.012 233.098 99.7012 232.664 99.4785C232.242 99.2441 231.691 99.127 231.012 99.127C230.449 99.127 229.963 99.2266 229.553 99.4258C229.143 99.6133 228.826 99.8711 228.604 100.199C228.393 100.516 228.287 100.867 228.287 101.254C228.287 101.547 228.346 101.811 228.463 102.045C228.592 102.268 228.797 102.473 229.078 102.66C229.359 102.848 229.723 103.023 230.168 103.188C230.625 103.34 231.188 103.48 231.855 103.609C233.227 103.891 234.451 104.26 235.529 104.717C236.607 105.162 237.463 105.771 238.096 106.545C238.729 107.307 239.045 108.309 239.045 109.551C239.045 110.395 238.857 111.168 238.482 111.871C238.107 112.574 237.568 113.189 236.865 113.717C236.162 114.232 235.318 114.637 234.334 114.93C233.361 115.211 232.266 115.352 231.047 115.352C229.277 115.352 227.777 115.035 226.547 114.402C225.328 113.77 224.402 112.967 223.77 111.994C223.148 111.01 222.838 110.002 222.838 108.971H227.637C227.66 109.662 227.836 110.219 228.164 110.641C228.504 111.062 228.932 111.367 229.447 111.555C229.975 111.742 230.543 111.836 231.152 111.836C231.809 111.836 232.354 111.748 232.787 111.572C233.221 111.385 233.549 111.139 233.771 110.834C234.006 110.518 234.123 110.154 234.123 109.744ZM248.783 115H243.686V94.293C243.686 92.8516 243.967 91.6387 244.529 90.6543C245.104 89.6582 245.906 88.9082 246.938 88.4043C247.98 87.8887 249.217 87.6309 250.646 87.6309C251.115 87.6309 251.566 87.666 252 87.7363C252.434 87.7949 252.855 87.8711 253.266 87.9648L253.213 91.7793C252.99 91.7207 252.756 91.6797 252.51 91.6562C252.264 91.6328 251.977 91.6211 251.648 91.6211C251.039 91.6211 250.518 91.7266 250.084 91.9375C249.662 92.1367 249.34 92.4355 249.117 92.834C248.895 93.2324 248.783 93.7188 248.783 94.293V115ZM252.58 95.9805V99.5664H240.855V95.9805H252.58ZM266.484 110.447V95.9805H271.547V115H266.783L266.484 110.447ZM267.047 106.545L268.541 106.51C268.541 107.775 268.395 108.953 268.102 110.043C267.809 111.121 267.369 112.059 266.783 112.855C266.197 113.641 265.459 114.256 264.568 114.701C263.678 115.135 262.629 115.352 261.422 115.352C260.496 115.352 259.641 115.223 258.855 114.965C258.082 114.695 257.414 114.279 256.852 113.717C256.301 113.143 255.867 112.41 255.551 111.52C255.246 110.617 255.094 109.533 255.094 108.268V95.9805H260.156V108.303C260.156 108.865 260.221 109.34 260.35 109.727C260.49 110.113 260.684 110.43 260.93 110.676C261.176 110.922 261.463 111.098 261.791 111.203C262.131 111.309 262.506 111.361 262.916 111.361C263.959 111.361 264.779 111.15 265.377 110.729C265.986 110.307 266.414 109.732 266.66 109.006C266.918 108.268 267.047 107.447 267.047 106.545ZM280.758 88V115H275.678V88H280.758Z" fill="black"/>
<path d="M92.8672 666.938L96.4297 674.719L99.9922 666.938H103.824L98.2109 677.789V684H94.6484V677.789L89.0234 666.938H92.8672ZM103.859 677.789V677.543C103.859 676.613 103.992 675.758 104.258 674.977C104.523 674.188 104.91 673.504 105.418 672.926C105.926 672.348 106.551 671.898 107.293 671.578C108.035 671.25 108.887 671.086 109.848 671.086C110.809 671.086 111.664 671.25 112.414 671.578C113.164 671.898 113.793 672.348 114.301 672.926C114.816 673.504 115.207 674.188 115.473 674.977C115.738 675.758 115.871 676.613 115.871 677.543V677.789C115.871 678.711 115.738 679.566 115.473 680.355C115.207 681.137 114.816 681.82 114.301 682.406C113.793 682.984 113.168 683.434 112.426 683.754C111.684 684.074 110.832 684.234 109.871 684.234C108.91 684.234 108.055 684.074 107.305 683.754C106.562 683.434 105.934 682.984 105.418 682.406C104.91 681.82 104.523 681.137 104.258 680.355C103.992 679.566 103.859 678.711 103.859 677.789ZM107.234 677.543V677.789C107.234 678.32 107.281 678.816 107.375 679.277C107.469 679.738 107.617 680.145 107.82 680.496C108.031 680.84 108.305 681.109 108.641 681.305C108.977 681.5 109.387 681.598 109.871 681.598C110.34 681.598 110.742 681.5 111.078 681.305C111.414 681.109 111.684 680.84 111.887 680.496C112.09 680.145 112.238 679.738 112.332 679.277C112.434 678.816 112.484 678.32 112.484 677.789V677.543C112.484 677.027 112.434 676.543 112.332 676.09C112.238 675.629 112.086 675.223 111.875 674.871C111.672 674.512 111.402 674.23 111.066 674.027C110.73 673.824 110.324 673.723 109.848 673.723C109.371 673.723 108.965 673.824 108.629 674.027C108.301 674.23 108.031 674.512 107.82 674.871C107.617 675.223 107.469 675.629 107.375 676.09C107.281 676.543 107.234 677.027 107.234 677.543ZM125.445 680.965V671.32H128.82V684H125.645L125.445 680.965ZM125.82 678.363L126.816 678.34C126.816 679.184 126.719 679.969 126.523 680.695C126.328 681.414 126.035 682.039 125.645 682.57C125.254 683.094 124.762 683.504 124.168 683.801C123.574 684.09 122.875 684.234 122.07 684.234C121.453 684.234 120.883 684.148 120.359 683.977C119.844 683.797 119.398 683.52 119.023 683.145C118.656 682.762 118.367 682.273 118.156 681.68C117.953 681.078 117.852 680.355 117.852 679.512V671.32H121.227V679.535C121.227 679.91 121.27 680.227 121.355 680.484C121.449 680.742 121.578 680.953 121.742 681.117C121.906 681.281 122.098 681.398 122.316 681.469C122.543 681.539 122.793 681.574 123.066 681.574C123.762 681.574 124.309 681.434 124.707 681.152C125.113 680.871 125.398 680.488 125.562 680.004C125.734 679.512 125.82 678.965 125.82 678.363ZM134.773 674.086V684H131.398V671.32H134.574L134.773 674.086ZM138.594 671.238L138.535 674.367C138.371 674.344 138.172 674.324 137.938 674.309C137.711 674.285 137.504 674.273 137.316 674.273C136.84 674.273 136.426 674.336 136.074 674.461C135.73 674.578 135.441 674.754 135.207 674.988C134.98 675.223 134.809 675.508 134.691 675.844C134.582 676.18 134.52 676.562 134.504 676.992L133.824 676.781C133.824 675.961 133.906 675.207 134.07 674.52C134.234 673.824 134.473 673.219 134.785 672.703C135.105 672.188 135.496 671.789 135.957 671.508C136.418 671.227 136.945 671.086 137.539 671.086C137.727 671.086 137.918 671.102 138.113 671.133C138.309 671.156 138.469 671.191 138.594 671.238ZM156.266 678.34H159.77C159.699 679.488 159.383 680.508 158.82 681.398C158.266 682.289 157.488 682.984 156.488 683.484C155.496 683.984 154.301 684.234 152.902 684.234C151.809 684.234 150.828 684.047 149.961 683.672C149.094 683.289 148.352 682.742 147.734 682.031C147.125 681.32 146.66 680.461 146.34 679.453C146.02 678.445 145.859 677.316 145.859 676.066V674.883C145.859 673.633 146.023 672.504 146.352 671.496C146.688 670.48 147.164 669.617 147.781 668.906C148.406 668.195 149.152 667.648 150.02 667.266C150.887 666.883 151.855 666.691 152.926 666.691C154.348 666.691 155.547 666.949 156.523 667.465C157.508 667.98 158.27 668.691 158.809 669.598C159.355 670.504 159.684 671.535 159.793 672.691H156.277C156.238 672.004 156.102 671.422 155.867 670.945C155.633 670.461 155.277 670.098 154.801 669.855C154.332 669.605 153.707 669.48 152.926 669.48C152.34 669.48 151.828 669.59 151.391 669.809C150.953 670.027 150.586 670.359 150.289 670.805C149.992 671.25 149.77 671.812 149.621 672.492C149.48 673.164 149.41 673.953 149.41 674.859V676.066C149.41 676.949 149.477 677.727 149.609 678.398C149.742 679.062 149.945 679.625 150.219 680.086C150.5 680.539 150.859 680.883 151.297 681.117C151.742 681.344 152.277 681.457 152.902 681.457C153.637 681.457 154.242 681.34 154.719 681.105C155.195 680.871 155.559 680.523 155.809 680.062C156.066 679.602 156.219 679.027 156.266 678.34ZM168.711 681.141V675.492C168.711 675.086 168.645 674.738 168.512 674.449C168.379 674.152 168.172 673.922 167.891 673.758C167.617 673.594 167.262 673.512 166.824 673.512C166.449 673.512 166.125 673.578 165.852 673.711C165.578 673.836 165.367 674.02 165.219 674.262C165.07 674.496 164.996 674.773 164.996 675.094H161.621C161.621 674.555 161.746 674.043 161.996 673.559C162.246 673.074 162.609 672.648 163.086 672.281C163.562 671.906 164.129 671.613 164.785 671.402C165.449 671.191 166.191 671.086 167.012 671.086C167.996 671.086 168.871 671.25 169.637 671.578C170.402 671.906 171.004 672.398 171.441 673.055C171.887 673.711 172.109 674.531 172.109 675.516V680.941C172.109 681.637 172.152 682.207 172.238 682.652C172.324 683.09 172.449 683.473 172.613 683.801V684H169.203C169.039 683.656 168.914 683.227 168.828 682.711C168.75 682.188 168.711 681.664 168.711 681.141ZM169.156 676.277L169.18 678.188H167.293C166.848 678.188 166.461 678.238 166.133 678.34C165.805 678.441 165.535 678.586 165.324 678.773C165.113 678.953 164.957 679.164 164.855 679.406C164.762 679.648 164.715 679.914 164.715 680.203C164.715 680.492 164.781 680.754 164.914 680.988C165.047 681.215 165.238 681.395 165.488 681.527C165.738 681.652 166.031 681.715 166.367 681.715C166.875 681.715 167.316 681.613 167.691 681.41C168.066 681.207 168.355 680.957 168.559 680.66C168.77 680.363 168.879 680.082 168.887 679.816L169.777 681.246C169.652 681.566 169.48 681.898 169.262 682.242C169.051 682.586 168.781 682.91 168.453 683.215C168.125 683.512 167.73 683.758 167.27 683.953C166.809 684.141 166.262 684.234 165.629 684.234C164.824 684.234 164.094 684.074 163.438 683.754C162.789 683.426 162.273 682.977 161.891 682.406C161.516 681.828 161.328 681.172 161.328 680.438C161.328 679.773 161.453 679.184 161.703 678.668C161.953 678.152 162.32 677.719 162.805 677.367C163.297 677.008 163.91 676.738 164.645 676.559C165.379 676.371 166.23 676.277 167.199 676.277H169.156ZM181.566 680.496C181.566 680.254 181.496 680.035 181.355 679.84C181.215 679.645 180.953 679.465 180.57 679.301C180.195 679.129 179.652 678.973 178.941 678.832C178.301 678.691 177.703 678.516 177.148 678.305C176.602 678.086 176.125 677.824 175.719 677.52C175.32 677.215 175.008 676.855 174.781 676.441C174.555 676.02 174.441 675.539 174.441 675C174.441 674.469 174.555 673.969 174.781 673.5C175.016 673.031 175.348 672.617 175.777 672.258C176.215 671.891 176.746 671.605 177.371 671.402C178.004 671.191 178.715 671.086 179.504 671.086C180.605 671.086 181.551 671.262 182.34 671.613C183.137 671.965 183.746 672.449 184.168 673.066C184.598 673.676 184.812 674.371 184.812 675.152H181.438C181.438 674.824 181.367 674.531 181.227 674.273C181.094 674.008 180.883 673.801 180.594 673.652C180.312 673.496 179.945 673.418 179.492 673.418C179.117 673.418 178.793 673.484 178.52 673.617C178.246 673.742 178.035 673.914 177.887 674.133C177.746 674.344 177.676 674.578 177.676 674.836C177.676 675.031 177.715 675.207 177.793 675.363C177.879 675.512 178.016 675.648 178.203 675.773C178.391 675.898 178.633 676.016 178.93 676.125C179.234 676.227 179.609 676.32 180.055 676.406C180.969 676.594 181.785 676.84 182.504 677.145C183.223 677.441 183.793 677.848 184.215 678.363C184.637 678.871 184.848 679.539 184.848 680.367C184.848 680.93 184.723 681.445 184.473 681.914C184.223 682.383 183.863 682.793 183.395 683.145C182.926 683.488 182.363 683.758 181.707 683.953C181.059 684.141 180.328 684.234 179.516 684.234C178.336 684.234 177.336 684.023 176.516 683.602C175.703 683.18 175.086 682.645 174.664 681.996C174.25 681.34 174.043 680.668 174.043 679.98H177.242C177.258 680.441 177.375 680.812 177.594 681.094C177.82 681.375 178.105 681.578 178.449 681.703C178.801 681.828 179.18 681.891 179.586 681.891C180.023 681.891 180.387 681.832 180.676 681.715C180.965 681.59 181.184 681.426 181.332 681.223C181.488 681.012 181.566 680.77 181.566 680.496ZM190.332 666V684H186.957V666H190.332ZM189.852 677.215H188.926C188.934 676.332 189.051 675.52 189.277 674.777C189.504 674.027 189.828 673.379 190.25 672.832C190.672 672.277 191.176 671.848 191.762 671.543C192.355 671.238 193.012 671.086 193.73 671.086C194.355 671.086 194.922 671.176 195.43 671.355C195.945 671.527 196.387 671.809 196.754 672.199C197.129 672.582 197.418 673.086 197.621 673.711C197.824 674.336 197.926 675.094 197.926 675.984V684H194.527V675.961C194.527 675.398 194.445 674.957 194.281 674.637C194.125 674.309 193.895 674.078 193.59 673.945C193.293 673.805 192.926 673.734 192.488 673.734C192.004 673.734 191.59 673.824 191.246 674.004C190.91 674.184 190.641 674.434 190.438 674.754C190.234 675.066 190.086 675.434 189.992 675.855C189.898 676.277 189.852 676.73 189.852 677.215ZM210.031 671.32V684H206.645V671.32H210.031ZM206.434 668.016C206.434 667.523 206.605 667.117 206.949 666.797C207.293 666.477 207.754 666.316 208.332 666.316C208.902 666.316 209.359 666.477 209.703 666.797C210.055 667.117 210.23 667.523 210.23 668.016C210.23 668.508 210.055 668.914 209.703 669.234C209.359 669.555 208.902 669.715 208.332 669.715C207.754 669.715 207.293 669.555 206.949 669.234C206.605 668.914 206.434 668.508 206.434 668.016ZM219.676 680.496C219.676 680.254 219.605 680.035 219.465 679.84C219.324 679.645 219.062 679.465 218.68 679.301C218.305 679.129 217.762 678.973 217.051 678.832C216.41 678.691 215.812 678.516 215.258 678.305C214.711 678.086 214.234 677.824 213.828 677.52C213.43 677.215 213.117 676.855 212.891 676.441C212.664 676.02 212.551 675.539 212.551 675C212.551 674.469 212.664 673.969 212.891 673.5C213.125 673.031 213.457 672.617 213.887 672.258C214.324 671.891 214.855 671.605 215.48 671.402C216.113 671.191 216.824 671.086 217.613 671.086C218.715 671.086 219.66 671.262 220.449 671.613C221.246 671.965 221.855 672.449 222.277 673.066C222.707 673.676 222.922 674.371 222.922 675.152H219.547C219.547 674.824 219.477 674.531 219.336 674.273C219.203 674.008 218.992 673.801 218.703 673.652C218.422 673.496 218.055 673.418 217.602 673.418C217.227 673.418 216.902 673.484 216.629 673.617C216.355 673.742 216.145 673.914 215.996 674.133C215.855 674.344 215.785 674.578 215.785 674.836C215.785 675.031 215.824 675.207 215.902 675.363C215.988 675.512 216.125 675.648 216.312 675.773C216.5 675.898 216.742 676.016 217.039 676.125C217.344 676.227 217.719 676.32 218.164 676.406C219.078 676.594 219.895 676.84 220.613 677.145C221.332 677.441 221.902 677.848 222.324 678.363C222.746 678.871 222.957 679.539 222.957 680.367C222.957 680.93 222.832 681.445 222.582 681.914C222.332 682.383 221.973 682.793 221.504 683.145C221.035 683.488 220.473 683.758 219.816 683.953C219.168 684.141 218.438 684.234 217.625 684.234C216.445 684.234 215.445 684.023 214.625 683.602C213.812 683.18 213.195 682.645 212.773 681.996C212.359 681.34 212.152 680.668 212.152 679.98H215.352C215.367 680.441 215.484 680.812 215.703 681.094C215.93 681.375 216.215 681.578 216.559 681.703C216.91 681.828 217.289 681.891 217.695 681.891C218.133 681.891 218.496 681.832 218.785 681.715C219.074 681.59 219.293 681.426 219.441 681.223C219.598 681.012 219.676 680.77 219.676 680.496ZM230.586 677.789V677.543C230.586 676.613 230.719 675.758 230.984 674.977C231.25 674.188 231.637 673.504 232.145 672.926C232.652 672.348 233.277 671.898 234.02 671.578C234.762 671.25 235.613 671.086 236.574 671.086C237.535 671.086 238.391 671.25 239.141 671.578C239.891 671.898 240.52 672.348 241.027 672.926C241.543 673.504 241.934 674.188 242.199 674.977C242.465 675.758 242.598 676.613 242.598 677.543V677.789C242.598 678.711 242.465 679.566 242.199 680.355C241.934 681.137 241.543 681.82 241.027 682.406C240.52 682.984 239.895 683.434 239.152 683.754C238.41 684.074 237.559 684.234 236.598 684.234C235.637 684.234 234.781 684.074 234.031 683.754C233.289 683.434 232.66 682.984 232.145 682.406C231.637 681.82 231.25 681.137 230.984 680.355C230.719 679.566 230.586 678.711 230.586 677.789ZM233.961 677.543V677.789C233.961 678.32 234.008 678.816 234.102 679.277C234.195 679.738 234.344 680.145 234.547 680.496C234.758 680.84 235.031 681.109 235.367 681.305C235.703 681.5 236.113 681.598 236.598 681.598C237.066 681.598 237.469 681.5 237.805 681.305C238.141 681.109 238.41 680.84 238.613 680.496C238.816 680.145 238.965 679.738 239.059 679.277C239.16 678.816 239.211 678.32 239.211 677.789V677.543C239.211 677.027 239.16 676.543 239.059 676.09C238.965 675.629 238.812 675.223 238.602 674.871C238.398 674.512 238.129 674.23 237.793 674.027C237.457 673.824 237.051 673.723 236.574 673.723C236.098 673.723 235.691 673.824 235.355 674.027C235.027 674.23 234.758 674.512 234.547 674.871C234.344 675.223 234.195 675.629 234.102 676.09C234.008 676.543 233.961 677.027 233.961 677.543ZM247.977 674.027V684H244.602V671.32H247.766L247.977 674.027ZM247.484 677.215H246.57C246.57 676.277 246.691 675.434 246.934 674.684C247.176 673.926 247.516 673.281 247.953 672.75C248.391 672.211 248.91 671.801 249.512 671.52C250.121 671.23 250.801 671.086 251.551 671.086C252.145 671.086 252.688 671.172 253.18 671.344C253.672 671.516 254.094 671.789 254.445 672.164C254.805 672.539 255.078 673.035 255.266 673.652C255.461 674.27 255.559 675.023 255.559 675.914V684H252.16V675.902C252.16 675.34 252.082 674.902 251.926 674.59C251.77 674.277 251.539 674.059 251.234 673.934C250.938 673.801 250.57 673.734 250.133 673.734C249.68 673.734 249.285 673.824 248.949 674.004C248.621 674.184 248.348 674.434 248.129 674.754C247.918 675.066 247.758 675.434 247.648 675.855C247.539 676.277 247.484 676.73 247.484 677.215ZM270.312 671.32V673.711H262.93V671.32H270.312ZM264.758 668.191H268.133V680.18C268.133 680.547 268.18 680.828 268.273 681.023C268.375 681.219 268.523 681.355 268.719 681.434C268.914 681.504 269.16 681.539 269.457 681.539C269.668 681.539 269.855 681.531 270.02 681.516C270.191 681.492 270.336 681.469 270.453 681.445L270.465 683.93C270.176 684.023 269.863 684.098 269.527 684.152C269.191 684.207 268.82 684.234 268.414 684.234C267.672 684.234 267.023 684.113 266.469 683.871C265.922 683.621 265.5 683.223 265.203 682.676C264.906 682.129 264.758 681.41 264.758 680.52V668.191ZM275.527 666V684H272.152V666H275.527ZM275.047 677.215H274.121C274.129 676.332 274.246 675.52 274.473 674.777C274.699 674.027 275.023 673.379 275.445 672.832C275.867 672.277 276.371 671.848 276.957 671.543C277.551 671.238 278.207 671.086 278.926 671.086C279.551 671.086 280.117 671.176 280.625 671.355C281.141 671.527 281.582 671.809 281.949 672.199C282.324 672.582 282.613 673.086 282.816 673.711C283.02 674.336 283.121 675.094 283.121 675.984V684H279.723V675.961C279.723 675.398 279.641 674.957 279.477 674.637C279.32 674.309 279.09 674.078 278.785 673.945C278.488 673.805 278.121 673.734 277.684 673.734C277.199 673.734 276.785 673.824 276.441 674.004C276.105 674.184 275.836 674.434 275.633 674.754C275.43 675.066 275.281 675.434 275.188 675.855C275.094 676.277 275.047 676.73 275.047 677.215ZM291.523 684.234C290.539 684.234 289.656 684.078 288.875 683.766C288.094 683.445 287.43 683.004 286.883 682.441C286.344 681.879 285.93 681.227 285.641 680.484C285.352 679.734 285.207 678.938 285.207 678.094V677.625C285.207 676.664 285.344 675.785 285.617 674.988C285.891 674.191 286.281 673.5 286.789 672.914C287.305 672.328 287.93 671.879 288.664 671.566C289.398 671.246 290.227 671.086 291.148 671.086C292.047 671.086 292.844 671.234 293.539 671.531C294.234 671.828 294.816 672.25 295.285 672.797C295.762 673.344 296.121 674 296.363 674.766C296.605 675.523 296.727 676.367 296.727 677.297V678.703H286.648V676.453H293.41V676.195C293.41 675.727 293.324 675.309 293.152 674.941C292.988 674.566 292.738 674.27 292.402 674.051C292.066 673.832 291.637 673.723 291.113 673.723C290.668 673.723 290.285 673.82 289.965 674.016C289.645 674.211 289.383 674.484 289.18 674.836C288.984 675.188 288.836 675.602 288.734 676.078C288.641 676.547 288.594 677.062 288.594 677.625V678.094C288.594 678.602 288.664 679.07 288.805 679.5C288.953 679.93 289.16 680.301 289.426 680.613C289.699 680.926 290.027 681.168 290.41 681.34C290.801 681.512 291.242 681.598 291.734 681.598C292.344 681.598 292.91 681.48 293.434 681.246C293.965 681.004 294.422 680.641 294.805 680.156L296.445 681.938C296.18 682.32 295.816 682.688 295.355 683.039C294.902 683.391 294.355 683.68 293.715 683.906C293.074 684.125 292.344 684.234 291.523 684.234ZM308.246 680.719L310.883 671.32H313.027L312.336 675.012L309.699 684H307.906L308.246 680.719ZM306.91 671.32L308.797 680.707L308.973 684H306.863L303.652 671.32H306.91ZM315.441 680.555L317.281 671.32H320.551L317.34 684H315.242L315.441 680.555ZM313.32 671.32L315.945 680.648L316.309 684H314.504L311.867 675.023L311.199 671.32H313.32ZM329.094 681.141V675.492C329.094 675.086 329.027 674.738 328.895 674.449C328.762 674.152 328.555 673.922 328.273 673.758C328 673.594 327.645 673.512 327.207 673.512C326.832 673.512 326.508 673.578 326.234 673.711C325.961 673.836 325.75 674.02 325.602 674.262C325.453 674.496 325.379 674.773 325.379 675.094H322.004C322.004 674.555 322.129 674.043 322.379 673.559C322.629 673.074 322.992 672.648 323.469 672.281C323.945 671.906 324.512 671.613 325.168 671.402C325.832 671.191 326.574 671.086 327.395 671.086C328.379 671.086 329.254 671.25 330.02 671.578C330.785 671.906 331.387 672.398 331.824 673.055C332.27 673.711 332.492 674.531 332.492 675.516V680.941C332.492 681.637 332.535 682.207 332.621 682.652C332.707 683.09 332.832 683.473 332.996 683.801V684H329.586C329.422 683.656 329.297 683.227 329.211 682.711C329.133 682.188 329.094 681.664 329.094 681.141ZM329.539 676.277L329.562 678.188H327.676C327.23 678.188 326.844 678.238 326.516 678.34C326.188 678.441 325.918 678.586 325.707 678.773C325.496 678.953 325.34 679.164 325.238 679.406C325.145 679.648 325.098 679.914 325.098 680.203C325.098 680.492 325.164 680.754 325.297 680.988C325.43 681.215 325.621 681.395 325.871 681.527C326.121 681.652 326.414 681.715 326.75 681.715C327.258 681.715 327.699 681.613 328.074 681.41C328.449 681.207 328.738 680.957 328.941 680.66C329.152 680.363 329.262 680.082 329.27 679.816L330.16 681.246C330.035 681.566 329.863 681.898 329.645 682.242C329.434 682.586 329.164 682.91 328.836 683.215C328.508 683.512 328.113 683.758 327.652 683.953C327.191 684.141 326.645 684.234 326.012 684.234C325.207 684.234 324.477 684.074 323.82 683.754C323.172 683.426 322.656 682.977 322.273 682.406C321.898 681.828 321.711 681.172 321.711 680.438C321.711 679.773 321.836 679.184 322.086 678.668C322.336 678.152 322.703 677.719 323.188 677.367C323.68 677.008 324.293 676.738 325.027 676.559C325.762 676.371 326.613 676.277 327.582 676.277H329.539ZM338.668 682.57L342.031 671.32H345.652L340.555 685.91C340.445 686.23 340.297 686.574 340.109 686.941C339.93 687.309 339.684 687.656 339.371 687.984C339.066 688.32 338.68 688.594 338.211 688.805C337.75 689.016 337.184 689.121 336.512 689.121C336.191 689.121 335.93 689.102 335.727 689.062C335.523 689.023 335.281 688.969 335 688.898V686.426C335.086 686.426 335.176 686.426 335.27 686.426C335.363 686.434 335.453 686.438 335.539 686.438C335.984 686.438 336.348 686.387 336.629 686.285C336.91 686.184 337.137 686.027 337.309 685.816C337.48 685.613 337.617 685.348 337.719 685.02L338.668 682.57ZM337.262 671.32L340.016 680.508L340.496 684.082L338.199 684.328L333.641 671.32H337.262Z" fill="black"/>
<path d="M98.1523 629.938V647H94.6484V629.938H98.1523ZM103.402 629.938V632.691H89.4805V629.938H103.402ZM107.75 637.086V647H104.375V634.32H107.551L107.75 637.086ZM111.57 634.238L111.512 637.367C111.348 637.344 111.148 637.324 110.914 637.309C110.688 637.285 110.48 637.273 110.293 637.273C109.816 637.273 109.402 637.336 109.051 637.461C108.707 637.578 108.418 637.754 108.184 637.988C107.957 638.223 107.785 638.508 107.668 638.844C107.559 639.18 107.496 639.562 107.48 639.992L106.801 639.781C106.801 638.961 106.883 638.207 107.047 637.52C107.211 636.824 107.449 636.219 107.762 635.703C108.082 635.188 108.473 634.789 108.934 634.508C109.395 634.227 109.922 634.086 110.516 634.086C110.703 634.086 110.895 634.102 111.09 634.133C111.285 634.156 111.445 634.191 111.57 634.238ZM119.609 644.141V638.492C119.609 638.086 119.543 637.738 119.41 637.449C119.277 637.152 119.07 636.922 118.789 636.758C118.516 636.594 118.16 636.512 117.723 636.512C117.348 636.512 117.023 636.578 116.75 636.711C116.477 636.836 116.266 637.02 116.117 637.262C115.969 637.496 115.895 637.773 115.895 638.094H112.52C112.52 637.555 112.645 637.043 112.895 636.559C113.145 636.074 113.508 635.648 113.984 635.281C114.461 634.906 115.027 634.613 115.684 634.402C116.348 634.191 117.09 634.086 117.91 634.086C118.895 634.086 119.77 634.25 120.535 634.578C121.301 634.906 121.902 635.398 122.34 636.055C122.785 636.711 123.008 637.531 123.008 638.516V643.941C123.008 644.637 123.051 645.207 123.137 645.652C123.223 646.09 123.348 646.473 123.512 646.801V647H120.102C119.938 646.656 119.812 646.227 119.727 645.711C119.648 645.188 119.609 644.664 119.609 644.141ZM120.055 639.277L120.078 641.188H118.191C117.746 641.188 117.359 641.238 117.031 641.34C116.703 641.441 116.434 641.586 116.223 641.773C116.012 641.953 115.855 642.164 115.754 642.406C115.66 642.648 115.613 642.914 115.613 643.203C115.613 643.492 115.68 643.754 115.812 643.988C115.945 644.215 116.137 644.395 116.387 644.527C116.637 644.652 116.93 644.715 117.266 644.715C117.773 644.715 118.215 644.613 118.59 644.41C118.965 644.207 119.254 643.957 119.457 643.66C119.668 643.363 119.777 643.082 119.785 642.816L120.676 644.246C120.551 644.566 120.379 644.898 120.16 645.242C119.949 645.586 119.68 645.91 119.352 646.215C119.023 646.512 118.629 646.758 118.168 646.953C117.707 647.141 117.16 647.234 116.527 647.234C115.723 647.234 114.992 647.074 114.336 646.754C113.688 646.426 113.172 645.977 112.789 645.406C112.414 644.828 112.227 644.172 112.227 643.438C112.227 642.773 112.352 642.184 112.602 641.668C112.852 641.152 113.219 640.719 113.703 640.367C114.195 640.008 114.809 639.738 115.543 639.559C116.277 639.371 117.129 639.277 118.098 639.277H120.055ZM128.914 637.027V647H125.539V634.32H128.703L128.914 637.027ZM128.422 640.215H127.508C127.508 639.277 127.629 638.434 127.871 637.684C128.113 636.926 128.453 636.281 128.891 635.75C129.328 635.211 129.848 634.801 130.449 634.52C131.059 634.23 131.738 634.086 132.488 634.086C133.082 634.086 133.625 634.172 134.117 634.344C134.609 634.516 135.031 634.789 135.383 635.164C135.742 635.539 136.016 636.035 136.203 636.652C136.398 637.27 136.496 638.023 136.496 638.914V647H133.098V638.902C133.098 638.34 133.02 637.902 132.863 637.59C132.707 637.277 132.477 637.059 132.172 636.934C131.875 636.801 131.508 636.734 131.07 636.734C130.617 636.734 130.223 636.824 129.887 637.004C129.559 637.184 129.285 637.434 129.066 637.754C128.855 638.066 128.695 638.434 128.586 638.855C128.477 639.277 128.422 639.73 128.422 640.215ZM145.918 643.496C145.918 643.254 145.848 643.035 145.707 642.84C145.566 642.645 145.305 642.465 144.922 642.301C144.547 642.129 144.004 641.973 143.293 641.832C142.652 641.691 142.055 641.516 141.5 641.305C140.953 641.086 140.477 640.824 140.07 640.52C139.672 640.215 139.359 639.855 139.133 639.441C138.906 639.02 138.793 638.539 138.793 638C138.793 637.469 138.906 636.969 139.133 636.5C139.367 636.031 139.699 635.617 140.129 635.258C140.566 634.891 141.098 634.605 141.723 634.402C142.355 634.191 143.066 634.086 143.855 634.086C144.957 634.086 145.902 634.262 146.691 634.613C147.488 634.965 148.098 635.449 148.52 636.066C148.949 636.676 149.164 637.371 149.164 638.152H145.789C145.789 637.824 145.719 637.531 145.578 637.273C145.445 637.008 145.234 636.801 144.945 636.652C144.664 636.496 144.297 636.418 143.844 636.418C143.469 636.418 143.145 636.484 142.871 636.617C142.598 636.742 142.387 636.914 142.238 637.133C142.098 637.344 142.027 637.578 142.027 637.836C142.027 638.031 142.066 638.207 142.145 638.363C142.23 638.512 142.367 638.648 142.555 638.773C142.742 638.898 142.984 639.016 143.281 639.125C143.586 639.227 143.961 639.32 144.406 639.406C145.32 639.594 146.137 639.84 146.855 640.145C147.574 640.441 148.145 640.848 148.566 641.363C148.988 641.871 149.199 642.539 149.199 643.367C149.199 643.93 149.074 644.445 148.824 644.914C148.574 645.383 148.215 645.793 147.746 646.145C147.277 646.488 146.715 646.758 146.059 646.953C145.41 647.141 144.68 647.234 143.867 647.234C142.688 647.234 141.688 647.023 140.867 646.602C140.055 646.18 139.438 645.645 139.016 644.996C138.602 644.34 138.395 643.668 138.395 642.98H141.594C141.609 643.441 141.727 643.812 141.945 644.094C142.172 644.375 142.457 644.578 142.801 644.703C143.152 644.828 143.531 644.891 143.938 644.891C144.375 644.891 144.738 644.832 145.027 644.715C145.316 644.59 145.535 644.426 145.684 644.223C145.84 644.012 145.918 643.77 145.918 643.496ZM158.234 644.141V638.492C158.234 638.086 158.168 637.738 158.035 637.449C157.902 637.152 157.695 636.922 157.414 636.758C157.141 636.594 156.785 636.512 156.348 636.512C155.973 636.512 155.648 636.578 155.375 636.711C155.102 636.836 154.891 637.02 154.742 637.262C154.594 637.496 154.52 637.773 154.52 638.094H151.145C151.145 637.555 151.27 637.043 151.52 636.559C151.77 636.074 152.133 635.648 152.609 635.281C153.086 634.906 153.652 634.613 154.309 634.402C154.973 634.191 155.715 634.086 156.535 634.086C157.52 634.086 158.395 634.25 159.16 634.578C159.926 634.906 160.527 635.398 160.965 636.055C161.41 636.711 161.633 637.531 161.633 638.516V643.941C161.633 644.637 161.676 645.207 161.762 645.652C161.848 646.09 161.973 646.473 162.137 646.801V647H158.727C158.562 646.656 158.438 646.227 158.352 645.711C158.273 645.188 158.234 644.664 158.234 644.141ZM158.68 639.277L158.703 641.188H156.816C156.371 641.188 155.984 641.238 155.656 641.34C155.328 641.441 155.059 641.586 154.848 641.773C154.637 641.953 154.48 642.164 154.379 642.406C154.285 642.648 154.238 642.914 154.238 643.203C154.238 643.492 154.305 643.754 154.438 643.988C154.57 644.215 154.762 644.395 155.012 644.527C155.262 644.652 155.555 644.715 155.891 644.715C156.398 644.715 156.84 644.613 157.215 644.41C157.59 644.207 157.879 643.957 158.082 643.66C158.293 643.363 158.402 643.082 158.41 642.816L159.301 644.246C159.176 644.566 159.004 644.898 158.785 645.242C158.574 645.586 158.305 645.91 157.977 646.215C157.648 646.512 157.254 646.758 156.793 646.953C156.332 647.141 155.785 647.234 155.152 647.234C154.348 647.234 153.617 647.074 152.961 646.754C152.312 646.426 151.797 645.977 151.414 645.406C151.039 644.828 150.852 644.172 150.852 643.438C150.852 642.773 150.977 642.184 151.227 641.668C151.477 641.152 151.844 640.719 152.328 640.367C152.82 640.008 153.434 639.738 154.168 639.559C154.902 639.371 155.754 639.277 156.723 639.277H158.68ZM169.473 644.598C169.887 644.598 170.254 644.52 170.574 644.363C170.895 644.199 171.145 643.973 171.324 643.684C171.512 643.387 171.609 643.039 171.617 642.641H174.793C174.785 643.531 174.547 644.324 174.078 645.02C173.609 645.707 172.98 646.25 172.191 646.648C171.402 647.039 170.52 647.234 169.543 647.234C168.559 647.234 167.699 647.07 166.965 646.742C166.238 646.414 165.633 645.961 165.148 645.383C164.664 644.797 164.301 644.117 164.059 643.344C163.816 642.562 163.695 641.727 163.695 640.836V640.496C163.695 639.598 163.816 638.762 164.059 637.988C164.301 637.207 164.664 636.527 165.148 635.949C165.633 635.363 166.238 634.906 166.965 634.578C167.691 634.25 168.543 634.086 169.52 634.086C170.559 634.086 171.469 634.285 172.25 634.684C173.039 635.082 173.656 635.652 174.102 636.395C174.555 637.129 174.785 638 174.793 639.008H171.617C171.609 638.586 171.52 638.203 171.348 637.859C171.184 637.516 170.941 637.242 170.621 637.039C170.309 636.828 169.922 636.723 169.461 636.723C168.969 636.723 168.566 636.828 168.254 637.039C167.941 637.242 167.699 637.523 167.527 637.883C167.355 638.234 167.234 638.637 167.164 639.09C167.102 639.535 167.07 640.004 167.07 640.496V640.836C167.07 641.328 167.102 641.801 167.164 642.254C167.227 642.707 167.344 643.109 167.516 643.461C167.695 643.812 167.941 644.09 168.254 644.293C168.566 644.496 168.973 644.598 169.473 644.598ZM182.961 634.32V636.711H175.578V634.32H182.961ZM177.406 631.191H180.781V643.18C180.781 643.547 180.828 643.828 180.922 644.023C181.023 644.219 181.172 644.355 181.367 644.434C181.562 644.504 181.809 644.539 182.105 644.539C182.316 644.539 182.504 644.531 182.668 644.516C182.84 644.492 182.984 644.469 183.102 644.445L183.113 646.93C182.824 647.023 182.512 647.098 182.176 647.152C181.84 647.207 181.469 647.234 181.062 647.234C180.32 647.234 179.672 647.113 179.117 646.871C178.57 646.621 178.148 646.223 177.852 645.676C177.555 645.129 177.406 644.41 177.406 643.52V631.191ZM188.445 634.32V647H185.059V634.32H188.445ZM184.848 631.016C184.848 630.523 185.02 630.117 185.363 629.797C185.707 629.477 186.168 629.316 186.746 629.316C187.316 629.316 187.773 629.477 188.117 629.797C188.469 630.117 188.645 630.523 188.645 631.016C188.645 631.508 188.469 631.914 188.117 632.234C187.773 632.555 187.316 632.715 186.746 632.715C186.168 632.715 185.707 632.555 185.363 632.234C185.02 631.914 184.848 631.508 184.848 631.016ZM190.695 640.789V640.543C190.695 639.613 190.828 638.758 191.094 637.977C191.359 637.188 191.746 636.504 192.254 635.926C192.762 635.348 193.387 634.898 194.129 634.578C194.871 634.25 195.723 634.086 196.684 634.086C197.645 634.086 198.5 634.25 199.25 634.578C200 634.898 200.629 635.348 201.137 635.926C201.652 636.504 202.043 637.188 202.309 637.977C202.574 638.758 202.707 639.613 202.707 640.543V640.789C202.707 641.711 202.574 642.566 202.309 643.355C202.043 644.137 201.652 644.82 201.137 645.406C200.629 645.984 200.004 646.434 199.262 646.754C198.52 647.074 197.668 647.234 196.707 647.234C195.746 647.234 194.891 647.074 194.141 646.754C193.398 646.434 192.77 645.984 192.254 645.406C191.746 644.82 191.359 644.137 191.094 643.355C190.828 642.566 190.695 641.711 190.695 640.789ZM194.07 640.543V640.789C194.07 641.32 194.117 641.816 194.211 642.277C194.305 642.738 194.453 643.145 194.656 643.496C194.867 643.84 195.141 644.109 195.477 644.305C195.812 644.5 196.223 644.598 196.707 644.598C197.176 644.598 197.578 644.5 197.914 644.305C198.25 644.109 198.52 643.84 198.723 643.496C198.926 643.145 199.074 642.738 199.168 642.277C199.27 641.816 199.32 641.32 199.32 640.789V640.543C199.32 640.027 199.27 639.543 199.168 639.09C199.074 638.629 198.922 638.223 198.711 637.871C198.508 637.512 198.238 637.23 197.902 637.027C197.566 636.824 197.16 636.723 196.684 636.723C196.207 636.723 195.801 636.824 195.465 637.027C195.137 637.23 194.867 637.512 194.656 637.871C194.453 638.223 194.305 638.629 194.211 639.09C194.117 639.543 194.07 640.027 194.07 640.543ZM208.086 637.027V647H204.711V634.32H207.875L208.086 637.027ZM207.594 640.215H206.68C206.68 639.277 206.801 638.434 207.043 637.684C207.285 636.926 207.625 636.281 208.062 635.75C208.5 635.211 209.02 634.801 209.621 634.52C210.23 634.23 210.91 634.086 211.66 634.086C212.254 634.086 212.797 634.172 213.289 634.344C213.781 634.516 214.203 634.789 214.555 635.164C214.914 635.539 215.188 636.035 215.375 636.652C215.57 637.27 215.668 638.023 215.668 638.914V647H212.27V638.902C212.27 638.34 212.191 637.902 212.035 637.59C211.879 637.277 211.648 637.059 211.344 636.934C211.047 636.801 210.68 636.734 210.242 636.734C209.789 636.734 209.395 636.824 209.059 637.004C208.73 637.184 208.457 637.434 208.238 637.754C208.027 638.066 207.867 638.434 207.758 638.855C207.648 639.277 207.594 639.73 207.594 640.215ZM231.066 643.496C231.066 643.254 230.996 643.035 230.855 642.84C230.715 642.645 230.453 642.465 230.07 642.301C229.695 642.129 229.152 641.973 228.441 641.832C227.801 641.691 227.203 641.516 226.648 641.305C226.102 641.086 225.625 640.824 225.219 640.52C224.82 640.215 224.508 639.855 224.281 639.441C224.055 639.02 223.941 638.539 223.941 638C223.941 637.469 224.055 636.969 224.281 636.5C224.516 636.031 224.848 635.617 225.277 635.258C225.715 634.891 226.246 634.605 226.871 634.402C227.504 634.191 228.215 634.086 229.004 634.086C230.105 634.086 231.051 634.262 231.84 634.613C232.637 634.965 233.246 635.449 233.668 636.066C234.098 636.676 234.312 637.371 234.312 638.152H230.938C230.938 637.824 230.867 637.531 230.727 637.273C230.594 637.008 230.383 636.801 230.094 636.652C229.812 636.496 229.445 636.418 228.992 636.418C228.617 636.418 228.293 636.484 228.02 636.617C227.746 636.742 227.535 636.914 227.387 637.133C227.246 637.344 227.176 637.578 227.176 637.836C227.176 638.031 227.215 638.207 227.293 638.363C227.379 638.512 227.516 638.648 227.703 638.773C227.891 638.898 228.133 639.016 228.43 639.125C228.734 639.227 229.109 639.32 229.555 639.406C230.469 639.594 231.285 639.84 232.004 640.145C232.723 640.441 233.293 640.848 233.715 641.363C234.137 641.871 234.348 642.539 234.348 643.367C234.348 643.93 234.223 644.445 233.973 644.914C233.723 645.383 233.363 645.793 232.895 646.145C232.426 646.488 231.863 646.758 231.207 646.953C230.559 647.141 229.828 647.234 229.016 647.234C227.836 647.234 226.836 647.023 226.016 646.602C225.203 646.18 224.586 645.645 224.164 644.996C223.75 644.34 223.543 643.668 223.543 642.98H226.742C226.758 643.441 226.875 643.812 227.094 644.094C227.32 644.375 227.605 644.578 227.949 644.703C228.301 644.828 228.68 644.891 229.086 644.891C229.523 644.891 229.887 644.832 230.176 644.715C230.465 644.59 230.684 644.426 230.832 644.223C230.988 644.012 231.066 643.77 231.066 643.496ZM244.039 643.965V634.32H247.414V647H244.238L244.039 643.965ZM244.414 641.363L245.41 641.34C245.41 642.184 245.312 642.969 245.117 643.695C244.922 644.414 244.629 645.039 244.238 645.57C243.848 646.094 243.355 646.504 242.762 646.801C242.168 647.09 241.469 647.234 240.664 647.234C240.047 647.234 239.477 647.148 238.953 646.977C238.438 646.797 237.992 646.52 237.617 646.145C237.25 645.762 236.961 645.273 236.75 644.68C236.547 644.078 236.445 643.355 236.445 642.512V634.32H239.82V642.535C239.82 642.91 239.863 643.227 239.949 643.484C240.043 643.742 240.172 643.953 240.336 644.117C240.5 644.281 240.691 644.398 240.91 644.469C241.137 644.539 241.387 644.574 241.66 644.574C242.355 644.574 242.902 644.434 243.301 644.152C243.707 643.871 243.992 643.488 244.156 643.004C244.328 642.512 244.414 641.965 244.414 641.363ZM255.23 644.598C255.645 644.598 256.012 644.52 256.332 644.363C256.652 644.199 256.902 643.973 257.082 643.684C257.27 643.387 257.367 643.039 257.375 642.641H260.551C260.543 643.531 260.305 644.324 259.836 645.02C259.367 645.707 258.738 646.25 257.949 646.648C257.16 647.039 256.277 647.234 255.301 647.234C254.316 647.234 253.457 647.07 252.723 646.742C251.996 646.414 251.391 645.961 250.906 645.383C250.422 644.797 250.059 644.117 249.816 643.344C249.574 642.562 249.453 641.727 249.453 640.836V640.496C249.453 639.598 249.574 638.762 249.816 637.988C250.059 637.207 250.422 636.527 250.906 635.949C251.391 635.363 251.996 634.906 252.723 634.578C253.449 634.25 254.301 634.086 255.277 634.086C256.316 634.086 257.227 634.285 258.008 634.684C258.797 635.082 259.414 635.652 259.859 636.395C260.312 637.129 260.543 638 260.551 639.008H257.375C257.367 638.586 257.277 638.203 257.105 637.859C256.941 637.516 256.699 637.242 256.379 637.039C256.066 636.828 255.68 636.723 255.219 636.723C254.727 636.723 254.324 636.828 254.012 637.039C253.699 637.242 253.457 637.523 253.285 637.883C253.113 638.234 252.992 638.637 252.922 639.09C252.859 639.535 252.828 640.004 252.828 640.496V640.836C252.828 641.328 252.859 641.801 252.922 642.254C252.984 642.707 253.102 643.109 253.273 643.461C253.453 643.812 253.699 644.09 254.012 644.293C254.324 644.496 254.73 644.598 255.23 644.598ZM267.746 644.598C268.16 644.598 268.527 644.52 268.848 644.363C269.168 644.199 269.418 643.973 269.598 643.684C269.785 643.387 269.883 643.039 269.891 642.641H273.066C273.059 643.531 272.82 644.324 272.352 645.02C271.883 645.707 271.254 646.25 270.465 646.648C269.676 647.039 268.793 647.234 267.816 647.234C266.832 647.234 265.973 647.07 265.238 646.742C264.512 646.414 263.906 645.961 263.422 645.383C262.938 644.797 262.574 644.117 262.332 643.344C262.09 642.562 261.969 641.727 261.969 640.836V640.496C261.969 639.598 262.09 638.762 262.332 637.988C262.574 637.207 262.938 636.527 263.422 635.949C263.906 635.363 264.512 634.906 265.238 634.578C265.965 634.25 266.816 634.086 267.793 634.086C268.832 634.086 269.742 634.285 270.523 634.684C271.312 635.082 271.93 635.652 272.375 636.395C272.828 637.129 273.059 638 273.066 639.008H269.891C269.883 638.586 269.793 638.203 269.621 637.859C269.457 637.516 269.215 637.242 268.895 637.039C268.582 636.828 268.195 636.723 267.734 636.723C267.242 636.723 266.84 636.828 266.527 637.039C266.215 637.242 265.973 637.523 265.801 637.883C265.629 638.234 265.508 638.637 265.438 639.09C265.375 639.535 265.344 640.004 265.344 640.496V640.836C265.344 641.328 265.375 641.801 265.438 642.254C265.5 642.707 265.617 643.109 265.789 643.461C265.969 643.812 266.215 644.09 266.527 644.293C266.84 644.496 267.246 644.598 267.746 644.598ZM280.859 647.234C279.875 647.234 278.992 647.078 278.211 646.766C277.43 646.445 276.766 646.004 276.219 645.441C275.68 644.879 275.266 644.227 274.977 643.484C274.688 642.734 274.543 641.938 274.543 641.094V640.625C274.543 639.664 274.68 638.785 274.953 637.988C275.227 637.191 275.617 636.5 276.125 635.914C276.641 635.328 277.266 634.879 278 634.566C278.734 634.246 279.562 634.086 280.484 634.086C281.383 634.086 282.18 634.234 282.875 634.531C283.57 634.828 284.152 635.25 284.621 635.797C285.098 636.344 285.457 637 285.699 637.766C285.941 638.523 286.062 639.367 286.062 640.297V641.703H275.984V639.453H282.746V639.195C282.746 638.727 282.66 638.309 282.488 637.941C282.324 637.566 282.074 637.27 281.738 637.051C281.402 636.832 280.973 636.723 280.449 636.723C280.004 636.723 279.621 636.82 279.301 637.016C278.98 637.211 278.719 637.484 278.516 637.836C278.32 638.188 278.172 638.602 278.07 639.078C277.977 639.547 277.93 640.062 277.93 640.625V641.094C277.93 641.602 278 642.07 278.141 642.5C278.289 642.93 278.496 643.301 278.762 643.613C279.035 643.926 279.363 644.168 279.746 644.34C280.137 644.512 280.578 644.598 281.07 644.598C281.68 644.598 282.246 644.48 282.77 644.246C283.301 644.004 283.758 643.641 284.141 643.156L285.781 644.938C285.516 645.32 285.152 645.688 284.691 646.039C284.238 646.391 283.691 646.68 283.051 646.906C282.41 647.125 281.68 647.234 280.859 647.234ZM294.84 643.496C294.84 643.254 294.77 643.035 294.629 642.84C294.488 642.645 294.227 642.465 293.844 642.301C293.469 642.129 292.926 641.973 292.215 641.832C291.574 641.691 290.977 641.516 290.422 641.305C289.875 641.086 289.398 640.824 288.992 640.52C288.594 640.215 288.281 639.855 288.055 639.441C287.828 639.02 287.715 638.539 287.715 638C287.715 637.469 287.828 636.969 288.055 636.5C288.289 636.031 288.621 635.617 289.051 635.258C289.488 634.891 290.02 634.605 290.645 634.402C291.277 634.191 291.988 634.086 292.777 634.086C293.879 634.086 294.824 634.262 295.613 634.613C296.41 634.965 297.02 635.449 297.441 636.066C297.871 636.676 298.086 637.371 298.086 638.152H294.711C294.711 637.824 294.641 637.531 294.5 637.273C294.367 637.008 294.156 636.801 293.867 636.652C293.586 636.496 293.219 636.418 292.766 636.418C292.391 636.418 292.066 636.484 291.793 636.617C291.52 636.742 291.309 636.914 291.16 637.133C291.02 637.344 290.949 637.578 290.949 637.836C290.949 638.031 290.988 638.207 291.066 638.363C291.152 638.512 291.289 638.648 291.477 638.773C291.664 638.898 291.906 639.016 292.203 639.125C292.508 639.227 292.883 639.32 293.328 639.406C294.242 639.594 295.059 639.84 295.777 640.145C296.496 640.441 297.066 640.848 297.488 641.363C297.91 641.871 298.121 642.539 298.121 643.367C298.121 643.93 297.996 644.445 297.746 644.914C297.496 645.383 297.137 645.793 296.668 646.145C296.199 646.488 295.637 646.758 294.98 646.953C294.332 647.141 293.602 647.234 292.789 647.234C291.609 647.234 290.609 647.023 289.789 646.602C288.977 646.18 288.359 645.645 287.938 644.996C287.523 644.34 287.316 643.668 287.316 642.98H290.516C290.531 643.441 290.648 643.812 290.867 644.094C291.094 644.375 291.379 644.578 291.723 644.703C292.074 644.828 292.453 644.891 292.859 644.891C293.297 644.891 293.66 644.832 293.949 644.715C294.238 644.59 294.457 644.426 294.605 644.223C294.762 644.012 294.84 643.77 294.84 643.496ZM307.168 643.496C307.168 643.254 307.098 643.035 306.957 642.84C306.816 642.645 306.555 642.465 306.172 642.301C305.797 642.129 305.254 641.973 304.543 641.832C303.902 641.691 303.305 641.516 302.75 641.305C302.203 641.086 301.727 640.824 301.32 640.52C300.922 640.215 300.609 639.855 300.383 639.441C300.156 639.02 300.043 638.539 300.043 638C300.043 637.469 300.156 636.969 300.383 636.5C300.617 636.031 300.949 635.617 301.379 635.258C301.816 634.891 302.348 634.605 302.973 634.402C303.605 634.191 304.316 634.086 305.105 634.086C306.207 634.086 307.152 634.262 307.941 634.613C308.738 634.965 309.348 635.449 309.77 636.066C310.199 636.676 310.414 637.371 310.414 638.152H307.039C307.039 637.824 306.969 637.531 306.828 637.273C306.695 637.008 306.484 636.801 306.195 636.652C305.914 636.496 305.547 636.418 305.094 636.418C304.719 636.418 304.395 636.484 304.121 636.617C303.848 636.742 303.637 636.914 303.488 637.133C303.348 637.344 303.277 637.578 303.277 637.836C303.277 638.031 303.316 638.207 303.395 638.363C303.48 638.512 303.617 638.648 303.805 638.773C303.992 638.898 304.234 639.016 304.531 639.125C304.836 639.227 305.211 639.32 305.656 639.406C306.57 639.594 307.387 639.84 308.105 640.145C308.824 640.441 309.395 640.848 309.816 641.363C310.238 641.871 310.449 642.539 310.449 643.367C310.449 643.93 310.324 644.445 310.074 644.914C309.824 645.383 309.465 645.793 308.996 646.145C308.527 646.488 307.965 646.758 307.309 646.953C306.66 647.141 305.93 647.234 305.117 647.234C303.938 647.234 302.938 647.023 302.117 646.602C301.305 646.18 300.688 645.645 300.266 644.996C299.852 644.34 299.645 643.668 299.645 642.98H302.844C302.859 643.441 302.977 643.812 303.195 644.094C303.422 644.375 303.707 644.578 304.051 644.703C304.402 644.828 304.781 644.891 305.188 644.891C305.625 644.891 305.988 644.832 306.277 644.715C306.566 644.59 306.785 644.426 306.934 644.223C307.09 644.012 307.168 643.77 307.168 643.496ZM316.941 647H313.543V633.195C313.543 632.234 313.73 631.426 314.105 630.77C314.488 630.105 315.023 629.605 315.711 629.27C316.406 628.926 317.23 628.754 318.184 628.754C318.496 628.754 318.797 628.777 319.086 628.824C319.375 628.863 319.656 628.914 319.93 628.977L319.895 631.52C319.746 631.48 319.59 631.453 319.426 631.438C319.262 631.422 319.07 631.414 318.852 631.414C318.445 631.414 318.098 631.484 317.809 631.625C317.527 631.758 317.312 631.957 317.164 632.223C317.016 632.488 316.941 632.812 316.941 633.195V647ZM319.473 634.32V636.711H311.656V634.32H319.473ZM328.742 643.965V634.32H332.117V647H328.941L328.742 643.965ZM329.117 641.363L330.113 641.34C330.113 642.184 330.016 642.969 329.82 643.695C329.625 644.414 329.332 645.039 328.941 645.57C328.551 646.094 328.059 646.504 327.465 646.801C326.871 647.09 326.172 647.234 325.367 647.234C324.75 647.234 324.18 647.148 323.656 646.977C323.141 646.797 322.695 646.52 322.32 646.145C321.953 645.762 321.664 645.273 321.453 644.68C321.25 644.078 321.148 643.355 321.148 642.512V634.32H324.523V642.535C324.523 642.91 324.566 643.227 324.652 643.484C324.746 643.742 324.875 643.953 325.039 644.117C325.203 644.281 325.395 644.398 325.613 644.469C325.84 644.539 326.09 644.574 326.363 644.574C327.059 644.574 327.605 644.434 328.004 644.152C328.41 643.871 328.695 643.488 328.859 643.004C329.031 642.512 329.117 641.965 329.117 641.363ZM338.258 629V647H334.871V629H338.258Z" fill="black"/>
<g opacity="0.5">
<path d="M25.0784 334.435L259.89 205.195L25.0784 334.435Z" fill="white"/>
<path d="M25.0784 334.435L259.89 205.195" stroke="#8BFFAC" stroke-width="92.0138" stroke-linecap="round"/>
</g>
<g opacity="0.5">
<path d="M80.9321 419.201L315.744 289.961L80.9321 419.201Z" fill="white"/>
<path d="M80.9321 419.201L315.744 289.961" stroke="#8BFFAC" stroke-width="92.0138" stroke-linecap="round"/>
</g>
<g opacity="0.5">
<path d="M375.89 257.484L394.191 247.278L375.89 257.484Z" fill="white"/>
<path d="M375.89 257.484L394.191 247.278" stroke="#8BFFAC" stroke-width="92.0138" stroke-linecap="round"/>
</g>
<g opacity="0.5">
<path d="M163.771 488.938L342.102 389.156L163.771 488.938Z" fill="white"/>
<path d="M163.771 488.938L342.102 389.156" stroke="#8BFFAC" stroke-width="92.0138" stroke-linecap="round"/>
</g>
<path d="M385.835 398.566C388.691 398.848 390.771 401.298 390.477 404.035C390.182 406.771 387.624 408.764 384.768 408.482C381.911 408.2 379.831 405.749 380.126 403.013C380.42 400.276 382.978 398.284 385.835 398.566Z" stroke="#8BFFAC" stroke-width="4.28355"/>
<path d="M82.4912 500.621C87.1884 501.085 90.609 505.115 90.1249 509.614C89.6408 514.114 85.434 517.391 80.7368 516.927C76.0396 516.463 72.6189 512.433 73.103 507.934C73.5872 503.434 77.794 500.157 82.4912 500.621Z" stroke="#8BFFAC" stroke-width="7.044"/>
<path d="M201.756 164.44C206.453 164.904 209.873 168.934 209.389 173.434C208.905 177.933 204.698 181.21 200.001 180.746C195.304 180.283 191.883 176.253 192.367 171.753C192.852 167.253 197.058 163.977 201.756 164.44Z" stroke="#8BFFAC" stroke-width="7.044"/>
<path d="M3.90885 271.164C6.06614 271.164 7.81769 272.842 7.81769 274.908C7.81769 276.975 6.06614 278.653 3.90885 278.653C1.75155 278.653 0 276.975 0 274.908C0 272.842 1.75155 271.164 3.90885 271.164Z" stroke="#8BFFAC" stroke-width="5.14888"/>
<path d="M307.505 515.346C309.662 515.346 311.414 517.024 311.414 519.091C311.414 521.157 309.662 522.835 307.505 522.835C305.348 522.835 303.596 521.157 303.596 519.091C303.596 517.024 305.348 515.346 307.505 515.346Z" stroke="#8BFFAC" stroke-width="5.14888"/>
<path d="M352.414 163.347L356.249 148.774" stroke="#8BFFAC" stroke-width="3"/>
<path d="M346.978 154.316L362.191 157.99" stroke="#8BFFAC" stroke-width="3"/>
<path d="M20.0947 408.695L23.3392 393.99" stroke="#8BFFAC" stroke-width="3"/>
<path d="M14.2986 399.871L29.6487 402.979" stroke="#8BFFAC" stroke-width="3"/>
<path d="M346.271 473.704L348.577 458.838" stroke="#8BFFAC" stroke-width="3"/>
<path d="M339.926 465.234L355.444 467.443" stroke="#8BFFAC" stroke-width="3"/>
<path d="M204.985 227.506C267.243 227.506 317.791 275.929 317.791 335.568C317.791 395.208 267.243 443.63 204.985 443.63C142.727 443.63 92.179 395.208 92.179 335.568C92.179 275.929 142.727 227.506 204.985 227.506Z" fill="#8BFFAC"/>
<path d="M204.915 237.726C261.285 237.726 307.052 281.569 307.052 335.568C307.052 389.567 261.285 433.41 204.915 433.41C148.546 433.41 102.778 389.567 102.778 335.568C102.778 281.569 148.546 237.726 204.915 237.726Z" fill="#15D24A"/>
<path d="M158.789 339.156L186.402 365.007L251.042 303.086" stroke="white" stroke-width="18"/>
</g>
<defs>
<filter id="filter0_d_28_654" x="12" y="24" width="32.2188" height="32.2188" filterUnits="userSpaceOnUse" color-interpolation-filters="sRGB">
<feFlood flood-opacity="0" result="BackgroundImageFix"/>
<feColorMatrix in="SourceAlpha" type="matrix" values="0 0 0 0 0 0 0 0 0 0 0 0 0 0 0 0 0 0 127 0" result="hardAlpha"/>
<feOffset dy="4"/>
<feGaussianBlur stdDeviation="2"/>
<feComposite in2="hardAlpha" operator="out"/>
<feColorMatrix type="matrix" values="0 0 0 0 0 0 0 0 0 0 0 0 0 0 0 0 0 0 0.25 0"/>
<feBlend mode="normal" in2="BackgroundImageFix" result="effect1_dropShadow_28_654"/>
<feBlend mode="normal" in="SourceGraphic" in2="effect1_dropShadow_28_654" result="shape"/>
</filter>
<linearGradient id="paint0_linear_28_654" x1="28.1094" y1="24" x2="28.1094" y2="48.2188" gradientUnits="userSpaceOnUse">
<stop stop-color="#00FFD1"/>
<stop offset="1" stop-color="#38A6BE" stop-opacity="0.84"/>
</linearGradient>
<clipPath id="clip0_28_654">
<rect width="414" height="896" rx="20" fill="white"/>
</clipPath>
</defs>
</svg>
