<svg width="360" height="360" viewBox="0 0 360 360" fill="none" xmlns="http://www.w3.org/2000/svg">
<path d="M251.35 180.133C251.35 140.726 219.404 108.782 179.999 108.782C140.594 108.782 108.648 140.726 108.648 180.133C108.648 219.54 140.594 251.484 179.999 251.484C219.404 251.484 251.35 219.54 251.35 180.133Z" fill="#DEE6F7"/>
<path d="M204.715 184.124C200.341 179.812 194.068 176.181 185.938 173.224V146.112C187.266 146.749 188.45 147.585 189.42 148.706C191.299 150.883 192.387 153.912 192.69 157.795C192.791 159.102 193.893 160.111 195.202 160.111H211.002L211.134 159.714C211.311 150.756 208.54 143.613 202.818 138.293C198.33 134.115 192.69 131.608 185.748 130.709V122.892C185.748 121.996 185.024 121.268 184.128 121.268H175.783C174.874 121.268 174.142 122.017 174.159 122.924L174.317 130.722C168.029 131.601 162.666 133.947 158.253 137.794C152.533 142.781 149.673 149.246 149.673 157.182C149.673 165.165 152.179 171.373 157.19 175.808C161.262 179.413 166.992 182.707 174.317 185.696V214.366C172.712 213.705 171.314 212.809 170.193 211.597C168.064 209.292 166.854 205.711 166.567 200.849C166.489 199.525 165.377 198.488 164.05 198.488H148.211L148.077 198.892C147.855 209.355 151.006 217.15 157.525 222.269C162.383 226.086 167.982 228.477 174.317 229.447V237.372C174.317 238.268 175.043 238.996 175.937 238.996H184.16C185.043 238.996 185.763 238.288 185.78 237.407L185.938 229.689C193.014 228.985 198.878 226.721 203.488 222.837C209.119 218.094 211.931 211.573 211.931 203.283C211.931 195.254 209.527 188.871 204.715 184.124ZM171.824 165.366C169.563 163.234 168.433 160.532 168.433 157.249C168.433 153.702 169.429 150.745 171.425 148.371C172.241 147.399 173.23 146.676 174.317 146.101V167.341C173.347 166.664 172.505 166.003 171.824 165.366ZM190.15 212.258C189.052 213.465 187.629 214.314 185.938 214.865V190.865C187.774 191.986 189.204 193.118 190.214 194.267C192.187 196.507 193.174 199.557 193.174 203.415C193.174 207.095 192.167 210.044 190.15 212.258Z" fill="#256BF4"/>
<path d="M217.723 90.1781L218.127 90.3475C221.335 91.6432 224.991 90.0962 226.286 86.8908C227.585 83.6811 226.039 80.0324 222.832 78.7322L222.621 78.6428C222.098 78.4199 221.558 78.2715 221.022 78.1979C218.285 77.8225 215.53 79.3 214.402 81.9611C213.049 85.1492 214.534 88.8269 217.723 90.1781Z" fill="#DEE6F7"/>
<path d="M239.849 103.121C242.564 105.268 246.513 104.796 248.657 102.073C250.8 99.3574 250.331 95.4156 247.613 93.2726L247.289 93.0234C246.407 92.3443 245.417 91.9479 244.404 91.8089C242.264 91.5154 240.031 92.3837 238.598 94.248C236.489 96.9918 237.105 101.01 239.849 103.121Z" fill="#DEE6F7"/>
<path d="M257.784 121.102C259.822 123.791 263.654 124.316 266.339 122.275C269.028 120.237 269.553 116.407 267.512 113.722L267.317 113.46C266.298 112.119 264.831 111.315 263.282 111.102C261.734 110.89 260.102 111.269 258.757 112.286C256.073 114.326 255.547 118.157 257.583 120.845L257.784 121.102Z" fill="#DEE6F7"/>
<path d="M270.689 143.108C271.929 146.03 275.299 147.389 278.223 146.147C281.142 144.907 282.501 141.539 281.258 138.621L281.186 138.434C280.388 136.454 278.611 135.164 276.638 134.893C275.678 134.761 274.675 134.869 273.714 135.255C270.772 136.439 269.344 139.785 270.53 142.726L270.689 143.108Z" fill="#DEE6F7"/>
<path d="M277.679 167.334L277.716 167.605C278.077 170.404 280.637 172.373 283.437 172.018C286.237 171.655 288.215 169.093 287.852 166.293L287.815 166.022C287.512 163.684 285.676 161.921 283.446 161.615C283.008 161.555 282.551 161.553 282.094 161.609C279.293 161.972 277.314 164.534 277.679 167.334Z" fill="#DEE6F7"/>
<path d="M276.377 192.912C269.682 241.716 227.568 277.1 179.558 276.724L187.935 270.368C190.7 268.272 191.241 264.327 189.143 261.562C188.092 260.177 186.581 259.351 184.99 259.133C183.396 258.914 181.72 259.302 180.334 260.354L160.334 275.528C157.566 277.626 157.025 281.572 159.126 284.337L174.301 304.337C176.396 307.105 180.346 307.647 183.109 305.546C185.875 303.448 186.416 299.502 184.318 296.737L178.665 289.29C233.229 290.114 281.233 250.024 288.833 194.621L288.856 194.454C289.328 191.017 286.91 187.926 283.471 187.454C280.032 186.982 276.849 189.471 276.377 192.912Z" fill="#DEE6F7"/>
<path d="M82.8077 192.24L82.7727 191.97C82.4696 189.632 80.6312 187.871 78.4016 187.565C77.9643 187.505 77.51 187.499 77.0486 187.559C74.2513 187.923 72.273 190.484 72.638 193.284L72.6732 193.552C73.0347 196.349 75.5969 198.322 78.3953 197.964C81.1923 197.603 83.1687 195.041 82.8077 192.24Z" fill="#256BF4"/>
<path d="M89.8014 216.417C88.984 214.485 87.2313 213.235 85.2945 212.969C84.301 212.833 83.2615 212.954 82.2744 213.377C79.3515 214.615 77.9918 217.987 79.2342 220.906L79.3057 221.084C80.4916 224.028 83.8354 225.454 86.7747 224.268C89.7203 223.082 91.1444 219.738 89.9627 216.795L89.8014 216.417Z" fill="#256BF4"/>
<path d="M102.716 238.363C101.697 237.02 100.232 236.219 98.6812 236.006C97.1352 235.794 95.5016 236.17 94.1628 237.19C91.4719 239.228 90.9461 243.061 92.9889 245.748L93.1802 246.005C95.216 248.694 99.0533 249.22 101.74 247.179C104.427 245.141 104.952 241.308 102.914 238.624L102.716 238.363Z" fill="#256BF4"/>
<path d="M120.648 256.333C119.739 255.616 118.694 255.193 117.626 255.047C115.493 254.754 113.272 255.566 111.847 257.38C109.702 260.096 110.171 264.035 112.891 266.179L113.21 266.429C115.955 268.532 119.787 267.946 121.902 265.2C124.009 262.456 123.391 258.443 120.648 256.333Z" fill="#256BF4"/>
<path d="M142.777 269.274L142.373 269.107C141.875 268.906 141.376 268.775 140.872 268.706C138.095 268.325 135.311 269.85 134.211 272.564C132.913 275.771 134.463 279.425 137.668 280.723L137.879 280.81C141.063 282.16 144.743 280.675 146.099 277.489C147.449 274.305 145.963 270.63 142.777 269.274Z" fill="#256BF4"/>
<path d="M77.0309 171.995C80.4701 172.467 83.6529 169.978 84.1247 166.539C90.8201 117.73 132.936 82.3515 180.941 82.7244L172.569 89.0807C169.802 91.1762 169.261 95.1215 171.361 97.8871C173.459 100.655 177.404 101.196 180.168 99.0951L200.17 83.9182C202.938 81.8226 203.479 77.8774 201.378 75.1141L186.201 55.1112C185.154 53.7289 183.642 52.9009 182.046 52.6819C180.452 52.4633 178.773 52.8535 177.395 53.9032C174.627 56.001 174.086 59.9462 176.187 62.7096L181.839 70.1615C127.275 69.3345 79.2691 109.422 71.6684 164.83L71.6461 164.992C71.1743 168.432 73.5894 171.523 77.0309 171.995Z" fill="#256BF4"/>
<path d="M251.35 180.133C251.35 140.726 219.404 108.782 179.999 108.782C140.594 108.782 108.648 140.726 108.648 180.133C108.648 219.54 140.594 251.484 179.999 251.484C219.404 251.484 251.35 219.54 251.35 180.133Z" fill="#DEE6F7"/>
<path d="M204.715 184.124C200.341 179.812 194.068 176.181 185.938 173.224V146.112C187.266 146.749 188.45 147.585 189.42 148.706C191.299 150.883 192.387 153.912 192.69 157.795C192.791 159.102 193.893 160.111 195.202 160.111H211.002L211.134 159.714C211.311 150.756 208.54 143.613 202.818 138.293C198.33 134.115 192.69 131.608 185.748 130.709V122.892C185.748 121.996 185.024 121.268 184.128 121.268H175.783C174.874 121.268 174.142 122.017 174.159 122.924L174.317 130.722C168.029 131.601 162.666 133.947 158.253 137.794C152.533 142.781 149.673 149.246 149.673 157.182C149.673 165.165 152.179 171.373 157.19 175.808C161.262 179.413 166.992 182.707 174.317 185.696V214.366C172.712 213.705 171.314 212.809 170.193 211.597C168.064 209.292 166.854 205.711 166.567 200.849C166.489 199.525 165.377 198.488 164.05 198.488H148.211L148.077 198.892C147.855 209.355 151.006 217.15 157.525 222.269C162.383 226.086 167.982 228.477 174.317 229.447V237.372C174.317 238.268 175.043 238.996 175.937 238.996H184.16C185.043 238.996 185.763 238.288 185.78 237.407L185.938 229.689C193.014 228.985 198.878 226.721 203.488 222.837C209.119 218.094 211.931 211.573 211.931 203.283C211.931 195.254 209.527 188.871 204.715 184.124ZM171.824 165.366C169.563 163.234 168.433 160.532 168.433 157.249C168.433 153.702 169.429 150.745 171.425 148.371C172.241 147.399 173.23 146.676 174.317 146.101V167.341C173.347 166.664 172.505 166.003 171.824 165.366ZM190.15 212.258C189.052 213.465 187.629 214.314 185.938 214.865V190.865C187.774 191.986 189.204 193.118 190.214 194.267C192.187 196.507 193.174 199.557 193.174 203.415C193.174 207.095 192.167 210.044 190.15 212.258Z" fill="#256BF4"/>
<path d="M217.723 90.1781L218.127 90.3475C221.335 91.6432 224.991 90.0962 226.286 86.8908C227.585 83.6811 226.039 80.0324 222.832 78.7322L222.621 78.6428C222.098 78.4199 221.558 78.2715 221.022 78.1979C218.285 77.8225 215.53 79.3 214.402 81.9611C213.049 85.1492 214.534 88.8269 217.723 90.1781Z" fill="#DEE6F7"/>
<path d="M239.849 103.121C242.564 105.268 246.513 104.796 248.657 102.073C250.8 99.3574 250.331 95.4156 247.613 93.2726L247.289 93.0234C246.407 92.3443 245.417 91.9479 244.404 91.8089C242.264 91.5154 240.031 92.3837 238.598 94.248C236.489 96.9918 237.105 101.01 239.849 103.121Z" fill="#DEE6F7"/>
<path d="M257.784 121.102C259.822 123.791 263.654 124.316 266.339 122.275C269.028 120.237 269.553 116.407 267.512 113.722L267.317 113.46C266.298 112.119 264.831 111.315 263.282 111.102C261.734 110.89 260.102 111.269 258.757 112.286C256.073 114.326 255.547 118.157 257.583 120.845L257.784 121.102Z" fill="#DEE6F7"/>
<path d="M270.689 143.108C271.929 146.03 275.299 147.389 278.223 146.147C281.142 144.907 282.501 141.539 281.258 138.621L281.186 138.434C280.388 136.454 278.611 135.164 276.638 134.893C275.678 134.761 274.675 134.869 273.714 135.255C270.772 136.439 269.344 139.785 270.53 142.726L270.689 143.108Z" fill="#DEE6F7"/>
<path d="M277.679 167.334L277.716 167.605C278.077 170.404 280.637 172.373 283.437 172.018C286.237 171.655 288.215 169.093 287.852 166.293L287.815 166.022C287.512 163.684 285.676 161.921 283.446 161.615C283.008 161.555 282.551 161.553 282.094 161.609C279.293 161.972 277.314 164.534 277.679 167.334Z" fill="#DEE6F7"/>
<path d="M276.377 192.912C269.682 241.716 227.568 277.1 179.558 276.724L187.935 270.368C190.7 268.272 191.241 264.327 189.143 261.562C188.092 260.177 186.581 259.351 184.99 259.133C183.396 258.914 181.72 259.302 180.334 260.354L160.334 275.528C157.566 277.626 157.025 281.572 159.126 284.337L174.301 304.337C176.396 307.105 180.346 307.647 183.109 305.546C185.875 303.448 186.416 299.502 184.318 296.737L178.665 289.29C233.229 290.114 281.233 250.024 288.833 194.621L288.856 194.454C289.328 191.017 286.91 187.926 283.471 187.454C280.032 186.982 276.849 189.471 276.377 192.912Z" fill="#DEE6F7"/>
<path d="M82.8077 192.24L82.7727 191.97C82.4696 189.632 80.6312 187.871 78.4016 187.565C77.9643 187.505 77.51 187.499 77.0486 187.559C74.2513 187.923 72.273 190.484 72.638 193.284L72.6732 193.552C73.0347 196.349 75.5969 198.322 78.3953 197.964C81.1923 197.603 83.1687 195.041 82.8077 192.24Z" fill="#256BF4"/>
<path d="M89.8014 216.417C88.984 214.485 87.2313 213.235 85.2945 212.969C84.301 212.833 83.2615 212.954 82.2744 213.377C79.3515 214.615 77.9918 217.987 79.2342 220.906L79.3057 221.084C80.4916 224.028 83.8354 225.454 86.7747 224.268C89.7203 223.082 91.1444 219.738 89.9627 216.795L89.8014 216.417Z" fill="#256BF4"/>
<path d="M102.716 238.363C101.697 237.02 100.232 236.219 98.6812 236.006C97.1352 235.794 95.5016 236.17 94.1628 237.19C91.4719 239.228 90.9461 243.061 92.9889 245.748L93.1802 246.005C95.216 248.694 99.0533 249.22 101.74 247.179C104.427 245.141 104.952 241.308 102.914 238.624L102.716 238.363Z" fill="#256BF4"/>
<path d="M120.648 256.333C119.739 255.616 118.694 255.193 117.626 255.047C115.493 254.754 113.272 255.566 111.847 257.38C109.702 260.096 110.171 264.035 112.891 266.179L113.21 266.429C115.955 268.532 119.787 267.946 121.902 265.2C124.009 262.456 123.391 258.443 120.648 256.333Z" fill="#256BF4"/>
<path d="M142.777 269.274L142.373 269.107C141.875 268.906 141.376 268.775 140.872 268.706C138.095 268.325 135.311 269.85 134.211 272.564C132.913 275.771 134.463 279.425 137.668 280.723L137.879 280.81C141.063 282.16 144.743 280.675 146.099 277.489C147.449 274.305 145.963 270.63 142.777 269.274Z" fill="#256BF4"/>
<path d="M77.0309 171.995C80.4701 172.467 83.6529 169.978 84.1247 166.539C90.8201 117.73 132.936 82.3515 180.941 82.7244L172.569 89.0807C169.802 91.1762 169.261 95.1215 171.361 97.8871C173.459 100.655 177.404 101.196 180.168 99.0951L200.17 83.9182C202.938 81.8226 203.479 77.8774 201.378 75.1141L186.201 55.1112C185.154 53.7289 183.642 52.9009 182.046 52.6819C180.452 52.4633 178.773 52.8535 177.395 53.9032C174.627 56.001 174.086 59.9462 176.187 62.7096L181.839 70.1615C127.275 69.3345 79.2691 109.422 71.6684 164.83L71.6461 164.992C71.1743 168.432 73.5894 171.523 77.0309 171.995Z" fill="#256BF4"/>
</svg>
