<svg width="414" height="422" viewBox="0 0 414 422" fill="none" xmlns="http://www.w3.org/2000/svg">
<path d="M327.774 433.267C315.427 509.745 321.6 477.879 309.254 547.984C309.254 547.984 181.645 547.621 -73.572 546.894C-118.588 546.894 -133.04 492.633 -110.532 452.386L9.84799 321.736C46.5391 256.108 80.8411 219.765 137.453 236L235.331 262.529C311.55 283.172 340.12 356.788 327.774 433.267Z" fill="#1BB3BB"/>
<path d="M250.61 238.884C276.213 248.186 302.126 293.391 291.566 334.071C288.899 344.348 269.95 356.591 255.227 341.703C241.266 327.59 239.911 286.008 219.743 267.567C222.83 254.821 225.916 245.261 229.003 242.074C244.436 245.261 249.471 238.473 250.61 238.884Z" fill="black"/>
<path d="M193.927 153.391C191.306 144.741 190.312 135.499 191.264 126.091C192.074 118.105 194.23 110.62 197.474 103.862C204.577 89.0521 216.939 77.6363 231.963 71.6162C242.494 67.3848 254.337 65.8049 266.601 67.5609C304.394 72.9638 331.919 107.927 328.096 145.66C327.813 148.486 322.439 165.774 321.642 168.333L319.713 174.493L307.091 231.167L298.999 227.15C298.559 227.665 298.11 228.172 297.651 228.669C294.446 232.163 290.738 235.193 286.609 237.656L278.846 242.335L273.958 245.273L273.49 245.547L273.251 245.7C267.955 248.883 261.728 252.26 255.159 255.142C246.881 258.777 237.777 257.992 230.293 253.968C228.664 256.065 226.994 258.416 225.406 260.979C223.228 264.485 221.553 268.29 220.254 272.234C220.254 272.234 217.834 277.968 217.612 277.997C206.504 290.188 188.345 294.542 171.718 287.546C152.151 279.318 141.418 258.194 145.845 238.469C145.771 238.382 145.741 238.32 145.76 238.286C154.552 222.25 149.856 231.311 162.982 214.028C168.565 206.667 175.15 202.275 186.877 179.898C188.91 176.012 194.246 163.123 195.466 160.632C195.53 160.499 195.609 160.318 195.697 160.094L193.927 153.391Z" fill="#C0543E"/>
<path d="M205.79 201.245L214.893 235.729C217.146 243.876 222.591 250.226 229.382 253.894C229.393 253.906 229.405 253.908 229.409 253.906C225.637 258.761 223.467 262.745 223.467 262.745C212.568 251.846 208.2 237.356 205.79 201.245ZM295.922 226.457L289.129 223.067C287.619 220.211 287.413 216.718 288.954 213.635L300.62 190.248L295.922 226.457Z" fill="#96432D"/>
<path d="M114.664 233.637C93.0578 210.764 90.4669 161.024 104.626 132.162C113.93 113.186 130.429 100.334 149.346 95.0877C152.276 94.2713 154.551 92.0761 155.498 89.1806L155.523 89.2214L155.52 89.1314L155.752 88.4183C156.31 86.7647 156.914 85.1378 157.549 83.5341C157.725 83.0987 157.903 82.6672 158.081 82.2386C172.441 48.2479 207.06 26.0666 246.425 29.3665C252.933 29.9128 259.253 31.1342 265.318 32.9454C265.991 32.9862 266.663 33.03 267.335 33.0899C290.081 34.9959 315.833 53.3563 329.717 70.1842C342.757 85.9858 341.014 95.1638 342.933 105.567C341.731 113.634 340.408 118.475 335.782 122.71C339.466 133.516 339.491 133.017 338.992 144.95C338.658 152.892 330.391 160.814 328.197 168.009L321.037 148.496L312.665 148.435C285.062 167.663 261.516 118.985 227.619 106.364C225.631 111.242 216.211 124.578 213.35 129.321C211.669 123.12 207.902 118.713 203.63 118.641C198.437 118.552 194.311 124.903 193.86 133.208L193.847 133.464L193.834 133.717L193.836 133.775L193.828 133.971L193.825 134.053L193.824 134.245L193.823 134.315L193.817 134.566L193.821 134.615L193.817 134.821L193.82 134.905L193.82 135.09L193.822 135.167L193.827 135.424L193.833 135.646L193.834 135.713L193.841 135.859L193.845 135.943L193.848 136.075L193.854 136.165L193.862 136.292L193.868 136.376L193.873 136.502L193.881 136.593L193.887 136.716L193.895 136.808L193.906 136.935L193.91 137.019L193.926 137.153L193.927 137.23L193.948 137.44L193.97 137.646L193.994 137.859L194.002 137.935L194.016 138.062L194.023 138.147L194.041 138.27L194.051 138.355L194.068 138.48L194.081 138.566L194.109 138.774L194.128 138.894L194.135 138.972L194.159 139.102L194.166 139.18L194.202 139.38L194.235 139.58L194.276 139.784L194.291 139.861L194.309 139.983L194.349 140.178L194.394 140.38L194.41 140.467L194.45 140.661L194.477 140.773L194.497 140.854L194.522 140.975L194.537 141.049L194.583 141.245L194.63 141.435L194.681 141.626L194.697 141.69L194.734 141.817L194.755 141.892L194.781 142.007L194.809 142.083L194.836 142.192L194.856 142.273L194.89 142.383L194.917 142.46L194.944 142.568L194.971 142.648L195.008 142.756L195.027 142.827L195.087 143.014L195.143 143.193L195.208 143.374L195.265 143.55L195.293 143.621L195.333 143.732L195.355 143.801L195.396 143.906L195.424 143.98L195.458 144.084L195.487 144.154L195.531 144.26L195.559 144.334L195.6 144.436L195.623 144.502L195.669 144.615L195.693 144.675L195.763 144.845L195.837 145.012L195.912 145.176L195.983 145.343L196.016 145.405L196.061 145.505L196.09 145.575L196.14 145.667L196.214 145.831L196.249 145.9L196.293 145.993L196.329 146.056L196.405 146.211L196.485 146.366L196.567 146.523L196.653 146.677L196.738 146.824L196.768 146.883L196.825 146.976L196.855 147.034L196.909 147.12L196.946 147.183L196.996 147.271L197.029 147.333L197.087 147.417L197.125 147.473L197.21 147.618L197.279 147.723C198.913 150.252 201.01 151.965 203.305 152.433C208.07 174.014 212.801 209.514 195.887 220.733C195.862 220.749 195.84 220.764 195.814 220.78C192.346 223.063 187.715 222.53 184.554 219.714L184.495 219.774L173.472 205.648C170.993 202.789 154.936 226.472 152.877 229.631C143.825 243.509 124.666 229.625 114.664 233.637Z" fill="#0F0F0F"/>
<path d="M184.178 336.925C184.178 336.925 153.509 228.957 125.599 215.165L96.8501 233.705L116.849 311.461L184.178 336.925Z" fill="#1BB3BB"/>
<path d="M278.222 441.294L179.489 438.409C176.679 438.327 174.45 435.926 174.511 433.047L175.76 373.921C175.821 371.042 178.149 368.777 180.96 368.859L279.692 371.743C282.502 371.826 284.732 374.224 284.671 377.103L283.421 436.228C283.36 439.108 281.032 441.376 278.222 441.294Z" fill="white"/>
<path d="M259.573 400.096C259 399.713 258.414 399.359 258.051 398.598C257.558 397.568 257.507 395.721 257.256 394.371C256.947 394.588 256.038 394.979 255.651 392.422C255.143 389.101 255.228 387.313 256.349 386.986C256.721 386.879 256.949 386.994 257.082 387.131C257.793 379.535 260.538 377.786 265.003 377.983C269.459 378.177 272.076 380.146 272.263 387.759C272.417 387.677 272.635 387.636 272.947 387.75C274.105 388.175 274.064 389.969 273.293 393.239C272.754 395.524 271.938 395.353 271.561 395.117C271.163 396.619 271.109 398.575 270.428 399.63C270.107 400.13 269.656 400.435 269.173 400.675L268.951 411.187C268.95 411.257 268.942 411.324 268.934 411.393L268.94 411.718C268.918 415.838 258.794 415.173 259.33 411.594C259.337 411.559 259.343 411.422 259.354 411.203C259.343 411.107 259.342 411.009 259.344 410.907L259.573 400.096Z" fill="#C0543E"/>
<path d="M269.163 400.734C269.163 400.734 266.772 402.254 264.311 402.252C261.852 402.247 259.575 400.276 259.575 400.276C259.575 400.276 260.47 401.51 264.284 403.51C267.571 402.293 269.163 400.734 269.163 400.734ZM264.459 395.202C263.951 395.353 263.451 394.928 263.488 394.373L263.721 390.81L264.459 395.202Z" fill="#C0543E"/>
<path d="M255.895 388.014C255.184 388.658 255.188 390.375 255.618 393.21C256.007 395.768 256.911 395.375 257.22 395.158C257.732 397.929 258.803 400.068 260.241 401.426C260.372 403.306 260.421 404.919 260.388 406.488C260.354 407.981 259.767 409.636 259.274 410.811C255.226 411.322 249.952 411.622 250.761 409.57C252.049 406.295 252.956 397.968 253.266 389.047C253.575 380.126 257.731 375.765 264.837 376.071L264.998 376.079C272.107 376.386 275.949 381.098 275.643 390.016C275.333 398.939 275.665 407.319 276.722 410.691C277.402 412.87 271.855 412.008 267.815 411.121C267.129 408.806 266.836 404.197 267.413 402.246C269.235 401.123 270.695 398.95 271.503 395.903C271.88 396.136 272.695 396.31 273.233 394.024C273.968 390.904 274.033 389.136 273.028 388.61C272.947 390.948 272.564 392.809 272.564 392.809L271.796 392.774C271.999 386.956 269.654 382.141 269.654 382.141C267.422 385.223 263.261 385.531 260.854 386.617C256.91 388.387 257.002 392.135 257.002 392.135L256.24 392.1C255.997 390.357 255.885 389.066 255.895 388.014Z" fill="black"/>
<path d="M187.615 373.781C185.949 373.732 184.566 375.072 184.53 376.778L184.329 386.265C184.293 387.968 185.617 389.388 187.283 389.436L209.233 390.078C210.899 390.127 212.279 388.786 212.315 387.083L212.516 377.597C212.552 375.891 211.23 374.471 209.564 374.422L187.615 373.781Z" fill="#EB0000"/>
<path d="M235.132 431.178L243.171 431.412L243.082 435.592L235.044 435.358L235.132 431.178ZM224.772 430.876L232.814 431.11L232.725 435.29L224.683 435.056L224.772 430.876ZM207.516 402.913L228.363 403.52L228.295 406.726L207.448 406.118L207.516 402.913ZM207.285 409.894L228.134 410.502L228.067 413.713L207.217 413.105L207.285 409.894ZM214.384 430.573L222.423 430.807L222.335 434.987L214.296 434.753L214.384 430.573ZM204.027 430.271L212.066 430.505L211.978 434.685L203.939 434.451L204.027 430.271ZM183.715 409.206L204.562 409.814L204.494 413.026L183.647 412.418L183.715 409.206ZM183.804 402.221L204.651 402.829L204.583 406.034L183.736 405.427L183.804 402.221ZM193.648 429.968L201.687 430.203L201.599 434.383L193.56 434.148L193.648 429.968ZM183.288 429.666L191.33 429.901L191.242 434.081L183.2 433.846L183.288 429.666Z" fill="#C3DEE7"/>
<path d="M93.644 435.815L113.743 393.81C118.171 384.548 125.679 377.243 134.899 373.182L135.971 372.722L170.237 358.767C175.835 357.601 181.66 359.177 186.003 363.025L214.391 388.194C218.117 391.497 218.356 397.333 214.912 400.893C211.779 404.132 206.725 404.301 203.345 401.294L183.224 383.374L216.474 423.87C219.368 427.4 218.995 432.64 215.63 435.653C212.354 438.592 207.393 438.377 204.33 435.161L189.681 419.801L187.933 421.639L198.941 444.759C200.323 447.66 199.727 451.11 197.519 453.325L197.111 453.7C193.914 456.448 189.096 455.85 186.603 452.383C183.315 447.82 178.748 441.499 174.542 435.731L170.495 439.987L172.707 452.954C173.142 455.513 171.999 458.048 169.872 459.364L169.433 459.612C167.067 460.809 164.207 460.306 162.347 458.366L157.667 453.473L156.989 454.187L147.257 461.401C144.017 463.808 140.669 466.044 137.232 468.112C133.005 470.664 128.63 472.968 124.135 475.002C107.423 480.946 70.3889 473.754 93.644 435.815Z" fill="#C0543E"/>
<path d="M334.921 566.125L412.867 426.737C416.549 420.158 411.948 411.938 404.591 411.938L350.294 411.051C346.879 411.051 343.724 412.932 342.018 415.985L264.065 555.369C260.387 561.945 264.987 570.168 272.348 570.168L326.642 571.052C330.057 571.052 333.215 569.178 334.921 566.125Z" fill="#070707"/>
</svg>
